<?xml version="1.0" standalone="no"?>
<svg width="567.429" height="363.368" viewBox="0 0 567.429 363.368" xmlns="http://www.w3.org/2000/svg" shape-rendering="crispEdges">
<title>
pixel_diagram_365mV_HEPHY_top.svg
</title>
<desc>
Creator: ROOT Version 6.30/04
CreationDate: Wed May 15 09:20:24 2024</desc>
<defs>
</defs>
<rect x="0.5" y="0" width="566.929" height="362.868" fill="white"/>
<rect x="57.1929" y="36.2868" width="453.543" height="290.295" fill="white"/>
<rect x="57.1929" y="36.2868" width="453.543" height="290.295" fill="none" stroke="black"/>
<rect x="57.1929" y="36.2868" width="453.543" height="290.295" fill="white"/>
<rect x="57.1929" y="36.2868" width="453.543" height="290.295" fill="none" stroke="black"/>
<path d="M57.1929,326.581h 18.0515v -1.23978h 2.25643v 1.23978h 6.7693v -1.23978h 11.2822v -2.47956h 2.25643v -1.23978h 2.25643v 2.47956h 6.7693v -2.47956h 2.25643v 2.47956h 2.25643v -2.47956h 2.25643v 2.47956h 2.25643v -4.95912h 2.25643v 3.71934h
 2.25643v 1.23978h 2.25643v 2.47956h 2.25643v -7.43868h 2.25643v -2.47956h 2.25643v 2.47956h 4.51287v -2.47956h 2.25643v 4.95912h 2.25643v 1.23978h 2.25643v 2.47956h 4.51287v -2.47956h 2.25643v 3.71934h 4.51287v -2.47956h 2.25643v 1.23978h 2.25643v
 1.23978h 2.25643v -3.71934h 2.25643v 2.47956h 4.51287v 1.23978h 4.51287v -1.23978h 4.51287v 1.23978h 4.51287v -1.23978h 2.25643v 1.23978h 11.2822v -2.47956h 2.25643v 2.47956h 2.25643v -1.23978h 4.51287v 1.23978h 4.51287v -1.23978h 4.51287v 1.23978h
 18.0515v -1.23978h 2.25643v 1.23978h 13.5386v -2.47956h 2.25643v 2.47956h 11.2822v -1.23978h 2.25643v 1.23978h 9.02574v -1.23978h 2.25643v -1.23978h 2.25643v 1.23978h 2.25643v 1.23978h 2.25643v -2.47956h 4.51287v 2.47956h 4.51287v -1.23978h 4.51287v
 -1.23978h 2.25643v 2.47956h 2.25643v -1.23978h 2.25643v -1.23978h 2.25643v -2.47956h 2.25643v 3.71934h 2.25643v 1.23978h 2.25643v -1.23978h 9.02574v 1.23978h 2.25643v -3.71934h 2.25643v 3.71934h 9.02574v -4.95912h 2.25643v 2.47956h 2.25643v 2.47956h
 6.7693v -2.47956h 2.25643v 2.47956h 2.25643v -1.23978h 2.25643v 1.23978h 2.25643v -1.23978h 2.25643v 1.23978h 2.25643v -3.71934h 2.25643v 2.47956h 4.51287v -1.23978h 2.25643v 1.23978h 4.51287v -2.47956h 2.25643v 3.71934h 4.51287v -3.71934h 4.51287v
 -1.23978h 2.25643v 1.23978h 2.25643v 2.47956h 2.25643v -1.23978h 2.25643v -4.95912h 2.25643v 1.23978h 2.25643v 2.47956h 2.25643v -7.43868h 2.25643v 2.47956h 4.51287v -3.71934h 2.25643v 7.43868h 2.25643v -7.43868h 2.25643v -8.67846h 2.25643v 3.71934h
 2.25643v -6.1989h 2.25643v 8.67846h 2.25643v -12.3978h 4.51287v -1.23978h 2.25643v -4.95912h 2.25643v 1.23978h 2.25643v -9.91824h 2.25643v -9.91824h 2.25643v 9.91824h 2.25643v -17.3569h 2.25643v -14.8774h 2.25643v -7.43868h 2.25643v -27.2752h
 2.25643v -21.0763h 2.25643v -39.673h 2.25643v 24.7956h 2.25643v -28.5149h 2.25643v -37.1934h 2.25643v -24.7956h 2.25643v 28.5149h 2.25643v -6.1989h 2.25643v -59.5094h 2.25643v 39.673h 2.25643v -43.3923h 2.25643v 48.3514h 2.25643v 17.3569h 2.25643v
 3.71934h 2.25643v 23.5558h 2.25643v 28.5149h 2.25643v 33.4741h 2.25643v 27.2752h 2.25643v 30.9945h 2.25643v 11.158h 2.25643v 21.0763h 2.25643v 8.67846h 2.25643v 8.67846h 2.25643v 9.91824h 4.51287v 3.71934h 2.25643v -1.23978h 2.25643v 1.23978h
 4.51287" fill="none" stroke="#000099"/>
<rect x="56.6482" y="36.0354" width="113.134" height="57.8243" fill="white"/>
<path d="M56.6482,93.8597h 113.134" fill="none" stroke="black"/>
<path d="M169.783,93.8597v -57.8243" fill="none" stroke="black"/>
<path d="M169.783,36.0354h -113.134" fill="none" stroke="black"/>
<path d="M56.6482,36.0354v 57.8243" fill="none" stroke="black"/>
<text xml:space="preserve" x="69.2187" y="46.5108" fill="black" font-size="12.7014" font-family="Helvetica">hPixelEfficiency</text>
<path d="M56.6482,50.4915h 113.134" fill="none" stroke="black"/>
<text xml:space="preserve" x="62.0954" y="62.0144" fill="black" font-size="12.5467" font-family="Helvetica">Entries </text>
<text xml:space="preserve" x="133.747" y="62.0144" fill="black" font-size="12.5467" font-family="Helvetica"> 3740</text>
<text xml:space="preserve" x="62.0954" y="76.68" fill="black" font-size="12.5467" font-family="Helvetica">Mean  </text>
<text xml:space="preserve" x="125.786" y="76.68" fill="black" font-size="12.5467" font-family="Helvetica"> 0.8671</text>
<text xml:space="preserve" x="62.0954" y="90.9266" fill="black" font-size="12.5467" font-family="Helvetica">Std Dev   </text>
<text xml:space="preserve" x="123.691" y="90.9266" fill="black" font-size="12.5467" font-family="Helvetica"> 0.1333</text>
<path d="M57.1929,326.581h 453.543" fill="none" stroke="black"/>
<path d="M57.1929,317.873v 8.70884" fill="none" stroke="black"/>
<path d="M79.7573,322.227v 4.35442" fill="none" stroke="black"/>
<path d="M102.322,322.227v 4.35442" fill="none" stroke="black"/>
<path d="M124.886,322.227v 4.35442" fill="none" stroke="black"/>
<path d="M147.45,317.873v 8.70884" fill="none" stroke="black"/>
<path d="M170.015,322.227v 4.35442" fill="none" stroke="black"/>
<path d="M192.579,322.227v 4.35442" fill="none" stroke="black"/>
<path d="M215.143,322.227v 4.35442" fill="none" stroke="black"/>
<path d="M237.708,317.873v 8.70884" fill="none" stroke="black"/>
<path d="M260.272,322.227v 4.35442" fill="none" stroke="black"/>
<path d="M282.836,322.227v 4.35442" fill="none" stroke="black"/>
<path d="M305.401,322.227v 4.35442" fill="none" stroke="black"/>
<path d="M327.965,317.873v 8.70884" fill="none" stroke="black"/>
<path d="M350.529,322.227v 4.35442" fill="none" stroke="black"/>
<path d="M373.094,322.227v 4.35442" fill="none" stroke="black"/>
<path d="M395.658,322.227v 4.35442" fill="none" stroke="black"/>
<path d="M418.222,317.873v 8.70884" fill="none" stroke="black"/>
<path d="M440.787,322.227v 4.35442" fill="none" stroke="black"/>
<path d="M463.351,322.227v 4.35442" fill="none" stroke="black"/>
<path d="M485.915,322.227v 4.35442" fill="none" stroke="black"/>
<path d="M508.48,317.873v 8.70884" fill="none" stroke="black"/>
<path d="M508.48,317.873v 8.70884" fill="none" stroke="black"/>
<text xml:space="preserve" x="53.7151" y="338.146" fill="black" font-size="12.1517" font-family="Helvetica">0</text>
<text xml:space="preserve" x="139.194" y="338.146" fill="black" font-size="12.1517" font-family="Helvetica">0.2</text>
<text xml:space="preserve" x="229.702" y="338.146" fill="black" font-size="12.1517" font-family="Helvetica">0.4</text>
<text xml:space="preserve" x="319.79" y="338.146" fill="black" font-size="12.1517" font-family="Helvetica">0.6</text>
<text xml:space="preserve" x="409.879" y="338.146" fill="black" font-size="12.1517" font-family="Helvetica">0.8</text>
<text xml:space="preserve" x="506.253" y="338.146" fill="black" font-size="12.1517" font-family="Helvetica">1</text>
<text xml:space="preserve" x="396.889" y="349.879" fill="black" font-size="12.1517" font-family="Helvetica"> single pixel efficiency</text>
<path d="M57.1929,326.581v -290.295" fill="none" stroke="black"/>
<path d="M70.7992,326.581h -13.6063" fill="none" stroke="black"/>
<path d="M63.9961,320.382h -6.80315" fill="none" stroke="black"/>
<path d="M63.9961,314.184h -6.80315" fill="none" stroke="black"/>
<path d="M63.9961,307.985h -6.80315" fill="none" stroke="black"/>
<path d="M70.7992,301.786h -13.6063" fill="none" stroke="black"/>
<path d="M63.9961,295.587h -6.80315" fill="none" stroke="black"/>
<path d="M63.9961,289.388h -6.80315" fill="none" stroke="black"/>
<path d="M63.9961,283.189h -6.80315" fill="none" stroke="black"/>
<path d="M70.7992,276.99h -13.6063" fill="none" stroke="black"/>
<path d="M63.9961,270.791h -6.80315" fill="none" stroke="black"/>
<path d="M63.9961,264.592h -6.80315" fill="none" stroke="black"/>
<path d="M63.9961,258.393h -6.80315" fill="none" stroke="black"/>
<path d="M70.7992,252.195h -13.6063" fill="none" stroke="black"/>
<path d="M63.9961,245.996h -6.80315" fill="none" stroke="black"/>
<path d="M63.9961,239.797h -6.80315" fill="none" stroke="black"/>
<path d="M63.9961,233.598h -6.80315" fill="none" stroke="black"/>
<path d="M70.7992,227.399h -13.6063" fill="none" stroke="black"/>
<path d="M63.9961,221.2h -6.80315" fill="none" stroke="black"/>
<path d="M63.9961,215.001h -6.80315" fill="none" stroke="black"/>
<path d="M63.9961,208.802h -6.80315" fill="none" stroke="black"/>
<path d="M70.7992,202.603h -13.6063" fill="none" stroke="black"/>
<path d="M63.9961,196.404h -6.80315" fill="none" stroke="black"/>
<path d="M63.9961,190.206h -6.80315" fill="none" stroke="black"/>
<path d="M63.9961,184.007h -6.80315" fill="none" stroke="black"/>
<path d="M70.7992,177.808h -13.6063" fill="none" stroke="black"/>
<path d="M63.9961,171.609h -6.80315" fill="none" stroke="black"/>
<path d="M63.9961,165.41h -6.80315" fill="none" stroke="black"/>
<path d="M63.9961,159.211h -6.80315" fill="none" stroke="black"/>
<path d="M70.7992,153.012h -13.6063" fill="none" stroke="black"/>
<path d="M63.9961,146.813h -6.80315" fill="none" stroke="black"/>
<path d="M63.9961,140.614h -6.80315" fill="none" stroke="black"/>
<path d="M63.9961,134.415h -6.80315" fill="none" stroke="black"/>
<path d="M70.7992,128.217h -13.6063" fill="none" stroke="black"/>
<path d="M63.9961,122.018h -6.80315" fill="none" stroke="black"/>
<path d="M63.9961,115.819h -6.80315" fill="none" stroke="black"/>
<path d="M63.9961,109.62h -6.80315" fill="none" stroke="black"/>
<path d="M70.7992,103.421h -13.6063" fill="none" stroke="black"/>
<path d="M63.9961,97.222h -6.80315" fill="none" stroke="black"/>
<path d="M63.9961,91.0231h -6.80315" fill="none" stroke="black"/>
<path d="M63.9961,84.8242h -6.80315" fill="none" stroke="black"/>
<path d="M70.7992,78.6253h -13.6063" fill="none" stroke="black"/>
<path d="M63.9961,72.4264h -6.80315" fill="none" stroke="black"/>
<path d="M63.9961,66.2275h -6.80315" fill="none" stroke="black"/>
<path d="M63.9961,60.0286h -6.80315" fill="none" stroke="black"/>
<path d="M70.7992,53.8297h -13.6063" fill="none" stroke="black"/>
<path d="M70.7992,53.8297h -13.6063" fill="none" stroke="black"/>
<path d="M63.9961,47.6308h -6.80315" fill="none" stroke="black"/>
<path d="M63.9961,41.4319h -6.80315" fill="none" stroke="black"/>
<text xml:space="preserve" x="47.8489" y="330.604" fill="black" font-size="12.1517" font-family="Helvetica">0</text>
<text xml:space="preserve" x="41.5636" y="305.882" fill="black" font-size="12.1517" font-family="Helvetica">20</text>
<text xml:space="preserve" x="41.5636" y="281.16" fill="black" font-size="12.1517" font-family="Helvetica">40</text>
<text xml:space="preserve" x="41.5636" y="256.019" fill="black" font-size="12.1517" font-family="Helvetica">60</text>
<text xml:space="preserve" x="41.5636" y="231.297" fill="black" font-size="12.1517" font-family="Helvetica">80</text>
<text xml:space="preserve" x="34.8593" y="206.575" fill="black" font-size="12.1517" font-family="Helvetica">100</text>
<text xml:space="preserve" x="34.8593" y="181.853" fill="black" font-size="12.1517" font-family="Helvetica">120</text>
<text xml:space="preserve" x="34.8593" y="157.131" fill="black" font-size="12.1517" font-family="Helvetica">140</text>
<text xml:space="preserve" x="34.8593" y="131.99" fill="black" font-size="12.1517" font-family="Helvetica">160</text>
<text xml:space="preserve" x="34.8593" y="107.268" fill="black" font-size="12.1517" font-family="Helvetica">180</text>
<text xml:space="preserve" x="34.8593" y="82.5462" fill="black" font-size="12.1517" font-family="Helvetica">200</text>
<text xml:space="preserve" x="34.8593" y="57.8243" fill="black" font-size="12.1517" font-family="Helvetica">220</text>
<g transform="rotate(-90,21.8698,84.2223)">
<text xml:space="preserve" x="21.8698" y="84.2223" fill="black" font-size="12.1517" font-family="Helvetica"> # entries</text>
</g>
<rect x="56.6482" y="36.0354" width="113.134" height="57.8243" fill="white"/>
<path d="M56.6482,93.8597h 113.134" fill="none" stroke="black"/>
<path d="M169.783,93.8597v -57.8243" fill="none" stroke="black"/>
<path d="M169.783,36.0354h -113.134" fill="none" stroke="black"/>
<path d="M56.6482,36.0354v 57.8243" fill="none" stroke="black"/>
<text xml:space="preserve" x="69.2187" y="46.5108" fill="black" font-size="12.7014" font-family="Helvetica">hPixelEfficiency</text>
<path d="M56.6482,50.4915h 113.134" fill="none" stroke="black"/>
<text xml:space="preserve" x="62.0954" y="62.0144" fill="black" font-size="12.5467" font-family="Helvetica">Entries </text>
<text xml:space="preserve" x="133.747" y="62.0144" fill="black" font-size="12.5467" font-family="Helvetica"> 3740</text>
<text xml:space="preserve" x="62.0954" y="76.68" fill="black" font-size="12.5467" font-family="Helvetica">Mean  </text>
<text xml:space="preserve" x="125.786" y="76.68" fill="black" font-size="12.5467" font-family="Helvetica"> 0.8671</text>
<text xml:space="preserve" x="62.0954" y="90.9266" fill="black" font-size="12.5467" font-family="Helvetica">Std Dev   </text>
<text xml:space="preserve" x="123.691" y="90.9266" fill="black" font-size="12.5467" font-family="Helvetica"> 0.1333</text>
<text xml:space="preserve" x="223.417" y="17.5987" fill="black" font-size="17.3606" font-family="Helvetica">hPixelEfficiency</text></svg>
