<?xml version="1.0" encoding="utf-8" standalone="no"?>
<!DOCTYPE svg PUBLIC "-//W3C//DTD SVG 1.1//EN"
  "http://www.w3.org/Graphics/SVG/1.1/DTD/svg11.dtd">
<svg xmlns:xlink="http://www.w3.org/1999/xlink" width="720pt" height="360pt" viewBox="0 0 720 360" xmlns="http://www.w3.org/2000/svg" version="1.1">
 <metadata>
  <rdf:RDF xmlns:dc="http://purl.org/dc/elements/1.1/" xmlns:cc="http://creativecommons.org/ns#" xmlns:rdf="http://www.w3.org/1999/02/22-rdf-syntax-ns#">
   <cc:Work>
    <dc:type rdf:resource="http://purl.org/dc/dcmitype/StillImage"/>
    <dc:date>2024-05-13T12:21:50.786234</dc:date>
    <dc:format>image/svg+xml</dc:format>
    <dc:creator>
     <cc:Agent>
      <dc:title>Matplotlib v3.8.4, https://matplotlib.org/</dc:title>
     </cc:Agent>
    </dc:creator>
   </cc:Work>
  </rdf:RDF>
 </metadata>
 <defs>
  <style type="text/css">*{stroke-linejoin: round; stroke-linecap: butt}</style>
 </defs>
 <g id="figure_1">
  <g id="patch_1">
   <path d="M 0 360 
L 720 360 
L 720 0 
L 0 0 
z
" style="fill: #ffffff"/>
  </g>
  <g id="axes_1">
   <g id="patch_2">
    <path d="M 57.08 318.04 
L 694.98 318.04 
L 694.98 28.32 
L 57.08 28.32 
z
" style="fill: #ffffff"/>
   </g>
   <g id="PolyCollection_1"/>
   <g id="PolyCollection_2"/>
   <g id="matplotlib.axis_1">
    <g id="xtick_1">
     <g id="line2d_1">
      <path d="M 57.08 318.04 
L 57.08 28.32 
" clip-path="url(#pb9b813462e)" style="fill: none; stroke: #b0b0b0; stroke-width: 0.8; stroke-linecap: square"/>
     </g>
     <g id="line2d_2">
      <defs>
       <path id="m57fedc7114" d="M 0 0 
L 0 3.5 
" style="stroke: #000000; stroke-width: 0.8"/>
      </defs>
      <g>
       <use xlink:href="#m57fedc7114" x="57.08" y="318.04" style="stroke: #000000; stroke-width: 0.8"/>
      </g>
     </g>
     <g id="text_1">
      <!-- -100.0 -->
      <g transform="translate(40.962031 332.638438) scale(0.1 -0.1)">
       <defs>
        <path id="DejaVuSans-2d" d="M 313 2009 
L 1997 2009 
L 1997 1497 
L 313 1497 
L 313 2009 
z
" transform="scale(0.015625)"/>
        <path id="DejaVuSans-31" d="M 794 531 
L 1825 531 
L 1825 4091 
L 703 3866 
L 703 4441 
L 1819 4666 
L 2450 4666 
L 2450 531 
L 3481 531 
L 3481 0 
L 794 0 
L 794 531 
z
" transform="scale(0.015625)"/>
        <path id="DejaVuSans-30" d="M 2034 4250 
Q 1547 4250 1301 3770 
Q 1056 3291 1056 2328 
Q 1056 1369 1301 889 
Q 1547 409 2034 409 
Q 2525 409 2770 889 
Q 3016 1369 3016 2328 
Q 3016 3291 2770 3770 
Q 2525 4250 2034 4250 
z
M 2034 4750 
Q 2819 4750 3233 4129 
Q 3647 3509 3647 2328 
Q 3647 1150 3233 529 
Q 2819 -91 2034 -91 
Q 1250 -91 836 529 
Q 422 1150 422 2328 
Q 422 3509 836 4129 
Q 1250 4750 2034 4750 
z
" transform="scale(0.015625)"/>
        <path id="DejaVuSans-2e" d="M 684 794 
L 1344 794 
L 1344 0 
L 684 0 
L 684 794 
z
" transform="scale(0.015625)"/>
       </defs>
       <use xlink:href="#DejaVuSans-2d"/>
       <use xlink:href="#DejaVuSans-31" x="36.083984"/>
       <use xlink:href="#DejaVuSans-30" x="99.707031"/>
       <use xlink:href="#DejaVuSans-30" x="163.330078"/>
       <use xlink:href="#DejaVuSans-2e" x="226.953125"/>
       <use xlink:href="#DejaVuSans-30" x="258.740234"/>
      </g>
     </g>
    </g>
    <g id="xtick_2">
     <g id="line2d_3">
      <path d="M 148.208571 318.04 
L 148.208571 28.32 
" clip-path="url(#pb9b813462e)" style="fill: none; stroke: #b0b0b0; stroke-width: 0.8; stroke-linecap: square"/>
     </g>
     <g id="line2d_4">
      <g>
       <use xlink:href="#m57fedc7114" x="148.208571" y="318.04" style="stroke: #000000; stroke-width: 0.8"/>
      </g>
     </g>
     <g id="text_2">
      <!-- 0.0 -->
      <g transform="translate(140.257009 332.638438) scale(0.1 -0.1)">
       <use xlink:href="#DejaVuSans-30"/>
       <use xlink:href="#DejaVuSans-2e" x="63.623047"/>
       <use xlink:href="#DejaVuSans-30" x="95.410156"/>
      </g>
     </g>
    </g>
    <g id="xtick_3">
     <g id="line2d_5">
      <path d="M 239.337143 318.04 
L 239.337143 28.32 
" clip-path="url(#pb9b813462e)" style="fill: none; stroke: #b0b0b0; stroke-width: 0.8; stroke-linecap: square"/>
     </g>
     <g id="line2d_6">
      <g>
       <use xlink:href="#m57fedc7114" x="239.337143" y="318.04" style="stroke: #000000; stroke-width: 0.8"/>
      </g>
     </g>
     <g id="text_3">
      <!-- 100.0 -->
      <g transform="translate(225.02308 332.638438) scale(0.1 -0.1)">
       <use xlink:href="#DejaVuSans-31"/>
       <use xlink:href="#DejaVuSans-30" x="63.623047"/>
       <use xlink:href="#DejaVuSans-30" x="127.246094"/>
       <use xlink:href="#DejaVuSans-2e" x="190.869141"/>
       <use xlink:href="#DejaVuSans-30" x="222.65625"/>
      </g>
     </g>
    </g>
    <g id="xtick_4">
     <g id="line2d_7">
      <path d="M 330.465714 318.04 
L 330.465714 28.32 
" clip-path="url(#pb9b813462e)" style="fill: none; stroke: #b0b0b0; stroke-width: 0.8; stroke-linecap: square"/>
     </g>
     <g id="line2d_8">
      <g>
       <use xlink:href="#m57fedc7114" x="330.465714" y="318.04" style="stroke: #000000; stroke-width: 0.8"/>
      </g>
     </g>
     <g id="text_4">
      <!-- 200.0 -->
      <g transform="translate(316.151652 332.638438) scale(0.1 -0.1)">
       <defs>
        <path id="DejaVuSans-32" d="M 1228 531 
L 3431 531 
L 3431 0 
L 469 0 
L 469 531 
Q 828 903 1448 1529 
Q 2069 2156 2228 2338 
Q 2531 2678 2651 2914 
Q 2772 3150 2772 3378 
Q 2772 3750 2511 3984 
Q 2250 4219 1831 4219 
Q 1534 4219 1204 4116 
Q 875 4013 500 3803 
L 500 4441 
Q 881 4594 1212 4672 
Q 1544 4750 1819 4750 
Q 2544 4750 2975 4387 
Q 3406 4025 3406 3419 
Q 3406 3131 3298 2873 
Q 3191 2616 2906 2266 
Q 2828 2175 2409 1742 
Q 1991 1309 1228 531 
z
" transform="scale(0.015625)"/>
       </defs>
       <use xlink:href="#DejaVuSans-32"/>
       <use xlink:href="#DejaVuSans-30" x="63.623047"/>
       <use xlink:href="#DejaVuSans-30" x="127.246094"/>
       <use xlink:href="#DejaVuSans-2e" x="190.869141"/>
       <use xlink:href="#DejaVuSans-30" x="222.65625"/>
      </g>
     </g>
    </g>
    <g id="xtick_5">
     <g id="line2d_9">
      <path d="M 421.594286 318.04 
L 421.594286 28.32 
" clip-path="url(#pb9b813462e)" style="fill: none; stroke: #b0b0b0; stroke-width: 0.8; stroke-linecap: square"/>
     </g>
     <g id="line2d_10">
      <g>
       <use xlink:href="#m57fedc7114" x="421.594286" y="318.04" style="stroke: #000000; stroke-width: 0.8"/>
      </g>
     </g>
     <g id="text_5">
      <!-- 300.0 -->
      <g transform="translate(407.280223 332.638438) scale(0.1 -0.1)">
       <defs>
        <path id="DejaVuSans-33" d="M 2597 2516 
Q 3050 2419 3304 2112 
Q 3559 1806 3559 1356 
Q 3559 666 3084 287 
Q 2609 -91 1734 -91 
Q 1441 -91 1130 -33 
Q 819 25 488 141 
L 488 750 
Q 750 597 1062 519 
Q 1375 441 1716 441 
Q 2309 441 2620 675 
Q 2931 909 2931 1356 
Q 2931 1769 2642 2001 
Q 2353 2234 1838 2234 
L 1294 2234 
L 1294 2753 
L 1863 2753 
Q 2328 2753 2575 2939 
Q 2822 3125 2822 3475 
Q 2822 3834 2567 4026 
Q 2313 4219 1838 4219 
Q 1578 4219 1281 4162 
Q 984 4106 628 3988 
L 628 4550 
Q 988 4650 1302 4700 
Q 1616 4750 1894 4750 
Q 2613 4750 3031 4423 
Q 3450 4097 3450 3541 
Q 3450 3153 3228 2886 
Q 3006 2619 2597 2516 
z
" transform="scale(0.015625)"/>
       </defs>
       <use xlink:href="#DejaVuSans-33"/>
       <use xlink:href="#DejaVuSans-30" x="63.623047"/>
       <use xlink:href="#DejaVuSans-30" x="127.246094"/>
       <use xlink:href="#DejaVuSans-2e" x="190.869141"/>
       <use xlink:href="#DejaVuSans-30" x="222.65625"/>
      </g>
     </g>
    </g>
    <g id="xtick_6">
     <g id="line2d_11">
      <path d="M 512.722857 318.04 
L 512.722857 28.32 
" clip-path="url(#pb9b813462e)" style="fill: none; stroke: #b0b0b0; stroke-width: 0.8; stroke-linecap: square"/>
     </g>
     <g id="line2d_12">
      <g>
       <use xlink:href="#m57fedc7114" x="512.722857" y="318.04" style="stroke: #000000; stroke-width: 0.8"/>
      </g>
     </g>
     <g id="text_6">
      <!-- 400.0 -->
      <g transform="translate(498.408795 332.638438) scale(0.1 -0.1)">
       <defs>
        <path id="DejaVuSans-34" d="M 2419 4116 
L 825 1625 
L 2419 1625 
L 2419 4116 
z
M 2253 4666 
L 3047 4666 
L 3047 1625 
L 3713 1625 
L 3713 1100 
L 3047 1100 
L 3047 0 
L 2419 0 
L 2419 1100 
L 313 1100 
L 313 1709 
L 2253 4666 
z
" transform="scale(0.015625)"/>
       </defs>
       <use xlink:href="#DejaVuSans-34"/>
       <use xlink:href="#DejaVuSans-30" x="63.623047"/>
       <use xlink:href="#DejaVuSans-30" x="127.246094"/>
       <use xlink:href="#DejaVuSans-2e" x="190.869141"/>
       <use xlink:href="#DejaVuSans-30" x="222.65625"/>
      </g>
     </g>
    </g>
    <g id="xtick_7">
     <g id="line2d_13">
      <path d="M 603.851429 318.04 
L 603.851429 28.32 
" clip-path="url(#pb9b813462e)" style="fill: none; stroke: #b0b0b0; stroke-width: 0.8; stroke-linecap: square"/>
     </g>
     <g id="line2d_14">
      <g>
       <use xlink:href="#m57fedc7114" x="603.851429" y="318.04" style="stroke: #000000; stroke-width: 0.8"/>
      </g>
     </g>
     <g id="text_7">
      <!-- 500.0 -->
      <g transform="translate(589.537366 332.638438) scale(0.1 -0.1)">
       <defs>
        <path id="DejaVuSans-35" d="M 691 4666 
L 3169 4666 
L 3169 4134 
L 1269 4134 
L 1269 2991 
Q 1406 3038 1543 3061 
Q 1681 3084 1819 3084 
Q 2600 3084 3056 2656 
Q 3513 2228 3513 1497 
Q 3513 744 3044 326 
Q 2575 -91 1722 -91 
Q 1428 -91 1123 -41 
Q 819 9 494 109 
L 494 744 
Q 775 591 1075 516 
Q 1375 441 1709 441 
Q 2250 441 2565 725 
Q 2881 1009 2881 1497 
Q 2881 1984 2565 2268 
Q 2250 2553 1709 2553 
Q 1456 2553 1204 2497 
Q 953 2441 691 2322 
L 691 4666 
z
" transform="scale(0.015625)"/>
       </defs>
       <use xlink:href="#DejaVuSans-35"/>
       <use xlink:href="#DejaVuSans-30" x="63.623047"/>
       <use xlink:href="#DejaVuSans-30" x="127.246094"/>
       <use xlink:href="#DejaVuSans-2e" x="190.869141"/>
       <use xlink:href="#DejaVuSans-30" x="222.65625"/>
      </g>
     </g>
    </g>
    <g id="xtick_8">
     <g id="line2d_15">
      <path d="M 694.98 318.04 
L 694.98 28.32 
" clip-path="url(#pb9b813462e)" style="fill: none; stroke: #b0b0b0; stroke-width: 0.8; stroke-linecap: square"/>
     </g>
     <g id="line2d_16">
      <g>
       <use xlink:href="#m57fedc7114" x="694.98" y="318.04" style="stroke: #000000; stroke-width: 0.8"/>
      </g>
     </g>
     <g id="text_8">
      <!-- 600.0 -->
      <g transform="translate(680.665937 332.638438) scale(0.1 -0.1)">
       <defs>
        <path id="DejaVuSans-36" d="M 2113 2584 
Q 1688 2584 1439 2293 
Q 1191 2003 1191 1497 
Q 1191 994 1439 701 
Q 1688 409 2113 409 
Q 2538 409 2786 701 
Q 3034 994 3034 1497 
Q 3034 2003 2786 2293 
Q 2538 2584 2113 2584 
z
M 3366 4563 
L 3366 3988 
Q 3128 4100 2886 4159 
Q 2644 4219 2406 4219 
Q 1781 4219 1451 3797 
Q 1122 3375 1075 2522 
Q 1259 2794 1537 2939 
Q 1816 3084 2150 3084 
Q 2853 3084 3261 2657 
Q 3669 2231 3669 1497 
Q 3669 778 3244 343 
Q 2819 -91 2113 -91 
Q 1303 -91 875 529 
Q 447 1150 447 2328 
Q 447 3434 972 4092 
Q 1497 4750 2381 4750 
Q 2619 4750 2861 4703 
Q 3103 4656 3366 4563 
z
" transform="scale(0.015625)"/>
       </defs>
       <use xlink:href="#DejaVuSans-36"/>
       <use xlink:href="#DejaVuSans-30" x="63.623047"/>
       <use xlink:href="#DejaVuSans-30" x="127.246094"/>
       <use xlink:href="#DejaVuSans-2e" x="190.869141"/>
       <use xlink:href="#DejaVuSans-30" x="222.65625"/>
      </g>
     </g>
    </g>
    <g id="text_9">
     <!-- Bias (V) -->
     <g transform="translate(356.630781 346.316563) scale(0.1 -0.1)">
      <defs>
       <path id="DejaVuSans-42" d="M 1259 2228 
L 1259 519 
L 2272 519 
Q 2781 519 3026 730 
Q 3272 941 3272 1375 
Q 3272 1813 3026 2020 
Q 2781 2228 2272 2228 
L 1259 2228 
z
M 1259 4147 
L 1259 2741 
L 2194 2741 
Q 2656 2741 2882 2914 
Q 3109 3088 3109 3444 
Q 3109 3797 2882 3972 
Q 2656 4147 2194 4147 
L 1259 4147 
z
M 628 4666 
L 2241 4666 
Q 2963 4666 3353 4366 
Q 3744 4066 3744 3513 
Q 3744 3084 3544 2831 
Q 3344 2578 2956 2516 
Q 3422 2416 3680 2098 
Q 3938 1781 3938 1306 
Q 3938 681 3513 340 
Q 3088 0 2303 0 
L 628 0 
L 628 4666 
z
" transform="scale(0.015625)"/>
       <path id="DejaVuSans-69" d="M 603 3500 
L 1178 3500 
L 1178 0 
L 603 0 
L 603 3500 
z
M 603 4863 
L 1178 4863 
L 1178 4134 
L 603 4134 
L 603 4863 
z
" transform="scale(0.015625)"/>
       <path id="DejaVuSans-61" d="M 2194 1759 
Q 1497 1759 1228 1600 
Q 959 1441 959 1056 
Q 959 750 1161 570 
Q 1363 391 1709 391 
Q 2188 391 2477 730 
Q 2766 1069 2766 1631 
L 2766 1759 
L 2194 1759 
z
M 3341 1997 
L 3341 0 
L 2766 0 
L 2766 531 
Q 2569 213 2275 61 
Q 1981 -91 1556 -91 
Q 1019 -91 701 211 
Q 384 513 384 1019 
Q 384 1609 779 1909 
Q 1175 2209 1959 2209 
L 2766 2209 
L 2766 2266 
Q 2766 2663 2505 2880 
Q 2244 3097 1772 3097 
Q 1472 3097 1187 3025 
Q 903 2953 641 2809 
L 641 3341 
Q 956 3463 1253 3523 
Q 1550 3584 1831 3584 
Q 2591 3584 2966 3190 
Q 3341 2797 3341 1997 
z
" transform="scale(0.015625)"/>
       <path id="DejaVuSans-73" d="M 2834 3397 
L 2834 2853 
Q 2591 2978 2328 3040 
Q 2066 3103 1784 3103 
Q 1356 3103 1142 2972 
Q 928 2841 928 2578 
Q 928 2378 1081 2264 
Q 1234 2150 1697 2047 
L 1894 2003 
Q 2506 1872 2764 1633 
Q 3022 1394 3022 966 
Q 3022 478 2636 193 
Q 2250 -91 1575 -91 
Q 1294 -91 989 -36 
Q 684 19 347 128 
L 347 722 
Q 666 556 975 473 
Q 1284 391 1588 391 
Q 1994 391 2212 530 
Q 2431 669 2431 922 
Q 2431 1156 2273 1281 
Q 2116 1406 1581 1522 
L 1381 1569 
Q 847 1681 609 1914 
Q 372 2147 372 2553 
Q 372 3047 722 3315 
Q 1072 3584 1716 3584 
Q 2034 3584 2315 3537 
Q 2597 3491 2834 3397 
z
" transform="scale(0.015625)"/>
       <path id="DejaVuSans-20" transform="scale(0.015625)"/>
       <path id="DejaVuSans-28" d="M 1984 4856 
Q 1566 4138 1362 3434 
Q 1159 2731 1159 2009 
Q 1159 1288 1364 580 
Q 1569 -128 1984 -844 
L 1484 -844 
Q 1016 -109 783 600 
Q 550 1309 550 2009 
Q 550 2706 781 3412 
Q 1013 4119 1484 4856 
L 1984 4856 
z
" transform="scale(0.015625)"/>
       <path id="DejaVuSans-56" d="M 1831 0 
L 50 4666 
L 709 4666 
L 2188 738 
L 3669 4666 
L 4325 4666 
L 2547 0 
L 1831 0 
z
" transform="scale(0.015625)"/>
       <path id="DejaVuSans-29" d="M 513 4856 
L 1013 4856 
Q 1481 4119 1714 3412 
Q 1947 2706 1947 2009 
Q 1947 1309 1714 600 
Q 1481 -109 1013 -844 
L 513 -844 
Q 928 -128 1133 580 
Q 1338 1288 1338 2009 
Q 1338 2731 1133 3434 
Q 928 4138 513 4856 
z
" transform="scale(0.015625)"/>
      </defs>
      <use xlink:href="#DejaVuSans-42"/>
      <use xlink:href="#DejaVuSans-69" x="68.603516"/>
      <use xlink:href="#DejaVuSans-61" x="96.386719"/>
      <use xlink:href="#DejaVuSans-73" x="157.666016"/>
      <use xlink:href="#DejaVuSans-20" x="209.765625"/>
      <use xlink:href="#DejaVuSans-28" x="241.552734"/>
      <use xlink:href="#DejaVuSans-56" x="280.566406"/>
      <use xlink:href="#DejaVuSans-29" x="348.974609"/>
     </g>
    </g>
   </g>
   <g id="matplotlib.axis_2">
    <g id="ytick_1">
     <g id="line2d_17">
      <path d="M 57.08 318.04 
L 694.98 318.04 
" clip-path="url(#pb9b813462e)" style="fill: none; stroke: #b0b0b0; stroke-width: 0.8; stroke-linecap: square"/>
     </g>
     <g id="line2d_18">
      <defs>
       <path id="m91f70f507b" d="M 0 0 
L -3.5 0 
" style="stroke: #000000; stroke-width: 0.8"/>
      </defs>
      <g>
       <use xlink:href="#m91f70f507b" x="57.08" y="318.04" style="stroke: #000000; stroke-width: 0.8"/>
      </g>
     </g>
     <g id="text_10">
      <!-- 19.0 -->
      <g transform="translate(27.814375 321.839219) scale(0.1 -0.1)">
       <defs>
        <path id="DejaVuSans-39" d="M 703 97 
L 703 672 
Q 941 559 1184 500 
Q 1428 441 1663 441 
Q 2288 441 2617 861 
Q 2947 1281 2994 2138 
Q 2813 1869 2534 1725 
Q 2256 1581 1919 1581 
Q 1219 1581 811 2004 
Q 403 2428 403 3163 
Q 403 3881 828 4315 
Q 1253 4750 1959 4750 
Q 2769 4750 3195 4129 
Q 3622 3509 3622 2328 
Q 3622 1225 3098 567 
Q 2575 -91 1691 -91 
Q 1453 -91 1209 -44 
Q 966 3 703 97 
z
M 1959 2075 
Q 2384 2075 2632 2365 
Q 2881 2656 2881 3163 
Q 2881 3666 2632 3958 
Q 2384 4250 1959 4250 
Q 1534 4250 1286 3958 
Q 1038 3666 1038 3163 
Q 1038 2656 1286 2365 
Q 1534 2075 1959 2075 
z
" transform="scale(0.015625)"/>
       </defs>
       <use xlink:href="#DejaVuSans-31"/>
       <use xlink:href="#DejaVuSans-39" x="63.623047"/>
       <use xlink:href="#DejaVuSans-2e" x="127.246094"/>
       <use xlink:href="#DejaVuSans-30" x="159.033203"/>
      </g>
     </g>
    </g>
    <g id="ytick_2">
     <g id="line2d_19">
      <path d="M 57.08 276.651429 
L 694.98 276.651429 
" clip-path="url(#pb9b813462e)" style="fill: none; stroke: #b0b0b0; stroke-width: 0.8; stroke-linecap: square"/>
     </g>
     <g id="line2d_20">
      <g>
       <use xlink:href="#m91f70f507b" x="57.08" y="276.651429" style="stroke: #000000; stroke-width: 0.8"/>
      </g>
     </g>
     <g id="text_11">
      <!-- 19.2 -->
      <g transform="translate(27.814375 280.450647) scale(0.1 -0.1)">
       <use xlink:href="#DejaVuSans-31"/>
       <use xlink:href="#DejaVuSans-39" x="63.623047"/>
       <use xlink:href="#DejaVuSans-2e" x="127.246094"/>
       <use xlink:href="#DejaVuSans-32" x="159.033203"/>
      </g>
     </g>
    </g>
    <g id="ytick_3">
     <g id="line2d_21">
      <path d="M 57.08 235.262857 
L 694.98 235.262857 
" clip-path="url(#pb9b813462e)" style="fill: none; stroke: #b0b0b0; stroke-width: 0.8; stroke-linecap: square"/>
     </g>
     <g id="line2d_22">
      <g>
       <use xlink:href="#m91f70f507b" x="57.08" y="235.262857" style="stroke: #000000; stroke-width: 0.8"/>
      </g>
     </g>
     <g id="text_12">
      <!-- 19.4 -->
      <g transform="translate(27.814375 239.062076) scale(0.1 -0.1)">
       <use xlink:href="#DejaVuSans-31"/>
       <use xlink:href="#DejaVuSans-39" x="63.623047"/>
       <use xlink:href="#DejaVuSans-2e" x="127.246094"/>
       <use xlink:href="#DejaVuSans-34" x="159.033203"/>
      </g>
     </g>
    </g>
    <g id="ytick_4">
     <g id="line2d_23">
      <path d="M 57.08 193.874286 
L 694.98 193.874286 
" clip-path="url(#pb9b813462e)" style="fill: none; stroke: #b0b0b0; stroke-width: 0.8; stroke-linecap: square"/>
     </g>
     <g id="line2d_24">
      <g>
       <use xlink:href="#m91f70f507b" x="57.08" y="193.874286" style="stroke: #000000; stroke-width: 0.8"/>
      </g>
     </g>
     <g id="text_13">
      <!-- 19.6 -->
      <g transform="translate(27.814375 197.673504) scale(0.1 -0.1)">
       <use xlink:href="#DejaVuSans-31"/>
       <use xlink:href="#DejaVuSans-39" x="63.623047"/>
       <use xlink:href="#DejaVuSans-2e" x="127.246094"/>
       <use xlink:href="#DejaVuSans-36" x="159.033203"/>
      </g>
     </g>
    </g>
    <g id="ytick_5">
     <g id="line2d_25">
      <path d="M 57.08 152.485714 
L 694.98 152.485714 
" clip-path="url(#pb9b813462e)" style="fill: none; stroke: #b0b0b0; stroke-width: 0.8; stroke-linecap: square"/>
     </g>
     <g id="line2d_26">
      <g>
       <use xlink:href="#m91f70f507b" x="57.08" y="152.485714" style="stroke: #000000; stroke-width: 0.8"/>
      </g>
     </g>
     <g id="text_14">
      <!-- 19.8 -->
      <g transform="translate(27.814375 156.284933) scale(0.1 -0.1)">
       <defs>
        <path id="DejaVuSans-38" d="M 2034 2216 
Q 1584 2216 1326 1975 
Q 1069 1734 1069 1313 
Q 1069 891 1326 650 
Q 1584 409 2034 409 
Q 2484 409 2743 651 
Q 3003 894 3003 1313 
Q 3003 1734 2745 1975 
Q 2488 2216 2034 2216 
z
M 1403 2484 
Q 997 2584 770 2862 
Q 544 3141 544 3541 
Q 544 4100 942 4425 
Q 1341 4750 2034 4750 
Q 2731 4750 3128 4425 
Q 3525 4100 3525 3541 
Q 3525 3141 3298 2862 
Q 3072 2584 2669 2484 
Q 3125 2378 3379 2068 
Q 3634 1759 3634 1313 
Q 3634 634 3220 271 
Q 2806 -91 2034 -91 
Q 1263 -91 848 271 
Q 434 634 434 1313 
Q 434 1759 690 2068 
Q 947 2378 1403 2484 
z
M 1172 3481 
Q 1172 3119 1398 2916 
Q 1625 2713 2034 2713 
Q 2441 2713 2670 2916 
Q 2900 3119 2900 3481 
Q 2900 3844 2670 4047 
Q 2441 4250 2034 4250 
Q 1625 4250 1398 4047 
Q 1172 3844 1172 3481 
z
" transform="scale(0.015625)"/>
       </defs>
       <use xlink:href="#DejaVuSans-31"/>
       <use xlink:href="#DejaVuSans-39" x="63.623047"/>
       <use xlink:href="#DejaVuSans-2e" x="127.246094"/>
       <use xlink:href="#DejaVuSans-38" x="159.033203"/>
      </g>
     </g>
    </g>
    <g id="ytick_6">
     <g id="line2d_27">
      <path d="M 57.08 111.097143 
L 694.98 111.097143 
" clip-path="url(#pb9b813462e)" style="fill: none; stroke: #b0b0b0; stroke-width: 0.8; stroke-linecap: square"/>
     </g>
     <g id="line2d_28">
      <g>
       <use xlink:href="#m91f70f507b" x="57.08" y="111.097143" style="stroke: #000000; stroke-width: 0.8"/>
      </g>
     </g>
     <g id="text_15">
      <!-- 20.0 -->
      <g transform="translate(27.814375 114.896362) scale(0.1 -0.1)">
       <use xlink:href="#DejaVuSans-32"/>
       <use xlink:href="#DejaVuSans-30" x="63.623047"/>
       <use xlink:href="#DejaVuSans-2e" x="127.246094"/>
       <use xlink:href="#DejaVuSans-30" x="159.033203"/>
      </g>
     </g>
    </g>
    <g id="ytick_7">
     <g id="line2d_29">
      <path d="M 57.08 69.708571 
L 694.98 69.708571 
" clip-path="url(#pb9b813462e)" style="fill: none; stroke: #b0b0b0; stroke-width: 0.8; stroke-linecap: square"/>
     </g>
     <g id="line2d_30">
      <g>
       <use xlink:href="#m91f70f507b" x="57.08" y="69.708571" style="stroke: #000000; stroke-width: 0.8"/>
      </g>
     </g>
     <g id="text_16">
      <!-- 20.2 -->
      <g transform="translate(27.814375 73.50779) scale(0.1 -0.1)">
       <use xlink:href="#DejaVuSans-32"/>
       <use xlink:href="#DejaVuSans-30" x="63.623047"/>
       <use xlink:href="#DejaVuSans-2e" x="127.246094"/>
       <use xlink:href="#DejaVuSans-32" x="159.033203"/>
      </g>
     </g>
    </g>
    <g id="ytick_8">
     <g id="line2d_31">
      <path d="M 57.08 28.32 
L 694.98 28.32 
" clip-path="url(#pb9b813462e)" style="fill: none; stroke: #b0b0b0; stroke-width: 0.8; stroke-linecap: square"/>
     </g>
     <g id="line2d_32">
      <g>
       <use xlink:href="#m91f70f507b" x="57.08" y="28.32" style="stroke: #000000; stroke-width: 0.8"/>
      </g>
     </g>
     <g id="text_17">
      <!-- 20.4 -->
      <g transform="translate(27.814375 32.119219) scale(0.1 -0.1)">
       <use xlink:href="#DejaVuSans-32"/>
       <use xlink:href="#DejaVuSans-30" x="63.623047"/>
       <use xlink:href="#DejaVuSans-2e" x="127.246094"/>
       <use xlink:href="#DejaVuSans-34" x="159.033203"/>
      </g>
     </g>
    </g>
    <g id="text_18">
     <!-- Spatial Resolution X ($\mu m$) -->
     <g transform="translate(21.714375 236.93) rotate(-90) scale(0.1 -0.1)">
      <defs>
       <path id="DejaVuSans-53" d="M 3425 4513 
L 3425 3897 
Q 3066 4069 2747 4153 
Q 2428 4238 2131 4238 
Q 1616 4238 1336 4038 
Q 1056 3838 1056 3469 
Q 1056 3159 1242 3001 
Q 1428 2844 1947 2747 
L 2328 2669 
Q 3034 2534 3370 2195 
Q 3706 1856 3706 1288 
Q 3706 609 3251 259 
Q 2797 -91 1919 -91 
Q 1588 -91 1214 -16 
Q 841 59 441 206 
L 441 856 
Q 825 641 1194 531 
Q 1563 422 1919 422 
Q 2459 422 2753 634 
Q 3047 847 3047 1241 
Q 3047 1584 2836 1778 
Q 2625 1972 2144 2069 
L 1759 2144 
Q 1053 2284 737 2584 
Q 422 2884 422 3419 
Q 422 4038 858 4394 
Q 1294 4750 2059 4750 
Q 2388 4750 2728 4690 
Q 3069 4631 3425 4513 
z
" transform="scale(0.015625)"/>
       <path id="DejaVuSans-70" d="M 1159 525 
L 1159 -1331 
L 581 -1331 
L 581 3500 
L 1159 3500 
L 1159 2969 
Q 1341 3281 1617 3432 
Q 1894 3584 2278 3584 
Q 2916 3584 3314 3078 
Q 3713 2572 3713 1747 
Q 3713 922 3314 415 
Q 2916 -91 2278 -91 
Q 1894 -91 1617 61 
Q 1341 213 1159 525 
z
M 3116 1747 
Q 3116 2381 2855 2742 
Q 2594 3103 2138 3103 
Q 1681 3103 1420 2742 
Q 1159 2381 1159 1747 
Q 1159 1113 1420 752 
Q 1681 391 2138 391 
Q 2594 391 2855 752 
Q 3116 1113 3116 1747 
z
" transform="scale(0.015625)"/>
       <path id="DejaVuSans-74" d="M 1172 4494 
L 1172 3500 
L 2356 3500 
L 2356 3053 
L 1172 3053 
L 1172 1153 
Q 1172 725 1289 603 
Q 1406 481 1766 481 
L 2356 481 
L 2356 0 
L 1766 0 
Q 1100 0 847 248 
Q 594 497 594 1153 
L 594 3053 
L 172 3053 
L 172 3500 
L 594 3500 
L 594 4494 
L 1172 4494 
z
" transform="scale(0.015625)"/>
       <path id="DejaVuSans-6c" d="M 603 4863 
L 1178 4863 
L 1178 0 
L 603 0 
L 603 4863 
z
" transform="scale(0.015625)"/>
       <path id="DejaVuSans-52" d="M 2841 2188 
Q 3044 2119 3236 1894 
Q 3428 1669 3622 1275 
L 4263 0 
L 3584 0 
L 2988 1197 
Q 2756 1666 2539 1819 
Q 2322 1972 1947 1972 
L 1259 1972 
L 1259 0 
L 628 0 
L 628 4666 
L 2053 4666 
Q 2853 4666 3247 4331 
Q 3641 3997 3641 3322 
Q 3641 2881 3436 2590 
Q 3231 2300 2841 2188 
z
M 1259 4147 
L 1259 2491 
L 2053 2491 
Q 2509 2491 2742 2702 
Q 2975 2913 2975 3322 
Q 2975 3731 2742 3939 
Q 2509 4147 2053 4147 
L 1259 4147 
z
" transform="scale(0.015625)"/>
       <path id="DejaVuSans-65" d="M 3597 1894 
L 3597 1613 
L 953 1613 
Q 991 1019 1311 708 
Q 1631 397 2203 397 
Q 2534 397 2845 478 
Q 3156 559 3463 722 
L 3463 178 
Q 3153 47 2828 -22 
Q 2503 -91 2169 -91 
Q 1331 -91 842 396 
Q 353 884 353 1716 
Q 353 2575 817 3079 
Q 1281 3584 2069 3584 
Q 2775 3584 3186 3129 
Q 3597 2675 3597 1894 
z
M 3022 2063 
Q 3016 2534 2758 2815 
Q 2500 3097 2075 3097 
Q 1594 3097 1305 2825 
Q 1016 2553 972 2059 
L 3022 2063 
z
" transform="scale(0.015625)"/>
       <path id="DejaVuSans-6f" d="M 1959 3097 
Q 1497 3097 1228 2736 
Q 959 2375 959 1747 
Q 959 1119 1226 758 
Q 1494 397 1959 397 
Q 2419 397 2687 759 
Q 2956 1122 2956 1747 
Q 2956 2369 2687 2733 
Q 2419 3097 1959 3097 
z
M 1959 3584 
Q 2709 3584 3137 3096 
Q 3566 2609 3566 1747 
Q 3566 888 3137 398 
Q 2709 -91 1959 -91 
Q 1206 -91 779 398 
Q 353 888 353 1747 
Q 353 2609 779 3096 
Q 1206 3584 1959 3584 
z
" transform="scale(0.015625)"/>
       <path id="DejaVuSans-75" d="M 544 1381 
L 544 3500 
L 1119 3500 
L 1119 1403 
Q 1119 906 1312 657 
Q 1506 409 1894 409 
Q 2359 409 2629 706 
Q 2900 1003 2900 1516 
L 2900 3500 
L 3475 3500 
L 3475 0 
L 2900 0 
L 2900 538 
Q 2691 219 2414 64 
Q 2138 -91 1772 -91 
Q 1169 -91 856 284 
Q 544 659 544 1381 
z
M 1991 3584 
L 1991 3584 
z
" transform="scale(0.015625)"/>
       <path id="DejaVuSans-6e" d="M 3513 2113 
L 3513 0 
L 2938 0 
L 2938 2094 
Q 2938 2591 2744 2837 
Q 2550 3084 2163 3084 
Q 1697 3084 1428 2787 
Q 1159 2491 1159 1978 
L 1159 0 
L 581 0 
L 581 3500 
L 1159 3500 
L 1159 2956 
Q 1366 3272 1645 3428 
Q 1925 3584 2291 3584 
Q 2894 3584 3203 3211 
Q 3513 2838 3513 2113 
z
" transform="scale(0.015625)"/>
       <path id="DejaVuSans-58" d="M 403 4666 
L 1081 4666 
L 2241 2931 
L 3406 4666 
L 4084 4666 
L 2584 2425 
L 4184 0 
L 3506 0 
L 2194 1984 
L 872 0 
L 191 0 
L 1856 2491 
L 403 4666 
z
" transform="scale(0.015625)"/>
       <path id="DejaVuSans-Oblique-3bc" d="M -84 -1331 
L 856 3500 
L 1434 3500 
L 1009 1322 
Q 997 1256 987 1175 
Q 978 1094 978 1013 
Q 978 722 1161 565 
Q 1344 409 1684 409 
Q 2147 409 2431 671 
Q 2716 934 2816 1459 
L 3213 3500 
L 3788 3500 
L 3266 809 
Q 3253 750 3248 706 
Q 3244 663 3244 628 
Q 3244 531 3283 486 
Q 3322 441 3406 441 
Q 3438 441 3492 456 
Q 3547 472 3647 513 
L 3559 50 
Q 3422 -19 3297 -55 
Q 3172 -91 3053 -91 
Q 2847 -91 2730 40 
Q 2613 172 2613 403 
Q 2438 153 2195 31 
Q 1953 -91 1625 -91 
Q 1334 -91 1117 43 
Q 900 178 831 397 
L 494 -1331 
L -84 -1331 
z
" transform="scale(0.015625)"/>
       <path id="DejaVuSans-Oblique-6d" d="M 5747 2113 
L 5338 0 
L 4763 0 
L 5166 2094 
Q 5191 2228 5203 2325 
Q 5216 2422 5216 2491 
Q 5216 2772 5059 2928 
Q 4903 3084 4622 3084 
Q 4203 3084 3875 2770 
Q 3547 2456 3450 1953 
L 3066 0 
L 2491 0 
L 2900 2094 
Q 2925 2209 2937 2307 
Q 2950 2406 2950 2484 
Q 2950 2769 2794 2926 
Q 2638 3084 2363 3084 
Q 1938 3084 1609 2770 
Q 1281 2456 1184 1953 
L 800 0 
L 225 0 
L 909 3500 
L 1484 3500 
L 1375 2956 
Q 1609 3263 1923 3423 
Q 2238 3584 2597 3584 
Q 2978 3584 3223 3384 
Q 3469 3184 3519 2828 
Q 3781 3197 4126 3390 
Q 4472 3584 4856 3584 
Q 5306 3584 5551 3325 
Q 5797 3066 5797 2591 
Q 5797 2488 5784 2364 
Q 5772 2241 5747 2113 
z
" transform="scale(0.015625)"/>
      </defs>
      <use xlink:href="#DejaVuSans-53" transform="translate(0 0.015625)"/>
      <use xlink:href="#DejaVuSans-70" transform="translate(63.476562 0.015625)"/>
      <use xlink:href="#DejaVuSans-61" transform="translate(126.953125 0.015625)"/>
      <use xlink:href="#DejaVuSans-74" transform="translate(188.232422 0.015625)"/>
      <use xlink:href="#DejaVuSans-69" transform="translate(227.441406 0.015625)"/>
      <use xlink:href="#DejaVuSans-61" transform="translate(255.224609 0.015625)"/>
      <use xlink:href="#DejaVuSans-6c" transform="translate(316.503906 0.015625)"/>
      <use xlink:href="#DejaVuSans-20" transform="translate(344.287109 0.015625)"/>
      <use xlink:href="#DejaVuSans-52" transform="translate(376.074219 0.015625)"/>
      <use xlink:href="#DejaVuSans-65" transform="translate(445.556641 0.015625)"/>
      <use xlink:href="#DejaVuSans-73" transform="translate(507.080078 0.015625)"/>
      <use xlink:href="#DejaVuSans-6f" transform="translate(559.179688 0.015625)"/>
      <use xlink:href="#DejaVuSans-6c" transform="translate(620.361328 0.015625)"/>
      <use xlink:href="#DejaVuSans-75" transform="translate(648.144531 0.015625)"/>
      <use xlink:href="#DejaVuSans-74" transform="translate(711.523438 0.015625)"/>
      <use xlink:href="#DejaVuSans-69" transform="translate(750.732422 0.015625)"/>
      <use xlink:href="#DejaVuSans-6f" transform="translate(778.515625 0.015625)"/>
      <use xlink:href="#DejaVuSans-6e" transform="translate(839.697266 0.015625)"/>
      <use xlink:href="#DejaVuSans-20" transform="translate(903.076172 0.015625)"/>
      <use xlink:href="#DejaVuSans-58" transform="translate(934.863281 0.015625)"/>
      <use xlink:href="#DejaVuSans-20" transform="translate(1003.369141 0.015625)"/>
      <use xlink:href="#DejaVuSans-28" transform="translate(1035.15625 0.015625)"/>
      <use xlink:href="#DejaVuSans-Oblique-3bc" transform="translate(1074.169922 0.015625)"/>
      <use xlink:href="#DejaVuSans-Oblique-6d" transform="translate(1137.792969 0.015625)"/>
      <use xlink:href="#DejaVuSans-29" transform="translate(1235.205078 0.015625)"/>
     </g>
    </g>
   </g>
   <g id="line2d_33">
    <path d="M 152.765 260.58944 
L 166.434286 125.098371 
L 180.103571 121.685481 
L 193.772857 106.858531 
L 207.442143 109.643349 
L 221.111429 97.713785 
L 234.780714 105.927913 
L 248.45 110.572626 
L 262.119286 91.436519 
L 275.788571 116.314011 
L 289.457857 127.844043 
L 303.127143 112.033288 
L 316.796429 103.901166 
L 330.465714 114.477007 
L 376.03 100.945973 
L 421.594286 88.840511 
L 467.158571 74.172546 
L 512.722857 55.724351 
L 558.287143 47.690314 
" clip-path="url(#pb9b813462e)" style="fill: none; stroke: #1f77b4; stroke-width: 1.5; stroke-linecap: square"/>
    <defs>
     <path id="m7acca9efba" d="M 0 3 
C 0.795609 3 1.55874 2.683901 2.12132 2.12132 
C 2.683901 1.55874 3 0.795609 3 0 
C 3 -0.795609 2.683901 -1.55874 2.12132 -2.12132 
C 1.55874 -2.683901 0.795609 -3 0 -3 
C -0.795609 -3 -1.55874 -2.683901 -2.12132 -2.12132 
C -2.683901 -1.55874 -3 -0.795609 -3 0 
C -3 0.795609 -2.683901 1.55874 -2.12132 2.12132 
C -1.55874 2.683901 -0.795609 3 0 3 
z
" style="stroke: #ffffff; stroke-width: 0.75"/>
    </defs>
    <g clip-path="url(#pb9b813462e)">
     <use xlink:href="#m7acca9efba" x="152.765" y="260.58944" style="fill: #1f77b4; stroke: #ffffff; stroke-width: 0.75"/>
     <use xlink:href="#m7acca9efba" x="166.434286" y="125.098371" style="fill: #1f77b4; stroke: #ffffff; stroke-width: 0.75"/>
     <use xlink:href="#m7acca9efba" x="180.103571" y="121.685481" style="fill: #1f77b4; stroke: #ffffff; stroke-width: 0.75"/>
     <use xlink:href="#m7acca9efba" x="193.772857" y="106.858531" style="fill: #1f77b4; stroke: #ffffff; stroke-width: 0.75"/>
     <use xlink:href="#m7acca9efba" x="207.442143" y="109.643349" style="fill: #1f77b4; stroke: #ffffff; stroke-width: 0.75"/>
     <use xlink:href="#m7acca9efba" x="221.111429" y="97.713785" style="fill: #1f77b4; stroke: #ffffff; stroke-width: 0.75"/>
     <use xlink:href="#m7acca9efba" x="234.780714" y="105.927913" style="fill: #1f77b4; stroke: #ffffff; stroke-width: 0.75"/>
     <use xlink:href="#m7acca9efba" x="248.45" y="110.572626" style="fill: #1f77b4; stroke: #ffffff; stroke-width: 0.75"/>
     <use xlink:href="#m7acca9efba" x="262.119286" y="91.436519" style="fill: #1f77b4; stroke: #ffffff; stroke-width: 0.75"/>
     <use xlink:href="#m7acca9efba" x="275.788571" y="116.314011" style="fill: #1f77b4; stroke: #ffffff; stroke-width: 0.75"/>
     <use xlink:href="#m7acca9efba" x="289.457857" y="127.844043" style="fill: #1f77b4; stroke: #ffffff; stroke-width: 0.75"/>
     <use xlink:href="#m7acca9efba" x="303.127143" y="112.033288" style="fill: #1f77b4; stroke: #ffffff; stroke-width: 0.75"/>
     <use xlink:href="#m7acca9efba" x="316.796429" y="103.901166" style="fill: #1f77b4; stroke: #ffffff; stroke-width: 0.75"/>
     <use xlink:href="#m7acca9efba" x="330.465714" y="114.477007" style="fill: #1f77b4; stroke: #ffffff; stroke-width: 0.75"/>
     <use xlink:href="#m7acca9efba" x="376.03" y="100.945973" style="fill: #1f77b4; stroke: #ffffff; stroke-width: 0.75"/>
     <use xlink:href="#m7acca9efba" x="421.594286" y="88.840511" style="fill: #1f77b4; stroke: #ffffff; stroke-width: 0.75"/>
     <use xlink:href="#m7acca9efba" x="467.158571" y="74.172546" style="fill: #1f77b4; stroke: #ffffff; stroke-width: 0.75"/>
     <use xlink:href="#m7acca9efba" x="512.722857" y="55.724351" style="fill: #1f77b4; stroke: #ffffff; stroke-width: 0.75"/>
     <use xlink:href="#m7acca9efba" x="558.287143" y="47.690314" style="fill: #1f77b4; stroke: #ffffff; stroke-width: 0.75"/>
    </g>
   </g>
   <g id="LineCollection_1">
    <path d="M 330.465714 120.33757 
L 330.465714 108.616444 
" clip-path="url(#pb9b813462e)" style="fill: none; stroke: #0000ff; stroke-width: 1.5"/>
    <path d="M 316.796429 109.774493 
L 316.796429 98.027839 
" clip-path="url(#pb9b813462e)" style="fill: none; stroke: #0000ff; stroke-width: 1.5"/>
    <path d="M 303.127143 117.880376 
L 303.127143 106.186201 
" clip-path="url(#pb9b813462e)" style="fill: none; stroke: #0000ff; stroke-width: 1.5"/>
    <path d="M 289.457857 133.68734 
L 289.457857 122.000745 
" clip-path="url(#pb9b813462e)" style="fill: none; stroke: #0000ff; stroke-width: 1.5"/>
    <path d="M 275.788571 122.15822 
L 275.788571 110.469803 
" clip-path="url(#pb9b813462e)" style="fill: none; stroke: #0000ff; stroke-width: 1.5"/>
    <path d="M 262.119286 97.324987 
L 262.119286 85.548051 
" clip-path="url(#pb9b813462e)" style="fill: none; stroke: #0000ff; stroke-width: 1.5"/>
    <path d="M 248.45 116.444432 
L 248.45 104.700821 
" clip-path="url(#pb9b813462e)" style="fill: none; stroke: #0000ff; stroke-width: 1.5"/>
    <path d="M 234.780714 111.813958 
L 234.780714 100.041868 
" clip-path="url(#pb9b813462e)" style="fill: none; stroke: #0000ff; stroke-width: 1.5"/>
    <path d="M 221.111429 103.597436 
L 221.111429 91.830134 
" clip-path="url(#pb9b813462e)" style="fill: none; stroke: #0000ff; stroke-width: 1.5"/>
    <path d="M 207.442143 115.506124 
L 207.442143 103.780574 
" clip-path="url(#pb9b813462e)" style="fill: none; stroke: #0000ff; stroke-width: 1.5"/>
    <path d="M 193.772857 112.73248 
L 193.772857 100.984583 
" clip-path="url(#pb9b813462e)" style="fill: none; stroke: #0000ff; stroke-width: 1.5"/>
    <path d="M 180.103571 127.538815 
L 180.103571 115.832147 
" clip-path="url(#pb9b813462e)" style="fill: none; stroke: #0000ff; stroke-width: 1.5"/>
    <path d="M 166.434286 130.99766 
L 166.434286 119.199083 
" clip-path="url(#pb9b813462e)" style="fill: none; stroke: #0000ff; stroke-width: 1.5"/>
    <path d="M 152.765 267.708042 
L 152.765 253.470839 
" clip-path="url(#pb9b813462e)" style="fill: none; stroke: #0000ff; stroke-width: 1.5"/>
    <path d="M 558.287143 53.630664 
L 558.287143 41.749963 
" clip-path="url(#pb9b813462e)" style="fill: none; stroke: #0000ff; stroke-width: 1.5"/>
    <path d="M 512.722857 61.658737 
L 512.722857 49.789965 
" clip-path="url(#pb9b813462e)" style="fill: none; stroke: #0000ff; stroke-width: 1.5"/>
    <path d="M 467.158571 80.086741 
L 467.158571 68.258351 
" clip-path="url(#pb9b813462e)" style="fill: none; stroke: #0000ff; stroke-width: 1.5"/>
    <path d="M 421.594286 94.739585 
L 421.594286 82.941437 
" clip-path="url(#pb9b813462e)" style="fill: none; stroke: #0000ff; stroke-width: 1.5"/>
    <path d="M 376.03 106.822478 
L 376.03 95.069468 
" clip-path="url(#pb9b813462e)" style="fill: none; stroke: #0000ff; stroke-width: 1.5"/>
   </g>
   <g id="line2d_34">
    <defs>
     <path id="m5e258a050b" d="M 5 0 
L -5 -0 
" style="stroke: #0000ff"/>
    </defs>
    <g clip-path="url(#pb9b813462e)">
     <use xlink:href="#m5e258a050b" x="330.465714" y="120.33757" style="fill: #0000ff; stroke: #0000ff"/>
     <use xlink:href="#m5e258a050b" x="316.796429" y="109.774493" style="fill: #0000ff; stroke: #0000ff"/>
     <use xlink:href="#m5e258a050b" x="303.127143" y="117.880376" style="fill: #0000ff; stroke: #0000ff"/>
     <use xlink:href="#m5e258a050b" x="289.457857" y="133.68734" style="fill: #0000ff; stroke: #0000ff"/>
     <use xlink:href="#m5e258a050b" x="275.788571" y="122.15822" style="fill: #0000ff; stroke: #0000ff"/>
     <use xlink:href="#m5e258a050b" x="262.119286" y="97.324987" style="fill: #0000ff; stroke: #0000ff"/>
     <use xlink:href="#m5e258a050b" x="248.45" y="116.444432" style="fill: #0000ff; stroke: #0000ff"/>
     <use xlink:href="#m5e258a050b" x="234.780714" y="111.813958" style="fill: #0000ff; stroke: #0000ff"/>
     <use xlink:href="#m5e258a050b" x="221.111429" y="103.597436" style="fill: #0000ff; stroke: #0000ff"/>
     <use xlink:href="#m5e258a050b" x="207.442143" y="115.506124" style="fill: #0000ff; stroke: #0000ff"/>
     <use xlink:href="#m5e258a050b" x="193.772857" y="112.73248" style="fill: #0000ff; stroke: #0000ff"/>
     <use xlink:href="#m5e258a050b" x="180.103571" y="127.538815" style="fill: #0000ff; stroke: #0000ff"/>
     <use xlink:href="#m5e258a050b" x="166.434286" y="130.99766" style="fill: #0000ff; stroke: #0000ff"/>
     <use xlink:href="#m5e258a050b" x="152.765" y="267.708042" style="fill: #0000ff; stroke: #0000ff"/>
     <use xlink:href="#m5e258a050b" x="558.287143" y="53.630664" style="fill: #0000ff; stroke: #0000ff"/>
     <use xlink:href="#m5e258a050b" x="512.722857" y="61.658737" style="fill: #0000ff; stroke: #0000ff"/>
     <use xlink:href="#m5e258a050b" x="467.158571" y="80.086741" style="fill: #0000ff; stroke: #0000ff"/>
     <use xlink:href="#m5e258a050b" x="421.594286" y="94.739585" style="fill: #0000ff; stroke: #0000ff"/>
     <use xlink:href="#m5e258a050b" x="376.03" y="106.822478" style="fill: #0000ff; stroke: #0000ff"/>
    </g>
   </g>
   <g id="line2d_35">
    <g clip-path="url(#pb9b813462e)">
     <use xlink:href="#m5e258a050b" x="330.465714" y="108.616444" style="fill: #0000ff; stroke: #0000ff"/>
     <use xlink:href="#m5e258a050b" x="316.796429" y="98.027839" style="fill: #0000ff; stroke: #0000ff"/>
     <use xlink:href="#m5e258a050b" x="303.127143" y="106.186201" style="fill: #0000ff; stroke: #0000ff"/>
     <use xlink:href="#m5e258a050b" x="289.457857" y="122.000745" style="fill: #0000ff; stroke: #0000ff"/>
     <use xlink:href="#m5e258a050b" x="275.788571" y="110.469803" style="fill: #0000ff; stroke: #0000ff"/>
     <use xlink:href="#m5e258a050b" x="262.119286" y="85.548051" style="fill: #0000ff; stroke: #0000ff"/>
     <use xlink:href="#m5e258a050b" x="248.45" y="104.700821" style="fill: #0000ff; stroke: #0000ff"/>
     <use xlink:href="#m5e258a050b" x="234.780714" y="100.041868" style="fill: #0000ff; stroke: #0000ff"/>
     <use xlink:href="#m5e258a050b" x="221.111429" y="91.830134" style="fill: #0000ff; stroke: #0000ff"/>
     <use xlink:href="#m5e258a050b" x="207.442143" y="103.780574" style="fill: #0000ff; stroke: #0000ff"/>
     <use xlink:href="#m5e258a050b" x="193.772857" y="100.984583" style="fill: #0000ff; stroke: #0000ff"/>
     <use xlink:href="#m5e258a050b" x="180.103571" y="115.832147" style="fill: #0000ff; stroke: #0000ff"/>
     <use xlink:href="#m5e258a050b" x="166.434286" y="119.199083" style="fill: #0000ff; stroke: #0000ff"/>
     <use xlink:href="#m5e258a050b" x="152.765" y="253.470839" style="fill: #0000ff; stroke: #0000ff"/>
     <use xlink:href="#m5e258a050b" x="558.287143" y="41.749963" style="fill: #0000ff; stroke: #0000ff"/>
     <use xlink:href="#m5e258a050b" x="512.722857" y="49.789965" style="fill: #0000ff; stroke: #0000ff"/>
     <use xlink:href="#m5e258a050b" x="467.158571" y="68.258351" style="fill: #0000ff; stroke: #0000ff"/>
     <use xlink:href="#m5e258a050b" x="421.594286" y="82.941437" style="fill: #0000ff; stroke: #0000ff"/>
     <use xlink:href="#m5e258a050b" x="376.03" y="95.069468" style="fill: #0000ff; stroke: #0000ff"/>
    </g>
   </g>
   <g id="line2d_36">
    <path d="M 193.772857 140.808101 
L 239.337143 159.431821 
L 284.901429 196.551667 
L 330.465714 177.836682 
L 376.03 190.153467 
L 421.594286 177.410991 
L 467.158571 155.559037 
L 512.722857 146.882526 
L 558.287143 160.179825 
L 603.851429 142.529964 
" clip-path="url(#pb9b813462e)" style="fill: none; stroke: #ff7f0e; stroke-width: 1.5; stroke-linecap: square"/>
    <defs>
     <path id="m0a53d327d2" d="M 0 3 
C 0.795609 3 1.55874 2.683901 2.12132 2.12132 
C 2.683901 1.55874 3 0.795609 3 0 
C 3 -0.795609 2.683901 -1.55874 2.12132 -2.12132 
C 1.55874 -2.683901 0.795609 -3 0 -3 
C -0.795609 -3 -1.55874 -2.683901 -2.12132 -2.12132 
C -2.683901 -1.55874 -3 -0.795609 -3 0 
C -3 0.795609 -2.683901 1.55874 -2.12132 2.12132 
C -1.55874 2.683901 -0.795609 3 0 3 
z
" style="stroke: #ffffff; stroke-width: 0.75"/>
    </defs>
    <g clip-path="url(#pb9b813462e)">
     <use xlink:href="#m0a53d327d2" x="193.772857" y="140.808101" style="fill: #ff7f0e; stroke: #ffffff; stroke-width: 0.75"/>
     <use xlink:href="#m0a53d327d2" x="239.337143" y="159.431821" style="fill: #ff7f0e; stroke: #ffffff; stroke-width: 0.75"/>
     <use xlink:href="#m0a53d327d2" x="284.901429" y="196.551667" style="fill: #ff7f0e; stroke: #ffffff; stroke-width: 0.75"/>
     <use xlink:href="#m0a53d327d2" x="330.465714" y="177.836682" style="fill: #ff7f0e; stroke: #ffffff; stroke-width: 0.75"/>
     <use xlink:href="#m0a53d327d2" x="376.03" y="190.153467" style="fill: #ff7f0e; stroke: #ffffff; stroke-width: 0.75"/>
     <use xlink:href="#m0a53d327d2" x="421.594286" y="177.410991" style="fill: #ff7f0e; stroke: #ffffff; stroke-width: 0.75"/>
     <use xlink:href="#m0a53d327d2" x="467.158571" y="155.559037" style="fill: #ff7f0e; stroke: #ffffff; stroke-width: 0.75"/>
     <use xlink:href="#m0a53d327d2" x="512.722857" y="146.882526" style="fill: #ff7f0e; stroke: #ffffff; stroke-width: 0.75"/>
     <use xlink:href="#m0a53d327d2" x="558.287143" y="160.179825" style="fill: #ff7f0e; stroke: #ffffff; stroke-width: 0.75"/>
     <use xlink:href="#m0a53d327d2" x="603.851429" y="142.529964" style="fill: #ff7f0e; stroke: #ffffff; stroke-width: 0.75"/>
    </g>
   </g>
   <g id="LineCollection_2">
    <path d="M 603.851429 148.491141 
L 603.851429 136.568786 
" clip-path="url(#pb9b813462e)" style="fill: none; stroke: #ff0000; stroke-width: 1.5"/>
    <path d="M 558.287143 166.111765 
L 558.287143 154.247885 
" clip-path="url(#pb9b813462e)" style="fill: none; stroke: #ff0000; stroke-width: 1.5"/>
    <path d="M 512.722857 152.835825 
L 512.722857 140.929226 
" clip-path="url(#pb9b813462e)" style="fill: none; stroke: #ff0000; stroke-width: 1.5"/>
    <path d="M 467.158571 161.492807 
L 467.158571 149.625268 
" clip-path="url(#pb9b813462e)" style="fill: none; stroke: #ff0000; stroke-width: 1.5"/>
    <path d="M 421.594286 183.313358 
L 421.594286 171.508625 
" clip-path="url(#pb9b813462e)" style="fill: none; stroke: #ff0000; stroke-width: 1.5"/>
    <path d="M 376.03 196.027233 
L 376.03 184.279701 
" clip-path="url(#pb9b813462e)" style="fill: none; stroke: #ff0000; stroke-width: 1.5"/>
    <path d="M 330.465714 183.628974 
L 330.465714 172.044389 
" clip-path="url(#pb9b813462e)" style="fill: none; stroke: #ff0000; stroke-width: 1.5"/>
    <path d="M 284.901429 202.429133 
L 284.901429 190.674201 
" clip-path="url(#pb9b813462e)" style="fill: none; stroke: #ff0000; stroke-width: 1.5"/>
    <path d="M 239.337143 165.371603 
L 239.337143 153.492039 
" clip-path="url(#pb9b813462e)" style="fill: none; stroke: #ff0000; stroke-width: 1.5"/>
    <path d="M 193.772857 146.776235 
L 193.772857 134.839966 
" clip-path="url(#pb9b813462e)" style="fill: none; stroke: #ff0000; stroke-width: 1.5"/>
   </g>
   <g id="line2d_37">
    <defs>
     <path id="m7d8270b6c9" d="M 5 0 
L -5 -0 
" style="stroke: #ff0000"/>
    </defs>
    <g clip-path="url(#pb9b813462e)">
     <use xlink:href="#m7d8270b6c9" x="603.851429" y="148.491141" style="fill: #ff0000; stroke: #ff0000"/>
     <use xlink:href="#m7d8270b6c9" x="558.287143" y="166.111765" style="fill: #ff0000; stroke: #ff0000"/>
     <use xlink:href="#m7d8270b6c9" x="512.722857" y="152.835825" style="fill: #ff0000; stroke: #ff0000"/>
     <use xlink:href="#m7d8270b6c9" x="467.158571" y="161.492807" style="fill: #ff0000; stroke: #ff0000"/>
     <use xlink:href="#m7d8270b6c9" x="421.594286" y="183.313358" style="fill: #ff0000; stroke: #ff0000"/>
     <use xlink:href="#m7d8270b6c9" x="376.03" y="196.027233" style="fill: #ff0000; stroke: #ff0000"/>
     <use xlink:href="#m7d8270b6c9" x="330.465714" y="183.628974" style="fill: #ff0000; stroke: #ff0000"/>
     <use xlink:href="#m7d8270b6c9" x="284.901429" y="202.429133" style="fill: #ff0000; stroke: #ff0000"/>
     <use xlink:href="#m7d8270b6c9" x="239.337143" y="165.371603" style="fill: #ff0000; stroke: #ff0000"/>
     <use xlink:href="#m7d8270b6c9" x="193.772857" y="146.776235" style="fill: #ff0000; stroke: #ff0000"/>
    </g>
   </g>
   <g id="line2d_38">
    <g clip-path="url(#pb9b813462e)">
     <use xlink:href="#m7d8270b6c9" x="603.851429" y="136.568786" style="fill: #ff0000; stroke: #ff0000"/>
     <use xlink:href="#m7d8270b6c9" x="558.287143" y="154.247885" style="fill: #ff0000; stroke: #ff0000"/>
     <use xlink:href="#m7d8270b6c9" x="512.722857" y="140.929226" style="fill: #ff0000; stroke: #ff0000"/>
     <use xlink:href="#m7d8270b6c9" x="467.158571" y="149.625268" style="fill: #ff0000; stroke: #ff0000"/>
     <use xlink:href="#m7d8270b6c9" x="421.594286" y="171.508625" style="fill: #ff0000; stroke: #ff0000"/>
     <use xlink:href="#m7d8270b6c9" x="376.03" y="184.279701" style="fill: #ff0000; stroke: #ff0000"/>
     <use xlink:href="#m7d8270b6c9" x="330.465714" y="172.044389" style="fill: #ff0000; stroke: #ff0000"/>
     <use xlink:href="#m7d8270b6c9" x="284.901429" y="190.674201" style="fill: #ff0000; stroke: #ff0000"/>
     <use xlink:href="#m7d8270b6c9" x="239.337143" y="153.492039" style="fill: #ff0000; stroke: #ff0000"/>
     <use xlink:href="#m7d8270b6c9" x="193.772857" y="134.839966" style="fill: #ff0000; stroke: #ff0000"/>
    </g>
   </g>
   <g id="line2d_39">
    <defs>
     <path id="m6529c23190" d="M 0 1.5 
C 0.397805 1.5 0.77937 1.341951 1.06066 1.06066 
C 1.341951 0.77937 1.5 0.397805 1.5 0 
C 1.5 -0.397805 1.341951 -0.77937 1.06066 -1.06066 
C 0.77937 -1.341951 0.397805 -1.5 0 -1.5 
C -0.397805 -1.5 -0.77937 -1.341951 -1.06066 -1.06066 
C -1.341951 -0.77937 -1.5 -0.397805 -1.5 0 
C -1.5 0.397805 -1.341951 0.77937 -1.06066 1.06066 
C -0.77937 1.341951 -0.397805 1.5 0 1.5 
z
" style="stroke: #0000ff"/>
    </defs>
    <g clip-path="url(#pb9b813462e)">
     <use xlink:href="#m6529c23190" x="330.465714" y="114.477007" style="fill: #0000ff; stroke: #0000ff"/>
     <use xlink:href="#m6529c23190" x="316.796429" y="103.901166" style="fill: #0000ff; stroke: #0000ff"/>
     <use xlink:href="#m6529c23190" x="303.127143" y="112.033288" style="fill: #0000ff; stroke: #0000ff"/>
     <use xlink:href="#m6529c23190" x="289.457857" y="127.844043" style="fill: #0000ff; stroke: #0000ff"/>
     <use xlink:href="#m6529c23190" x="275.788571" y="116.314011" style="fill: #0000ff; stroke: #0000ff"/>
     <use xlink:href="#m6529c23190" x="262.119286" y="91.436519" style="fill: #0000ff; stroke: #0000ff"/>
     <use xlink:href="#m6529c23190" x="248.45" y="110.572626" style="fill: #0000ff; stroke: #0000ff"/>
     <use xlink:href="#m6529c23190" x="234.780714" y="105.927913" style="fill: #0000ff; stroke: #0000ff"/>
     <use xlink:href="#m6529c23190" x="221.111429" y="97.713785" style="fill: #0000ff; stroke: #0000ff"/>
     <use xlink:href="#m6529c23190" x="207.442143" y="109.643349" style="fill: #0000ff; stroke: #0000ff"/>
     <use xlink:href="#m6529c23190" x="193.772857" y="106.858531" style="fill: #0000ff; stroke: #0000ff"/>
     <use xlink:href="#m6529c23190" x="180.103571" y="121.685481" style="fill: #0000ff; stroke: #0000ff"/>
     <use xlink:href="#m6529c23190" x="166.434286" y="125.098371" style="fill: #0000ff; stroke: #0000ff"/>
     <use xlink:href="#m6529c23190" x="152.765" y="260.58944" style="fill: #0000ff; stroke: #0000ff"/>
     <use xlink:href="#m6529c23190" x="558.287143" y="47.690314" style="fill: #0000ff; stroke: #0000ff"/>
     <use xlink:href="#m6529c23190" x="512.722857" y="55.724351" style="fill: #0000ff; stroke: #0000ff"/>
     <use xlink:href="#m6529c23190" x="467.158571" y="74.172546" style="fill: #0000ff; stroke: #0000ff"/>
     <use xlink:href="#m6529c23190" x="421.594286" y="88.840511" style="fill: #0000ff; stroke: #0000ff"/>
     <use xlink:href="#m6529c23190" x="376.03" y="100.945973" style="fill: #0000ff; stroke: #0000ff"/>
    </g>
   </g>
   <g id="line2d_40">
    <defs>
     <path id="mc33239f4d7" d="M 0 1.5 
C 0.397805 1.5 0.77937 1.341951 1.06066 1.06066 
C 1.341951 0.77937 1.5 0.397805 1.5 0 
C 1.5 -0.397805 1.341951 -0.77937 1.06066 -1.06066 
C 0.77937 -1.341951 0.397805 -1.5 0 -1.5 
C -0.397805 -1.5 -0.77937 -1.341951 -1.06066 -1.06066 
C -1.341951 -0.77937 -1.5 -0.397805 -1.5 0 
C -1.5 0.397805 -1.341951 0.77937 -1.06066 1.06066 
C -0.77937 1.341951 -0.397805 1.5 0 1.5 
z
" style="stroke: #ff0000"/>
    </defs>
    <g clip-path="url(#pb9b813462e)">
     <use xlink:href="#mc33239f4d7" x="603.851429" y="142.529964" style="fill: #ff0000; stroke: #ff0000"/>
     <use xlink:href="#mc33239f4d7" x="558.287143" y="160.179825" style="fill: #ff0000; stroke: #ff0000"/>
     <use xlink:href="#mc33239f4d7" x="512.722857" y="146.882526" style="fill: #ff0000; stroke: #ff0000"/>
     <use xlink:href="#mc33239f4d7" x="467.158571" y="155.559037" style="fill: #ff0000; stroke: #ff0000"/>
     <use xlink:href="#mc33239f4d7" x="421.594286" y="177.410991" style="fill: #ff0000; stroke: #ff0000"/>
     <use xlink:href="#mc33239f4d7" x="376.03" y="190.153467" style="fill: #ff0000; stroke: #ff0000"/>
     <use xlink:href="#mc33239f4d7" x="330.465714" y="177.836682" style="fill: #ff0000; stroke: #ff0000"/>
     <use xlink:href="#mc33239f4d7" x="284.901429" y="196.551667" style="fill: #ff0000; stroke: #ff0000"/>
     <use xlink:href="#mc33239f4d7" x="239.337143" y="159.431821" style="fill: #ff0000; stroke: #ff0000"/>
     <use xlink:href="#mc33239f4d7" x="193.772857" y="140.808101" style="fill: #ff0000; stroke: #ff0000"/>
    </g>
   </g>
   <g id="patch_3">
    <path d="M 57.08 318.04 
L 57.08 28.32 
" style="fill: none; stroke: #000000; stroke-width: 0.8; stroke-linejoin: miter; stroke-linecap: square"/>
   </g>
   <g id="patch_4">
    <path d="M 694.98 318.04 
L 694.98 28.32 
" style="fill: none; stroke: #000000; stroke-width: 0.8; stroke-linejoin: miter; stroke-linecap: square"/>
   </g>
   <g id="patch_5">
    <path d="M 57.08 318.04 
L 694.98 318.04 
" style="fill: none; stroke: #000000; stroke-width: 0.8; stroke-linejoin: miter; stroke-linecap: square"/>
   </g>
   <g id="patch_6">
    <path d="M 57.08 28.32 
L 694.98 28.32 
" style="fill: none; stroke: #000000; stroke-width: 0.8; stroke-linejoin: miter; stroke-linecap: square"/>
   </g>
   <g id="text_19">
    <!-- 19.98 -->
    <g transform="translate(329.014464 99.477007) scale(0.08 -0.08)">
     <use xlink:href="#DejaVuSans-31"/>
     <use xlink:href="#DejaVuSans-39" x="63.623047"/>
     <use xlink:href="#DejaVuSans-2e" x="127.246094"/>
     <use xlink:href="#DejaVuSans-39" x="159.033203"/>
     <use xlink:href="#DejaVuSans-38" x="222.65625"/>
    </g>
   </g>
   <g id="text_20">
    <!-- 20.03 -->
    <g transform="translate(315.345179 88.901166) scale(0.08 -0.08)">
     <use xlink:href="#DejaVuSans-32"/>
     <use xlink:href="#DejaVuSans-30" x="63.623047"/>
     <use xlink:href="#DejaVuSans-2e" x="127.246094"/>
     <use xlink:href="#DejaVuSans-30" x="159.033203"/>
     <use xlink:href="#DejaVuSans-33" x="222.65625"/>
    </g>
   </g>
   <g id="text_21">
    <!-- 20.00 -->
    <g transform="translate(301.675893 97.033288) scale(0.08 -0.08)">
     <use xlink:href="#DejaVuSans-32"/>
     <use xlink:href="#DejaVuSans-30" x="63.623047"/>
     <use xlink:href="#DejaVuSans-2e" x="127.246094"/>
     <use xlink:href="#DejaVuSans-30" x="159.033203"/>
     <use xlink:href="#DejaVuSans-30" x="222.65625"/>
    </g>
   </g>
   <g id="text_22">
    <!-- 19.92 -->
    <g transform="translate(288.006607 112.844043) scale(0.08 -0.08)">
     <use xlink:href="#DejaVuSans-31"/>
     <use xlink:href="#DejaVuSans-39" x="63.623047"/>
     <use xlink:href="#DejaVuSans-2e" x="127.246094"/>
     <use xlink:href="#DejaVuSans-39" x="159.033203"/>
     <use xlink:href="#DejaVuSans-32" x="222.65625"/>
    </g>
   </g>
   <g id="text_23">
    <!-- 19.97 -->
    <g transform="translate(274.337321 101.314011) scale(0.08 -0.08)">
     <defs>
      <path id="DejaVuSans-37" d="M 525 4666 
L 3525 4666 
L 3525 4397 
L 1831 0 
L 1172 0 
L 2766 4134 
L 525 4134 
L 525 4666 
z
" transform="scale(0.015625)"/>
     </defs>
     <use xlink:href="#DejaVuSans-31"/>
     <use xlink:href="#DejaVuSans-39" x="63.623047"/>
     <use xlink:href="#DejaVuSans-2e" x="127.246094"/>
     <use xlink:href="#DejaVuSans-39" x="159.033203"/>
     <use xlink:href="#DejaVuSans-37" x="222.65625"/>
    </g>
   </g>
   <g id="text_24">
    <!-- 20.10 -->
    <g transform="translate(260.668036 76.436519) scale(0.08 -0.08)">
     <use xlink:href="#DejaVuSans-32"/>
     <use xlink:href="#DejaVuSans-30" x="63.623047"/>
     <use xlink:href="#DejaVuSans-2e" x="127.246094"/>
     <use xlink:href="#DejaVuSans-31" x="159.033203"/>
     <use xlink:href="#DejaVuSans-30" x="222.65625"/>
    </g>
   </g>
   <g id="text_25">
    <!-- 20.00 -->
    <g transform="translate(246.99875 95.572626) scale(0.08 -0.08)">
     <use xlink:href="#DejaVuSans-32"/>
     <use xlink:href="#DejaVuSans-30" x="63.623047"/>
     <use xlink:href="#DejaVuSans-2e" x="127.246094"/>
     <use xlink:href="#DejaVuSans-30" x="159.033203"/>
     <use xlink:href="#DejaVuSans-30" x="222.65625"/>
    </g>
   </g>
   <g id="text_26">
    <!-- 20.02 -->
    <g transform="translate(233.329464 90.927913) scale(0.08 -0.08)">
     <use xlink:href="#DejaVuSans-32"/>
     <use xlink:href="#DejaVuSans-30" x="63.623047"/>
     <use xlink:href="#DejaVuSans-2e" x="127.246094"/>
     <use xlink:href="#DejaVuSans-30" x="159.033203"/>
     <use xlink:href="#DejaVuSans-32" x="222.65625"/>
    </g>
   </g>
   <g id="text_27">
    <!-- 20.06 -->
    <g transform="translate(219.660179 82.713785) scale(0.08 -0.08)">
     <use xlink:href="#DejaVuSans-32"/>
     <use xlink:href="#DejaVuSans-30" x="63.623047"/>
     <use xlink:href="#DejaVuSans-2e" x="127.246094"/>
     <use xlink:href="#DejaVuSans-30" x="159.033203"/>
     <use xlink:href="#DejaVuSans-36" x="222.65625"/>
    </g>
   </g>
   <g id="text_28">
    <!-- 20.01 -->
    <g transform="translate(205.990893 94.643349) scale(0.08 -0.08)">
     <use xlink:href="#DejaVuSans-32"/>
     <use xlink:href="#DejaVuSans-30" x="63.623047"/>
     <use xlink:href="#DejaVuSans-2e" x="127.246094"/>
     <use xlink:href="#DejaVuSans-30" x="159.033203"/>
     <use xlink:href="#DejaVuSans-31" x="222.65625"/>
    </g>
   </g>
   <g id="text_29">
    <!-- 20.02 -->
    <g transform="translate(192.321607 91.858531) scale(0.08 -0.08)">
     <use xlink:href="#DejaVuSans-32"/>
     <use xlink:href="#DejaVuSans-30" x="63.623047"/>
     <use xlink:href="#DejaVuSans-2e" x="127.246094"/>
     <use xlink:href="#DejaVuSans-30" x="159.033203"/>
     <use xlink:href="#DejaVuSans-32" x="222.65625"/>
    </g>
   </g>
   <g id="text_30">
    <!-- 19.95 -->
    <g transform="translate(178.652321 106.685481) scale(0.08 -0.08)">
     <use xlink:href="#DejaVuSans-31"/>
     <use xlink:href="#DejaVuSans-39" x="63.623047"/>
     <use xlink:href="#DejaVuSans-2e" x="127.246094"/>
     <use xlink:href="#DejaVuSans-39" x="159.033203"/>
     <use xlink:href="#DejaVuSans-35" x="222.65625"/>
    </g>
   </g>
   <g id="text_31">
    <!-- 19.93 -->
    <g transform="translate(164.983036 110.098371) scale(0.08 -0.08)">
     <use xlink:href="#DejaVuSans-31"/>
     <use xlink:href="#DejaVuSans-39" x="63.623047"/>
     <use xlink:href="#DejaVuSans-2e" x="127.246094"/>
     <use xlink:href="#DejaVuSans-39" x="159.033203"/>
     <use xlink:href="#DejaVuSans-33" x="222.65625"/>
    </g>
   </g>
   <g id="text_32">
    <!-- 19.28 -->
    <g transform="translate(151.31375 245.58944) scale(0.08 -0.08)">
     <use xlink:href="#DejaVuSans-31"/>
     <use xlink:href="#DejaVuSans-39" x="63.623047"/>
     <use xlink:href="#DejaVuSans-2e" x="127.246094"/>
     <use xlink:href="#DejaVuSans-32" x="159.033203"/>
     <use xlink:href="#DejaVuSans-38" x="222.65625"/>
    </g>
   </g>
   <g id="text_33">
    <!-- 20.31 -->
    <g transform="translate(556.835893 32.690314) scale(0.08 -0.08)">
     <use xlink:href="#DejaVuSans-32"/>
     <use xlink:href="#DejaVuSans-30" x="63.623047"/>
     <use xlink:href="#DejaVuSans-2e" x="127.246094"/>
     <use xlink:href="#DejaVuSans-33" x="159.033203"/>
     <use xlink:href="#DejaVuSans-31" x="222.65625"/>
    </g>
   </g>
   <g id="text_34">
    <!-- 20.27 -->
    <g transform="translate(511.271607 40.724351) scale(0.08 -0.08)">
     <use xlink:href="#DejaVuSans-32"/>
     <use xlink:href="#DejaVuSans-30" x="63.623047"/>
     <use xlink:href="#DejaVuSans-2e" x="127.246094"/>
     <use xlink:href="#DejaVuSans-32" x="159.033203"/>
     <use xlink:href="#DejaVuSans-37" x="222.65625"/>
    </g>
   </g>
   <g id="text_35">
    <!-- 20.18 -->
    <g transform="translate(465.707321 59.172546) scale(0.08 -0.08)">
     <use xlink:href="#DejaVuSans-32"/>
     <use xlink:href="#DejaVuSans-30" x="63.623047"/>
     <use xlink:href="#DejaVuSans-2e" x="127.246094"/>
     <use xlink:href="#DejaVuSans-31" x="159.033203"/>
     <use xlink:href="#DejaVuSans-38" x="222.65625"/>
    </g>
   </g>
   <g id="text_36">
    <!-- 20.11 -->
    <g transform="translate(420.143036 73.840511) scale(0.08 -0.08)">
     <use xlink:href="#DejaVuSans-32"/>
     <use xlink:href="#DejaVuSans-30" x="63.623047"/>
     <use xlink:href="#DejaVuSans-2e" x="127.246094"/>
     <use xlink:href="#DejaVuSans-31" x="159.033203"/>
     <use xlink:href="#DejaVuSans-31" x="222.65625"/>
    </g>
   </g>
   <g id="text_37">
    <!-- 20.05 -->
    <g transform="translate(374.57875 85.945973) scale(0.08 -0.08)">
     <use xlink:href="#DejaVuSans-32"/>
     <use xlink:href="#DejaVuSans-30" x="63.623047"/>
     <use xlink:href="#DejaVuSans-2e" x="127.246094"/>
     <use xlink:href="#DejaVuSans-30" x="159.033203"/>
     <use xlink:href="#DejaVuSans-35" x="222.65625"/>
    </g>
   </g>
   <g id="text_38">
    <!-- Spatial Resolution X ($\mu m$) -->
    <g transform="translate(299.53 22.32) scale(0.12 -0.12)">
     <use xlink:href="#DejaVuSans-53" transform="translate(0 0.015625)"/>
     <use xlink:href="#DejaVuSans-70" transform="translate(63.476562 0.015625)"/>
     <use xlink:href="#DejaVuSans-61" transform="translate(126.953125 0.015625)"/>
     <use xlink:href="#DejaVuSans-74" transform="translate(188.232422 0.015625)"/>
     <use xlink:href="#DejaVuSans-69" transform="translate(227.441406 0.015625)"/>
     <use xlink:href="#DejaVuSans-61" transform="translate(255.224609 0.015625)"/>
     <use xlink:href="#DejaVuSans-6c" transform="translate(316.503906 0.015625)"/>
     <use xlink:href="#DejaVuSans-20" transform="translate(344.287109 0.015625)"/>
     <use xlink:href="#DejaVuSans-52" transform="translate(376.074219 0.015625)"/>
     <use xlink:href="#DejaVuSans-65" transform="translate(445.556641 0.015625)"/>
     <use xlink:href="#DejaVuSans-73" transform="translate(507.080078 0.015625)"/>
     <use xlink:href="#DejaVuSans-6f" transform="translate(559.179688 0.015625)"/>
     <use xlink:href="#DejaVuSans-6c" transform="translate(620.361328 0.015625)"/>
     <use xlink:href="#DejaVuSans-75" transform="translate(648.144531 0.015625)"/>
     <use xlink:href="#DejaVuSans-74" transform="translate(711.523438 0.015625)"/>
     <use xlink:href="#DejaVuSans-69" transform="translate(750.732422 0.015625)"/>
     <use xlink:href="#DejaVuSans-6f" transform="translate(778.515625 0.015625)"/>
     <use xlink:href="#DejaVuSans-6e" transform="translate(839.697266 0.015625)"/>
     <use xlink:href="#DejaVuSans-20" transform="translate(903.076172 0.015625)"/>
     <use xlink:href="#DejaVuSans-58" transform="translate(934.863281 0.015625)"/>
     <use xlink:href="#DejaVuSans-20" transform="translate(1003.369141 0.015625)"/>
     <use xlink:href="#DejaVuSans-28" transform="translate(1035.15625 0.015625)"/>
     <use xlink:href="#DejaVuSans-Oblique-3bc" transform="translate(1074.169922 0.015625)"/>
     <use xlink:href="#DejaVuSans-Oblique-6d" transform="translate(1137.792969 0.015625)"/>
     <use xlink:href="#DejaVuSans-29" transform="translate(1235.205078 0.015625)"/>
    </g>
   </g>
   <g id="legend_1">
    <g id="patch_7">
     <path d="M 64.08 65.67625 
L 204.247188 65.67625 
Q 206.247188 65.67625 206.247188 63.67625 
L 206.247188 35.32 
Q 206.247188 33.32 204.247188 33.32 
L 64.08 33.32 
Q 62.08 33.32 62.08 35.32 
L 62.08 63.67625 
Q 62.08 65.67625 64.08 65.67625 
z
" style="fill: #ffffff; opacity: 0.8; stroke: #cccccc; stroke-linejoin: miter"/>
    </g>
    <g id="line2d_41">
     <path d="M 66.08 41.418437 
L 76.08 41.418437 
L 86.08 41.418437 
" style="fill: none; stroke: #1f77b4; stroke-width: 1.5; stroke-linecap: square"/>
     <g>
      <use xlink:href="#m7acca9efba" x="76.08" y="41.418437" style="fill: #1f77b4; stroke: #ffffff; stroke-width: 0.75"/>
     </g>
    </g>
    <g id="text_39">
     <!-- Backside bias HEPHY -->
     <g transform="translate(94.08 44.918437) scale(0.1 -0.1)">
      <defs>
       <path id="DejaVuSans-63" d="M 3122 3366 
L 3122 2828 
Q 2878 2963 2633 3030 
Q 2388 3097 2138 3097 
Q 1578 3097 1268 2742 
Q 959 2388 959 1747 
Q 959 1106 1268 751 
Q 1578 397 2138 397 
Q 2388 397 2633 464 
Q 2878 531 3122 666 
L 3122 134 
Q 2881 22 2623 -34 
Q 2366 -91 2075 -91 
Q 1284 -91 818 406 
Q 353 903 353 1747 
Q 353 2603 823 3093 
Q 1294 3584 2113 3584 
Q 2378 3584 2631 3529 
Q 2884 3475 3122 3366 
z
" transform="scale(0.015625)"/>
       <path id="DejaVuSans-6b" d="M 581 4863 
L 1159 4863 
L 1159 1991 
L 2875 3500 
L 3609 3500 
L 1753 1863 
L 3688 0 
L 2938 0 
L 1159 1709 
L 1159 0 
L 581 0 
L 581 4863 
z
" transform="scale(0.015625)"/>
       <path id="DejaVuSans-64" d="M 2906 2969 
L 2906 4863 
L 3481 4863 
L 3481 0 
L 2906 0 
L 2906 525 
Q 2725 213 2448 61 
Q 2172 -91 1784 -91 
Q 1150 -91 751 415 
Q 353 922 353 1747 
Q 353 2572 751 3078 
Q 1150 3584 1784 3584 
Q 2172 3584 2448 3432 
Q 2725 3281 2906 2969 
z
M 947 1747 
Q 947 1113 1208 752 
Q 1469 391 1925 391 
Q 2381 391 2643 752 
Q 2906 1113 2906 1747 
Q 2906 2381 2643 2742 
Q 2381 3103 1925 3103 
Q 1469 3103 1208 2742 
Q 947 2381 947 1747 
z
" transform="scale(0.015625)"/>
       <path id="DejaVuSans-62" d="M 3116 1747 
Q 3116 2381 2855 2742 
Q 2594 3103 2138 3103 
Q 1681 3103 1420 2742 
Q 1159 2381 1159 1747 
Q 1159 1113 1420 752 
Q 1681 391 2138 391 
Q 2594 391 2855 752 
Q 3116 1113 3116 1747 
z
M 1159 2969 
Q 1341 3281 1617 3432 
Q 1894 3584 2278 3584 
Q 2916 3584 3314 3078 
Q 3713 2572 3713 1747 
Q 3713 922 3314 415 
Q 2916 -91 2278 -91 
Q 1894 -91 1617 61 
Q 1341 213 1159 525 
L 1159 0 
L 581 0 
L 581 4863 
L 1159 4863 
L 1159 2969 
z
" transform="scale(0.015625)"/>
       <path id="DejaVuSans-48" d="M 628 4666 
L 1259 4666 
L 1259 2753 
L 3553 2753 
L 3553 4666 
L 4184 4666 
L 4184 0 
L 3553 0 
L 3553 2222 
L 1259 2222 
L 1259 0 
L 628 0 
L 628 4666 
z
" transform="scale(0.015625)"/>
       <path id="DejaVuSans-45" d="M 628 4666 
L 3578 4666 
L 3578 4134 
L 1259 4134 
L 1259 2753 
L 3481 2753 
L 3481 2222 
L 1259 2222 
L 1259 531 
L 3634 531 
L 3634 0 
L 628 0 
L 628 4666 
z
" transform="scale(0.015625)"/>
       <path id="DejaVuSans-50" d="M 1259 4147 
L 1259 2394 
L 2053 2394 
Q 2494 2394 2734 2622 
Q 2975 2850 2975 3272 
Q 2975 3691 2734 3919 
Q 2494 4147 2053 4147 
L 1259 4147 
z
M 628 4666 
L 2053 4666 
Q 2838 4666 3239 4311 
Q 3641 3956 3641 3272 
Q 3641 2581 3239 2228 
Q 2838 1875 2053 1875 
L 1259 1875 
L 1259 0 
L 628 0 
L 628 4666 
z
" transform="scale(0.015625)"/>
       <path id="DejaVuSans-59" d="M -13 4666 
L 666 4666 
L 1959 2747 
L 3244 4666 
L 3922 4666 
L 2272 2222 
L 2272 0 
L 1638 0 
L 1638 2222 
L -13 4666 
z
" transform="scale(0.015625)"/>
      </defs>
      <use xlink:href="#DejaVuSans-42"/>
      <use xlink:href="#DejaVuSans-61" x="68.603516"/>
      <use xlink:href="#DejaVuSans-63" x="129.882812"/>
      <use xlink:href="#DejaVuSans-6b" x="184.863281"/>
      <use xlink:href="#DejaVuSans-73" x="242.773438"/>
      <use xlink:href="#DejaVuSans-69" x="294.873047"/>
      <use xlink:href="#DejaVuSans-64" x="322.65625"/>
      <use xlink:href="#DejaVuSans-65" x="386.132812"/>
      <use xlink:href="#DejaVuSans-20" x="447.65625"/>
      <use xlink:href="#DejaVuSans-62" x="479.443359"/>
      <use xlink:href="#DejaVuSans-69" x="542.919922"/>
      <use xlink:href="#DejaVuSans-61" x="570.703125"/>
      <use xlink:href="#DejaVuSans-73" x="631.982422"/>
      <use xlink:href="#DejaVuSans-20" x="684.082031"/>
      <use xlink:href="#DejaVuSans-48" x="715.869141"/>
      <use xlink:href="#DejaVuSans-45" x="791.064453"/>
      <use xlink:href="#DejaVuSans-50" x="854.248047"/>
      <use xlink:href="#DejaVuSans-48" x="914.550781"/>
      <use xlink:href="#DejaVuSans-59" x="989.746094"/>
     </g>
    </g>
    <g id="line2d_42">
     <path d="M 66.08 56.096563 
L 76.08 56.096563 
L 86.08 56.096563 
" style="fill: none; stroke: #ff7f0e; stroke-width: 1.5; stroke-linecap: square"/>
     <g>
      <use xlink:href="#m0a53d327d2" x="76.08" y="56.096563" style="fill: #ff7f0e; stroke: #ffffff; stroke-width: 0.75"/>
     </g>
    </g>
    <g id="text_40">
     <!-- Backside bias NIKHEF -->
     <g transform="translate(94.08 59.596563) scale(0.1 -0.1)">
      <defs>
       <path id="DejaVuSans-4e" d="M 628 4666 
L 1478 4666 
L 3547 763 
L 3547 4666 
L 4159 4666 
L 4159 0 
L 3309 0 
L 1241 3903 
L 1241 0 
L 628 0 
L 628 4666 
z
" transform="scale(0.015625)"/>
       <path id="DejaVuSans-49" d="M 628 4666 
L 1259 4666 
L 1259 0 
L 628 0 
L 628 4666 
z
" transform="scale(0.015625)"/>
       <path id="DejaVuSans-4b" d="M 628 4666 
L 1259 4666 
L 1259 2694 
L 3353 4666 
L 4166 4666 
L 1850 2491 
L 4331 0 
L 3500 0 
L 1259 2247 
L 1259 0 
L 628 0 
L 628 4666 
z
" transform="scale(0.015625)"/>
       <path id="DejaVuSans-46" d="M 628 4666 
L 3309 4666 
L 3309 4134 
L 1259 4134 
L 1259 2759 
L 3109 2759 
L 3109 2228 
L 1259 2228 
L 1259 0 
L 628 0 
L 628 4666 
z
" transform="scale(0.015625)"/>
      </defs>
      <use xlink:href="#DejaVuSans-42"/>
      <use xlink:href="#DejaVuSans-61" x="68.603516"/>
      <use xlink:href="#DejaVuSans-63" x="129.882812"/>
      <use xlink:href="#DejaVuSans-6b" x="184.863281"/>
      <use xlink:href="#DejaVuSans-73" x="242.773438"/>
      <use xlink:href="#DejaVuSans-69" x="294.873047"/>
      <use xlink:href="#DejaVuSans-64" x="322.65625"/>
      <use xlink:href="#DejaVuSans-65" x="386.132812"/>
      <use xlink:href="#DejaVuSans-20" x="447.65625"/>
      <use xlink:href="#DejaVuSans-62" x="479.443359"/>
      <use xlink:href="#DejaVuSans-69" x="542.919922"/>
      <use xlink:href="#DejaVuSans-61" x="570.703125"/>
      <use xlink:href="#DejaVuSans-73" x="631.982422"/>
      <use xlink:href="#DejaVuSans-20" x="684.082031"/>
      <use xlink:href="#DejaVuSans-4e" x="715.869141"/>
      <use xlink:href="#DejaVuSans-49" x="790.673828"/>
      <use xlink:href="#DejaVuSans-4b" x="820.166016"/>
      <use xlink:href="#DejaVuSans-48" x="885.742188"/>
      <use xlink:href="#DejaVuSans-45" x="960.9375"/>
      <use xlink:href="#DejaVuSans-46" x="1024.121094"/>
     </g>
    </g>
   </g>
  </g>
 </g>
 <defs>
  <clipPath id="pb9b813462e">
   <rect x="57.08" y="28.32" width="637.9" height="289.72"/>
  </clipPath>
 </defs>
</svg>
