<?xml version="1.0" standalone="no"?>
<svg width="567.429" height="404.981" viewBox="0 0 567.429 404.981" xmlns="http://www.w3.org/2000/svg" shape-rendering="crispEdges">
<title>
clusters_per_pixel.svg
</title>
<desc>
Creator: ROOT Version 6.30/04
CreationDate: Tue May 14 11:14:08 2024</desc>
<defs>
</defs>
<rect x="0.5" y="0" width="566.929" height="404.481" fill="white"/>
<rect x="57.316" y="40.407" width="453.297" height="323.667" fill="white"/>
<rect x="57.316" y="40.407" width="453.297" height="323.667" fill="none" stroke="black"/>
<rect x="57.316" y="40.407" width="453.297" height="323.667" fill="white"/>
<rect x="57.316" y="40.407" width="453.297" height="323.667" fill="none" stroke="black"/>
<path d="M57.316,364.074h 0.468766v -0.246702h 0.468766v 0.123351h 0.468766v -0.246702h 0.937533v 0.123351h 0.468766v 0.123351h 0.468766v -0.246702h 0.468766v 0.246702h 0.468766v 0.123351h 0.468766v -0.123351h 0.468766v -0.123351h 0.468766v 0.123351h
 0.468766v -0.123351h 0.468766v 0.246702h 0.468766v -0.246702h 0.937533v 0.246702h 0.468766v -0.246702h 0.468766v -0.123351h 1.87507v -0.246702h 0.937533v 0.246702h 0.468766v 0.246702h 0.937533v -0.370053h 0.937533v -0.123351h 0.468766v 0.370053h
 0.468766v 0.123351h 0.468766v -0.246702h 1.87507v 0.246702h 0.468766v -0.246702h 0.468766v 0.123351h 0.468766v 0.246702h 0.468766v -0.370053h 0.468766v -0.370053h 0.468766v 0.370053h 0.468766v -0.246702h 0.468766v 0.370053h 0.468766v -0.370053h
 0.468766v 0.370053h 0.468766v 0.246702h 0.468766v -0.123351h 1.87507v -0.123351h 0.468766v -0.246702h 0.468766v 0.246702h 0.937533v -0.123351h 0.468766v -0.493403h 0.468766v 0.863456h 0.468766v -0.370053h 0.468766v 0.246702h 0.468766v -0.123351h
 0.468766v -0.123351h 0.468766v 0.370053h 0.468766v -0.493403h 0.468766v -0.246702h 0.468766v 0.246702h 0.468766v 0.370053h 0.468766v -0.493403h 0.468766v 0.370053h 0.937533v 0.123351h 0.468766v -0.123351h 0.468766v 0.123351h 0.468766v -0.246702h
 0.468766v -0.123351h 0.468766v 0.246702h 0.468766v -0.370053h 0.468766v 0.246702h 0.468766v -0.123351h 0.468766v 0.246702h 0.468766v 0.123351h 0.468766v -0.246702h 0.937533v 0.246702h 0.468766v -0.370053h 0.468766v 0.370053h 0.468766v -0.740105h
 0.937533v 0.493403h 0.468766v 0.246702h 0.468766v -0.616754h 0.468766v 0.370053h 0.468766v 0.246702h 0.468766v -0.493403h 0.468766v 0.246702h 0.468766v -0.123351h 0.468766v 0.246702h 0.468766v -0.370053h 0.937533v 0.123351h 0.468766v 0.246702h
 0.468766v -0.246702h 0.468766v 0.123351h 0.468766v -0.123351h 0.468766v 0.123351h 0.468766v -0.123351h 0.468766v -0.123351h 0.468766v -0.123351h 0.468766v 0.616754h 0.468766v -0.370053h 0.937533v -0.246702h 0.468766v 0.370053h 0.937533v -0.740105h
 0.468766v 0.740105h 0.468766v -0.123351h 0.468766v 0.123351h 0.468766v -0.246702h 0.468766v 0.370053h 0.468766v -0.246702h 0.468766v -0.123351h 0.468766v 0.246702h 0.468766v -0.616754h 0.468766v 0.493403h 0.468766v 0.246702h 0.468766v -0.123351h
 0.468766v -0.616754h 0.468766v -0.246702h 0.468766v 0.370053h 0.468766v 0.370053h 0.937533v 0.370053h 0.468766v -0.370053h 0.468766v 0.123351h 0.468766v 0.123351h 0.468766v -0.370053h 0.468766v 0.370053h 0.468766v -0.246702h 0.468766v 0.370053h
 0.468766v -0.616754h 0.937533v -0.246702h 0.468766v 0.370053h 2.34383v -0.740105h 0.468766v 0.740105h 0.468766v 0.370053h 0.468766v -0.616754h 0.468766v 0.246702h 0.937533v -0.370053h 0.468766v 0.616754h 0.468766v -0.246702h 0.468766v -0.246702h
 0.468766v 0.246702h 0.468766v -0.493403h 0.468766v 0.370053h 0.468766v 0.370053h 0.468766v -0.370053h 0.468766v -0.246702h 0.468766v 0.123351h 0.937533v 0.123351h 0.468766v -0.370053h 0.468766v 0.370053h 0.937533v -0.370053h 0.468766v -0.246702h
 0.468766v 0.246702h 0.468766v 0.616754h 0.937533v -0.246702h 0.468766v -0.123351h 1.4063v 0.246702h 0.468766v -0.123351h 0.468766v -0.246702h 0.468766v 0.616754h 0.468766v -0.863456h 0.468766v 0.370053h 0.468766v 0.493403h 0.468766v -0.616754h
 0.468766v 0.740105h 0.468766v -0.493403h 0.468766v 0.370053h 0.468766v -0.493403h 0.468766v 0.246702h 0.468766v -0.493403h 0.468766v 0.616754h 0.468766v -0.370053h 0.468766v 0.123351h 0.937533v -0.740105h 0.468766v 0.740105h 0.468766v -0.246702h
 0.468766v 0.616754h 0.468766v -0.740105h 0.468766v -0.123351h 0.937533v 0.246702h 0.468766v 0.616754h 0.468766v -1.23351h 0.468766v 0.740105h 0.468766v -0.123351h 0.937533v -0.493403h 0.468766v 0.123351h 0.937533v 0.493403h 0.468766v -0.246702h
 0.468766v -0.246702h 0.468766v 0.493403h 0.468766v -0.370053h 0.468766v 0.370053h 0.468766v -0.370053h 0.468766v -0.370053h 0.468766v 0.493403h 0.468766v -0.123351h 0.468766v 0.370053h 0.468766v -0.246702h 0.468766v -0.370053h 0.468766v 0.246702h
 0.468766v -0.493403h 0.468766v 0.986807h 0.468766v -0.123351h 0.468766v -1.11016h 0.468766v 0.986807h 0.468766v -0.493403h 0.468766v 0.246702h 1.4063v -0.246702h 1.4063v -0.370053h 0.468766v 0.863456h 0.468766v -0.986807h 0.468766v 0.863456h
 0.468766v -0.616754h 0.468766v 0.370053h 0.468766v -0.370053h 0.468766v -0.123351h 0.468766v 0.370053h 0.937533v 0.246702h 0.468766v 0.123351h 0.468766v -0.986807h 0.468766v -0.246702h 0.468766v 1.72691h 0.468766v -0.986807h 0.468766v -0.123351h
 0.468766v -0.863456h 0.468766v 0.986807h 0.468766v -0.986807h 0.937533v 0.616754h 0.468766v 0.370053h 0.468766v -0.863456h 0.468766v 0.370053h 0.468766v 0.493403h 0.468766v -0.863456h 0.468766v 0.616754h 0.468766v -0.370053h 0.468766v 0.493403h
 0.468766v -0.493403h 0.468766v 0.246702h 0.468766v -1.48021h 0.468766v 0.863456h 0.468766v -0.123351h 0.937533v -0.246702h 0.937533v 0.370053h 0.468766v -0.493403h 0.468766v -0.123351h 0.468766v 0.863456h 0.468766v -0.493403h 0.468766v -0.740105h
 0.468766v 0.370053h 0.468766v 0.370053h 0.468766v 0.246702h 0.468766v -1.60356h 0.468766v 0.493403h 0.468766v -0.740105h 0.468766v 1.23351h 0.468766v -2.34367h 0.468766v 0.986807h 0.468766v -0.370053h 0.468766v -0.123351h 0.468766v 0.740105h
 0.468766v -1.72691h 0.468766v 0.616754h 0.468766v -1.72691h 0.468766v 2.59037h 0.468766v -1.72691h 0.468766v -0.616754h 0.468766v -0.616754h 0.468766v 0.123351h 0.468766v -0.493403h 0.468766v -0.863456h 0.468766v 0.616754h 0.468766v -1.48021h
 0.468766v -0.863456h 0.468766v 1.23351h 0.468766v -2.22032h 0.468766v 0.740105h 0.468766v -0.986807h 0.468766v -1.72691h 0.468766v 1.23351h 0.468766v -1.35686h 0.468766v -0.246702h 0.468766v -1.85026h 0.468766v 0.863456h 0.468766v -0.370053h
 0.468766v -0.740105h 0.468766v -3.57718h 0.468766v 0.493403h 0.468766v -3.57718h 0.468766v 1.72691h 0.468766v -0.493403h 0.468766v -0.370053h 0.468766v -1.72691h 0.468766v -3.57718h 0.468766v 1.97361h 0.468766v -1.85026h 0.468766v -2.09696h
 0.468766v -4.19393h 0.468766v -2.59037h 0.468766v 0.986807h 0.468766v -0.863456h 0.468766v -6.41425h 0.468766v 0.493403h 0.468766v 2.59037h 0.468766v -6.16754h 0.468766v -4.19393h 0.468766v 2.09696h 0.468766v 0.493403h 0.468766v -3.70053h 0.468766v
 -6.5376h 0.468766v 1.48021h 0.468766v -7.031h 0.468766v -1.85026h 0.468766v -4.19393h 0.468766v 3.70053h 0.468766v -4.31728h 0.468766v -2.22032h 0.468766v -4.19393h 0.468766v -3.82388h 0.468766v -6.66095h 0.468766v 3.70053h 0.468766v 4.44063h
 0.468766v -14.6788h 0.468766v -7.2777h 0.468766v 9.12796h 0.468766v -9.99142h 0.468766v 4.19393h 0.468766v -9.37467h 0.468766v -3.82388h 0.468766v -1.97361h 0.468766v 2.59037h 0.468766v -6.16754h 0.468766v -6.66095h 0.468766v 7.031h 0.468766v
 -7.2777h 0.468766v -10.2381h 0.468766v -1.11016h 0.468766v 1.11016h 0.468766v -9.86807h 0.468766v 1.11016h 0.468766v -2.59037h 0.468766v -0.370053h 0.468766v -2.71372h 0.468766v -10.2381h 0.468766v -0.616754h 0.468766v -1.72691h 0.468766v -8.38786h
 0.468766v -0.370053h 0.468766v 2.71372h 0.468766v -14.1853h 0.468766v 4.68733h 0.468766v -4.44063h 0.468766v -5.55079h 0.468766v 0.123351h 0.468766v -4.44063h 0.468766v 0.123351h 0.468766v -3.70053h 0.468766v 1.23351h 0.468766v -9.12796h 0.468766v
 3.70053h 0.468766v -8.75791h 0.468766v -2.09696h 0.468766v -0.740105h 0.468766v -3.70053h 0.468766v 0.123351h 0.468766v -2.34367h 0.468766v 4.68733h 0.468766v -7.89446h 0.468766v -11.965h 0.468766v -0.740105h 0.468766v -3.57718h 0.468766v 0.616754h
 0.468766v -2.34367h 0.468766v 3.08377h 0.468766v -7.15435h 0.468766v 8.26451h 0.468766v -11.965h 0.468766v 1.23351h 0.468766v -2.59037h 0.468766v -2.46702h 0.468766v -6.7843h 0.468766v 7.031h 0.468766v 1.97361h 0.468766v -11.595h 0.468766v 4.56398h
 0.468766v -10.1148h 0.468766v 1.23351h 0.468766v 1.48021h 0.937533v 3.08377h 0.468766v -1.97361h 0.468766v 0.616754h 0.468766v -7.7711h 0.468766v 2.71372h 0.468766v -4.56398h 0.468766v 4.31728h 0.468766v -4.93403h 0.468766v 2.59037h 0.468766v
 8.51121h 0.468766v -15.0488h 0.468766v 3.57718h 0.468766v -6.7843h 0.468766v 10.3615h 0.468766v -16.4057h 0.468766v 15.1722h 0.468766v -17.6392h 0.468766v 1.11016h 0.468766v 4.56398h 0.468766v 4.56398h 0.468766v -8.51121h 0.468766v -2.46702h
 0.468766v 3.82388h 0.468766v 5.92084h 0.468766v 2.71372h 0.468766v -8.26451h 0.468766v -1.48021h 0.468766v 2.71372h 0.468766v -7.15435h 0.468766v 5.67414h 0.468766v -6.7843h 0.468766v 13.9386h 0.468766v -10.1148h 0.468766v -9.74472h 0.468766v
 11.595h 0.468766v -13.6919h 0.468766v 8.38786h 0.468766v 5.05739h 0.468766v -9.12796h 0.468766v 0.493403h 0.468766v 4.19393h 0.468766v -3.08377h 0.468766v -14.1853h 0.468766v -4.56398h 0.468766v 23.6834h 0.468766v 7.2777h 0.468766v -28.124h
 0.468766v 19.9828h 0.468766v -4.31728h 0.468766v -11.4716h 0.468766v -0.493403h 0.468766v 17.1458h 0.468766v -8.51121h 0.468766v 1.97361h 0.468766v -0.616754h 0.468766v -1.23351h 0.468766v 8.51121h 0.468766v -15.7889h 0.468766v 13.0752h 0.468766v
 0.863456h 0.468766v -9.86807h 0.468766v -2.71372h 0.468766v 9.00461h 0.468766v -6.41425h 0.468766v 6.90765h 0.468766v -7.2777h 0.468766v -3.94723h 0.468766v 15.1722h 0.468766v -4.31728h 0.468766v -9.37467h 0.468766v 4.68733h 0.468766v 3.45382h
 0.468766v -0.863456h 0.468766v 1.11016h 0.468766v -0.616754h 0.468766v -6.29089h 0.468766v 14.8021h 0.468766v 2.46702h 0.468766v -9.74472h 0.468766v 7.7711h 0.468766v -5.18074h 0.468766v -6.90765h 0.468766v 13.6919h 0.468766v -2.09696h 0.468766v
 3.82388h 0.468766v -7.5244h 0.468766v 4.44063h 0.468766v 2.83707h 0.468766v 1.23351h 0.468766v 1.72691h 0.468766v -7.64775h 0.468766v -0.740105h 0.468766v 6.41425h 0.468766v -8.38786h 0.468766v 11.4716h 0.468766v -9.25132h 0.468766v 13.3219h
 0.468766v -13.1985h 0.468766v 0.740105h 0.468766v -1.48021h 0.468766v 6.5376h 0.468766v -1.60356h 0.468766v 16.529h 0.468766v -8.14116h 0.468766v -2.96042h 0.468766v 5.18074h 0.468766v 6.90765h 0.468766v -10.2381h 0.468766v 6.16754h 0.468766v
 12.3351h 0.468766v -4.44063h 0.468766v 5.30409h 0.468766v -5.42744h 0.468766v -6.04419h 0.468766v 4.56398h 0.468766v 4.56398h 0.468766v 4.81068h 0.468766v -1.85026h 0.468766v -2.96042h 0.468766v 14.4321h 0.468766v -8.26451h 0.468766v 6.41425h
 0.468766v 1.48021h 0.468766v -5.30409h 0.468766v 4.19393h 0.468766v 15.6656h 0.468766v -13.5686h 0.468766v 12.9518h 0.468766v -10.9782h 0.468766v 7.2777h 0.468766v -2.09696h 0.468766v 2.71372h 0.468766v 9.74472h 0.468766v -9.86807h 0.468766v
 7.15435h 0.468766v -1.97361h 0.468766v 8.75791h 0.468766v 1.23351h 0.468766v -0.863456h 0.468766v -2.46702h 0.468766v 11.4716h 0.468766v 1.11016h 0.468766v -3.82388h 0.468766v 14.6788h 0.468766v -3.94723h 0.468766v 4.19393h 0.468766v 1.35686h
 0.468766v -10.7315h 0.468766v 12.9518h 0.468766v 7.89446h 0.468766v 8.38786h 0.468766v -1.97361h 0.468766v 4.44063h 0.468766v 7.2777h 0.468766v 4.56398h 0.468766v -1.97361h 0.468766v 3.08377h 0.468766v -0.123351h 0.468766v 3.08377h 0.468766v
 4.81068h 0.468766v -2.71372h 0.468766v 7.40105h 0.468766v 12.9518h 0.468766v -1.35686h 0.468766v 5.18074h 0.468766v -10.3615h 0.468766v 18.1326h 0.468766v 4.93403h 0.468766v -3.57718h 0.468766v 3.08377h 0.468766v -0.123351h 0.468766v 6.29089h
 0.468766v 3.33047h 0.468766v 1.85026h 0.468766v 1.11016h 0.468766v 5.79749h 0.468766v 1.23351h 0.468766v 4.68733h 0.468766v 8.38786h 0.468766v -1.60356h 0.468766v 7.64775h 0.468766v 0.740105h 0.468766v -1.85026h 0.468766v 4.81068h 0.468766v 1.35686h
 0.468766v 3.82388h 0.468766v 4.56398h 0.468766v 4.44063h 0.468766v -2.83707h 0.468766v 2.22032h 0.468766v 6.5376h 0.468766v -1.85026h 0.468766v 5.42744h 0.468766v 2.59037h 0.468766v 3.57718h 0.468766v -3.57718h 0.468766v 9.74472h 0.468766v 4.19393h
 0.468766v -6.41425h 0.468766v 5.92084h 0.468766v -1.97361h 0.468766v 1.11016h 0.468766v 1.48021h 0.468766v 2.34367h 0.468766v 2.71372h 0.468766v 1.72691h 0.468766v -0.123351h 0.468766v 0.370053h 0.468766v 1.48021h 0.468766v 2.09696h 0.468766v
 2.71372h 0.468766v 1.11016h 0.468766v -0.493403h 0.468766v 0.863456h 0.468766v 2.71372h 0.468766v -2.59037h 0.468766v 3.45382h 0.468766v 0.123351h 0.468766v 1.72691h 0.468766v 0.123351h 0.468766v -0.740105h 0.468766v 2.96042h 0.468766v -1.72691h
 0.468766v 3.08377h 0.468766v -1.97361h 0.468766v 1.72691h 0.468766v 2.34367h 0.468766v -0.616754h 0.468766v 0.863456h 0.468766v 0.616754h 0.468766v 0.246702h 0.468766v -0.123351h 0.468766v 2.09696h 0.468766v -1.97361h 0.468766v 0.370053h 0.468766v
 0.493403h 0.468766v 2.09696h 0.468766v -0.493403h 0.468766v 0.123351h 0.468766v 0.740105h 0.937533v -0.123351h 0.468766v 1.11016h 0.468766v -0.123351h 0.468766v 0.616754h 0.468766v -0.740105h 0.468766v 0.986807h 0.468766v 0.493403h 0.468766v
 -0.123351h 0.468766v 0.616754h 0.468766v -1.23351h 0.937533v 0.986807h 0.468766v -0.740105h 0.468766v -1.35686h 0.468766v 1.97361h 0.468766v 0.986807h 0.468766v -1.60356h 0.468766v 1.11016h 0.468766v -0.740105h 0.468766v 0.616754h 0.468766v
 0.986807h 0.468766v -1.72691h 0.468766v -0.123351h 0.468766v 1.60356h 0.468766v -0.246702h 0.468766v 0.370053h 0.937533v -1.23351h 0.468766v 0.740105h 0.468766v 0.616754h 0.468766v -1.11016h 0.468766v 1.23351h 0.468766v -0.123351h 0.468766v
 -1.35686h 0.468766v 1.48021h 0.468766v 0.123351h 0.468766v -0.123351h 0.468766v -0.740105h 0.468766v 0.616754h 0.468766v -0.493403h 0.468766v -0.493403h 0.468766v 0.246702h 0.468766v 1.23351h 0.468766v -0.246702h 0.468766v -0.370053h 0.468766v
 0.370053h 0.468766v 0.370053h 0.468766v 0.616754h 0.468766v -0.493403h 0.468766v 0.123351h 0.468766v -0.863456h 0.937533v 1.23351h 0.468766v -0.246702h 0.468766v -1.48021h 0.468766v 0.863456h 0.468766v -0.123351h 0.468766v 0.493403h 0.468766v
 -0.246702h 0.468766v 0.246702h 0.468766v -0.123351h 0.468766v 0.370053h 0.937533v -0.863456h 0.468766v 0.740105h 0.468766v -0.370053h 0.468766v 0.370053h 0.468766v -0.246702h 0.468766v -0.616754h 0.468766v 0.370053h 0.468766v 1.11016h 0.468766v
 -1.23351h 0.468766v 0.246702h 0.468766v 0.246702h 0.468766v 0.493403h 1.4063v -0.493403h 0.468766v -0.616754h 0.468766v 0.986807h 0.468766v -0.123351h 0.468766v -0.493403h 0.468766v 0.246702h 0.468766v 0.246702h 0.468766v 0.370053h 0.468766v
 -0.616754h 0.468766v 0.616754h 0.468766v 0.123351h 0.468766v -0.740105h 0.468766v 0.123351h 0.468766v -0.370053h 0.468766v 0.740105h 0.468766v -0.123351h 0.468766v -0.493403h 0.468766v 0.616754h 0.468766v -0.740105h 0.468766v 0.493403h 0.468766v
 -0.370053h 0.937533v 0.616754h 0.937533v -1.72691h 0.468766v 0.863456h 0.468766v 0.863456h 0.468766v -0.370053h 0.468766v 0.246702h 0.468766v 0.123351h 0.468766v -0.246702h 0.468766v 0.493403h 0.937533v -0.740105h 0.468766v 0.616754h 0.468766v
 0.246702h 0.468766v -0.246702h 0.468766v 0.370053h 0.468766v -0.740105h 0.468766v -0.123351h 0.937533v 0.493403h 0.468766v -0.123351h 0.468766v -0.246702h 0.468766v 0.370053h 0.468766v -0.246702h 0.468766v 0.246702h 0.468766v -0.370053h 0.468766v
 0.370053h 0.468766v -0.123351h 0.937533v 0.123351h 0.468766v 0.123351h 0.937533v -0.863456h 0.468766v 0.123351h 0.468766v 0.616754h 0.468766v -0.123351h 0.937533v 0.123351h 0.468766v 0.123351h 0.468766v -0.370053h 0.468766v 0.123351h 0.468766v
 -0.123351h 0.468766v 0.246702h 0.468766v -0.123351h 0.468766v -0.370053h 0.468766v 0.616754h 0.468766v 0.123351h 0.468766v -0.246702h 0.468766v -0.246702h 0.468766v -0.370053h 0.468766v 0.740105h 0.468766v 0.246702h 0.468766v -0.246702h 0.468766v
 0.370053h 0.468766v -0.370053h 0.468766v -0.123351h 0.468766v 0.246702h 0.468766v -0.493403h 0.937533v 0.740105h 0.468766v -0.863456h 0.468766v 0.123351h 0.468766v -0.493403h 0.468766v 0.986807h 0.468766v -0.123351h 0.468766v -0.123351h 0.468766v
 -0.123351h 0.468766v 0.370053h 0.468766v -0.493403h 0.468766v 0.246702h 0.468766v 0.246702h 0.468766v 0.123351h 0.468766v -0.493403h 0.468766v 0.246702h 0.468766v 0.246702h 0.468766v -0.123351h 0.468766v -0.740105h 0.468766v 0.616754h 0.468766v
 0.123351h 0.468766v 0.123351h 0.468766v -0.616754h 0.468766v 0.246702h 0.468766v -0.493403h 0.468766v 0.740105h 0.468766v 0.246702h 0.468766v -0.493403h 0.468766v 0.370053h 0.937533v -0.370053h 0.468766v 0.246702h 0.468766v -0.123351h 0.937533v
 0.370053h 0.468766v -0.616754h 0.468766v 0.123351h 0.468766v 0.123351h 0.468766v 0.123351h 0.468766v -0.246702h 0.468766v 0.370053h 0.468766v -0.616754h 0.468766v 0.493403h 0.468766v -0.246702h 0.468766v 0.370053h 0.468766v -0.123351h 0.468766v
 -0.493403h 0.468766v 0.616754h 0.468766v -0.246702h 0.468766v 0.123351h 0.468766v 0.370053h 0.468766v -0.246702h 0.468766v -0.740105h 0.468766v 0.740105h 0.468766v -0.123351h 0.937533v -0.246702h 0.468766v 0.370053h 0.468766v -0.370053h 0.468766v
 0.370053h 0.468766v -0.493403h 0.468766v 0.246702h 0.468766v -0.616754h 0.468766v 0.863456h 0.468766v -0.246702h 0.468766v 0.246702h 0.468766v 0.246702h 0.468766v -0.123351h 0.468766v -0.123351h 0.468766v -0.246702h 1.4063v 0.493403h 0.937533v
 -0.246702h 0.468766v -0.370053h 0.468766v 0.123351h 0.468766v -0.123351h 0.937533v 0.370053h 0.468766v -0.370053h 0.468766v 0.493403h 0.468766v -0.493403h 0.468766v 0.370053h 0.468766v 0.123351h 0.468766v -0.123351h 0.468766v 0.123351h 0.468766v
 -0.370053h 0.468766v -0.246702h 0.468766v 0.370053h 0.468766v 0.246702h 0.468766v -0.123351h 0.468766v 0.123351h 0.468766v 0.123351h 0.468766v -0.370053h 0.468766v 0.123351h 0.937533v -0.246702h 0.468766v 0.370053h 0.468766v 0.123351h 0.468766v
 -0.370053h 0.468766v 0.123351h 0.468766v 0.123351h 0.468766v -0.370053h 0.468766v 0.370053h 0.468766v -0.246702h 0.468766v 0.246702h 0.468766v -0.246702h 0.468766v 0.246702h 0.937533v -0.370053h 0.468766v 0.246702h 0.468766v 0.123351h 0.468766v
 -0.246702h 0.468766v 0.246702h 0.468766v -0.370053h 0.468766v -0.123351h 0.468766v -0.246702h 0.468766v 0.616754h 0.468766v 0.123351h 0.937533v -0.493403h 0.468766v 0.493403h 0.468766v 0.123351h 0.937533v -0.370053h 0.937533v 0.370053h 0.468766v
 -0.493403h 0.468766v 0.246702h 0.468766v -0.246702h 0.468766v -0.123351h 0.468766v 0.493403h 1.4063v -0.123351h 1.4063v 0.123351h 0.468766v -0.123351h 0.468766v 0.123351h 0.468766v 0.123351h 0.937533v -0.246702h 0.468766" fill="none"
 stroke="#000099"/>
<rect x="390.212" y="45.1246" width="113.632" height="64.4051" fill="white"/>
<path d="M390.212,109.53h 113.632" fill="none" stroke="black"/>
<path d="M503.844,109.53v -64.4051" fill="none" stroke="black"/>
<path d="M503.844,45.1246h -113.632" fill="none" stroke="black"/>
<path d="M390.212,45.1246v 64.4051" fill="none" stroke="black"/>
<text xml:space="preserve" x="414.005" y="58.2518" fill="black" font-size="14.0901" font-family="Helvetica">residualsX</text>
<path d="M390.212,61.2259h 113.632" fill="none" stroke="black"/>
<text xml:space="preserve" x="395.545" y="73.43" fill="black" font-size="12.0757" font-family="Helvetica">Entries </text>
<text xml:space="preserve" x="455.438" y="73.43" fill="black" font-size="12.0757" font-family="Helvetica"> 495637</text>
<text xml:space="preserve" x="395.545" y="89.839" fill="black" font-size="12.0757" font-family="Helvetica">Mean  </text>
<text xml:space="preserve" x="458.72" y="89.839" fill="black" font-size="12.0757" font-family="Helvetica"> 0.4083</text>
<text xml:space="preserve" x="395.545" y="105.838" fill="black" font-size="12.0757" font-family="Helvetica">Std Dev   </text>
<text xml:space="preserve" x="465.283" y="105.838" fill="black" font-size="12.0757" font-family="Helvetica">   18.7</text>
<path d="M57.316,364.074h 453.297" fill="none" stroke="black"/>
<path d="M94.8173,354.371v 9.70226" fill="none" stroke="black"/>
<path d="M113.568,359.222v 4.85113" fill="none" stroke="black"/>
<path d="M132.319,359.222v 4.85113" fill="none" stroke="black"/>
<path d="M151.069,359.222v 4.85113" fill="none" stroke="black"/>
<path d="M169.82,359.222v 4.85113" fill="none" stroke="black"/>
<path d="M188.571,354.371v 9.70226" fill="none" stroke="black"/>
<path d="M207.321,359.222v 4.85113" fill="none" stroke="black"/>
<path d="M226.072,359.222v 4.85113" fill="none" stroke="black"/>
<path d="M244.823,359.222v 4.85113" fill="none" stroke="black"/>
<path d="M263.573,359.222v 4.85113" fill="none" stroke="black"/>
<path d="M282.324,354.371v 9.70226" fill="none" stroke="black"/>
<path d="M301.075,359.222v 4.85113" fill="none" stroke="black"/>
<path d="M319.825,359.222v 4.85113" fill="none" stroke="black"/>
<path d="M338.576,359.222v 4.85113" fill="none" stroke="black"/>
<path d="M357.327,359.222v 4.85113" fill="none" stroke="black"/>
<path d="M376.077,354.371v 9.70226" fill="none" stroke="black"/>
<path d="M394.828,359.222v 4.85113" fill="none" stroke="black"/>
<path d="M413.578,359.222v 4.85113" fill="none" stroke="black"/>
<path d="M432.329,359.222v 4.85113" fill="none" stroke="black"/>
<path d="M451.08,359.222v 4.85113" fill="none" stroke="black"/>
<path d="M469.83,354.371v 9.70226" fill="none" stroke="black"/>
<path d="M94.8173,354.371v 9.70226" fill="none" stroke="black"/>
<path d="M76.0667,359.222v 4.85113" fill="none" stroke="black"/>
<path d="M469.83,354.371v 9.70226" fill="none" stroke="black"/>
<path d="M488.581,359.222v 4.85113" fill="none" stroke="black"/>
<path d="M507.332,359.222v 4.85113" fill="none" stroke="black"/>
<text xml:space="preserve" x="87.0572" y="377.406" fill="black" font-size="13.4879" font-family="Helvetica">100</text>
<text xml:space="preserve" x="80.0834" y="377.406" fill="black" font-size="13.4879" font-family="Times">&#8722;</text>
<text xml:space="preserve" x="184.69" y="377.406" fill="black" font-size="13.4879" font-family="Helvetica">50</text>
<text xml:space="preserve" x="177.306" y="377.406" fill="black" font-size="13.4879" font-family="Times">&#8722;</text>
<text xml:space="preserve" x="278.632" y="377.406" fill="black" font-size="13.4879" font-family="Helvetica">0</text>
<text xml:space="preserve" x="368.471" y="377.406" fill="black" font-size="13.4879" font-family="Helvetica">50</text>
<text xml:space="preserve" x="459.13" y="377.406" fill="black" font-size="13.4879" font-family="Helvetica">100</text>
<text xml:space="preserve" x="496.46" y="389.302" fill="black" font-size="13.4879" font-family="Helvetica">m]</text>
<text xml:space="preserve" x="488.666" y="389.302" fill="black" font-size="13.4879" font-family="Times">&#0956;</text>
<text xml:space="preserve" x="478" y="389.302" fill="black" font-size="13.4879" font-family="Helvetica">  [</text>
<text xml:space="preserve" x="468.975" y="393.405" fill="black" font-size="9.1586" font-family="Helvetica">hit</text>
<text xml:space="preserve" x="458.31" y="389.302" fill="black" font-size="13.4879" font-family="Helvetica">-x</text>
<text xml:space="preserve" x="439.439" y="393.405" fill="black" font-size="9.1586" font-family="Helvetica">track</text>
<text xml:space="preserve" x="432.876" y="389.302" fill="black" font-size="13.4879" font-family="Helvetica">x</text>
<path d="M57.316,364.074v -323.667" fill="none" stroke="black"/>
<path d="M70.9257,364.074h -13.6097" fill="none" stroke="black"/>
<path d="M64.1209,351.738h -6.80487" fill="none" stroke="black"/>
<path d="M64.1209,339.403h -6.80487" fill="none" stroke="black"/>
<path d="M64.1209,327.068h -6.80487" fill="none" stroke="black"/>
<path d="M64.1209,314.733h -6.80487" fill="none" stroke="black"/>
<path d="M70.9257,302.398h -13.6097" fill="none" stroke="black"/>
<path d="M64.1209,290.063h -6.80487" fill="none" stroke="black"/>
<path d="M64.1209,277.728h -6.80487" fill="none" stroke="black"/>
<path d="M64.1209,265.393h -6.80487" fill="none" stroke="black"/>
<path d="M64.1209,253.058h -6.80487" fill="none" stroke="black"/>
<path d="M70.9257,240.723h -13.6097" fill="none" stroke="black"/>
<path d="M64.1209,228.388h -6.80487" fill="none" stroke="black"/>
<path d="M64.1209,216.052h -6.80487" fill="none" stroke="black"/>
<path d="M64.1209,203.717h -6.80487" fill="none" stroke="black"/>
<path d="M64.1209,191.382h -6.80487" fill="none" stroke="black"/>
<path d="M70.9257,179.047h -13.6097" fill="none" stroke="black"/>
<path d="M64.1209,166.712h -6.80487" fill="none" stroke="black"/>
<path d="M64.1209,154.377h -6.80487" fill="none" stroke="black"/>
<path d="M64.1209,142.042h -6.80487" fill="none" stroke="black"/>
<path d="M64.1209,129.707h -6.80487" fill="none" stroke="black"/>
<path d="M70.9257,117.372h -13.6097" fill="none" stroke="black"/>
<path d="M64.1209,105.037h -6.80487" fill="none" stroke="black"/>
<path d="M64.1209,92.7016h -6.80487" fill="none" stroke="black"/>
<path d="M64.1209,80.3665h -6.80487" fill="none" stroke="black"/>
<path d="M64.1209,68.0315h -6.80487" fill="none" stroke="black"/>
<path d="M70.9257,55.6964h -13.6097" fill="none" stroke="black"/>
<path d="M70.9257,55.6964h -13.6097" fill="none" stroke="black"/>
<path d="M64.1209,43.3613h -6.80487" fill="none" stroke="black"/>
<text xml:space="preserve" x="47.2655" y="368.791" fill="black" font-size="13.4879" font-family="Helvetica">0</text>
<text xml:space="preserve" x="32.9077" y="307.258" fill="black" font-size="13.4879" font-family="Helvetica">500</text>
<text xml:space="preserve" x="25.5236" y="245.314" fill="black" font-size="13.4879" font-family="Helvetica">1000</text>
<text xml:space="preserve" x="25.5236" y="183.78" fill="black" font-size="13.4879" font-family="Helvetica">1500</text>
<text xml:space="preserve" x="25.5236" y="122.247" fill="black" font-size="13.4879" font-family="Helvetica">2000</text>
<text xml:space="preserve" x="25.5236" y="60.3029" fill="black" font-size="13.4879" font-family="Helvetica">2500</text>
<g transform="rotate(-90,13.6272,90.2492)">
<text xml:space="preserve" x="13.6272" y="90.2492" fill="black" font-size="13.4879" font-family="Helvetica"># entries</text>
</g>
<rect x="390.212" y="45.1246" width="113.632" height="64.4051" fill="white"/>
<path d="M390.212,109.53h 113.632" fill="none" stroke="black"/>
<path d="M503.844,109.53v -64.4051" fill="none" stroke="black"/>
<path d="M503.844,45.1246h -113.632" fill="none" stroke="black"/>
<path d="M390.212,45.1246v 64.4051" fill="none" stroke="black"/>
<text xml:space="preserve" x="414.005" y="58.2518" fill="black" font-size="14.0901" font-family="Helvetica">residualsX</text>
<path d="M390.212,61.2259h 113.632" fill="none" stroke="black"/>
<text xml:space="preserve" x="395.545" y="73.43" fill="black" font-size="12.0757" font-family="Helvetica">Entries </text>
<text xml:space="preserve" x="455.438" y="73.43" fill="black" font-size="12.0757" font-family="Helvetica"> 495637</text>
<text xml:space="preserve" x="395.545" y="89.839" fill="black" font-size="12.0757" font-family="Helvetica">Mean  </text>
<text xml:space="preserve" x="458.72" y="89.839" fill="black" font-size="12.0757" font-family="Helvetica"> 0.4083</text>
<text xml:space="preserve" x="395.545" y="105.838" fill="black" font-size="12.0757" font-family="Helvetica">Std Dev   </text>
<text xml:space="preserve" x="465.283" y="105.838" fill="black" font-size="12.0757" font-family="Helvetica">   18.7</text>
<text xml:space="preserve" x="211.355" y="19.6907" fill="black" font-size="17.8481" font-family="Helvetica">Residual in local X</text>
<path d="M57.316,364.074h 69.8462v -0.123351h 0.468766v 0.123351h 14.063v -0.123351h 0.468766v 0.123351h 10.7816v -0.123351h 0.468766v 0.123351h 4.68766v -0.123351h 0.468766v 0.123351h 3.28137v -0.123351h 0.937533v 0.123351h 0.937533v -0.123351h
 0.937533v 0.123351h 0.468766v -0.123351h 0.468766v 0.123351h 1.87507v -0.246702h 0.468766v 0.123351h 0.937533v 0.123351h 1.4063v -0.246702h 0.468766v 0.246702h 1.87507v -0.123351h 0.468766v 0.123351h 0.468766v -0.246702h 0.937533v 0.123351h
 0.468766v 0.123351h 0.937533v -0.246702h 0.468766v 0.246702h 1.87507v -0.246702h 0.468766v 0.123351h 0.468766v -0.123351h 1.4063v 0.123351h 0.468766v -0.246702h 0.468766v 0.123351h 0.937533v -0.370053h 0.468766v 0.246702h 0.468766v 0.123351h
 0.468766v 0.123351h 0.468766v -0.493403h 0.468766v 0.246702h 0.468766v -0.493403h 0.468766v 0.493403h 0.937533v -0.246702h 0.468766v -0.493403h 0.468766v 0.123351h 0.468766v 0.616754h 0.468766v -0.246702h 0.468766v 0.123351h 0.468766v 0.123351h
 0.468766v -0.493403h 0.468766v -0.370053h 0.468766v -0.370053h 0.468766v 0.493403h 0.468766v 0.123351h 0.468766v -0.740105h 0.468766v -0.246702h 0.468766v 0.246702h 0.468766v 0.740105h 0.468766v -1.97361h 0.468766v 0.246702h 0.937533v 0.246702h
 0.468766v 0.246702h 0.468766v -0.740105h 0.468766v -0.123351h 0.468766v -2.22032h 0.468766v 2.46702h 0.468766v -0.740105h 0.468766v 0.370053h 0.468766v -1.48021h 0.468766v -0.986807h 0.468766v 1.23351h 0.468766v -1.35686h 0.468766v 0.493403h
 0.468766v -0.863456h 0.468766v -1.97361h 0.468766v 1.48021h 0.468766v -2.09696h 0.468766v 0.986807h 0.468766v -0.616754h 0.468766v -1.60356h 0.468766v 1.23351h 0.468766v -2.34367h 0.468766v 0.616754h 0.468766v -1.60356h 0.468766v 0.370053h 0.468766v
 -0.616754h 0.468766v -0.616754h 0.468766v -2.22032h 0.468766v -0.370053h 0.468766v -2.96042h 0.468766v 2.34367h 0.468766v -1.35686h 0.468766v -1.11016h 0.468766v -1.85026h 0.468766v -1.85026h 0.468766v 1.72691h 0.468766v -2.83707h 0.468766v
 -1.60356h 0.468766v -4.68733h 0.468766v -1.11016h 0.468766v 0.616754h 0.468766v -1.72691h 0.468766v -6.41425h 0.468766v 0.740105h 0.468766v 2.46702h 0.468766v -5.05739h 0.468766v -5.05739h 0.468766v 2.96042h 0.468766v -1.23351h 0.468766v -2.09696h
 0.468766v -6.7843h 0.468766v 0.740105h 0.468766v -5.30409h 0.468766v -2.83707h 0.468766v -3.70053h 0.468766v 3.33047h 0.468766v -3.94723h 0.468766v -1.60356h 0.468766v -4.44063h 0.468766v -2.71372h 0.468766v -7.7711h 0.468766v 2.22032h 0.468766v
 6.04419h 0.468766v -14.3087h 0.468766v -5.55079h 0.468766v 7.5244h 0.468766v -8.01781h 0.468766v 1.48021h 0.468766v -8.38786h 0.468766v -1.60356h 0.468766v -3.57718h 0.468766v 4.44063h 0.468766v -6.41425h 0.468766v -8.38786h 0.468766v 8.88126h
 0.468766v -8.26451h 0.468766v -10.9782h 0.468766v 1.60356h 0.468766v 2.09696h 0.468766v -10.2381h 0.468766v -0.123351h 0.468766v -2.71372h 0.468766v 0.863456h 0.468766v -2.22032h 0.468766v -10.8549h 0.468766v 0.986807h 0.468766v -2.59037h 0.468766v
 -6.16754h 0.468766v 0.370053h 0.468766v -0.246702h 0.468766v -11.4716h 0.468766v 4.31728h 0.468766v -3.82388h 0.468766v -4.07058h 0.468766v -2.59037h 0.468766v -2.09696h 0.468766v 0.246702h 0.468766v -3.08377h 0.468766v 2.83707h 0.468766v -7.15435h
 0.468766v -0.246702h 0.468766v -7.031h 0.468766v -1.97361h 0.468766v 1.72691h 0.468766v -3.08377h 0.468766v 3.08377h 0.468766v -5.42744h 0.468766v 4.93403h 0.468766v -6.7843h 0.468766v -10.4848h 0.468766v 0.863456h 0.468766v -3.20712h 0.468766v
 1.60356h 0.468766v 0.740105h 0.468766v -0.123351h 0.468766v -6.41425h 0.468766v 7.64775h 0.468766v -9.00461h 0.468766v 0.493403h 0.468766v -0.370053h 0.468766v -4.19393h 0.468766v -3.57718h 0.468766v 4.31728h 0.468766v 0.493403h 0.468766v -5.18074h
 0.468766v 5.92084h 0.468766v -7.40105h 0.468766v -1.97361h 0.468766v 3.08377h 0.468766v -2.09696h 0.468766v 5.67414h 0.468766v 1.11016h 0.468766v 0.616754h 0.468766v -9.37467h 0.468766v 4.31728h 0.468766v -1.35686h 0.468766v -4.44063h 0.468766v
 5.30409h 0.468766v -3.94723h 0.468766v 10.6082h 0.468766v -10.7315h 0.468766v 4.07058h 0.468766v -5.05739h 0.468766v 4.19393h 0.468766v -13.4452h 0.468766v 13.5686h 0.468766v -13.4452h 0.468766v 2.71372h 0.468766v 4.56398h 0.468766v 5.42744h
 0.468766v -12.5818h 0.468766v 8.14116h 0.468766v -3.08377h 0.468766v 8.14116h 0.468766v 0.370053h 0.468766v -1.72691h 0.468766v -5.55079h 0.468766v 3.33047h 0.468766v -8.51121h 0.468766v 7.031h 0.468766v -3.45382h 0.468766v 7.89446h 0.468766v
 -2.22032h 0.468766v -12.7051h 0.468766v 11.1016h 0.468766v -10.9782h 0.468766v 8.63456h 0.468766v 7.7711h 0.468766v -11.7183h 0.468766v 1.23351h 0.468766v 5.05739h 0.468766v -6.16754h 0.468766v -7.40105h 0.468766v -6.90765h 0.468766v 16.159h
 0.468766v 8.63456h 0.468766v -22.4499h 0.468766v 17.7625h 0.468766v 0.246702h 0.468766v -15.5422h 0.468766v 2.59037h 0.468766v 10.4848h 0.468766v -7.64775h 0.468766v 5.79749h 0.468766v -3.08377h 0.937533v 10.1148h 0.468766v -13.5686h 0.468766v
 6.7843h 0.468766v 5.55079h 0.468766v -9.99142h 0.468766v -3.33047h 0.468766v 5.30409h 0.468766v -2.46702h 0.468766v 3.45382h 0.468766v -3.57718h 0.468766v -10.8549h 0.468766v 18.626h 0.468766v -1.23351h 0.468766v -7.40105h 0.468766v 3.45382h
 0.468766v -0.863456h 0.468766v -2.22032h 0.468766v 2.83707h 0.468766v -3.82388h 0.937533v 13.4452h 0.468766v -0.740105h 0.468766v -7.89446h 0.468766v 7.031h 0.468766v -5.55079h 0.468766v -4.93403h 0.468766v 8.01781h 0.468766v -2.22032h 0.468766v
 6.04419h 0.468766v -8.38786h 0.468766v 0.740105h 0.468766v 3.08377h 0.468766v 3.20712h 0.468766v -0.246702h 0.468766v -6.90765h 0.468766v -4.19393h 0.468766v 8.01781h 0.468766v -7.031h 0.468766v 6.66095h 0.468766v -0.493403h 0.468766v 5.30409h
 0.468766v -16.7757h 0.468766v 7.40105h 0.468766v -3.57718h 0.468766v 7.15435h 0.468766v -0.123351h 0.468766v 11.1016h 0.468766v -9.86807h 0.468766v 1.97361h 0.468766v 2.83707h 0.468766v 1.60356h 0.468766v -8.88126h 0.468766v 8.75791h 0.468766v
 6.29089h 0.468766v -1.35686h 0.468766v 0.123351h 0.468766v -2.09696h 0.468766v -8.14116h 0.468766v 8.26451h 0.468766v 6.66095h 0.468766v -0.246702h 0.468766v -7.5244h 0.937533v 12.9518h 0.468766v -9.37467h 0.468766v 7.031h 0.468766v 2.09696h
 0.468766v -7.031h 0.937533v 15.9123h 0.468766v -11.7183h 0.468766v 10.7315h 0.468766v -10.4848h 0.468766v 4.56398h 0.468766v -1.72691h 0.468766v 7.7711h 0.468766v 4.93403h 0.468766v -11.4716h 0.468766v 6.7843h 0.468766v -2.71372h 0.468766v 11.7183h
 0.468766v -0.123351h 0.468766v -3.70053h 0.468766v -1.72691h 0.468766v 10.7315h 0.468766v -0.616754h 0.468766v -1.72691h 0.468766v 11.1016h 0.468766v -3.57718h 0.468766v 4.81068h 0.468766v 0.493403h 0.468766v -10.7315h 0.468766v 11.965h 0.468766v
 6.04419h 0.468766v 9.49802h 0.468766v -4.56398h 0.468766v 5.55079h 0.468766v 5.42744h 0.468766v 4.19393h 0.937533v -0.246702h 0.468766v 0.616754h 0.468766v 2.59037h 0.468766v 2.83707h 0.468766v -0.616754h 0.468766v 6.7843h 0.468766v 13.9386h
 0.468766v -1.97361h 0.468766v 4.19393h 0.468766v -10.4848h 0.468766v 18.1326h 0.468766v 5.79749h 0.468766v -6.16754h 0.468766v 2.59037h 0.468766v 2.09696h 0.468766v 4.31728h 0.468766v 4.81068h 0.468766v -0.616754h 0.468766v 2.59037h 0.468766v
 6.16754h 0.468766v -0.370053h 0.468766v 3.57718h 0.468766v 10.9782h 0.468766v -2.71372h 0.468766v 5.79749h 0.468766v 2.59037h 0.468766v -1.48021h 0.468766v 4.68733h 0.468766v -1.35686h 0.468766v 5.18074h 0.468766v 4.07058h 0.468766v 3.94723h
 0.468766v -4.19393h 0.468766v 2.34367h 0.468766v 6.7843h 0.468766v -0.986807h 0.468766v 5.30409h 0.468766v 2.83707h 0.468766v 3.45382h 0.468766v -3.20712h 0.468766v 8.75791h 0.468766v 2.96042h 0.468766v -4.68733h 0.468766v 6.29089h 0.468766v
 -1.85026h 0.468766v 0.863456h 0.468766v 1.35686h 0.468766v 0.370053h 0.468766v 3.20712h 0.468766v 2.34367h 0.468766v -0.740105h 0.468766v 0.863456h 0.468766v 2.09696h 0.468766v 2.46702h 0.468766v 1.35686h 0.468766v 2.34367h 0.468766v -1.11016h
 0.468766v 0.370053h 0.468766v 2.46702h 0.468766v -2.09696h 0.468766v 3.45382h 0.468766v 0.493403h 0.468766v 1.23351h 0.468766v 1.35686h 0.468766v -2.34367h 0.468766v 2.34367h 0.468766v -1.35686h 0.468766v 2.96042h 0.468766v -1.97361h 0.468766v
 2.46702h 0.468766v 0.493403h 0.468766v 0.370053h 0.468766v 1.48021h 0.468766v -0.123351h 0.937533v 0.370053h 0.468766v 1.72691h 0.468766v -0.616754h 0.468766v 0.123351h 0.468766v 0.246702h 0.468766v 1.35686h 0.468766v -0.246702h 0.468766v 0.493403h
 0.468766v -0.246702h 0.468766v 0.370053h 0.468766v 0.616754h 0.468766v 0.616754h 0.468766v -0.246702h 0.937533v -0.616754h 0.468766v 0.493403h 0.468766v 0.246702h 0.468766v 0.863456h 0.937533v 0.123351h 0.468766v -0.740105h 0.468766v 0.863456h
 0.468766v -0.740105h 0.468766v -1.23351h 0.468766v 1.60356h 0.468766v 0.616754h 0.468766v -0.616754h 0.468766v 0.740105h 0.468766v -0.370053h 0.468766v 0.123351h 0.468766v 0.246702h 0.468766v -0.493403h 0.468766v -0.370053h 0.468766v 0.863456h
 0.468766v -0.246702h 0.468766v 0.246702h 0.468766v 0.246702h 0.468766v -0.616754h 0.468766v 0.740105h 0.468766v -0.123351h 0.468766v -0.123351h 0.468766v 0.123351h 0.468766v 0.123351h 0.468766v -0.370053h 0.468766v 0.246702h 0.468766v 0.123351h
 0.468766v -0.123351h 0.468766v -0.123351h 0.937533v 0.123351h 0.937533v 0.246702h 0.937533v -0.123351h 0.468766v -0.246702h 0.468766v 0.370053h 0.468766v 0.246702h 0.468766v -0.123351h 0.468766v 0.123351h 0.468766v -0.123351h 0.468766v -0.493403h
 0.468766v 0.370053h 0.468766v 0.123351h 0.468766v -0.123351h 0.468766v 0.246702h 0.468766v -0.123351h 0.468766v -0.123351h 1.87507v 0.123351h 0.937533v 0.123351h 1.4063v -0.123351h 0.468766v 0.123351h 1.87507v -0.123351h 0.468766v -0.246702h
 0.468766v 0.246702h 0.468766v 0.123351h 2.34383v -0.246702h 0.468766v 0.246702h 0.937533v -0.246702h 0.468766v 0.246702h 1.4063v -0.246702h 0.468766v 0.246702h 0.468766v -0.123351h 0.468766v 0.123351h 0.468766v -0.123351h 0.468766v 0.123351h
 2.34383v -0.123351h 0.468766v 0.123351h 0.937533v -0.246702h 0.468766v 0.246702h 0.468766v -0.123351h 0.468766v 0.123351h 0.468766v -0.123351h 0.937533v 0.123351h 2.34383v -0.123351h 0.468766v 0.123351h 2.34383v -0.123351h 0.468766v 0.123351h
 2.34383v -0.123351h 0.468766v 0.123351h 13.5942v -0.123351h 0.468766v 0.123351h 69.8462" fill="none" stroke="#59d354"/>
<path d="M57.316,364.074h 21.5633v -0.123351h 0.468766v 0.123351h 39.3764v -0.123351h 0.468766v 0.123351h 6.56273v -0.123351h 0.468766v 0.123351h 5.15643v -0.123351h 0.468766v 0.123351h 0.937533v -0.123351h 0.468766v 0.123351h 1.4063v -0.123351h
 0.468766v 0.123351h 2.34383v -0.123351h 0.468766v 0.123351h 3.75013v -0.123351h 0.937533v 0.123351h 0.937533v -0.123351h 0.468766v 0.123351h 1.4063v -0.246702h 0.468766v 0.246702h 3.75013v -0.123351h 0.468766v 0.123351h 0.468766v -0.123351h
 0.468766v 0.123351h 1.4063v -0.123351h 0.468766v 0.123351h 0.468766v -0.123351h 0.468766v 0.123351h 0.937533v -0.246702h 0.468766v 0.123351h 1.87507v 0.123351h 0.468766v -0.246702h 0.468766v 0.123351h 0.937533v 0.123351h 0.468766v -0.123351h
 0.468766v 0.123351h 0.468766v -0.123351h 0.937533v -0.493403h 0.468766v 0.493403h 0.468766v -0.123351h 0.468766v 0.123351h 1.4063v -0.123351h 0.937533v 0.123351h 0.937533v -0.123351h 0.468766v 0.246702h 0.468766v -0.246702h 0.468766v 0.123351h
 0.468766v 0.123351h 0.468766v -0.246702h 0.937533v -0.123351h 0.468766v -0.246702h 0.468766v 0.123351h 0.468766v 0.246702h 0.468766v -0.370053h 0.468766v 0.616754h 0.468766v -0.246702h 0.937533v -0.123351h 0.468766v -0.370053h 0.468766v 0.370053h
 0.937533v -0.246702h 0.468766v 0.616754h 0.468766v -0.616754h 0.468766v -0.246702h 0.468766v 0.616754h 0.937533v -0.246702h 0.468766v -0.370053h 0.468766v 0.370053h 0.468766v -0.123351h 0.937533v 0.246702h 0.937533v -0.493403h 0.468766v 0.493403h
 1.4063v 0.123351h 0.468766v -0.863456h 0.468766v 0.493403h 0.468766v -0.123351h 0.468766v -0.246702h 0.468766v -0.370053h 0.468766v 0.740105h 0.468766v -0.740105h 0.468766v 0.246702h 0.937533v 0.246702h 0.937533v -0.493403h 0.468766v 0.246702h
 0.468766v 0.246702h 0.468766v -0.246702h 0.468766v 0.246702h 0.937533v 0.123351h 0.468766v 0.246702h 0.468766v -0.616754h 0.468766v 0.493403h 0.468766v -0.863456h 0.468766v 0.246702h 0.468766v 0.123351h 0.468766v 0.123351h 0.468766v -0.123351h
 0.468766v -0.370053h 0.468766v 0.370053h 0.468766v -0.493403h 0.468766v 0.123351h 0.468766v 0.616754h 0.468766v 0.370053h 0.468766v -1.11016h 0.468766v -0.370053h 0.468766v 0.370053h 0.468766v 0.740105h 0.468766v -1.60356h 0.468766v -0.123351h
 0.468766v 1.11016h 0.468766v -0.740105h 0.468766v 0.616754h 1.4063v 0.370053h 0.468766v -1.11016h 0.468766v 0.246702h 0.468766v -0.246702h 0.468766v 0.493403h 0.937533v 0.246702h 0.468766v -0.370053h 0.468766v 0.246702h 0.937533v -1.23351h 0.468766v
 0.740105h 0.468766v -0.123351h 0.468766v -0.986807h 0.468766v 1.23351h 0.468766v -0.123351h 0.468766v 0.246702h 0.468766v -0.740105h 0.468766v -0.740105h 0.468766v 0.740105h 0.468766v 0.370053h 0.468766v 0.740105h 0.468766v -2.22032h 0.937533v
 1.23351h 0.937533v 0.370053h 0.468766v -0.493403h 0.468766v -1.23351h 0.468766v 0.986807h 0.468766v -0.740105h 0.468766v 1.48021h 0.468766v -1.60356h 0.468766v 0.493403h 0.468766v 0.740105h 0.468766v -1.60356h 0.468766v 0.493403h 0.468766v
 -0.370053h 0.468766v 0.616754h 0.468766v -0.863456h 0.468766v -0.616754h 0.468766v 0.616754h 0.468766v -0.863456h 0.468766v 0.616754h 0.468766v 1.48021h 0.468766v -1.48021h 0.468766v -0.123351h 0.468766v -1.48021h 0.468766v 1.11016h 0.468766v
 -2.34367h 0.468766v 3.08377h 0.468766v -0.246702h 0.468766v -2.71372h 0.468766v 0.986807h 0.468766v -1.48021h 0.937533v 2.22032h 0.468766v -2.34367h 0.468766v 0.863456h 0.468766v 0.616754h 0.468766v -2.46702h 0.468766v -0.123351h 0.937533v 1.48021h
 0.468766v -0.370053h 0.468766v -1.60356h 0.468766v -0.370053h 0.468766v 0.616754h 0.468766v -1.72691h 0.468766v 0.616754h 0.468766v -2.09696h 0.468766v 0.246702h 0.468766v 2.22032h 0.468766v -2.71372h 0.468766v 0.986807h 0.468766v -0.986807h
 0.468766v -1.85026h 0.468766v 2.46702h 0.468766v -1.72691h 0.468766v 0.123351h 0.468766v -0.740105h 0.468766v -2.34367h 0.468766v -1.11016h 0.468766v 3.20712h 0.468766v -1.97361h 0.468766v 0.863456h 0.468766v -2.96042h 0.468766v -0.986807h 0.468766v
 -2.34367h 0.468766v 2.46702h 0.937533v -0.616754h 0.468766v -1.48021h 0.468766v -2.09696h 0.468766v 0.246702h 0.468766v -1.97361h 0.468766v -2.83707h 0.468766v 3.82388h 0.468766v -1.72691h 0.468766v 1.23351h 0.468766v -2.34367h 0.937533v -2.09696h
 0.468766v 1.35686h 0.468766v -2.83707h 0.468766v 2.09696h 0.468766v 1.85026h 0.468766v -6.66095h 0.468766v -0.986807h 0.468766v -2.46702h 0.468766v 2.59037h 0.468766v -1.72691h 0.468766v 2.34367h 0.468766v -2.34367h 0.468766v -3.57718h 0.468766v
 0.616754h 0.468766v 1.60356h 0.468766v -1.85026h 0.468766v -3.45382h 0.468766v 8.88126h 0.468766v -10.2381h 0.468766v 6.5376h 0.468766v -2.22032h 0.468766v -3.70053h 0.468766v -1.11016h 0.468766v -1.35686h 0.468766v 5.79749h 0.468766v -2.83707h
 0.468766v 1.60356h 0.468766v -3.94723h 0.468766v -1.97361h 0.468766v 0.123351h 0.468766v -1.23351h 0.468766v 4.44063h 0.468766v -10.2381h 0.468766v 6.5376h 0.468766v -2.22032h 0.468766v 2.22032h 0.468766v -6.41425h 0.468766v 3.94723h 0.468766v
 -0.616754h 0.468766v 1.23351h 0.468766v -1.11016h 0.468766v -3.33047h 0.468766v 6.29089h 0.468766v -8.14116h 0.468766v 2.96042h 0.468766v 0.493403h 0.468766v -2.71372h 0.468766v -0.246702h 0.468766v -2.71372h 0.468766v 2.34367h 0.468766v -0.616754h
 0.468766v -0.246702h 0.468766v 2.59037h 0.468766v -6.90765h 0.468766v 2.71372h 0.468766v 6.90765h 0.468766v -0.740105h 0.468766v -5.79749h 0.468766v 2.34367h 0.468766v -4.81068h 0.468766v 3.82388h 0.468766v -2.83707h 0.468766v 6.5376h 0.468766v
 -0.616754h 0.468766v -4.19393h 0.468766v 2.34367h 0.468766v -0.493403h 0.468766v -1.85026h 0.468766v -2.34367h 0.468766v 6.41425h 0.468766v -4.81068h 0.937533v 0.616754h 0.468766v 3.57718h 0.468766v -3.45382h 0.468766v 3.33047h 0.468766v -3.45382h
 0.468766v 6.41425h 0.468766v -3.45382h 0.468766v -2.96042h 0.468766v -1.97361h 0.468766v 1.35686h 0.468766v 4.31728h 0.468766v 0.986807h 0.468766v -0.986807h 0.468766v 2.83707h 0.468766v -6.16754h 0.468766v 1.11016h 0.468766v 3.08377h 0.468766v
 -1.97361h 0.468766v 0.986807h 0.468766v 0.616754h 0.468766v -2.22032h 0.468766v 5.67414h 0.937533v -2.09696h 0.468766v 0.740105h 0.468766v 3.82388h 0.937533v -2.34367h 0.468766v 2.09696h 0.468766v -0.493403h 0.468766v 3.08377h 0.468766v -1.23351h
 0.468766v -1.60356h 0.468766v 4.93403h 0.468766v -8.88126h 0.468766v 8.26451h 0.468766v 3.70053h 0.468766v -6.66095h 0.468766v 1.48021h 0.468766v -0.370053h 0.468766v -0.863456h 0.468766v 5.05739h 0.468766v 1.23351h 0.468766v -4.68733h 0.468766v
 2.46702h 0.468766v 5.05739h 0.468766v -1.35686h 0.468766v -2.22032h 0.468766v 6.41425h 0.468766v -3.33047h 0.468766v 4.93403h 0.468766v -3.45382h 0.468766v 1.97361h 0.468766v -3.33047h 0.468766v -2.34367h 0.468766v 5.05739h 0.468766v 5.55079h
 0.468766v -2.83707h 0.468766v 1.97361h 0.468766v 0.863456h 0.468766v -0.863456h 0.468766v 0.493403h 0.468766v 0.986807h 0.468766v 4.07058h 0.468766v -0.123351h 0.468766v -1.85026h 0.468766v 2.46702h 0.468766v -0.616754h 0.468766v 2.59037h 0.468766v
 -0.493403h 0.468766v -5.05739h 0.468766v 4.68733h 0.468766v 1.72691h 0.468766v 0.370053h 0.468766v 0.863456h 0.468766v -3.08377h 0.468766v 0.986807h 0.468766v 3.45382h 0.468766v -0.616754h 0.468766v 0.123351h 0.468766v 1.60356h 0.468766v -1.97361h
 0.468766v 3.33047h 0.468766v 0.493403h 0.468766v -0.246702h 0.468766v 0.246702h 0.937533v 0.863456h 0.468766v 2.34367h 0.468766v -1.48021h 0.468766v 2.71372h 0.468766v -0.863456h 0.468766v 1.97361h 0.468766v -0.123351h 0.468766v -1.35686h 0.468766v
 2.46702h 0.468766v -0.616754h 0.468766v 0.370053h 0.468766v 1.85026h 0.468766v -1.97361h 0.468766v 1.11016h 0.468766v -0.246702h 0.468766v 0.123351h 0.468766v 0.740105h 0.468766v 0.370053h 0.468766v -0.246702h 0.468766v -0.986807h 0.468766v 2.71372h
 0.468766v 0.863456h 0.468766v -2.34367h 0.468766v 2.59037h 0.468766v -1.48021h 0.468766v 1.35686h 0.468766v -1.48021h 0.468766v 0.986807h 0.468766v 0.370053h 0.468766v 0.863456h 0.468766v -1.97361h 0.468766v 0.370053h 0.468766v 1.97361h 0.468766v
 -1.48021h 0.468766v -0.370053h 0.468766v -0.123351h 0.468766v 3.20712h 0.468766v -1.35686h 0.468766v 0.616754h 0.468766v 0.246702h 0.468766v 1.11016h 0.468766v -0.246702h 0.468766v -0.246702h 0.468766v -0.616754h 0.468766v 0.246702h 0.468766v
 -0.246702h 0.468766v 0.246702h 0.468766v -0.740105h 0.468766v 1.11016h 0.468766v 0.616754h 0.468766v -0.616754h 0.468766v -1.11016h 0.468766v 0.616754h 0.937533v -0.246702h 0.468766v 2.22032h 0.468766v -0.986807h 0.468766v 0.740105h 0.468766v
 -0.616754h 0.468766v 0.123351h 0.468766v -0.863456h 0.468766v 0.370053h 0.468766v 0.493403h 0.468766v -0.986807h 0.468766v 1.23351h 0.468766v -0.740105h 0.468766v 0.986807h 0.468766v -0.246702h 0.468766v -0.863456h 0.468766v 0.246702h 0.468766v
 0.616754h 0.468766v -0.986807h 0.468766v 0.740105h 0.468766v 0.986807h 0.468766v -0.863456h 0.937533v 0.370053h 0.468766v -0.246702h 0.468766v 1.11016h 0.468766v -0.740105h 0.468766v -0.616754h 0.468766v 0.863456h 0.937533v -0.246702h 0.468766v
 0.246702h 0.468766v -1.35686h 0.468766v 0.616754h 0.468766v 0.246702h 0.468766v 0.493403h 0.468766v -0.123351h 0.468766v -0.863456h 0.468766v 1.11016h 0.937533v -1.23351h 0.468766v 0.370053h 0.468766v 1.23351h 0.468766v -0.123351h 0.937533v
 0.123351h 0.937533v -0.370053h 0.468766v -0.123351h 0.468766v -0.246702h 0.468766v 0.246702h 0.468766v 0.616754h 0.468766v -0.493403h 0.468766v 0.123351h 0.468766v 0.370053h 0.468766v -0.123351h 0.468766v -0.493403h 0.468766v 0.863456h 0.468766v
 -0.986807h 0.468766v 0.616754h 0.468766v 0.493403h 0.468766v -1.23351h 0.468766v 0.123351h 0.468766v 0.863456h 0.468766v -0.246702h 0.468766v 0.123351h 0.468766v 0.123351h 0.468766v -0.863456h 0.468766v 0.246702h 0.468766v 0.616754h 0.468766v
 -0.123351h 0.468766v 0.246702h 0.468766v -0.246702h 0.468766v -0.616754h 0.468766v 0.863456h 0.468766v -0.123351h 0.468766v 0.123351h 0.468766v 0.123351h 0.468766v -0.370053h 0.468766v -0.123351h 0.468766v -0.123351h 0.468766v -0.123351h 0.468766v
 0.740105h 0.937533v -0.123351h 0.468766v -0.123351h 0.937533v 0.370053h 0.468766v -0.123351h 0.468766v -0.123351h 0.468766v 0.246702h 0.468766v -0.616754h 0.468766v 0.740105h 0.468766v -0.246702h 0.468766v -0.370053h 0.937533v 0.246702h 0.468766v
 -0.123351h 0.468766v 0.370053h 0.468766v -0.246702h 0.468766v 0.123351h 0.937533v 0.123351h 0.468766v -0.246702h 0.468766v -0.123351h 0.468766v 0.370053h 0.937533v -0.123351h 0.937533v -0.123351h 0.468766v 0.123351h 0.468766v 0.246702h 0.468766v
 -0.370053h 0.468766v 0.246702h 0.468766v 0.123351h 0.468766v -0.123351h 0.468766v 0.123351h 0.468766v -0.246702h 0.937533v -0.123351h 0.468766v 0.370053h 0.468766v -0.616754h 0.937533v 0.493403h 0.468766v 0.123351h 0.468766v -0.246702h 0.468766v
 0.123351h 0.468766v 0.123351h 0.468766v -0.246702h 0.468766v 0.246702h 0.468766v -0.246702h 0.468766v 0.246702h 0.937533v -0.246702h 0.468766v 0.123351h 0.468766v -0.123351h 0.468766v 0.246702h 0.468766v -0.123351h 0.468766v -0.123351h 0.468766v
 0.123351h 0.468766v 0.123351h 0.468766v -0.493403h 0.468766v 0.493403h 0.468766v -0.246702h 0.937533v 0.246702h 0.468766v -0.123351h 1.4063v 0.123351h 0.468766v -0.246702h 0.468766v 0.123351h 0.468766v 0.123351h 1.4063v -0.123351h 0.468766v
 0.123351h 0.468766v -0.123351h 0.468766v 0.123351h 0.937533v -0.246702h 0.468766v 0.246702h 0.468766v -0.123351h 0.468766v 0.123351h 6.09396v -0.123351h 0.468766v 0.123351h 2.8126v -0.123351h 0.468766v 0.123351h 8.90656v -0.123351h 0.468766v
 0.123351h 2.34383v -0.123351h 0.468766v 0.123351h 7.0315v -0.123351h 0.468766v 0.123351h 53.9081" fill="none" stroke="#ff00ff"/>
<path d="M57.316,364.074h 18.2819v -0.123351h 0.468766v 0.123351h 1.4063v -0.246702h 0.468766v 0.123351h 0.468766v 0.123351h 6.09396v -0.123351h 0.468766v 0.123351h 3.28137v -0.246702h 0.468766v 0.123351h 0.468766v 0.123351h 3.75013v -0.123351h
 0.468766v 0.123351h 0.468766v -0.123351h 0.468766v 0.123351h 0.468766v -0.123351h 0.468766v 0.123351h 1.87507v -0.123351h 0.468766v 0.123351h 0.937533v -0.246702h 0.468766v -0.123351h 0.468766v 0.370053h 0.468766v -0.123351h 0.468766v 0.123351h
 2.34383v -0.123351h 0.468766v 0.123351h 0.468766v -0.246702h 0.468766v 0.246702h 0.468766v -0.123351h 0.468766v 0.123351h 0.937533v -0.123351h 1.4063v 0.123351h 0.937533v -0.370053h 0.468766v 0.370053h 0.468766v -0.123351h 0.937533v 0.123351h
 0.937533v -0.123351h 0.468766v -0.123351h 0.468766v 0.246702h 0.468766v -0.123351h 0.937533v -0.123351h 0.468766v 0.123351h 0.468766v -0.123351h 2.34383v 0.123351h 0.937533v -0.246702h 0.468766v -0.246702h 0.468766v 0.493403h 0.937533v -0.246702h
 0.468766v 0.370053h 0.468766v -0.246702h 0.468766v 0.123351h 1.4063v 0.123351h 0.468766v -0.246702h 0.468766v 0.246702h 0.468766v -0.246702h 0.937533v -0.123351h 0.468766v 0.370053h 0.937533v -0.246702h 0.468766v 0.123351h 0.468766v -0.123351h
 0.468766v -0.246702h 0.468766v 0.246702h 0.468766v 0.123351h 0.468766v -0.246702h 0.468766v 0.123351h 0.468766v -0.246702h 0.468766v 0.123351h 0.468766v 0.246702h 0.468766v -0.246702h 0.937533v 0.123351h 0.468766v -0.370053h 0.468766v 0.246702h
 0.468766v 0.246702h 0.468766v -0.616754h 0.468766v 0.370053h 0.468766v -0.370053h 0.468766v 0.246702h 0.468766v 0.246702h 0.937533v -0.370053h 0.468766v 0.370053h 0.468766v -0.246702h 0.468766v -0.246702h 0.468766v 0.493403h 0.468766v -0.123351h
 0.468766v 0.123351h 0.468766v 0.123351h 0.468766v -0.246702h 0.468766v -0.123351h 0.468766v 0.370053h 0.468766v -0.123351h 0.468766v -0.123351h 0.468766v -0.370053h 0.468766v 0.740105h 0.468766v -0.493403h 0.468766v 0.370053h 0.468766v -0.123351h
 0.468766v -0.246702h 0.468766v 0.370053h 0.468766v -0.493403h 0.468766v 0.246702h 0.937533v -0.123351h 0.468766v -0.123351h 0.468766v 0.370053h 0.468766v -0.123351h 0.937533v -0.246702h 0.468766v -0.493403h 0.468766v 0.986807h 0.468766v -0.246702h
 0.468766v 0.246702h 0.468766v -0.246702h 0.468766v -0.493403h 0.468766v 0.246702h 0.468766v 0.370053h 0.468766v -0.123351h 0.468766v -0.123351h 0.468766v 0.123351h 0.468766v 0.123351h 0.468766v -0.246702h 0.937533v -0.493403h 0.468766v 0.616754h
 0.468766v -0.123351h 0.468766v -0.246702h 0.468766v -0.370053h 0.468766v 0.740105h 0.468766v -0.370053h 0.468766v 0.123351h 0.468766v 0.123351h 0.468766v -0.493403h 0.468766v 0.370053h 0.468766v 0.123351h 0.468766v -0.123351h 0.468766v 0.123351h
 0.468766v -0.370053h 0.468766v 0.370053h 0.468766v -0.616754h 0.468766v 0.863456h 0.937533v -0.370053h 0.468766v -0.123351h 1.4063v 0.370053h 0.468766v -0.370053h 0.468766v -0.123351h 0.468766v 0.123351h 1.4063v 0.370053h 0.468766v -0.616754h
 0.468766v 0.370053h 0.468766v -0.493403h 0.468766v 0.123351h 0.468766v 0.246702h 0.468766v 0.246702h 0.468766v -0.246702h 0.468766v -0.123351h 0.468766v 0.616754h 0.468766v -0.616754h 0.468766v 0.123351h 0.468766v -0.246702h 0.468766v 0.616754h
 0.468766v -0.863456h 0.468766v 0.493403h 0.468766v -0.246702h 0.468766v 0.370053h 0.468766v -0.246702h 0.468766v -0.493403h 0.468766v 0.246702h 0.468766v 0.370053h 0.468766v -0.246702h 0.937533v 0.370053h 0.468766v -0.740105h 0.468766v 0.740105h
 0.468766v -0.123351h 1.4063v 0.246702h 0.468766v -0.616754h 0.468766v -0.123351h 0.468766v 0.493403h 0.937533v 0.123351h 0.468766v -0.493403h 0.468766v -0.246702h 0.468766v 0.246702h 0.468766v -0.123351h 0.468766v 0.493403h 0.468766v -0.123351h
 0.468766v -0.493403h 0.468766v 0.740105h 0.468766v -0.246702h 0.937533v -0.246702h 0.468766v 0.616754h 0.468766v -0.493403h 0.468766v 0.123351h 0.468766v -0.370053h 0.468766v 0.370053h 0.468766v -0.246702h 0.468766v 0.370053h 0.937533v -0.616754h
 0.468766v 0.616754h 0.468766v -0.246702h 0.937533v 0.123351h 0.468766v -0.740105h 0.468766v 0.493403h 0.468766v 0.246702h 0.937533v 0.616754h 0.468766v -0.863456h 0.937533v 0.493403h 0.468766v -0.370053h 0.468766v 0.246702h 0.468766v -0.740105h
 0.468766v 0.740105h 0.468766v -0.493403h 0.468766v 0.370053h 0.468766v 0.493403h 0.468766v -0.986807h 0.468766v -0.370053h 0.468766v 0.740105h 0.937533v -0.123351h 0.468766v -0.123351h 0.937533v -0.370053h 0.468766v 0.370053h 0.468766v -0.246702h
 0.468766v 0.740105h 0.468766v -0.123351h 0.468766v -0.740105h 0.468766v 0.616754h 0.468766v 0.246702h 0.468766v -0.740105h 0.937533v 0.493403h 0.468766v 0.493403h 0.468766v -0.493403h 0.937533v -0.740105h 0.468766v 0.616754h 0.468766v 0.246702h
 0.937533v -0.370053h 0.468766v 0.246702h 0.937533v 0.123351h 0.468766v -0.246702h 0.468766v -0.246702h 0.468766v 0.493403h 0.937533v -0.370053h 0.468766v 0.493403h 0.937533v -0.370053h 0.468766v -0.123351h 0.468766v 0.370053h 0.468766v 0.246702h
 0.468766v -0.370053h 0.468766v -0.123351h 0.468766v -0.370053h 0.468766v 0.493403h 0.468766v 0.370053h 0.468766v -0.246702h 0.468766v -0.616754h 0.468766v 0.370053h 0.468766v 0.493403h 0.468766v -0.370053h 0.468766v 0.246702h 0.468766v -0.493403h
 0.468766v 0.740105h 0.468766v -0.123351h 0.468766v 0.246702h 0.468766v -0.246702h 0.468766v -0.740105h 0.468766v 0.370053h 0.468766v -0.493403h 0.468766v 0.493403h 0.468766v 0.616754h 0.468766v -0.370053h 0.937533v 0.123351h 0.468766v 0.246702h
 0.468766v -0.123351h 0.468766v -0.863456h 0.468766v 0.740105h 0.468766v -0.123351h 0.468766v -0.616754h 0.468766v 0.370053h 0.468766v 0.370053h 0.468766v 0.370053h 0.468766v -0.740105h 0.468766v -0.246702h 0.468766v 0.123351h 0.468766v 0.740105h
 0.468766v -0.740105h 0.468766v 0.616754h 0.468766v 0.246702h 0.468766v -0.740105h 0.468766v 0.246702h 0.468766v 0.370053h 0.468766v -0.616754h 0.468766v 0.616754h 0.468766v -0.246702h 0.468766v -0.370053h 0.937533v 0.370053h 0.468766v -0.616754h
 0.468766v 0.986807h 0.468766v -0.246702h 0.468766v -0.616754h 0.468766v 1.11016h 0.468766v -0.616754h 0.468766v -0.616754h 0.468766v 0.740105h 0.468766v -0.246702h 0.468766v 0.370053h 0.468766v -0.370053h 0.468766v 0.616754h 0.468766v -0.370053h
 0.468766v 0.246702h 0.468766v -0.370053h 0.468766v -0.246702h 0.468766v 0.740105h 0.937533v -0.246702h 0.468766v -0.246702h 0.468766v 0.493403h 0.468766v -0.493403h 0.468766v -0.123351h 0.468766v 0.370053h 0.468766v 0.123351h 1.4063v -0.123351h
 0.468766v 0.246702h 0.468766v -0.740105h 0.468766v 0.616754h 0.468766v -0.246702h 0.468766v 0.246702h 0.468766v -0.123351h 0.937533v -0.123351h 0.468766v 0.246702h 0.937533v 0.246702h 0.468766v -0.370053h 0.468766v -0.370053h 0.468766v 0.493403h
 0.468766v -0.123351h 0.468766v 0.123351h 1.87507v 0.123351h 0.468766v -0.123351h 0.937533v -0.246702h 0.468766v 0.123351h 0.468766v 0.123351h 0.468766v -0.123351h 0.468766v 0.123351h 1.4063v 0.123351h 0.468766v -0.123351h 0.468766v -0.493403h
 0.468766v 0.370053h 0.468766v 0.246702h 0.468766v -0.370053h 0.468766v 0.493403h 0.468766v -0.370053h 0.468766v -0.123351h 0.468766v 0.123351h 0.937533v 0.246702h 0.468766v -0.246702h 0.468766v 0.123351h 0.468766v -0.123351h 0.468766v 0.370053h
 0.937533v -0.616754h 0.468766v 0.246702h 0.468766v 0.123351h 0.468766v -0.246702h 0.468766v 0.246702h 0.468766v 0.123351h 1.4063v -0.370053h 0.937533v -0.246702h 0.468766v 0.616754h 0.468766v -0.123351h 0.468766v -0.123351h 0.468766v 0.123351h
 0.468766v -0.246702h 0.937533v 0.493403h 0.468766v -0.863456h 0.468766v 0.370053h 0.468766v -0.123351h 0.468766v 0.246702h 0.468766v 0.246702h 1.4063v -0.493403h 0.468766v 0.246702h 0.937533v 0.123351h 0.468766v -0.123351h 0.468766v 0.123351h
 0.468766v -0.123351h 0.468766v -0.123351h 0.468766v 0.370053h 0.468766v -0.246702h 0.468766v -0.123351h 0.468766v 0.246702h 0.468766v -0.370053h 0.468766v 0.246702h 0.468766v -0.123351h 0.468766v 0.123351h 0.468766v -0.123351h 0.468766v -0.246702h
 0.468766v 0.123351h 0.468766v 0.493403h 0.468766v -0.246702h 0.468766v -0.493403h 0.468766v 0.370053h 0.468766v 0.370053h 0.468766v -0.246702h 0.937533v 0.123351h 0.937533v -0.370053h 0.468766v -0.246702h 0.468766v 0.123351h 0.468766v 0.246702h
 0.468766v 0.246702h 0.937533v -0.370053h 0.468766v 0.246702h 0.937533v 0.123351h 0.468766v -0.123351h 0.468766v -0.493403h 0.468766v 0.370053h 0.468766v 0.123351h 0.468766v -0.986807h 0.468766v 0.740105h 0.468766v 0.123351h 0.468766v -0.123351h
 0.468766v -0.123351h 0.468766v -0.123351h 0.468766v 0.493403h 0.468766v -0.123351h 0.468766v -0.123351h 0.468766v 0.123351h 0.937533v -0.123351h 0.468766v 0.123351h 0.468766v -0.246702h 0.468766v 0.123351h 0.468766v 0.370053h 0.468766v -0.493403h
 0.468766v -0.123351h 0.468766v 0.616754h 0.468766v 0.123351h 0.468766v -0.123351h 0.468766v 0.246702h 0.468766v -0.986807h 0.468766v -0.246702h 0.468766v 0.493403h 0.937533v 0.246702h 0.468766v -0.616754h 0.468766v 0.370053h 0.937533v -0.123351h
 0.468766v -0.246702h 0.468766v 0.370053h 0.468766v -0.616754h 0.468766v 0.986807h 0.468766v -0.246702h 0.468766v 0.123351h 0.468766v 0.123351h 0.468766v -0.123351h 0.468766v -0.370053h 0.468766v -0.740105h 0.468766v 0.740105h 0.937533v -0.370053h
 0.468766v 0.370053h 0.468766v 0.123351h 0.468766v -0.123351h 0.468766v -0.493403h 0.468766v 0.370053h 0.468766v -0.493403h 0.468766v -0.246702h 0.468766v 0.986807h 0.937533v -1.11016h 0.468766v 1.35686h 0.468766v -0.123351h 0.468766v -0.493403h
 0.468766v 0.616754h 0.468766v -0.123351h 0.468766v -0.246702h 0.937533v 0.370053h 0.468766v -0.370053h 0.468766v -0.123351h 0.468766v -0.123351h 0.937533v 0.370053h 0.468766v 0.123351h 0.937533v -0.246702h 0.468766v -0.123351h 0.468766v -0.123351h
 0.468766v 0.246702h 0.468766v 0.123351h 0.468766v -0.246702h 0.468766v 0.616754h 0.468766v -0.863456h 0.468766v 0.616754h 0.468766v -0.370053h 0.468766v -0.123351h 0.468766v 0.246702h 0.468766v -0.246702h 0.468766v 0.493403h 0.468766v -1.35686h
 0.468766v 1.35686h 0.468766v -0.370053h 0.937533v -0.740105h 0.468766v 0.986807h 0.468766v -0.493403h 0.468766v -0.370053h 0.468766v 1.11016h 0.468766v -0.616754h 0.468766v -0.123351h 0.468766v 0.616754h 0.468766v -0.616754h 0.468766v 0.123351h
 0.468766v -0.616754h 0.468766v 0.863456h 0.937533v 0.370053h 0.468766v -0.123351h 0.468766v -0.123351h 0.468766v -0.493403h 0.468766v 0.616754h 0.468766v -0.246702h 0.468766v -0.123351h 0.937533v 0.246702h 0.468766v -0.246702h 0.468766v 0.123351h
 0.468766v -0.123351h 0.468766v -0.246702h 0.468766v 0.246702h 0.468766v -0.123351h 0.468766v 0.123351h 0.468766v 0.493403h 0.468766v 0.123351h 0.468766v -0.370053h 0.468766v 0.246702h 0.937533v -0.986807h 0.468766v 0.616754h 0.468766v -0.123351h
 0.468766v 0.493403h 0.937533v -0.246702h 0.468766v 0.616754h 0.468766v -0.986807h 0.468766v 0.246702h 0.468766v -0.370053h 0.468766v 0.246702h 0.468766v 0.370053h 0.468766v -0.493403h 0.468766v 0.493403h 0.468766v -0.246702h 0.468766v -0.246702h
 0.468766v 0.123351h 0.468766v 0.123351h 0.468766v 0.123351h 0.468766v 0.123351h 0.468766v -0.123351h 0.468766v -0.123351h 0.468766v 0.246702h 0.468766v -0.123351h 0.468766v -0.123351h 0.468766v 0.123351h 0.468766v -0.123351h 0.468766v 0.123351h
 0.468766v -0.986807h 0.468766v 1.23351h 0.468766v -0.123351h 0.468766v -0.370053h 0.468766v 0.370053h 0.937533v 0.246702h 0.468766v -1.11016h 0.468766v 0.986807h 0.468766v -0.370053h 0.937533v -0.493403h 0.468766v 0.493403h 0.468766v 0.123351h
 0.468766v 0.246702h 0.468766v -0.493403h 0.468766v 0.493403h 0.937533v -0.370053h 0.468766v 0.370053h 0.468766v -0.370053h 0.937533v 0.370053h 0.468766v 0.123351h 0.468766v -1.23351h 0.468766v 1.11016h 0.468766v -0.246702h 0.468766v 0.370053h
 0.468766v -0.370053h 0.468766v 0.123351h 0.468766v 0.246702h 0.468766v -0.246702h 0.468766v -0.123351h 0.468766v -0.616754h 0.468766v 0.863456h 0.468766v -0.246702h 0.468766v -0.123351h 0.937533v -0.493403h 0.468766v 0.616754h 0.468766v 0.616754h
 0.468766v -0.986807h 0.468766v 0.616754h 0.468766v -0.246702h 0.468766v 0.370053h 0.468766v -0.123351h 0.937533v -0.246702h 0.468766v 0.123351h 0.468766v 0.370053h 0.468766v -0.370053h 0.468766v 0.123351h 0.468766v 0.246702h 0.468766v -0.123351h
 0.468766v 0.246702h 0.468766v -0.370053h 0.468766v 0.123351h 0.468766v 0.246702h 0.468766v -0.370053h 0.468766v -0.246702h 0.468766v -0.246702h 0.468766v 0.493403h 0.468766v 0.123351h 0.468766v -0.246702h 0.468766v 0.246702h 0.468766v -0.493403h
 0.468766v 0.123351h 0.468766v 0.246702h 0.468766v 0.246702h 0.937533v 0.123351h 0.468766v -0.740105h 0.468766v 0.123351h 0.468766v 0.493403h 0.468766v -0.246702h 0.468766v 0.123351h 0.937533v -0.493403h 0.468766v 0.740105h 0.937533v -0.616754h
 0.468766v 0.493403h 0.468766v 0.246702h 0.468766v -0.370053h 0.468766v 0.246702h 0.468766v -0.123351h 0.468766v -0.370053h 0.937533v 0.246702h 0.937533v -0.123351h 0.468766v 0.123351h 0.937533v 0.370053h 0.468766v -0.740105h 0.468766v 0.493403h
 0.468766v 0.123351h 0.468766v -0.246702h 0.468766v 0.370053h 0.468766v -0.123351h 0.468766v -0.246702h 0.468766v -0.493403h 0.468766v 0.370053h 0.468766v 0.370053h 0.468766v -0.370053h 0.468766v 0.370053h 1.4063v -0.246702h 0.468766v 0.123351h
 0.468766v -0.123351h 0.468766v 0.246702h 0.468766v -0.370053h 0.937533v 0.123351h 0.468766v 0.246702h 0.468766v -0.370053h 0.468766v 0.370053h 0.468766v -0.246702h 0.468766v 0.123351h 0.468766v 0.246702h 0.468766v -0.123351h 0.468766v 0.123351h
 0.468766v -0.246702h 0.468766v 0.123351h 0.468766v -0.123351h 0.468766v -0.123351h 0.468766v 0.123351h 0.468766v 0.246702h 0.468766v -0.493403h 0.468766v 0.123351h 0.468766v -0.493403h 0.468766v 0.740105h 0.937533v -0.123351h 0.937533v 0.246702h
 0.937533v -0.123351h 0.468766v 0.123351h 0.468766v -0.123351h 0.937533v 0.123351h 1.4063v -0.123351h 0.468766v -0.123351h 0.468766v 0.123351h 0.468766v 0.123351h 0.468766v -0.123351h 0.937533v -0.246702h 0.468766v 0.246702h 0.937533v -0.123351h
 0.468766v 0.246702h 0.468766v -0.123351h 0.937533v 0.123351h 1.87507v -0.246702h 0.468766v 0.123351h 0.468766v 0.123351h 0.468766v -0.123351h 0.937533v 0.123351h 0.468766v -0.370053h 0.468766v 0.370053h 0.468766v -0.123351h 1.87507v 0.123351h
 0.468766v -0.123351h 0.937533v 0.123351h 0.468766v -0.123351h 0.937533v 0.123351h 0.937533v -0.123351h 0.468766v -0.123351h 0.468766v 0.123351h 0.937533v 0.123351h 0.468766v -0.370053h 0.468766v 0.123351h 0.468766v 0.123351h 0.468766v 0.123351h
 0.468766v -0.123351h 0.468766v 0.123351h 1.87507v -0.246702h 0.468766v 0.246702h 12.6567v -0.123351h 0.468766v 0.123351h 0.937533v -0.123351h 0.468766v 0.123351h 7.0315v -0.123351h 0.468766v 0.123351h 12.6567" fill="none" stroke="#ff0000"/>
<rect x="72.2891" y="45.1246" width="169.833" height="84.9163" fill="white"/>
<path d="M72.2891,130.041h 169.833" fill="none" stroke="black"/>
<path d="M242.122,130.041v -84.9163" fill="none" stroke="black"/>
<path d="M242.122,45.1246h -169.833" fill="none" stroke="black"/>
<path d="M72.2891,45.1246v 84.9163" fill="none" stroke="black"/>
<text xml:space="preserve" x="114.542" y="58.2518" fill="black" font-size="7.37396" font-family="Helvetica">Residual in local X</text>
<path d="M78.6579,63.1693h 29.7207v -14.8604h -29.7207z" fill="white"/>
<path d="M78.6579,55.7391h 29.7207" fill="none" stroke="#000099"/>
<g stroke="black" stroke-width="1" fill="none">
<line x1="92.5182" y1="55.7391" x2="93.5182" y2="55.7391"/>
</g>
<text xml:space="preserve" x="114.542" y="78.7629" fill="black" font-size="7.37396" font-family="Helvetica">Residual for 1-pixel clusters in local X</text>
<path d="M78.6579,84.3984h 29.7207v -14.8604h -29.7207z" fill="white"/>
<path d="M78.6579,76.9682h 29.7207" fill="none" stroke="#59d354"/>
<g stroke="black" stroke-width="1" fill="none">
<line x1="92.5182" y1="76.9682" x2="93.5182" y2="76.9682"/>
</g>
<text xml:space="preserve" x="114.542" y="100.095" fill="black" font-size="7.37396" font-family="Helvetica">Residual for 2-pixel clusters in local X</text>
<path d="M78.6579,105.627h 29.7207v -14.8604h -29.7207z" fill="white"/>
<path d="M78.6579,98.1973h 29.7207" fill="none" stroke="#ff00ff"/>
<g stroke="black" stroke-width="1" fill="none">
<line x1="92.5182" y1="98.1973" x2="93.5182" y2="98.1973"/>
</g>
<text xml:space="preserve" x="114.542" y="121.426" fill="black" font-size="7.37396" font-family="Helvetica">Residual for 3-pixel clusters in local X</text>
<path d="M78.6579,126.857h 29.7207v -14.8604h -29.7207z" fill="white"/>
<path d="M78.6579,119.426h 29.7207" fill="none" stroke="#ff0000"/>
<g stroke="black" stroke-width="1" fill="none">
<line x1="92.5182" y1="119.426" x2="93.5182" y2="119.426"/>
</g></svg>
