<?xml version="1.0" standalone="no"?>
<svg width="567.429" height="404.981" viewBox="0 0 567.429 404.981" xmlns="http://www.w3.org/2000/svg" shape-rendering="crispEdges">
<title>
local_residuals.svg
</title>
<desc>
Creator: ROOT Version 6.30/04
CreationDate: Tue May 14 11:33:06 2024</desc>
<defs>
</defs>
<rect x="0.5" y="0" width="566.929" height="404.481" fill="white"/>
<rect x="57.316" y="40.407" width="453.297" height="323.667" fill="white"/>
<rect x="57.316" y="40.407" width="453.297" height="323.667" fill="none" stroke="black"/>
<rect x="57.316" y="40.407" width="453.297" height="323.667" fill="white"/>
<rect x="57.316" y="40.407" width="453.297" height="323.667" fill="none" stroke="black"/>
<path d="M57.316,363.818h 0.4602v 0.255706h 1.3806v -0.127853h 0.4602v -0.127853h 0.4602v -0.639265h 0.4602v 0.767119h 0.4602v -0.255706h 0.4602v 0.255706h 2.301v -0.127853h 0.4602v -0.127853h 0.9204v 0.127853h 0.4602v -0.255706h 0.4602v 0.127853h
 0.4602v -0.127853h 0.4602v 0.255706h 0.4602v 0.127853h 0.4602v 0.127853h 0.4602v -0.255706h 0.9204v 0.255706h 0.4602v -0.255706h 0.4602v 0.127853h 0.4602v -0.383559h 0.4602v 0.511412h 0.4602v -0.383559h 0.4602v -0.127853h 0.4602v 0.383559h 2.301v
 -0.767119h 0.4602v 0.767119h 0.9204v -0.127853h 0.4602v 0.255706h 0.4602v -0.127853h 0.4602v -0.511412h 0.4602v 0.639265h 0.4602v -0.383559h 0.4602v 0.255706h 0.9204v -0.894972h 0.4602v 0.767119h 0.4602v 0.127853h 0.9204v -0.639265h 0.4602v
 0.511412h 0.4602v 0.127853h 0.9204v -0.255706h 0.4602v 0.383559h 0.9204v -0.127853h 0.4602v -0.383559h 0.4602v 0.511412h 0.4602v -0.511412h 0.9204v 0.383559h 0.4602v -0.127853h 1.8408v 0.127853h 0.4602v -0.127853h 0.4602v -0.255706h 0.9204v
 -0.383559h 0.4602v 0.255706h 0.4602v 0.639265h 0.9204v -0.127853h 0.4602v -0.255706h 0.4602v -0.127853h 0.4602v 0.255706h 0.4602v 0.127853h 0.4602v -0.383559h 0.4602v -0.127853h 0.4602v 0.127853h 0.4602v 0.383559h 0.4602v -0.127853h 0.9204v
 -0.255706h 0.4602v -0.127853h 0.4602v 0.255706h 0.9204v 0.127853h 0.4602v -0.383559h 0.4602v 0.511412h 0.9204v -0.255706h 0.4602v -0.639265h 0.4602v 0.511412h 0.4602v -0.127853h 0.4602v 0.127853h 0.9204v 0.127853h 0.4602v -0.127853h 0.4602v
 0.255706h 0.4602v -0.255706h 0.4602v 0.383559h 0.4602v -0.255706h 0.4602v -0.127853h 0.9204v 0.255706h 0.4602v -0.127853h 0.4602v 0.255706h 0.4602v -0.127853h 0.4602v 0.127853h 0.4602v -0.127853h 0.4602v -0.127853h 0.4602v 0.127853h 0.4602v
 0.127853h 0.4602v -0.127853h 0.4602v -0.127853h 0.9204v 0.383559h 0.4602v -0.767119h 0.4602v 0.511412h 0.4602v -0.767119h 0.4602v 0.639265h 1.3806v 0.127853h 0.4602v -0.383559h 0.4602v 0.255706h 0.9204v -0.767119h 0.4602v 0.894972h 0.4602v
 -0.894972h 0.4602v 0.639265h 0.4602v 0.255706h 0.4602v -0.383559h 0.9204v -0.255706h 0.4602v 0.383559h 0.9204v -0.127853h 0.4602v 0.383559h 0.4602v -0.639265h 0.4602v 0.127853h 0.4602v 0.511412h 0.4602v -0.127853h 0.4602v -0.511412h 0.4602v
 0.255706h 0.4602v -0.511412h 0.4602v 0.511412h 0.9204v 0.127853h 0.4602v 0.255706h 0.4602v -0.639265h 0.4602v 0.383559h 0.4602v 0.255706h 0.4602v -0.127853h 0.4602v -0.255706h 0.4602v 0.255706h 0.4602v 0.255706h 0.4602v -0.383559h 0.4602v 0.127853h
 0.4602v 0.255706h 0.4602v -0.767119h 0.4602v 0.383559h 0.4602v 0.127853h 0.4602v -0.511412h 0.4602v -0.255706h 0.4602v 0.639265h 0.9204v -0.127853h 1.3806v -0.127853h 0.4602v 0.255706h 0.4602v -0.383559h 0.4602v 0.127853h 0.9204v 0.127853h 0.9204v
 -0.511412h 0.4602v -0.511412h 0.4602v 1.40638h 0.4602v -0.127853h 0.4602v 0.127853h 0.9204v -0.383559h 0.9204v -0.127853h 0.4602v -0.255706h 0.4602v 0.511412h 0.9204v -0.767119h 0.4602v 0.511412h 0.4602v 0.127853h 0.4602v 0.127853h 0.4602v
 -0.127853h 0.4602v -1.02282h 0.4602v 1.02282h 0.4602v -0.383559h 0.4602v -0.127853h 0.4602v 0.511412h 0.4602v -0.383559h 0.4602v 0.383559h 0.4602v -0.383559h 0.4602v 0.383559h 0.4602v -0.511412h 0.4602v 0.639265h 0.4602v 0.127853h 0.4602v -0.383559h
 0.4602v 0.127853h 0.4602v -0.383559h 0.4602v 0.255706h 0.4602v -0.255706h 0.4602v 0.383559h 0.4602v -0.511412h 0.4602v 0.383559h 0.4602v -0.127853h 0.4602v -0.511412h 0.4602v 0.511412h 0.4602v -0.255706h 0.4602v -0.127853h 0.4602v 0.255706h 0.4602v
 0.255706h 0.4602v -0.127853h 0.4602v 0.127853h 0.4602v -0.255706h 0.4602v 0.383559h 0.4602v -0.639265h 0.4602v -0.127853h 0.9204v 0.511412h 0.4602v 0.127853h 0.9204v 0.127853h 0.4602v -1.02282h 0.4602v 0.383559h 0.4602v 0.127853h 0.9204v -0.894972h
 0.4602v 0.894972h 0.4602v 0.383559h 0.4602v -0.639265h 0.4602v 0.511412h 0.4602v -0.127853h 0.4602v -0.383559h 0.4602v 0.255706h 0.4602v -0.127853h 0.4602v 0.383559h 0.4602v -0.511412h 0.9204v 0.511412h 0.4602v -0.127853h 0.4602v -0.383559h 0.4602v
 -0.127853h 0.4602v 0.255706h 0.9204v -0.127853h 0.4602v 0.383559h 0.4602v -1.27853h 0.4602v 1.15068h 0.4602v -1.27853h 0.4602v 0.767119h 0.4602v 0.767119h 0.4602v -0.639265h 0.4602v -0.511412h 0.4602v 0.511412h 0.9204v -0.383559h 0.4602v 0.383559h
 0.4602v 0.511412h 0.4602v -1.15068h 0.4602v -0.255706h 0.4602v 0.639265h 0.4602v 0.511412h 0.4602v 0.127853h 0.4602v -1.27853h 0.4602v 0.511412h 0.4602v 0.255706h 0.4602v -1.15068h 0.4602v 0.639265h 0.4602v 0.767119h 0.4602v -1.02282h 0.9204v
 0.255706h 0.4602v -0.767119h 0.4602v 0.894972h 0.4602v -0.639265h 0.4602v 0.383559h 0.4602v -0.639265h 0.4602v -0.383559h 0.4602v -0.127853h 0.4602v 1.15068h 0.4602v -1.66209h 0.4602v -0.255706h 0.4602v 0.894972h 0.4602v -0.894972h 0.4602v 0.894972h
 0.4602v -0.255706h 0.4602v -0.894972h 0.4602v 0.255706h 0.4602v 1.40638h 0.4602v -2.30136h 0.4602v 0.894972h 0.4602v 0.383559h 0.4602v 0.639265h 0.4602v -1.66209h 0.4602v -0.255706h 0.4602v 1.27853h 0.4602v -1.02282h 0.9204v -0.127853h 0.4602v
 -0.383559h 0.4602v -0.127853h 0.4602v -1.9178h 0.4602v 2.1735h 0.4602v -1.15068h 0.4602v 0.255706h 0.4602v 0.383559h 0.4602v -2.81277h 0.4602v 0.767119h 0.4602v -2.68492h 0.4602v 0.639265h 0.4602v 0.894972h 0.4602v 0.383559h 0.4602v -1.40638h
 0.4602v -0.894972h 0.4602v 0.511412h 0.4602v -5.49768h 0.4602v 2.94062h 0.4602v -0.767119h 0.9204v -3.06847h 0.4602v 1.27853h 0.4602v 0.511412h 0.4602v -2.42921h 0.4602v -1.40638h 0.4602v -2.55706h 0.4602v -1.15068h 0.4602v -3.32418h 0.4602v
 -0.255706h 0.4602v -4.47486h 0.4602v 0.767119h 0.4602v -0.127853h 0.4602v -2.68492h 0.4602v -1.15068h 0.4602v -4.60271h 0.4602v -1.66209h 0.4602v -1.78994h 0.4602v 1.27853h 0.4602v -4.73056h 0.4602v 2.42921h 0.4602v -8.69401h 0.4602v -0.639265h
 0.4602v -2.04565h 0.4602v -3.45203h 0.4602v -2.1735h 0.4602v -3.70774h 0.4602v -4.0913h 0.4602v -1.02282h 0.4602v 1.27853h 0.4602v -6.64836h 0.4602v -7.41548h 0.4602v 4.21915h 0.4602v -11.3789h 0.4602v -1.40638h 0.4602v -3.32418h 0.4602v -1.53424h
 0.4602v -2.1735h 0.4602v -1.27853h 0.4602v -5.49768h 0.4602v -6.0091h 0.4602v 1.02282h 0.4602v -12.9132h 0.4602v 0.767119h 0.4602v -12.6575h 0.4602v 1.27853h 0.4602v -0.383559h 0.4602v -0.767119h 0.4602v -6.52051h 0.4602v -8.05474h 0.4602v -1.78994h
 0.4602v -0.894972h 0.4602v -5.88124h 0.4602v -1.53424h 0.4602v -3.70774h 0.4602v -7.92689h 0.4602v -2.81277h 0.4602v 1.27853h 0.4602v -18.4108h 0.4602v 13.041h 0.4602v -14.4474h 0.4602v -4.0913h 0.4602v 8.94972h 0.4602v -8.05474h 0.4602v -12.0182h
 0.4602v 7.79904h 0.4602v -6.90407h 0.4602v -5.36983h 0.4602v 10.3561h 0.4602v -16.1095h 0.4602v 8.4383h 0.4602v -8.94972h 0.4602v -8.56616h 0.4602v -10.3561h 0.4602v 3.06847h 0.4602v -1.40638h 0.4602v 0.383559h 0.4602v 5.49768h 0.4602v -3.96345h
 0.4602v -0.511412h 0.4602v 6.52051h 0.4602v -14.9588h 0.4602v -2.94062h 0.4602v -0.767119h 0.4602v 5.62554h 0.4602v -12.7853h 0.4602v 0.767119h 0.4602v 2.30136h 0.4602v -2.30136h 0.4602v 2.68492h 0.4602v 0.255706h 0.4602v -6.2648h 0.4602v -11.7625h
 0.4602v 7.28763h 0.4602v -7.15977h 0.4602v 9.07757h 0.4602v 12.4018h 0.4602v -17.8994h 0.4602v 4.98627h 0.4602v -16.7488h 0.4602v 4.0913h 0.4602v 2.1735h 0.4602v 6.2648h 0.4602v -18.5387h 0.4602v 7.54333h 0.4602v -2.68492h 0.4602v 3.32418h 0.4602v
 -7.28763h 0.4602v 1.78994h 0.4602v -1.78994h 0.4602v 2.81277h 0.4602v -3.06847h 0.4602v 3.06847h 0.4602v -6.13695h 0.4602v -5.62554h 0.4602v 5.11412h 0.4602v 7.41548h 0.4602v 0.511412h 0.4602v -7.67119h 0.4602v 4.21915h 0.4602v -4.21915h 0.4602v
 -3.06847h 0.4602v -11.5068h 0.4602v 5.36983h 0.4602v 1.53424h 0.4602v 1.66209h 0.4602v -10.7397h 0.4602v -2.55706h 0.4602v 4.21915h 0.4602v 4.98627h 0.4602v -0.127853h 0.4602v 3.57989h 0.4602v -6.39265h 0.4602v 6.77621h 0.4602v -10.3561h 0.4602v
 -6.2648h 0.4602v 8.69401h 0.4602v 6.39265h 0.4602v 5.88124h 0.4602v -8.4383h 0.4602v 1.78994h 0.4602v -2.55706h 0.4602v 3.83559h 0.4602v 4.73056h 0.4602v -13.6803h 0.4602v 5.11412h 0.4602v 8.56616h 0.4602v -8.1826h 0.4602v 1.78994h 0.4602v 5.24198h
 0.4602v -8.69401h 0.4602v -3.32418h 0.4602v 4.85842h 0.4602v -0.511412h 0.4602v 10.3561h 0.4602v -19.0501h 0.4602v 7.15977h 0.4602v -1.02282h 0.4602v 12.9132h 0.4602v -11.1232h 0.4602v -12.7853h 0.4602v 16.8766h 0.4602v -14.831h 0.4602v 7.92689h
 0.4602v 11.8903h 0.4602v -12.7853h 0.4602v 10.484h 0.4602v -16.1095h 0.4602v 14.9588h 0.4602v -3.96345h 0.4602v 14.3195h 0.4602v -20.9679h 0.4602v 9.20542h 0.4602v -1.78994h 0.4602v -5.75339h 0.4602v -2.94062h 0.4602v 17.5159h 0.4602v -13.6803h
 0.4602v 4.0913h 0.4602v 7.28763h 0.4602v 2.1735h 0.4602v -5.36983h 0.4602v -6.52051h 0.4602v 1.78994h 0.4602v -3.57989h 0.4602v 13.5524h 0.4602v -2.30136h 0.4602v -0.894972h 0.4602v 9.97254h 0.4602v -3.57989h 0.4602v -8.69401h 0.4602v 7.67119h
 0.4602v -10.2282h 0.4602v 6.64836h 0.4602v 10.484h 0.4602v -13.6803h 0.4602v 3.06847h 0.4602v 2.42921h 0.4602v 11.3789h 0.4602v -15.2145h 0.4602v 10.9954h 0.4602v 3.57989h 0.4602v 1.66209h 0.4602v -0.383559h 0.4602v 3.83559h 0.4602v -7.92689h
 0.4602v 4.73056h 0.4602v 5.36983h 0.9204v 0.383559h 0.4602v -3.19633h 0.4602v 5.75339h 0.4602v -7.15977h 0.4602v 5.49768h 0.4602v 6.90407h 0.4602v -2.42921h 0.4602v -17.6437h 0.4602v 8.1826h 0.4602v 12.4018h 0.4602v -0.127853h 0.4602v -3.45203h
 0.4602v 1.02282h 0.4602v 6.77621h 0.4602v 4.47486h 0.4602v -8.4383h 0.4602v 13.1689h 0.4602v -5.88124h 0.4602v 1.02282h 0.4602v 11.6346h 0.4602v -5.75339h 0.4602v 2.55706h 0.4602v 2.42921h 0.4602v 0.383559h 0.4602v 4.98627h 0.4602v -12.7853h 0.4602v
 12.6575h 0.4602v -3.96345h 0.4602v 8.31045h 0.4602v 0.511412h 0.4602v 11.8903h 0.4602v -7.67119h 0.4602v 6.52051h 0.4602v 2.55706h 0.4602v 10.3561h 0.4602v -7.15977h 0.4602v -3.57989h 0.4602v 5.49768h 0.4602v 9.33328h 0.4602v -1.9178h 0.4602v
 12.7853h 0.4602v -16.1095h 0.4602v 16.1095h 0.4602v -6.64836h 0.4602v 13.2967h 0.4602v 2.42921h 0.4602v 4.21915h 0.4602v 0.894972h 0.4602v 5.24198h 0.4602v -3.32418h 0.4602v 9.71684h 0.4602v 0.894972h 0.4602v 8.05474h 0.4602v -4.47486h 0.4602v
 12.2739h 0.4602v -1.15068h 0.4602v 6.52051h 0.4602v 7.28763h 0.4602v 1.66209h 0.4602v 0.639265h 0.4602v 6.90407h 0.4602v 4.34701h 0.4602v 1.9178h 0.4602v -1.9178h 0.4602v 9.58898h 0.4602v 1.9178h 0.4602v 11.6346h 0.4602v -3.32418h 0.4602v 1.9178h
 0.4602v 10.9954h 0.4602v 6.52051h 0.4602v -4.98627h 0.4602v 1.40638h 0.4602v 8.05474h 0.4602v 2.81277h 0.4602v 2.42921h 0.4602v 3.45203h 0.4602v 6.39265h 0.9204v 6.13695h 0.4602v 1.02282h 0.4602v 1.40638h 0.4602v 3.96345h 0.4602v 2.42921h 0.4602v
 5.24198h 0.4602v 1.15068h 0.4602v -1.66209h 0.4602v 8.94972h 0.4602v -4.47486h 0.4602v 1.53424h 0.4602v 7.54333h 0.4602v 4.21915h 0.4602v -6.64836h 0.4602v 3.57989h 0.4602v 3.96345h 0.4602v -2.55706h 0.4602v 4.21915h 0.4602v 1.15068h 0.4602v
 -0.511412h 0.4602v 4.47486h 0.4602v -1.9178h 0.4602v 1.78994h 0.4602v 0.639265h 0.4602v 2.55706h 0.4602v 0.127853h 0.4602v 0.894972h 0.4602v 0.255706h 0.4602v 0.894972h 0.4602v 2.1735h 0.4602v -1.40638h 0.4602v -0.639265h 0.4602v 2.42921h 0.4602v
 0.383559h 0.4602v 1.02282h 0.4602v -0.511412h 0.4602v -1.40638h 0.4602v 3.19633h 0.4602v 0.127853h 0.4602v -1.02282h 0.4602v 0.767119h 0.4602v 1.27853h 0.4602v -0.383559h 0.4602v -0.255706h 0.4602v 1.66209h 0.4602v -1.15068h 0.4602v 0.894972h
 0.4602v -0.511412h 0.4602v 0.127853h 0.9204v 0.511412h 0.4602v -1.27853h 0.4602v 1.53424h 0.9204v -0.511412h 0.4602v -0.127853h 0.4602v 1.02282h 0.4602v 0.127853h 0.4602v -0.639265h 0.4602v 0.383559h 0.4602v 0.894972h 0.4602v -1.66209h 0.4602v
 1.15068h 0.4602v 0.511412h 0.4602v -0.255706h 0.4602v -0.639265h 0.4602v 0.383559h 0.4602v -0.127853h 0.4602v 0.894972h 0.4602v -0.639265h 0.4602v 0.767119h 0.9204v -1.15068h 0.4602v 0.894972h 0.4602v 0.639265h 0.4602v -1.27853h 0.4602v 1.15068h
 0.4602v -0.255706h 0.4602v 0.383559h 0.4602v -0.639265h 0.4602v 0.639265h 0.4602v -1.15068h 0.4602v 0.767119h 0.4602v 0.255706h 1.3806v 0.511412h 0.4602v -0.894972h 0.4602v 0.511412h 0.4602v -0.383559h 0.4602v 0.255706h 0.4602v 0.127853h 0.4602v
 -1.02282h 0.4602v 0.511412h 0.4602v 0.127853h 0.4602v 0.255706h 0.4602v 0.127853h 0.4602v -0.127853h 0.4602v 0.511412h 0.9204v -0.639265h 0.4602v -0.127853h 0.9204v 0.255706h 0.4602v 0.127853h 0.4602v 0.383559h 0.4602v -0.511412h 0.4602v 0.383559h
 0.4602v -0.127853h 0.4602v 0.383559h 0.4602v -0.127853h 0.4602v -0.255706h 0.4602v -0.511412h 0.4602v 0.127853h 0.4602v 0.767119h 0.4602v -0.127853h 0.4602v -0.383559h 0.4602v 0.894972h 0.4602v -1.15068h 0.4602v 0.639265h 0.4602v 0.127853h 0.4602v
 -0.767119h 0.4602v -0.383559h 0.4602v 0.255706h 0.4602v 0.127853h 0.4602v 1.02282h 0.4602v -0.511412h 0.9204v -0.383559h 0.4602v 0.511412h 0.4602v -0.255706h 0.4602v 0.127853h 0.4602v -0.127853h 0.4602v -0.383559h 0.4602v -0.127853h 0.4602v
 0.127853h 0.4602v 0.383559h 0.4602v 0.255706h 0.4602v 0.127853h 0.4602v -0.127853h 0.4602v 0.255706h 0.9204v -0.767119h 0.4602v 0.894972h 0.4602v -0.255706h 0.4602v -0.383559h 0.9204v 0.767119h 0.4602v -0.255706h 0.4602v -0.383559h 0.9204v 0.255706h
 0.4602v -0.255706h 0.9204v -0.511412h 0.4602v 0.894972h 0.4602v 0.255706h 0.9204v -0.511412h 0.4602v 0.127853h 0.9204v -0.767119h 0.4602v 0.383559h 0.4602v 0.383559h 0.4602v -0.127853h 0.9204v -0.127853h 0.4602v 0.127853h 0.4602v -0.127853h 0.4602v
 -0.127853h 0.4602v 0.383559h 0.4602v -0.255706h 0.4602v 0.639265h 0.4602v -0.639265h 0.4602v -0.255706h 0.4602v 0.127853h 0.4602v 0.127853h 0.4602v -0.127853h 0.4602v 0.767119h 0.4602v -0.127853h 0.4602v -0.255706h 0.9204v 0.127853h 0.4602v
 0.127853h 0.4602v 0.255706h 0.4602v -1.02282h 0.4602v 0.639265h 0.4602v 0.127853h 0.9204v 0.127853h 0.4602v 0.127853h 0.4602v -0.383559h 0.4602v -0.127853h 0.4602v 0.127853h 0.4602v -0.255706h 0.4602v 0.511412h 0.4602v -0.255706h 0.4602v -0.639265h
 0.4602v 0.511412h 0.9204v 0.255706h 0.4602v -0.255706h 0.4602v -0.255706h 0.4602v 0.383559h 0.4602v -0.127853h 0.4602v 0.255706h 0.4602v 0.127853h 0.4602v -0.255706h 0.4602v 0.255706h 0.4602v 0.127853h 0.4602v -0.255706h 0.4602v -0.127853h 0.4602v
 0.127853h 0.4602v -0.127853h 0.4602v 0.255706h 0.4602v -0.127853h 0.4602v 0.127853h 0.4602v 0.127853h 0.4602v -0.383559h 0.4602v 0.255706h 0.9204v -0.127853h 0.4602v 0.127853h 0.4602v -0.255706h 0.4602v 0.383559h 0.9204v -0.383559h 0.4602v 0.639265h
 0.4602v -0.255706h 0.4602v -0.255706h 0.9204v -0.255706h 0.4602v 0.383559h 0.9204v -0.127853h 0.4602v 0.255706h 0.4602v -0.127853h 1.3806v 0.127853h 0.4602v -0.383559h 0.4602v 0.383559h 0.4602v -0.127853h 1.3806v -0.255706h 0.4602v 0.383559h 0.9204v
 0.127853h 0.9204v -0.127853h 0.9204v -0.255706h 0.4602v 0.127853h 0.4602v -0.127853h 0.4602v 0.383559h 0.4602v -0.383559h 0.4602v 0.255706h 0.4602v -0.383559h 0.9204v 0.255706h 0.4602v -0.255706h 0.4602v 0.383559h 0.4602v -0.511412h 0.4602v
 0.639265h 0.4602v -0.511412h 0.4602v 0.255706h 0.9204v 0.383559h 0.4602v -0.383559h 0.4602v 0.127853h 0.4602v 0.127853h 0.4602v -0.127853h 0.4602v -0.639265h 0.4602v 0.383559h 0.4602v 0.511412h 0.4602v -0.383559h 0.4602v -0.255706h 0.4602v 0.255706h
 0.9204v 0.255706h 0.4602v -0.383559h 0.4602v 0.255706h 0.4602v 0.255706h 0.4602v -0.511412h 0.4602v 0.255706h 0.4602v -0.383559h 0.4602v 0.383559h 0.4602v 0.127853h 0.4602v -0.511412h 0.4602v 0.383559h 0.4602v 0.127853h 0.4602v -0.127853h 0.4602v
 0.127853h 0.4602v 0.127853h 0.4602v -0.127853h 0.9204v -0.511412h 0.9204v 0.639265h 0.4602v -0.383559h 0.9204v 0.383559h 0.4602v -0.383559h 0.4602v 0.383559h 0.4602v -0.383559h 0.4602v -0.127853h 0.4602v 0.383559h 0.4602v -0.255706h 0.9204v
 0.383559h 0.4602v -0.255706h 0.9204v 0.127853h 0.4602v -0.511412h 0.4602v 0.255706h 0.4602v 0.255706h 0.9204v 0.127853h 0.4602v -0.127853h 0.4602v -0.383559h 0.4602v 0.255706h 0.4602v 0.127853h 0.4602v -0.127853h 0.4602v 0.255706h 0.4602v -0.255706h
 0.4602v 0.127853h 0.4602v -0.127853h 0.4602v 0.127853h 0.4602v -0.127853h 0.4602v 0.255706h 0.4602v -0.255706h 0.4602v -0.255706h 0.4602v 0.383559h 0.9204v -0.127853h 0.4602v 0.255706h 0.4602v -0.255706h 0.4602v 0.127853h 0.4602v -0.127853h 0.4602v
 0.255706h 1.3806v -0.127853h 0.4602v -0.383559h 0.4602v 0.255706h 0.4602v -0.127853h 0.4602v -0.127853h 0.4602v 0.383559h 0.4602v -0.127853h 1.3806v -0.255706h 0.4602v -0.127853h 0.4602v 0.255706h 0.9204v 0.383559h 0.9204v -0.511412h 0.4602v
 0.383559h 1.3806" fill="none" stroke="#59d354"/>
<rect x="388.982" y="46.7655" width="113.632" height="64.4051" fill="white"/>
<path d="M388.982,111.171h 113.632" fill="none" stroke="black"/>
<path d="M502.614,111.171v -64.4051" fill="none" stroke="black"/>
<path d="M502.614,46.7655h -113.632" fill="none" stroke="black"/>
<path d="M388.982,46.7655v 64.4051" fill="none" stroke="black"/>
<text xml:space="preserve" x="412.775" y="59.8927" fill="#59d354" font-size="14.0901" font-family="Helvetica">residualsX</text>
<path d="M388.982,62.8668h 113.632" fill="none" stroke="black"/>
<text xml:space="preserve" x="394.315" y="75.0709" fill="#59d354" font-size="12.0757" font-family="Helvetica">Entries </text>
<text xml:space="preserve" x="454.207" y="75.0709" fill="#59d354" font-size="12.0757" font-family="Helvetica"> 485454</text>
<text xml:space="preserve" x="394.315" y="91.4799" fill="#59d354" font-size="12.0757" font-family="Helvetica">Mean  </text>
<text xml:space="preserve" x="459.54" y="91.4799" fill="#59d354" font-size="12.0757" font-family="Helvetica"> 0.1081</text>
<text xml:space="preserve" x="394.315" y="107.479" fill="#59d354" font-size="12.0757" font-family="Helvetica">Std Dev   </text>
<text xml:space="preserve" x="460.771" y="107.479" fill="#59d354" font-size="12.0757" font-family="Helvetica">  18.24</text>
<path d="M57.316,364.074h 453.297" fill="none" stroke="black"/>
<path d="M99.1942,354.371v 9.70226" fill="none" stroke="black"/>
<path d="M117.602,359.222v 4.85113" fill="none" stroke="black"/>
<path d="M136.01,359.222v 4.85113" fill="none" stroke="black"/>
<path d="M154.418,359.222v 4.85113" fill="none" stroke="black"/>
<path d="M172.826,359.222v 4.85113" fill="none" stroke="black"/>
<path d="M191.234,354.371v 9.70226" fill="none" stroke="black"/>
<path d="M209.642,359.222v 4.85113" fill="none" stroke="black"/>
<path d="M228.05,359.222v 4.85113" fill="none" stroke="black"/>
<path d="M246.458,359.222v 4.85113" fill="none" stroke="black"/>
<path d="M264.866,359.222v 4.85113" fill="none" stroke="black"/>
<path d="M283.274,354.371v 9.70226" fill="none" stroke="black"/>
<path d="M301.682,359.222v 4.85113" fill="none" stroke="black"/>
<path d="M320.09,359.222v 4.85113" fill="none" stroke="black"/>
<path d="M338.498,359.222v 4.85113" fill="none" stroke="black"/>
<path d="M356.906,359.222v 4.85113" fill="none" stroke="black"/>
<path d="M375.314,354.371v 9.70226" fill="none" stroke="black"/>
<path d="M393.722,359.222v 4.85113" fill="none" stroke="black"/>
<path d="M412.13,359.222v 4.85113" fill="none" stroke="black"/>
<path d="M430.538,359.222v 4.85113" fill="none" stroke="black"/>
<path d="M448.946,359.222v 4.85113" fill="none" stroke="black"/>
<path d="M467.354,354.371v 9.70226" fill="none" stroke="black"/>
<path d="M99.1942,354.371v 9.70226" fill="none" stroke="black"/>
<path d="M80.7862,359.222v 4.85113" fill="none" stroke="black"/>
<path d="M62.3782,359.222v 4.85113" fill="none" stroke="black"/>
<path d="M467.354,354.371v 9.70226" fill="none" stroke="black"/>
<path d="M485.762,359.222v 4.85113" fill="none" stroke="black"/>
<path d="M504.17,359.222v 4.85113" fill="none" stroke="black"/>
<text xml:space="preserve" x="91.5697" y="377.406" fill="black" font-size="13.4879" font-family="Helvetica">100</text>
<text xml:space="preserve" x="84.5959" y="377.406" fill="black" font-size="13.4879" font-family="Times">&#8722;</text>
<text xml:space="preserve" x="187.152" y="377.406" fill="black" font-size="13.4879" font-family="Helvetica">50</text>
<text xml:space="preserve" x="179.768" y="377.406" fill="black" font-size="13.4879" font-family="Times">&#8722;</text>
<text xml:space="preserve" x="279.452" y="377.406" fill="black" font-size="13.4879" font-family="Helvetica">0</text>
<text xml:space="preserve" x="367.65" y="377.406" fill="black" font-size="13.4879" font-family="Helvetica">50</text>
<text xml:space="preserve" x="456.669" y="377.406" fill="black" font-size="13.4879" font-family="Helvetica">100</text>
<text xml:space="preserve" x="496.46" y="389.302" fill="black" font-size="13.4879" font-family="Helvetica">m]</text>
<text xml:space="preserve" x="488.666" y="389.302" fill="black" font-size="13.4879" font-family="Times">&#0956;</text>
<text xml:space="preserve" x="478" y="389.302" fill="black" font-size="13.4879" font-family="Helvetica">  [</text>
<text xml:space="preserve" x="468.975" y="393.405" fill="black" font-size="9.1586" font-family="Helvetica">hit</text>
<text xml:space="preserve" x="458.31" y="389.302" fill="black" font-size="13.4879" font-family="Helvetica">-x</text>
<text xml:space="preserve" x="439.439" y="393.405" fill="black" font-size="9.1586" font-family="Helvetica">track</text>
<text xml:space="preserve" x="432.876" y="389.302" fill="black" font-size="13.4879" font-family="Helvetica">x</text>
<path d="M57.316,364.074v -323.667" fill="none" stroke="black"/>
<path d="M70.9257,364.074h -13.6097" fill="none" stroke="black"/>
<path d="M64.1209,351.288h -6.80487" fill="none" stroke="black"/>
<path d="M64.1209,338.503h -6.80487" fill="none" stroke="black"/>
<path d="M64.1209,325.718h -6.80487" fill="none" stroke="black"/>
<path d="M64.1209,312.932h -6.80487" fill="none" stroke="black"/>
<path d="M70.9257,300.147h -13.6097" fill="none" stroke="black"/>
<path d="M64.1209,287.362h -6.80487" fill="none" stroke="black"/>
<path d="M64.1209,274.576h -6.80487" fill="none" stroke="black"/>
<path d="M64.1209,261.791h -6.80487" fill="none" stroke="black"/>
<path d="M64.1209,249.006h -6.80487" fill="none" stroke="black"/>
<path d="M70.9257,236.22h -13.6097" fill="none" stroke="black"/>
<path d="M64.1209,223.435h -6.80487" fill="none" stroke="black"/>
<path d="M64.1209,210.65h -6.80487" fill="none" stroke="black"/>
<path d="M64.1209,197.865h -6.80487" fill="none" stroke="black"/>
<path d="M64.1209,185.079h -6.80487" fill="none" stroke="black"/>
<path d="M70.9257,172.294h -13.6097" fill="none" stroke="black"/>
<path d="M64.1209,159.509h -6.80487" fill="none" stroke="black"/>
<path d="M64.1209,146.723h -6.80487" fill="none" stroke="black"/>
<path d="M64.1209,133.938h -6.80487" fill="none" stroke="black"/>
<path d="M64.1209,121.153h -6.80487" fill="none" stroke="black"/>
<path d="M70.9257,108.367h -13.6097" fill="none" stroke="black"/>
<path d="M64.1209,95.582h -6.80487" fill="none" stroke="black"/>
<path d="M64.1209,82.7967h -6.80487" fill="none" stroke="black"/>
<path d="M64.1209,70.0114h -6.80487" fill="none" stroke="black"/>
<path d="M64.1209,57.2261h -6.80487" fill="none" stroke="black"/>
<path d="M70.9257,44.4408h -13.6097" fill="none" stroke="black"/>
<path d="M70.9257,44.4408h -13.6097" fill="none" stroke="black"/>
<text xml:space="preserve" x="47.2655" y="368.791" fill="black" font-size="13.4879" font-family="Helvetica">0</text>
<text xml:space="preserve" x="32.9077" y="304.796" fill="black" font-size="13.4879" font-family="Helvetica">500</text>
<text xml:space="preserve" x="25.5236" y="240.801" fill="black" font-size="13.4879" font-family="Helvetica">1000</text>
<text xml:space="preserve" x="25.5236" y="176.806" fill="black" font-size="13.4879" font-family="Helvetica">1500</text>
<text xml:space="preserve" x="25.5236" y="113.222" fill="black" font-size="13.4879" font-family="Helvetica">2000</text>
<text xml:space="preserve" x="25.5236" y="49.2268" fill="black" font-size="13.4879" font-family="Helvetica">2500</text>
<g transform="rotate(-90,13.6272,90.2492)">
<text xml:space="preserve" x="13.6272" y="90.2492" fill="black" font-size="13.4879" font-family="Helvetica"># entries</text>
</g>
<rect x="388.982" y="46.7655" width="113.632" height="64.4051" fill="white"/>
<path d="M388.982,111.171h 113.632" fill="none" stroke="black"/>
<path d="M502.614,111.171v -64.4051" fill="none" stroke="black"/>
<path d="M502.614,46.7655h -113.632" fill="none" stroke="black"/>
<path d="M388.982,46.7655v 64.4051" fill="none" stroke="black"/>
<text xml:space="preserve" x="412.775" y="59.8927" fill="#59d354" font-size="14.0901" font-family="Helvetica">residualsX</text>
<path d="M388.982,62.8668h 113.632" fill="none" stroke="black"/>
<text xml:space="preserve" x="394.315" y="75.0709" fill="#59d354" font-size="12.0757" font-family="Helvetica">Entries </text>
<text xml:space="preserve" x="454.207" y="75.0709" fill="#59d354" font-size="12.0757" font-family="Helvetica"> 485454</text>
<text xml:space="preserve" x="394.315" y="91.4799" fill="#59d354" font-size="12.0757" font-family="Helvetica">Mean  </text>
<text xml:space="preserve" x="459.54" y="91.4799" fill="#59d354" font-size="12.0757" font-family="Helvetica"> 0.1081</text>
<text xml:space="preserve" x="394.315" y="107.479" fill="#59d354" font-size="12.0757" font-family="Helvetica">Std Dev   </text>
<text xml:space="preserve" x="460.771" y="107.479" fill="#59d354" font-size="12.0757" font-family="Helvetica">  18.24</text>
<text xml:space="preserve" x="211.355" y="19.6907" fill="black" font-size="17.8481" font-family="Helvetica">Residual in local X</text>
<path d="M57.316,363.562v 0.511412h 0.4602v -0.767119h 0.4602v 0.383559h 0.4602v 0.255706h 0.4602v -0.127853h 0.4602v -0.127853h 0.4602v 0.383559h 0.4602v -0.383559h 0.4602v 0.255706h 0.9204v -0.127853h 0.4602v 0.255706h 0.4602v -0.255706h 0.4602v
 0.127853h 0.4602v -0.255706h 0.9204v 0.127853h 0.4602v 0.127853h 0.4602v -0.255706h 0.4602v 0.255706h 0.4602v 0.127853h 0.4602v -0.127853h 0.4602v -0.127853h 0.4602v 0.127853h 0.4602v -0.127853h 0.4602v 0.255706h 0.4602v -0.255706h 0.9204v 0.255706h
 0.4602v -0.255706h 0.4602v -0.127853h 1.8408v -0.255706h 0.9204v 0.255706h 0.4602v 0.255706h 0.9204v -0.383559h 0.9204v -0.127853h 0.4602v 0.383559h 0.4602v 0.127853h 0.4602v -0.255706h 1.8408v 0.255706h 0.4602v -0.255706h 0.4602v 0.127853h 0.4602v
 0.255706h 0.4602v -0.383559h 0.4602v -0.383559h 0.4602v 0.383559h 0.4602v -0.255706h 0.4602v 0.383559h 0.4602v -0.383559h 0.4602v 0.383559h 0.4602v 0.255706h 0.4602v -0.127853h 1.8408v -0.127853h 0.4602v -0.255706h 0.4602v 0.255706h 0.9204v
 -0.127853h 0.4602v -0.511412h 0.4602v 0.894972h 0.4602v -0.383559h 0.4602v 0.255706h 0.4602v -0.127853h 0.4602v -0.127853h 0.4602v 0.383559h 0.4602v -0.511412h 0.4602v -0.255706h 0.4602v 0.255706h 0.4602v 0.383559h 0.4602v -0.511412h 0.4602v
 0.383559h 0.9204v 0.127853h 0.4602v -0.127853h 0.4602v 0.127853h 0.4602v -0.255706h 0.4602v -0.127853h 0.4602v 0.255706h 0.4602v -0.383559h 0.4602v 0.255706h 0.4602v -0.127853h 0.4602v 0.255706h 0.4602v 0.127853h 0.4602v -0.255706h 0.9204v 0.255706h
 0.4602v -0.383559h 0.4602v 0.383559h 0.4602v -0.767119h 0.9204v 0.511412h 0.4602v 0.255706h 0.4602v -0.639265h 0.4602v 0.383559h 0.4602v 0.255706h 0.4602v -0.511412h 0.4602v 0.255706h 0.4602v -0.127853h 0.4602v 0.255706h 0.4602v -0.383559h 0.9204v
 0.127853h 0.4602v 0.255706h 0.4602v -0.255706h 0.4602v 0.127853h 0.4602v -0.127853h 0.4602v 0.127853h 0.4602v -0.127853h 0.4602v -0.127853h 0.4602v -0.127853h 0.4602v 0.639265h 0.4602v -0.383559h 0.9204v -0.255706h 0.4602v 0.383559h 0.9204v
 -0.767119h 0.4602v 0.767119h 0.4602v -0.127853h 0.4602v 0.127853h 0.4602v -0.255706h 0.4602v 0.383559h 0.4602v -0.255706h 0.4602v -0.127853h 0.4602v 0.255706h 0.4602v -0.639265h 0.4602v 0.511412h 0.4602v 0.255706h 0.4602v -0.127853h 0.4602v
 -0.639265h 0.4602v -0.255706h 0.4602v 0.383559h 0.4602v 0.383559h 0.9204v 0.383559h 0.4602v -0.383559h 0.4602v 0.127853h 0.4602v 0.127853h 0.4602v -0.383559h 0.4602v 0.383559h 0.4602v -0.255706h 0.4602v 0.383559h 0.4602v -0.639265h 0.9204v
 -0.255706h 0.4602v 0.383559h 2.301v -0.767119h 0.4602v 0.767119h 0.4602v 0.383559h 0.4602v -0.639265h 0.4602v 0.255706h 0.9204v -0.383559h 0.4602v 0.639265h 0.4602v -0.255706h 0.4602v -0.255706h 0.4602v 0.255706h 0.4602v -0.511412h 0.4602v 0.383559h
 0.4602v 0.383559h 0.4602v -0.383559h 0.4602v -0.255706h 0.4602v 0.127853h 0.9204v 0.127853h 0.4602v -0.383559h 0.4602v 0.383559h 0.9204v -0.383559h 0.4602v -0.255706h 0.4602v 0.255706h 0.4602v 0.639265h 0.9204v -0.255706h 0.4602v -0.127853h 1.3806v
 0.255706h 0.4602v -0.127853h 0.4602v -0.255706h 0.4602v 0.639265h 0.4602v -0.894972h 0.4602v 0.383559h 0.4602v 0.511412h 0.4602v -0.639265h 0.4602v 0.767119h 0.4602v -0.511412h 0.4602v 0.383559h 0.4602v -0.511412h 0.4602v 0.255706h 0.4602v
 -0.511412h 0.4602v 0.639265h 0.4602v -0.383559h 0.4602v 0.127853h 0.9204v -0.767119h 0.4602v 0.767119h 0.4602v -0.255706h 0.4602v 0.639265h 0.4602v -0.767119h 0.4602v -0.127853h 0.9204v 0.255706h 0.4602v 0.639265h 0.4602v -1.27853h 0.4602v 0.767119h
 0.4602v -0.127853h 0.9204v -0.511412h 0.4602v 0.127853h 0.9204v 0.511412h 0.4602v -0.255706h 0.4602v -0.255706h 0.4602v 0.511412h 0.4602v -0.383559h 0.4602v 0.383559h 0.4602v -0.383559h 0.4602v -0.383559h 0.4602v 0.511412h 0.4602v -0.127853h 0.4602v
 0.383559h 0.4602v -0.255706h 0.4602v -0.383559h 0.4602v 0.255706h 0.4602v -0.511412h 0.4602v 1.02282h 0.4602v -0.127853h 0.4602v -1.15068h 0.4602v 1.02282h 0.4602v -0.511412h 0.4602v 0.255706h 1.3806v -0.255706h 1.3806v -0.383559h 0.4602v 0.894972h
 0.4602v -1.02282h 0.4602v 0.894972h 0.4602v -0.639265h 0.4602v 0.383559h 0.4602v -0.383559h 0.4602v -0.127853h 0.4602v 0.383559h 0.9204v 0.255706h 0.4602v 0.127853h 0.4602v -1.02282h 0.4602v -0.255706h 0.4602v 1.78994h 0.4602v -1.02282h 0.4602v
 -0.127853h 0.4602v -0.894972h 0.4602v 1.02282h 0.4602v -1.02282h 0.9204v 0.639265h 0.4602v 0.383559h 0.4602v -0.894972h 0.4602v 0.383559h 0.4602v 0.511412h 0.4602v -0.894972h 0.4602v 0.639265h 0.4602v -0.383559h 0.4602v 0.511412h 0.4602v -0.511412h
 0.4602v 0.255706h 0.4602v -1.53424h 0.4602v 0.894972h 0.4602v -0.127853h 0.9204v -0.255706h 0.9204v 0.383559h 0.4602v -0.511412h 0.4602v -0.127853h 0.4602v 0.894972h 0.4602v -0.511412h 0.4602v -0.767119h 0.4602v 0.383559h 0.4602v 0.383559h 0.4602v
 0.255706h 0.4602v -1.66209h 0.4602v 0.511412h 0.4602v -0.767119h 0.4602v 1.27853h 0.4602v -2.42921h 0.4602v 1.02282h 0.4602v -0.383559h 0.4602v -0.127853h 0.4602v 0.767119h 0.4602v -1.78994h 0.4602v 0.639265h 0.4602v -1.78994h 0.4602v 2.68492h
 0.4602v -1.78994h 0.4602v -0.639265h 0.4602v -0.639265h 0.4602v 0.127853h 0.4602v -0.511412h 0.4602v -0.894972h 0.4602v 0.639265h 0.4602v -1.53424h 0.4602v -0.894972h 0.4602v 1.27853h 0.4602v -2.30136h 0.4602v 0.767119h 0.4602v -1.02282h 0.4602v
 -1.78994h 0.4602v 1.27853h 0.4602v -1.40638h 0.4602v -0.255706h 0.4602v -1.9178h 0.4602v 0.894972h 0.4602v -0.383559h 0.4602v -0.767119h 0.4602v -3.70774h 0.4602v 0.511412h 0.4602v -3.70774h 0.4602v 1.78994h 0.4602v -0.511412h 0.4602v -0.383559h
 0.4602v -1.78994h 0.4602v -3.70774h 0.4602v 2.04565h 0.4602v -1.9178h 0.4602v -2.1735h 0.4602v -4.34701h 0.4602v -2.68492h 0.4602v 1.02282h 0.4602v -0.894972h 0.4602v -6.64836h 0.4602v 0.511412h 0.4602v 2.68492h 0.4602v -6.39265h 0.4602v -4.34701h
 0.4602v 2.1735h 0.4602v 0.511412h 0.4602v -3.83559h 0.4602v -6.77621h 0.4602v 1.53424h 0.4602v -7.28763h 0.4602v -1.9178h 0.4602v -4.34701h 0.4602v 3.83559h 0.4602v -4.47486h 0.4602v -2.30136h 0.4602v -4.34701h 0.4602v -3.96345h 0.4602v -6.90407h
 0.4602v 3.83559h 0.4602v 4.60271h 0.4602v -15.2145h 0.4602v -7.54333h 0.4602v 9.46113h 0.4602v -10.3561h 0.4602v 4.34701h 0.4602v -9.71684h 0.4602v -3.96345h 0.4602v -2.04565h 0.4602v 2.68492h 0.4602v -6.39265h 0.4602v -6.90407h 0.4602v 7.28763h
 0.4602v -7.54333h 0.4602v -10.6118h 0.4602v -1.15068h 0.4602v 1.15068h 0.4602v -10.2282h 0.4602v 1.15068h 0.4602v -2.68492h 0.4602v -0.383559h 0.4602v -2.81277h 0.4602v -10.6118h 0.4602v -0.639265h 0.4602v -1.78994h 0.4602v -8.69401h 0.4602v
 -0.383559h 0.4602v 2.81277h 0.4602v -14.7031h 0.4602v 4.85842h 0.4602v -4.60271h 0.4602v -5.75339h 0.4602v 0.127853h 0.4602v -4.60271h 0.4602v 0.127853h 0.4602v -3.83559h 0.4602v 1.27853h 0.4602v -9.46113h 0.4602v 3.83559h 0.4602v -9.07757h 0.4602v
 -2.1735h 0.4602v -0.767119h 0.4602v -3.83559h 0.4602v 0.127853h 0.4602v -2.42921h 0.4602v 4.85842h 0.4602v -8.1826h 0.4602v -12.4018h 0.4602v -0.767119h 0.4602v -3.70774h 0.4602v 0.639265h 0.4602v -2.42921h 0.4602v 3.19633h 0.4602v -7.41548h 0.4602v
 8.56616h 0.4602v -12.4018h 0.4602v 1.27853h 0.4602v -2.68492h 0.4602v -2.55706h 0.4602v -7.03192h 0.4602v 7.28763h 0.4602v 2.04565h 0.4602v -12.0182h 0.4602v 4.73056h 0.4602v -10.484h 0.4602v 1.27853h 0.4602v 1.53424h 0.9204v 3.19633h 0.4602v
 -2.04565h 0.4602v 0.639265h 0.4602v -8.05474h 0.4602v 2.81277h 0.4602v -4.73056h 0.4602v 4.47486h 0.4602v -5.11412h 0.4602v 2.68492h 0.4602v 8.82186h 0.4602v -15.5981h 0.4602v 3.70774h 0.4602v -7.03192h 0.4602v 10.7397h 0.4602v -17.0045h 0.4602v
 15.7259h 0.4602v -18.283h 0.4602v 1.15068h 0.4602v 4.73056h 0.4602v 4.73056h 0.4602v -8.82186h 0.4602v -2.55706h 0.4602v 3.96345h 0.4602v 6.13695h 0.4602v 2.81277h 0.4602v -8.56616h 0.4602v -1.53424h 0.4602v 2.81277h 0.4602v -7.41548h 0.4602v
 5.88124h 0.4602v -7.03192h 0.4602v 14.4474h 0.4602v -10.484h 0.4602v -10.1004h 0.4602v 12.0182h 0.4602v -14.1917h 0.4602v 8.69401h 0.4602v 5.24198h 0.4602v -9.46113h 0.4602v 0.511412h 0.4602v 4.34701h 0.4602v -3.19633h 0.4602v -14.7031h 0.4602v
 -4.73056h 0.4602v 24.5478h 0.4602v 7.54333h 0.4602v -29.1505h 0.4602v 20.7122h 0.4602v -4.47486h 0.4602v -11.8903h 0.4602v -0.511412h 0.4602v 17.7716h 0.4602v -8.82186h 0.4602v 2.04565h 0.4602v -0.639265h 0.4602v -1.27853h 0.4602v 8.82186h 0.4602v
 -16.3652h 0.4602v 13.5524h 0.4602v 0.894972h 0.4602v -10.2282h 0.4602v -2.81277h 0.4602v 9.33328h 0.4602v -6.64836h 0.4602v 7.15977h 0.4602v -7.54333h 0.4602v -4.0913h 0.4602v 15.7259h 0.4602v -4.47486h 0.4602v -9.71684h 0.4602v 4.85842h 0.4602v
 3.57989h 0.4602v -0.894972h 0.4602v 1.15068h 0.4602v -0.639265h 0.4602v -6.52051h 0.4602v 15.3424h 0.4602v 2.55706h 0.4602v -10.1004h 0.4602v 8.05474h 0.4602v -5.36983h 0.4602v -7.15977h 0.4602v 14.1917h 0.4602v -2.1735h 0.4602v 3.96345h 0.4602v
 -7.79904h 0.4602v 4.60271h 0.4602v 2.94062h 0.4602v 1.27853h 0.4602v 1.78994h 0.4602v -7.92689h 0.4602v -0.767119h 0.4602v 6.64836h 0.4602v -8.69401h 0.4602v 11.8903h 0.4602v -9.58898h 0.4602v 13.8081h 0.4602v -13.6803h 0.4602v 0.767119h 0.4602v
 -1.53424h 0.4602v 6.77621h 0.4602v -1.66209h 0.4602v 17.1323h 0.4602v -8.4383h 0.4602v -3.06847h 0.4602v 5.36983h 0.4602v 7.15977h 0.4602v -10.6118h 0.4602v 6.39265h 0.4602v 12.7853h 0.4602v -4.60271h 0.4602v 5.49768h 0.4602v -5.62554h 0.4602v
 -6.2648h 0.4602v 4.73056h 0.4602v 4.73056h 0.4602v 4.98627h 0.4602v -1.9178h 0.4602v -3.06847h 0.4602v 14.9588h 0.4602v -8.56616h 0.4602v 6.64836h 0.4602v 1.53424h 0.4602v -5.49768h 0.4602v 4.34701h 0.4602v 16.2373h 0.4602v -14.0638h 0.4602v
 13.4246h 0.4602v -11.3789h 0.4602v 7.54333h 0.4602v -2.1735h 0.4602v 2.81277h 0.4602v 10.1004h 0.4602v -10.2282h 0.4602v 7.41548h 0.4602v -2.04565h 0.4602v 9.07757h 0.4602v 1.27853h 0.4602v -0.894972h 0.4602v -2.55706h 0.4602v 11.8903h 0.4602v
 1.15068h 0.4602v -3.96345h 0.4602v 15.2145h 0.4602v -4.0913h 0.4602v 4.34701h 0.4602v 1.40638h 0.4602v -11.1232h 0.4602v 13.4246h 0.4602v 8.1826h 0.4602v 8.69401h 0.4602v -2.04565h 0.4602v 4.60271h 0.4602v 7.54333h 0.4602v 4.73056h 0.4602v -2.04565h
 0.4602v 3.19633h 0.4602v -0.127853h 0.4602v 3.19633h 0.4602v 4.98627h 0.4602v -2.81277h 0.4602v 7.67119h 0.4602v 13.4246h 0.4602v -1.40638h 0.4602v 5.36983h 0.4602v -10.7397h 0.4602v 18.7944h 0.4602v 5.11412h 0.4602v -3.70774h 0.4602v 3.19633h
 0.4602v -0.127853h 0.4602v 6.52051h 0.4602v 3.45203h 0.4602v 1.9178h 0.4602v 1.15068h 0.4602v 6.0091h 0.4602v 1.27853h 0.4602v 4.85842h 0.4602v 8.69401h 0.4602v -1.66209h 0.4602v 7.92689h 0.4602v 0.767119h 0.4602v -1.9178h 0.4602v 4.98627h 0.4602v
 1.40638h 0.4602v 3.96345h 0.4602v 4.73056h 0.4602v 4.60271h 0.4602v -2.94062h 0.4602v 2.30136h 0.4602v 6.77621h 0.4602v -1.9178h 0.4602v 5.62554h 0.4602v 2.68492h 0.4602v 3.70774h 0.4602v -3.70774h 0.4602v 10.1004h 0.4602v 4.34701h 0.4602v -6.64836h
 0.4602v 6.13695h 0.4602v -2.04565h 0.4602v 1.15068h 0.4602v 1.53424h 0.4602v 2.42921h 0.4602v 2.81277h 0.4602v 1.78994h 0.4602v -0.127853h 0.4602v 0.383559h 0.4602v 1.53424h 0.4602v 2.1735h 0.4602v 2.81277h 0.4602v 1.15068h 0.4602v -0.511412h
 0.4602v 0.894972h 0.4602v 2.81277h 0.4602v -2.68492h 0.4602v 3.57989h 0.4602v 0.127853h 0.4602v 1.78994h 0.4602v 0.127853h 0.4602v -0.767119h 0.4602v 3.06847h 0.4602v -1.78994h 0.4602v 3.19633h 0.4602v -2.04565h 0.4602v 1.78994h 0.4602v 2.42921h
 0.4602v -0.639265h 0.4602v 0.894972h 0.4602v 0.639265h 0.4602v 0.255706h 0.4602v -0.127853h 0.4602v 2.1735h 0.4602v -2.04565h 0.4602v 0.383559h 0.4602v 0.511412h 0.4602v 2.1735h 0.4602v -0.511412h 0.4602v 0.127853h 0.4602v 0.767119h 0.9204v
 -0.127853h 0.4602v 1.15068h 0.4602v -0.127853h 0.4602v 0.639265h 0.4602v -0.767119h 0.4602v 1.02282h 0.4602v 0.511412h 0.4602v -0.127853h 0.4602v 0.639265h 0.4602v -1.27853h 0.9204v 1.02282h 0.4602v -0.767119h 0.4602v -1.40638h 0.4602v 2.04565h
 0.4602v 1.02282h 0.4602v -1.66209h 0.4602v 1.15068h 0.4602v -0.767119h 0.4602v 0.639265h 0.4602v 1.02282h 0.4602v -1.78994h 0.4602v -0.127853h 0.4602v 1.66209h 0.4602v -0.255706h 0.4602v 0.383559h 0.9204v -1.27853h 0.4602v 0.767119h 0.4602v
 0.639265h 0.4602v -1.15068h 0.4602v 1.27853h 0.4602v -0.127853h 0.4602v -1.40638h 0.4602v 1.53424h 0.4602v 0.127853h 0.4602v -0.127853h 0.4602v -0.767119h 0.4602v 0.639265h 0.4602v -0.511412h 0.4602v -0.511412h 0.4602v 0.255706h 0.4602v 1.27853h
 0.4602v -0.255706h 0.4602v -0.383559h 0.4602v 0.383559h 0.4602v 0.383559h 0.4602v 0.639265h 0.4602v -0.511412h 0.4602v 0.127853h 0.4602v -0.894972h 0.9204v 1.27853h 0.4602v -0.255706h 0.4602v -1.53424h 0.4602v 0.894972h 0.4602v -0.127853h 0.4602v
 0.511412h 0.4602v -0.255706h 0.4602v 0.255706h 0.4602v -0.127853h 0.4602v 0.383559h 0.9204v -0.894972h 0.4602v 0.767119h 0.4602v -0.383559h 0.4602v 0.383559h 0.4602v -0.255706h 0.4602v -0.639265h 0.4602v 0.383559h 0.4602v 1.15068h 0.4602v -1.27853h
 0.4602v 0.255706h 0.4602v 0.255706h 0.4602v 0.511412h 1.3806v -0.511412h 0.4602v -0.639265h 0.4602v 1.02282h 0.4602v -0.127853h 0.4602v -0.511412h 0.4602v 0.255706h 0.4602v 0.255706h 0.4602v 0.383559h 0.4602v -0.639265h 0.4602v 0.639265h 0.4602v
 0.127853h 0.4602v -0.767119h 0.4602v 0.127853h 0.4602v -0.383559h 0.4602v 0.767119h 0.4602v -0.127853h 0.4602v -0.511412h 0.4602v 0.639265h 0.4602v -0.767119h 0.4602v 0.511412h 0.4602v -0.383559h 0.9204v 0.639265h 0.9204v -1.78994h 0.4602v 0.894972h
 0.4602v 0.894972h 0.4602v -0.383559h 0.4602v 0.255706h 0.4602v 0.127853h 0.4602v -0.255706h 0.4602v 0.511412h 0.9204v -0.767119h 0.4602v 0.639265h 0.4602v 0.255706h 0.4602v -0.255706h 0.4602v 0.383559h 0.4602v -0.767119h 0.4602v -0.127853h 0.9204v
 0.511412h 0.4602v -0.127853h 0.4602v -0.255706h 0.4602v 0.383559h 0.4602v -0.255706h 0.4602v 0.255706h 0.4602v -0.383559h 0.4602v 0.383559h 0.4602v -0.127853h 0.9204v 0.127853h 0.4602v 0.127853h 0.9204v -0.894972h 0.4602v 0.127853h 0.4602v 0.639265h
 0.4602v -0.127853h 0.9204v 0.127853h 0.4602v 0.127853h 0.4602v -0.383559h 0.4602v 0.127853h 0.4602v -0.127853h 0.4602v 0.255706h 0.4602v -0.127853h 0.4602v -0.383559h 0.4602v 0.639265h 0.4602v 0.127853h 0.4602v -0.255706h 0.4602v -0.255706h 0.4602v
 -0.383559h 0.4602v 0.767119h 0.4602v 0.255706h 0.4602v -0.255706h 0.4602v 0.383559h 0.4602v -0.383559h 0.4602v -0.127853h 0.4602v 0.255706h 0.4602v -0.511412h 0.9204v 0.767119h 0.4602v -0.894972h 0.4602v 0.127853h 0.4602v -0.511412h 0.4602v 1.02282h
 0.4602v -0.127853h 0.4602v -0.127853h 0.4602v -0.127853h 0.4602v 0.383559h 0.4602v -0.511412h 0.4602v 0.255706h 0.4602v 0.255706h 0.4602v 0.127853h 0.4602v -0.511412h 0.4602v 0.255706h 0.4602v 0.255706h 0.4602v -0.127853h 0.4602v -0.767119h 0.4602v
 0.639265h 0.4602v 0.127853h 0.4602v 0.127853h 0.4602v -0.639265h 0.4602v 0.255706h 0.4602v -0.511412h 0.4602v 0.767119h 0.4602v 0.255706h 0.4602v -0.511412h 0.4602v 0.383559h 0.9204v -0.383559h 0.4602v 0.255706h 0.4602v -0.127853h 0.9204v 0.383559h
 0.4602v -0.639265h 0.4602v 0.127853h 0.4602v 0.127853h 0.4602v 0.127853h 0.4602v -0.255706h 0.4602v 0.383559h 0.4602v -0.639265h 0.4602v 0.511412h 0.4602v -0.255706h 0.4602v 0.383559h 0.4602v -0.127853h 0.4602v -0.511412h 0.4602v 0.639265h 0.4602v
 -0.255706h 0.4602v 0.127853h 0.4602v 0.383559h 0.4602v -0.255706h 0.4602v -0.767119h 0.4602v 0.767119h 0.4602v -0.127853h 0.9204v -0.255706h 0.4602v 0.383559h 0.4602v -0.383559h 0.4602v 0.383559h 0.4602v -0.511412h 0.4602v 0.255706h 0.4602v
 -0.639265h 0.4602v 0.894972h 0.4602v -0.255706h 0.4602v 0.255706h 0.4602v 0.255706h 0.4602v -0.127853h 0.4602v -0.127853h 0.4602v -0.255706h 1.3806v 0.511412h 0.9204v -0.255706h 0.4602v -0.383559h 0.4602v 0.127853h 0.4602v -0.127853h 0.9204v
 0.383559h 0.4602v -0.383559h 0.4602v 0.511412h 0.4602v -0.511412h 0.4602v 0.383559h 0.4602v 0.127853h 0.4602v -0.127853h 0.4602v 0.127853h 0.4602v -0.383559h 0.4602v -0.255706h 0.4602v 0.383559h 0.4602v 0.255706h 0.4602v -0.127853h 0.4602v 0.127853h
 0.4602v 0.127853h 0.4602v -0.383559h 0.4602v 0.127853h 0.9204v -0.255706h 0.4602v 0.383559h 0.4602v 0.127853h 0.4602v -0.383559h 0.4602v 0.127853h 0.4602v 0.127853h 0.4602v -0.383559h 0.4602v 0.383559h 0.4602v -0.255706h 0.4602v 0.255706h 0.4602v
 -0.255706h 0.4602v 0.255706h 0.9204v -0.383559h 0.4602v 0.255706h 0.4602v 0.127853h 0.4602v -0.255706h 0.4602v 0.255706h 0.4602v -0.383559h 0.4602v -0.127853h 0.4602v -0.255706h 0.4602v 0.639265h 0.4602v 0.127853h 0.9204v -0.511412h 0.4602v
 0.511412h 0.4602v 0.127853h 0.9204v -0.383559h 0.9204v 0.383559h 0.4602v -0.511412h 0.4602v 0.255706h 0.4602v -0.255706h 0.4602v -0.127853h 0.4602v 0.511412h 1.3806v -0.127853h 1.3806v 0.127853h 0.4602v -0.127853h 0.4602v 0.127853h 0.4602v 0.127853h
 0.9204v -0.255706h 0.9204v 0.255706h 0.4602v -0.383559h 0.9204v 0.127853h 0.4602v 0.127853h 0.4602v 0.127853h 0.4602v -0.383559" fill="none" stroke="#000099"/></svg>
