<?xml version="1.0" standalone="no"?>
<svg width="567.429" height="404.981" viewBox="0 0 567.429 404.981" xmlns="http://www.w3.org/2000/svg" shape-rendering="crispEdges">
<title>
residuals.svg
</title>
<desc>
Creator: ROOT Version 6.30/04
CreationDate: Tue May 14 10:58:23 2024</desc>
<defs>
</defs>
<rect x="0.5" y="0" width="566.929" height="404.481" fill="white"/>
<rect x="57.316" y="40.407" width="453.297" height="323.667" fill="white"/>
<rect x="57.316" y="40.407" width="453.297" height="323.667" fill="none" stroke="black"/>
<rect x="57.316" y="40.407" width="453.297" height="323.667" fill="white"/>
<rect x="57.316" y="40.407" width="453.297" height="323.667" fill="none" stroke="black"/>
<path d="M57.316,364.074h 1.51351v -0.129193h 0.504504v 0.129193h 0.504504v -0.129193h 0.252252v 0.129193h 2.01802v -0.129193h 0.504504v 0.129193h 1.51351v -0.129193h 0.252252v 0.129193h 0.756757v -0.129193h 0.252252v 0.129193h 0.756757v -0.129193h
 0.252252v 0.129193h 0.756757v -0.129193h 0.252252v 0.129193h 0.252252v -0.129193h 0.756757v 0.129193h 1.26126v -0.129193h 0.252252v 0.129193h 2.01802v -0.129193h 0.504504v 0.129193h 0.252252v -0.129193h 0.252252v 0.129193h 0.252252v -0.129193h
 0.252252v 0.129193h 0.252252v -0.129193h 0.252252v 0.129193h 2.52252v -0.129193h 0.252252v 0.129193h 0.252252v -0.129193h 0.252252v 0.129193h 0.252252v -0.258385h 0.252252v 0.258385h 1.26126v -0.129193h 0.504504v 0.129193h 1.00901v -0.258385h
 0.252252v 0.258385h 1.00901v -0.129193h 0.252252v 0.129193h 1.00901v -0.129193h 0.252252v 0.129193h 0.756757v -0.129193h 0.252252v 0.129193h 0.252252v -0.129193h 0.252252v 0.129193h 0.252252v -0.129193h 0.252252v 0.129193h 0.756757v -0.129193h
 0.252252v 0.129193h 0.252252v -0.129193h 0.252252v 0.129193h 1.26126v -0.129193h 0.252252v 0.129193h 2.01802v -0.258385h 0.252252v 0.258385h 0.756757v -0.129193h 0.252252v 0.129193h 0.756757v -0.129193h 0.504504v 0.129193h 0.504504v -0.258385h
 0.252252v 0.258385h 0.504504v -0.129193h 0.252252v 0.129193h 1.51351v -0.258385h 0.252252v 0.258385h 0.252252v -0.129193h 0.252252v 0.129193h 0.504504v -0.129193h 0.252252v 0.129193h 1.51351v -0.129193h 0.504504v 0.129193h 0.252252v -0.258385h
 0.252252v 0.258385h 2.01802v -0.516771h 0.252252v 0.387578h 0.756757v 0.129193h 0.504504v -0.129193h 0.252252v 0.129193h 1.00901v -0.129193h 0.252252v 0.129193h 1.26126v -0.129193h 0.252252v 0.129193h 0.252252v -0.129193h 0.504504v 0.129193h
 0.252252v -0.129193h 0.252252v 0.129193h 2.27027v -0.129193h 0.252252v 0.129193h 1.76577v -0.129193h 0.252252v 0.129193h 0.252252v -0.129193h 0.252252v 0.129193h 0.756757v -0.129193h 0.252252v 0.129193h 1.51351v -0.129193h 0.252252v 0.129193h
 0.252252v -0.129193h 0.504504v 0.129193h 1.51351v -0.129193h 0.756757v -0.258385h 0.252252v 0.387578h 0.252252v -0.387578h 0.252252v 0.258385h 0.252252v 0.129193h 0.252252v -0.129193h 0.504504v 0.129193h 0.756757v -0.129193h 0.252252v 0.129193h
 0.756757v -0.129193h 0.756757v 0.129193h 0.252252v -0.129193h 0.252252v 0.129193h 0.252252v -0.129193h 0.252252v 0.129193h 0.252252v -0.129193h 0.252252v 0.129193h 0.756757v -0.129193h 0.504504v 0.129193h 0.252252v -0.129193h 0.252252v 0.129193h
 0.756757v -0.258385h 0.252252v 0.258385h 0.252252v -0.129193h 0.252252v 0.129193h 0.504504v -0.129193h 0.252252v 0.129193h 0.252252v -0.129193h 0.252252v 0.129193h 0.756757v -0.258385h 0.252252v 0.258385h 0.504504v -0.129193h 0.252252v 0.129193h
 0.252252v -0.258385h 0.504504v 0.129193h 1.51351v 0.129193h 0.252252v -0.258385h 0.252252v 0.258385h 0.252252v -0.258385h 0.252252v 0.129193h 0.252252v 0.129193h 0.756757v -0.258385h 0.252252v 0.258385h 0.252252v -0.129193h 0.252252v 0.129193h
 0.252252v -0.258385h 0.504504v 0.129193h 0.252252v 0.129193h 0.252252v -0.258385h 0.252252v 0.258385h 0.252252v -0.129193h 0.252252v -0.129193h 0.252252v 0.129193h 0.252252v 0.129193h 0.252252v -0.129193h 1.00901v -0.129193h 0.252252v 0.258385h
 0.252252v -0.129193h 0.252252v -0.129193h 0.252252v 0.258385h 0.252252v -0.129193h 1.00901v -0.258385h 0.252252v 0.258385h 0.252252v 0.129193h 0.252252v -0.387578h 0.504504v 0.387578h 0.252252v -0.258385h 0.252252v 0.129193h 0.504504v 0.129193h
 0.252252v -0.129193h 0.504504v -0.387578h 0.252252v 0.387578h 0.252252v 0.129193h 0.252252v -0.258385h 0.252252v 0.129193h 0.252252v -0.387578h 0.252252v 0.516771h 0.252252v -0.129193h 0.252252v 0.129193h 0.252252v -0.516771h 0.252252v 0.387578h
 0.756757v 0.129193h 0.252252v -0.129193h 0.252252v -0.129193h 0.252252v 0.258385h 0.252252v -0.129193h 0.252252v -0.129193h 0.252252v -0.258385h 0.252252v 0.258385h 0.252252v 0.258385h 0.504504v -0.258385h 0.252252v 0.258385h 0.504504v -0.258385h
 0.252252v 0.129193h 0.252252v 0.129193h 0.756757v -0.258385h 0.252252v 0.129193h 1.51351v -0.516771h 0.252252v 0.645964h 0.252252v -0.129193h 0.252252v 0.129193h 0.252252v -0.129193h 1.26126v -0.129193h 0.252252v 0.258385h 0.504504v -0.387578h
 0.252252v 0.387578h 0.252252v -0.258385h 0.252252v 0.129193h 0.252252v -0.129193h 0.756757v 0.129193h 0.252252v -0.129193h 0.504504v 0.129193h 0.252252v -0.129193h 0.252252v 0.129193h 0.756757v -0.258385h 0.252252v 0.387578h 0.252252v -0.129193h
 0.504504v 0.129193h 0.252252v -0.129193h 0.252252v -0.258385h 0.252252v 0.387578h 0.504504v -0.258385h 0.252252v -0.129193h 0.252252v -0.129193h 0.252252v 0.129193h 0.252252v 0.129193h 0.504504v -0.516771h 0.252252v 0.387578h 0.252252v 0.129193h
 0.252252v -0.129193h 0.504504v -0.258385h 0.252252v 0.387578h 0.252252v -0.129193h 0.252252v 0.129193h 0.252252v -0.775156h 0.252252v 0.904349h 0.504504v 0.129193h 0.252252v -0.516771h 0.504504v -0.129193h 0.252252v 0.387578h 0.504504v 0.129193h
 0.252252v -0.258385h 0.252252v 0.387578h 0.252252v -0.129193h 0.252252v -0.387578h 0.252252v 0.129193h 0.252252v 0.387578h 0.252252v -0.387578h 0.252252v 0.387578h 0.252252v -0.129193h 0.252252v -0.129193h 0.252252v -0.516771h 0.252252v 0.258385h
 0.252252v 0.129193h 0.504504v 0.258385h 0.252252v -0.129193h 0.252252v 0.129193h 0.252252v -0.516771h 0.504504v 0.129193h 0.252252v 0.387578h 0.252252v -0.258385h 0.504504v -0.129193h 0.252252v -0.129193h 0.252252v 0.516771h 0.252252v -0.258385h
 0.252252v 0.258385h 0.252252v -0.387578h 0.252252v 0.516771h 0.252252v -0.387578h 0.252252v 0.387578h 0.252252v -0.645964h 0.504504v 0.387578h 0.252252v -0.387578h 0.252252v 0.645964h 0.252252v -0.516771h 0.252252v 0.258385h 0.252252v -0.129193h
 1.00901v 0.258385h 0.504504v -0.129193h 0.504504v -0.258385h 0.756757v 0.129193h 0.504504v 0.258385h 0.504504v -0.516771h 0.252252v 0.258385h 0.252252v -0.129193h 0.252252v 0.387578h 0.504504v -0.129193h 0.252252v -0.129193h 0.504504v 0.129193h
 0.756757v 0.129193h 0.252252v -0.129193h 0.504504v -0.258385h 0.252252v -0.258385h 0.252252v 0.129193h 0.252252v 0.387578h 0.252252v -0.387578h 0.252252v 0.258385h 0.252252v -0.258385h 0.252252v 0.129193h 0.252252v 0.129193h 1.00901v -0.258385h
 0.252252v 0.387578h 0.252252v 0.129193h 0.252252v -0.387578h 0.252252v 0.258385h 0.252252v 0.129193h 0.252252v -0.516771h 0.504504v 0.387578h 0.252252v 0.129193h 0.252252v -0.387578h 0.252252v 0.129193h 0.504504v 0.129193h 0.756757v -0.387578h
 0.252252v 0.129193h 0.252252v 0.129193h 0.756757v -0.387578h 0.252252v -0.258385h 0.252252v 0.775156h 0.252252v -0.387578h 0.252252v 0.258385h 0.252252v -0.129193h 0.252252v -0.387578h 0.252252v 0.387578h 0.252252v -0.387578h 0.252252v -0.129193h
 0.252252v 0.129193h 0.252252v 0.775156h 0.252252v -0.258385h 0.252252v 0.129193h 0.252252v -0.129193h 0.252252v -0.258385h 0.504504v 0.258385h 0.252252v -0.387578h 0.252252v 0.387578h 0.252252v -0.258385h 0.252252v 0.258385h 0.252252v -0.516771h
 0.252252v 0.516771h 0.252252v -0.129193h 0.504504v -0.387578h 0.252252v 0.516771h 0.252252v -0.129193h 0.252252v 0.129193h 0.252252v -0.258385h 0.252252v -1.03354h 0.252252v 0.904349h 0.252252v -0.258385h 0.252252v 0.387578h 0.252252v 0.129193h
 0.252252v -0.258385h 0.252252v 0.258385h 0.252252v -0.129193h 0.756757v -0.258385h 0.252252v 0.516771h 0.252252v -0.129193h 0.252252v 0.129193h 0.252252v -1.29193h 0.252252v 1.16273h 0.252252v -0.129193h 0.252252v 0.516771h 0.252252v -1.16273h
 0.252252v 0.775156h 0.252252v -0.258385h 0.504504v 0.258385h 0.504504v -0.258385h 0.252252v 0.129193h 0.504504v 0.258385h 0.252252v 0.129193h 0.252252v -0.258385h 0.252252v -0.387578h 0.252252v -0.258385h 0.252252v 0.775156h 0.252252v -1.16273h
 0.252252v 0.775156h 0.252252v -1.16273h 0.252252v 1.03354h 0.252252v 0.258385h 0.252252v -0.387578h 0.252252v 0.129193h 0.252252v -0.645964h 0.252252v 0.258385h 0.252252v 0.516771h 0.252252v -0.645964h 0.252252v 0.645964h 0.252252v -0.129193h
 0.252252v -0.645964h 0.252252v 0.904349h 0.252252v -0.129193h 0.252252v -0.645964h 0.252252v 0.387578h 0.252252v -0.258385h 0.252252v 0.516771h 0.252252v -0.645964h 0.252252v 0.775156h 0.252252v -0.645964h 0.252252v 0.516771h 0.504504v 0.129193h
 0.252252v -0.387578h 0.252252v -0.129193h 0.252252v 0.775156h 0.252252v -1.03354h 0.252252v 0.516771h 0.504504v 0.258385h 0.252252v 0.258385h 0.252252v -1.03354h 0.252252v 0.387578h 0.252252v -0.129193h 0.504504v 0.387578h 0.252252v 0.645964h
 0.252252v -2.06708h 0.252252v 1.03354h 0.252252v 0.129193h 0.252252v -0.129193h 0.252252v 0.387578h 0.252252v -1.29193h 0.252252v 0.775156h 0.504504v 0.129193h 0.252252v 0.516771h 0.252252v -0.775156h 0.252252v 0.129193h 0.252252v -0.387578h
 0.252252v 0.258385h 0.252252v 0.387578h 0.252252v -0.387578h 0.252252v -1.03354h 0.252252v 0.516771h 0.252252v -0.129193h 0.252252v 1.16273h 0.252252v 0.129193h 0.252252v -1.03354h 0.504504v 0.258385h 0.252252v 0.129193h 0.252252v -0.387578h
 0.252252v -0.258385h 0.252252v 0.129193h 0.756757v 0.904349h 0.252252v -0.645964h 0.252252v 0.129193h 0.252252v -1.03354h 0.252252v 0.516771h 0.252252v 0.129193h 0.252252v -0.387578h 0.252252v 0.129193h 0.252252v 0.129193h 0.252252v 0.387578h
 0.252252v -0.904349h 0.252252v -0.129193h 0.252252v 0.387578h 0.252252v -0.516771h 0.252252v 0.258385h 0.252252v 0.387578h 0.252252v -0.387578h 0.252252v -0.904349h 0.504504v 0.904349h 0.252252v -1.42112h 0.252252v 1.55031h 0.252252v -0.387578h
 0.252252v -0.775156h 0.252252v -0.129193h 0.252252v -0.129193h 0.252252v -0.387578h 0.252252v 0.258385h 0.252252v -0.129193h 0.252252v -0.775156h 0.252252v 0.516771h 0.252252v -1.29193h 0.252252v 0.775156h 0.252252v -0.775156h 0.252252v -0.516771h
 0.252252v 1.42112h 0.252252v -1.42112h 0.252252v 1.03354h 0.252252v -3.4882h 0.252252v 1.29193h 0.252252v 0.129193h 0.252252v -1.55031h 0.252252v 0.775156h 0.252252v 0.516771h 0.252252v -0.387578h 0.252252v -0.904349h 0.252252v -1.8087h 0.252252v
 -0.904349h 0.252252v 0.904349h 0.252252v -1.29193h 0.252252v 1.29193h 0.252252v -1.42112h 0.252252v 0.129193h 0.252252v -2.06708h 0.252252v 1.55031h 0.252252v -1.8087h 0.252252v -4.39255h 0.252252v 3.10063h 0.252252v -0.645964h 0.252252v -3.6174h
 0.252252v -0.129193h 0.252252v -0.645964h 0.252252v -2.45466h 0.252252v 1.03354h 0.252252v -4.39255h 0.252252v -1.55031h 0.252252v 1.29193h 0.252252v -0.258385h 0.252252v -2.06708h 0.252252v 0.129193h 0.252252v -6.84721h 0.252252v -1.55031h
 0.252252v -0.258385h 0.252252v -2.06708h 0.252252v -2.58385h 0.504504v -3.87578h 0.252252v -8.26833h 0.252252v 2.58385h 0.252252v -0.258385h 0.252252v -6.33044h 0.252252v -1.16273h 0.504504v -6.07206h 0.252252v 0.387578h 0.252252v -4.52174h
 0.252252v -1.8087h 0.252252v -3.6174h 0.252252v -0.904349h 0.252252v -11.1106h 0.252252v -1.67951h 0.252252v -1.67951h 0.252252v -0.129193h 0.252252v -5.03852h 0.252252v -0.516771h 0.252252v -8.9143h 0.252252v -6.71802h 0.252252v -7.49318h 0.252252v
 5.55529h 0.252252v -3.10063h 0.252252v 5.2969h 0.252252v -14.3404h 0.252252v -2.32547h 0.252252v -5.81367h 0.252252v 1.16273h 0.252252v -7.88076h 0.252252v -4.78013h 0.252252v 3.4882h 0.252252v -12.2733h 0.252252v 2.84224h 0.252252v -8.26833h
 0.252252v -6.58883h 0.252252v 2.58385h 0.252252v -11.6273h 0.252252v 4.78013h 0.252252v -6.07206h 0.252252v -3.6174h 0.252252v -9.30188h 0.252252v 4.13417h 0.252252v 0.387578h 0.252252v -3.6174h 0.252252v -6.58883h 0.252252v -2.58385h 0.252252v
 -7.62237h 0.252252v 10.723h 0.252252v -8.13914h 0.252252v -13.436h 0.252252v 8.26833h 0.252252v -6.84721h 0.252252v -2.71305h 0.252252v 3.74659h 0.252252v -10.077h 0.252252v 11.369h 0.252252v -14.5988h 0.252252v -0.775156h 0.252252v -3.4882h
 0.252252v -6.07206h 0.252252v 8.7851h 0.252252v -4.52174h 0.252252v -8.9143h 0.252252v -3.10063h 0.252252v 12.6609h 0.252252v -10.5938h 0.252252v -1.8087h 0.252252v -1.42112h 0.252252v -7.23479h 0.252252v 9.56026h 0.252252v -6.58883h 0.252252v
 -12.1441h 0.252252v -0.775156h 0.252252v 7.1056h 0.252252v 7.1056h 0.252252v -14.728h 0.252252v -6.45964h 0.252252v 2.97143h 0.252252v 8.26833h 0.252252v -3.4882h 0.252252v -8.13914h 0.252252v -2.06708h 0.252252v 6.33044h 0.252252v -6.71802h
 0.252252v -6.45964h 0.252252v 6.20125h 0.252252v -1.67951h 0.252252v -7.49318h 0.252252v 13.3068h 0.252252v -3.10063h 0.252252v 6.45964h 0.252252v -17.441h 0.252252v 5.94286h 0.252252v -5.16771h 0.252252v 2.58385h 0.252252v -9.17268h 0.252252v
 5.55529h 0.252252v 2.06708h 0.252252v -7.62237h 0.252252v -9.56026h 0.252252v 21.5752h 0.252252v -12.5317h 0.252252v 0.387578h 0.252252v 3.22982h 0.252252v -14.9864h 0.252252v 2.97143h 0.252252v 9.17268h 0.252252v 4.39255h 0.252252v -5.16771h
 0.252252v -9.68945h 0.252252v 11.6273h 0.252252v -3.22982h 0.252252v 0.775156h 0.252252v -4.00497h 0.252252v -3.22982h 0.252252v 2.19628h 0.252252v -12.7901h 0.252252v 9.43107h 0.252252v 18.2162h 0.252252v -6.07206h 0.252252v -1.67951h 0.252252v
 -10.3354h 0.252252v 4.90932h 0.252252v -7.1056h 0.252252v 6.20125h 0.252252v -3.87578h 0.252252v -3.10063h 0.252252v 6.45964h 0.252252v 2.19628h 0.252252v -4.52174h 0.252252v -4.39255h 0.252252v 8.13914h 0.252252v -3.10063h 0.252252v -6.20125h
 0.252252v 6.58883h 0.252252v 9.94784h 0.252252v -20.1541h 0.252252v 13.0485h 0.252252v 1.29193h 0.252252v -6.71802h 0.252252v -1.67951h 0.252252v -0.645964h 0.252252v 1.16273h 0.252252v -0.258385h 0.252252v 5.81367h 0.252252v 1.42112h 0.252252v
 -11.8857h 0.252252v 15.8907h 0.252252v -14.082h 0.252252v 8.9143h 0.252252v 1.8087h 0.252252v 1.03354h 0.252252v -1.93789h 0.252252v -6.33044h 0.252252v 9.68945h 0.252252v -8.9143h 0.252252v 5.16771h 0.252252v -5.2969h 0.252252v 7.75156h 0.252252v
 2.32547h 0.252252v -11.6273h 0.252252v 3.35901h 0.252252v 0.387578h 0.252252v 7.75156h 0.252252v -4.78013h 0.252252v 5.81367h 0.252252v -14.5988h 0.252252v 10.3354h 0.252252v 2.06708h 0.252252v 1.42112h 0.252252v -1.03354h 0.252252v 6.97641h
 0.252252v -6.84721h 0.252252v 8.65591h 0.504504v 2.19628h 0.252252v -1.93789h 0.252252v 6.58883h 0.252252v -21.7044h 0.252252v 3.35901h 0.252252v 11.8857h 0.252252v 0.129193h 0.252252v 16.5367h 0.252252v -11.4982h 0.252252v 1.29193h 0.252252v
 0.904349h 0.252252v -5.68448h 0.252252v 14.3404h 0.252252v -9.81865h 0.252252v 6.45964h 0.252252v -1.93789h 0.252252v -0.775156h 0.252252v 1.29193h 0.252252v 6.58883h 0.252252v -4.39255h 0.252252v 2.06708h 0.252252v 15.3739h 0.252252v -16.7951h
 0.252252v 1.55031h 0.252252v -6.58883h 0.252252v 20.0249h 0.252252v 3.87578h 0.252252v -3.6174h 0.252252v 2.84224h 0.252252v -3.4882h 0.252252v 5.68448h 0.252252v 3.22982h 0.252252v -7.23479h 0.252252v -1.03354h 0.252252v 5.16771h 0.252252v 6.71802h
 0.252252v 0.904349h 0.252252v 3.74659h 0.252252v -0.775156h 0.252252v 6.20125h 0.252252v -5.2969h 0.252252v 2.32547h 0.252252v -0.129193h 0.252252v 3.4882h 0.252252v 10.5938h 0.252252v -4.65094h 0.252252v -3.6174h 0.252252v 15.7615h 0.252252v
 2.84224h 0.252252v -1.16273h 0.252252v -5.16771h 0.252252v 7.23479h 0.252252v 6.07206h 0.504504v 6.45964h 0.252252v 6.07206h 0.252252v -14.082h 0.252252v 13.436h 0.252252v 10.723h 0.252252v 1.8087h 0.252252v -7.88076h 0.252252v 10.4646h 0.504504v
 2.19628h 0.252252v 3.6174h 0.252252v 8.7851h 0.252252v 3.4882h 0.252252v -1.93789h 0.252252v 5.68448h 0.252252v 10.4646h 0.252252v -8.39753h 0.252252v 9.56026h 0.252252v 2.06708h 0.252252v 5.68448h 0.252252v 5.42609h 0.252252v 7.75156h 0.252252v
 -5.68448h 0.252252v 12.4025h 0.252252v -12.2733h 0.252252v 17.0534h 0.252252v 1.03354h 0.252252v 2.32547h 0.252252v 6.33044h 0.252252v -6.97641h 0.252252v 14.082h 0.252252v -3.87578h 0.252252v 4.52174h 0.252252v -0.904349h 0.252252v 13.436h
 0.252252v 1.8087h 0.252252v 5.81367h 0.252252v -0.387578h 0.252252v 3.22982h 0.252252v 1.16273h 0.252252v 5.81367h 0.252252v -1.29193h 0.252252v 3.4882h 0.252252v 5.55529h 0.252252v -0.775156h 0.252252v 1.8087h 0.252252v 6.20125h 0.252252v 3.74659h
 0.252252v 0.387578h 0.252252v 6.84721h 0.252252v -4.78013h 0.252252v 3.4882h 0.252252v -3.74659h 0.252252v 8.9143h 0.252252v -0.904349h 0.252252v 1.03354h 0.252252v 4.26336h 0.252252v 0.645964h 0.252252v 0.387578h 0.252252v 1.16273h 0.252252v
 2.32547h 0.252252v 1.42112h 0.252252v -2.71305h 0.252252v 1.03354h 0.252252v 3.74659h 0.252252v -0.129193h 0.252252v -2.06708h 0.252252v 6.20125h 0.252252v 1.29193h 0.252252v -0.516771h 0.252252v 1.03354h 0.252252v 0.258385h 0.252252v 0.645964h
 0.252252v 0.904349h 0.252252v -1.42112h 0.252252v 3.10063h 0.252252v -0.387578h 0.252252v 1.16273h 0.252252v -0.387578h 0.252252v -0.904349h 0.252252v 2.71305h 0.252252v -0.129193h 0.252252v -1.29193h 0.252252v 2.45466h 0.252252v -1.55031h 0.252252v
 2.06708h 0.252252v -0.387578h 0.252252v 0.258385h 0.252252v -0.387578h 0.252252v 0.775156h 0.252252v 0.645964h 0.252252v -1.16273h 0.252252v 0.904349h 0.252252v -0.129193h 0.252252v 0.129193h 0.252252v -0.904349h 0.252252v 2.32547h 0.252252v
 -1.42112h 0.252252v 1.55031h 0.252252v -0.904349h 0.252252v 0.904349h 0.252252v -1.67951h 0.252252v 1.55031h 0.252252v 0.645964h 0.252252v -0.258385h 0.252252v -0.258385h 0.252252v 0.258385h 0.252252v 1.67951h 0.252252v -0.645964h 0.252252v
 -2.19628h 0.252252v 1.42112h 0.252252v 0.387578h 0.252252v -1.29193h 0.252252v 1.03354h 0.252252v -1.16273h 0.252252v 0.904349h 0.252252v 0.129193h 0.252252v 0.387578h 0.252252v 0.645964h 0.252252v -0.129193h 0.756757v 0.129193h 0.252252v -1.29193h
 0.252252v 0.516771h 0.252252v 0.516771h 0.252252v 0.129193h 0.252252v 0.904349h 0.252252v -1.03354h 0.252252v 0.258385h 0.252252v 0.516771h 0.252252v -0.129193h 0.504504v -0.387578h 0.252252v -0.645964h 0.252252v 1.16273h 0.252252v -0.258385h
 0.504504v 0.645964h 0.252252v -0.775156h 0.252252v 0.129193h 0.504504v 0.904349h 0.252252v -0.258385h 0.252252v -1.16273h 0.252252v 0.516771h 0.504504v 0.516771h 0.756757v -0.129193h 0.252252v -0.129193h 0.252252v 0.516771h 0.252252v -0.387578h
 0.252252v -0.258385h 0.252252v -0.258385h 0.504504v 0.775156h 0.252252v -0.645964h 0.252252v 0.387578h 0.504504v 0.516771h 0.252252v -1.55031h 0.252252v 1.29193h 0.252252v 0.387578h 0.252252v 0.387578h 0.252252v -1.16273h 0.252252v 0.645964h
 0.252252v -0.645964h 0.252252v 0.645964h 0.252252v -0.387578h 0.252252v 0.129193h 0.252252v 0.258385h 0.504504v -0.129193h 0.504504v -0.516771h 0.252252v 0.129193h 0.252252v 0.387578h 0.252252v 0.516771h 0.252252v -0.775156h 0.252252v 0.258385h
 0.504504v -0.387578h 0.252252v 0.516771h 0.252252v -0.775156h 0.252252v 0.516771h 0.252252v 0.258385h 0.252252v 0.129193h 0.252252v -0.129193h 0.252252v -0.387578h 0.252252v 0.516771h 0.252252v 0.129193h 0.252252v -0.258385h 0.252252v 0.516771h
 0.252252v -0.387578h 0.252252v -0.516771h 0.252252v 0.129193h 0.252252v 0.516771h 0.252252v -0.129193h 0.252252v 0.129193h 0.252252v -0.129193h 0.252252v -0.129193h 0.252252v 0.129193h 0.252252v 0.258385h 0.252252v -0.645964h 0.504504v 0.258385h
 0.504504v 0.387578h 0.504504v -0.258385h 0.252252v -0.258385h 0.252252v 0.129193h 0.504504v -0.387578h 0.252252v 0.516771h 0.252252v -0.258385h 0.252252v 0.129193h 0.252252v 0.387578h 0.252252v -0.516771h 0.252252v 0.258385h 0.252252v 0.129193h
 0.252252v -0.258385h 0.252252v -0.387578h 0.252252v 0.258385h 0.252252v 0.129193h 0.252252v -0.129193h 0.252252v 0.258385h 0.504504v -0.258385h 0.252252v 0.387578h 0.756757v 0.129193h 0.504504v 0.258385h 0.252252v -0.904349h 0.252252v 0.645964h
 0.252252v -0.516771h 0.252252v 0.387578h 0.252252v 0.129193h 0.504504v -0.258385h 0.252252v -0.258385h 0.252252v 0.129193h 0.252252v 0.516771h 0.252252v -0.387578h 0.252252v -0.258385h 0.252252v 0.258385h 0.252252v -0.129193h 0.252252v 0.775156h
 0.252252v -0.645964h 0.252252v 0.129193h 0.252252v -0.387578h 0.252252v 0.258385h 0.252252v 0.129193h 0.504504v 0.129193h 0.252252v -0.387578h 0.252252v 0.129193h 0.252252v 0.129193h 0.504504v -0.129193h 1.00901v 0.129193h 0.252252v -0.387578h
 0.252252v 0.516771h 0.252252v -0.516771h 0.252252v 0.645964h 0.252252v -0.387578h 0.252252v 0.387578h 0.252252v -0.387578h 0.252252v 0.129193h 0.252252v 0.258385h 0.252252v 0.258385h 0.252252v -0.516771h 0.252252v 0.387578h 0.252252v -0.258385h
 0.756757v 0.129193h 0.252252v 0.129193h 0.252252v -0.775156h 0.252252v 0.645964h 0.504504v -0.775156h 0.252252v 0.775156h 0.504504v -0.516771h 0.252252v 0.258385h 0.504504v 0.258385h 0.252252v -0.258385h 0.252252v 0.387578h 0.504504v -0.258385h
 0.252252v -0.258385h 0.252252v 0.387578h 0.252252v 0.129193h 0.756757v -0.258385h 0.252252v 0.129193h 0.504504v 0.129193h 0.252252v -0.516771h 0.252252v 0.387578h 0.252252v -0.129193h 0.504504v 0.129193h 0.252252v 0.129193h 0.252252v -0.516771h
 0.252252v 0.645964h 0.252252v -0.387578h 0.252252v 0.258385h 0.252252v -0.258385h 0.504504v -0.129193h 0.252252v 0.516771h 0.252252v -0.258385h 0.252252v -0.129193h 0.252252v 0.387578h 0.252252v -0.258385h 0.252252v 0.258385h 0.252252v -0.387578h
 0.504504v 0.258385h 0.252252v -0.258385h 0.252252v 0.387578h 0.252252v -0.258385h 0.504504v -0.129193h 0.252252v 0.258385h 0.252252v -0.258385h 0.252252v 0.258385h 0.252252v -0.258385h 0.252252v 0.129193h 0.252252v 0.258385h 0.252252v -0.258385h
 0.252252v -0.129193h 0.252252v -0.258385h 0.252252v 0.258385h 0.252252v 0.258385h 0.756757v -1.03354h 0.252252v 0.775156h 0.252252v 0.129193h 0.252252v -0.129193h 0.504504v -0.129193h 0.252252v 0.258385h 0.504504v -0.129193h 0.252252v 0.129193h
 0.504504v -0.516771h 0.252252v 0.387578h 0.252252v 0.258385h 0.252252v -0.258385h 0.504504v 0.387578h 0.252252v -0.258385h 0.756757v 0.129193h 1.00901v -0.258385h 0.252252v -0.129193h 0.252252v 0.258385h 0.252252v 0.129193h 0.504504v -0.258385h
 0.252252v 0.129193h 0.252252v -0.129193h 0.252252v 0.258385h 0.252252v -0.129193h 0.252252v 0.129193h 0.252252v 0.129193h 0.252252v -0.258385h 0.252252v 0.258385h 0.252252v -0.258385h 0.252252v 0.129193h 0.252252v 0.129193h 0.252252v -0.129193h
 0.252252v -0.129193h 0.252252v -0.258385h 0.252252v -0.129193h 0.252252v 0.516771h 0.504504v -0.387578h 0.252252v 0.516771h 0.252252v -0.258385h 0.252252v 0.258385h 0.252252v -0.129193h 0.756757v -0.258385h 0.252252v 0.387578h 0.504504v -0.129193h
 0.252252v 0.129193h 0.504504v -0.258385h 0.252252v 0.129193h 0.252252v -0.129193h 0.252252v 0.258385h 0.252252v -0.258385h 0.252252v 0.129193h 0.252252v -0.129193h 0.252252v -0.129193h 0.504504v 0.387578h 0.252252v -0.258385h 0.252252v 0.258385h
 0.252252v -0.904349h 0.252252v 0.645964h 0.252252v 0.258385h 0.252252v -0.129193h 0.252252v -0.129193h 0.504504v 0.258385h 0.252252v -0.258385h 0.252252v 0.258385h 0.252252v -0.129193h 0.252252v -0.129193h 0.252252v 0.129193h 0.252252v -0.129193h
 0.252252v 0.129193h 0.252252v -0.129193h 0.504504v 0.258385h 0.252252v -0.129193h 0.504504v 0.129193h 1.00901v -0.129193h 0.252252v 0.129193h 0.252252v -0.129193h 0.252252v 0.129193h 0.252252v -0.516771h 0.252252v 0.516771h 0.252252v -0.258385h
 0.252252v 0.258385h 0.252252v -0.258385h 0.252252v 0.258385h 0.504504v -0.129193h 0.504504v -0.129193h 0.252252v 0.129193h 0.504504v 0.129193h 0.756757v -0.129193h 1.00901v 0.129193h 0.252252v -0.129193h 0.252252v 0.129193h 0.504504v -0.129193h
 0.252252v -0.129193h 0.252252v -0.129193h 0.252252v 0.129193h 0.252252v -0.129193h 0.252252v 0.258385h 0.252252v -0.129193h 0.252252v 0.258385h 0.252252v -0.129193h 0.504504v -0.258385h 0.252252v 0.387578h 0.504504v -0.129193h 0.504504v -0.129193h
 0.252252v 0.129193h 0.504504v 0.129193h 0.252252v -0.129193h 0.504504v 0.129193h 0.252252v -0.258385h 0.252252v 0.129193h 0.504504v -0.129193h 0.252252v 0.258385h 0.504504v -0.258385h 0.252252v 0.258385h 0.504504v -0.258385h 0.252252v 0.258385h
 0.252252v -0.129193h 0.252252v 0.129193h 0.252252v -0.258385h 0.504504v 0.258385h 0.252252v -0.129193h 0.252252v 0.129193h 0.252252v -0.129193h 0.252252v -0.129193h 0.504504v 0.258385h 0.252252v -0.129193h 0.504504v 0.129193h 0.504504v -0.129193h
 0.756757v 0.129193h 0.252252v -0.129193h 0.252252v 0.129193h 0.252252v -0.129193h 0.504504v -0.129193h 0.252252v 0.258385h 0.252252v -0.129193h 0.252252v -0.129193h 0.252252v 0.258385h 0.504504v -0.129193h 0.504504v 0.129193h 0.756757v -0.129193h
 1.00901v 0.129193h 0.504504v -0.129193h 0.252252v 0.129193h 0.504504v -0.129193h 0.252252v 0.129193h 0.504504v -0.129193h 0.252252v 0.129193h 1.26126v -0.129193h 0.504504v 0.129193h 1.26126v -0.129193h 0.252252v 0.129193h 0.504504v -0.129193h
 0.504504v 0.129193h 0.252252v -0.129193h 0.504504v 0.129193h 0.504504v -0.129193h 0.252252v 0.129193h 0.252252v -0.387578h 0.252252v 0.129193h 0.252252v 0.258385h 0.252252v -0.129193h 0.504504v 0.129193h 0.504504v -0.129193h 0.252252v 0.129193h
 0.504504v -0.258385h 0.252252v 0.258385h 0.252252v -0.129193h 0.756757v -0.129193h 0.252252v 0.258385h 0.504504v -0.258385h 0.252252v 0.258385h 0.756757v -0.129193h 0.252252v 0.129193h 0.252252v -0.129193h 0.252252v 0.129193h 0.252252v -0.129193h
 0.252252v 0.129193h 0.252252v -0.129193h 0.252252v 0.129193h 0.756757v -0.129193h 0.252252v 0.129193h 1.00901v -0.129193h 0.252252v 0.129193h 0.756757v -0.258385h 0.504504v 0.258385h 1.26126v -0.129193h 0.504504v -0.129193h 0.252252v 0.258385h
 2.77477v -0.129193h 0.504504v 0.129193h 0.252252v -0.129193h 0.252252v 0.129193h 0.252252v -0.129193h 1.26126v 0.129193h 0.252252v -0.129193h 1.00901v 0.129193h 1.00901v -0.129193h 0.252252v 0.129193h 0.504504v -0.129193h 0.252252v 0.129193h
 0.504504v -0.129193h 0.252252v 0.129193h 0.756757v -0.129193h 0.252252v 0.129193h 0.252252v -0.129193h 0.252252v 0.129193h 0.252252v -0.129193h 0.756757v -0.129193h 0.252252v 0.129193h 0.504504v 0.129193h 0.504504v -0.129193h 0.504504v 0.129193h
 0.252252v -0.129193h 0.252252v 0.129193h 1.76577v -0.129193h 0.252252v 0.129193h 0.252252v -0.129193h 0.252252v 0.129193h 0.756757v -0.129193h 0.252252v 0.129193h 2.27027v -0.129193h 0.252252v 0.129193h 0.252252v -0.258385h 0.252252v 0.129193h
 0.252252v 0.129193h 1.51351v -0.258385h 0.252252v 0.258385h 1.00901v -0.129193h 0.252252v -0.129193h 0.252252v 0.258385h 0.504504v -0.129193h 0.252252v 0.129193h 1.00901v -0.129193h 0.252252v 0.129193h 0.504504v -0.129193h 0.252252v -0.129193h
 0.252252v 0.258385h 0.756757v -0.129193h 0.252252v 0.129193h 0.252252v -0.258385h 0.252252v 0.129193h 0.504504v 0.129193h 0.252252v -0.129193h 0.252252v 0.129193h 0.504504v -0.129193h 0.252252v 0.129193h 1.00901v -0.129193h 0.252252v 0.129193h
 0.252252v -0.129193h 0.504504v 0.129193h 0.756757v -0.129193h 0.252252v 0.129193h 0.252252v -0.129193h 0.252252v 0.129193h 0.504504v -0.129193h 0.252252v 0.129193h 0.504504v -0.129193h 0.252252v 0.129193h 0.252252v -0.129193h 0.504504v 0.129193h
 0.504504v -0.129193h 0.252252v 0.129193h 3.27928v -0.129193h 0.252252v 0.129193h 5.8018v -0.129193h 0.252252" fill="none" stroke="#59d354" stroke-width="2"/>
<rect x="396.776" y="40.6121" width="113.632" height="64.4051" fill="white"/>
<path d="M396.776,105.017h 113.632" fill="none" stroke="black" stroke-width="2"/>
<path d="M510.408,105.017v -64.4051" fill="none" stroke="black" stroke-width="2"/>
<path d="M510.408,40.6121h -113.632" fill="none" stroke="black" stroke-width="2"/>
<path d="M396.776,40.6121v 64.4051" fill="none" stroke="black" stroke-width="2"/>
<text xml:space="preserve" x="420.569" y="53.7393" fill="#59d354" font-size="14.0901" font-family="Helvetica">residualsX</text>
<path d="M396.776,56.7134h 113.632" fill="none" stroke="black" stroke-width="2"/>
<text xml:space="preserve" x="402.109" y="68.9176" fill="#59d354" font-size="12.0757" font-family="Helvetica">Entries </text>
<text xml:space="preserve" x="462.002" y="68.9176" fill="#59d354" font-size="12.0757" font-family="Helvetica"> 485454</text>
<text xml:space="preserve" x="402.109" y="85.3265" fill="#59d354" font-size="12.0757" font-family="Helvetica">Mean  </text>
<text xml:space="preserve" x="468.565" y="85.3265" fill="#59d354" font-size="12.0757" font-family="Helvetica">0.3249</text>
<text xml:space="preserve" x="462.002" y="85.3265" fill="#59d354" font-size="12.0757" font-family="Times">&#8722;</text>
<text xml:space="preserve" x="457.899" y="85.3265" fill="#59d354" font-size="12.0757" font-family="Helvetica"> </text>
<text xml:space="preserve" x="402.109" y="101.325" fill="#59d354" font-size="12.0757" font-family="Helvetica">Std Dev   </text>
<text xml:space="preserve" x="468.565" y="101.325" fill="#59d354" font-size="12.0757" font-family="Helvetica">  19.15</text>
<path d="M57.316,364.074h 453.297" fill="none" stroke="black"/>
<path d="M81.7844,354.371v 9.70226" fill="none" stroke="black"/>
<path d="M91.8745,359.222v 4.85113" fill="none" stroke="black"/>
<path d="M101.965,359.222v 4.85113" fill="none" stroke="black"/>
<path d="M112.055,359.222v 4.85113" fill="none" stroke="black"/>
<path d="M122.145,359.222v 4.85113" fill="none" stroke="black"/>
<path d="M132.235,354.371v 9.70226" fill="none" stroke="black"/>
<path d="M142.325,359.222v 4.85113" fill="none" stroke="black"/>
<path d="M152.415,359.222v 4.85113" fill="none" stroke="black"/>
<path d="M162.505,359.222v 4.85113" fill="none" stroke="black"/>
<path d="M172.595,359.222v 4.85113" fill="none" stroke="black"/>
<path d="M182.685,354.371v 9.70226" fill="none" stroke="black"/>
<path d="M192.775,359.222v 4.85113" fill="none" stroke="black"/>
<path d="M202.865,359.222v 4.85113" fill="none" stroke="black"/>
<path d="M212.956,359.222v 4.85113" fill="none" stroke="black"/>
<path d="M223.046,359.222v 4.85113" fill="none" stroke="black"/>
<path d="M233.136,354.371v 9.70226" fill="none" stroke="black"/>
<path d="M243.226,359.222v 4.85113" fill="none" stroke="black"/>
<path d="M253.316,359.222v 4.85113" fill="none" stroke="black"/>
<path d="M263.406,359.222v 4.85113" fill="none" stroke="black"/>
<path d="M273.496,359.222v 4.85113" fill="none" stroke="black"/>
<path d="M283.586,354.371v 9.70226" fill="none" stroke="black"/>
<path d="M293.676,359.222v 4.85113" fill="none" stroke="black"/>
<path d="M303.766,359.222v 4.85113" fill="none" stroke="black"/>
<path d="M313.856,359.222v 4.85113" fill="none" stroke="black"/>
<path d="M323.947,359.222v 4.85113" fill="none" stroke="black"/>
<path d="M334.037,354.371v 9.70226" fill="none" stroke="black"/>
<path d="M344.127,359.222v 4.85113" fill="none" stroke="black"/>
<path d="M354.217,359.222v 4.85113" fill="none" stroke="black"/>
<path d="M364.307,359.222v 4.85113" fill="none" stroke="black"/>
<path d="M374.397,359.222v 4.85113" fill="none" stroke="black"/>
<path d="M384.487,354.371v 9.70226" fill="none" stroke="black"/>
<path d="M394.577,359.222v 4.85113" fill="none" stroke="black"/>
<path d="M404.667,359.222v 4.85113" fill="none" stroke="black"/>
<path d="M414.757,359.222v 4.85113" fill="none" stroke="black"/>
<path d="M424.847,359.222v 4.85113" fill="none" stroke="black"/>
<path d="M434.938,354.371v 9.70226" fill="none" stroke="black"/>
<path d="M445.028,359.222v 4.85113" fill="none" stroke="black"/>
<path d="M455.118,359.222v 4.85113" fill="none" stroke="black"/>
<path d="M465.208,359.222v 4.85113" fill="none" stroke="black"/>
<path d="M475.298,359.222v 4.85113" fill="none" stroke="black"/>
<path d="M485.388,354.371v 9.70226" fill="none" stroke="black"/>
<path d="M81.7844,354.371v 9.70226" fill="none" stroke="black"/>
<path d="M71.6944,359.222v 4.85113" fill="none" stroke="black"/>
<path d="M61.6043,359.222v 4.85113" fill="none" stroke="black"/>
<path d="M485.388,354.371v 9.70226" fill="none" stroke="black"/>
<path d="M495.478,359.222v 4.85113" fill="none" stroke="black"/>
<path d="M505.568,359.222v 4.85113" fill="none" stroke="black"/>
<text xml:space="preserve" x="74.3403" y="377.406" fill="black" font-size="13.4879" font-family="Helvetica">200</text>
<text xml:space="preserve" x="67.3665" y="377.406" fill="black" font-size="13.4879" font-family="Times">&#8722;</text>
<text xml:space="preserve" x="124.798" y="377.406" fill="black" font-size="13.4879" font-family="Helvetica">150</text>
<text xml:space="preserve" x="117.824" y="377.406" fill="black" font-size="13.4879" font-family="Times">&#8722;</text>
<text xml:space="preserve" x="175.255" y="377.406" fill="black" font-size="13.4879" font-family="Helvetica">100</text>
<text xml:space="preserve" x="168.281" y="377.406" fill="black" font-size="13.4879" font-family="Times">&#8722;</text>
<text xml:space="preserve" x="229.405" y="377.406" fill="black" font-size="13.4879" font-family="Helvetica">50</text>
<text xml:space="preserve" x="222.021" y="377.406" fill="black" font-size="13.4879" font-family="Times">&#8722;</text>
<text xml:space="preserve" x="279.862" y="377.406" fill="black" font-size="13.4879" font-family="Helvetica">0</text>
<text xml:space="preserve" x="326.628" y="377.406" fill="black" font-size="13.4879" font-family="Helvetica">50</text>
<text xml:space="preserve" x="373.804" y="377.406" fill="black" font-size="13.4879" font-family="Helvetica">100</text>
<text xml:space="preserve" x="424.261" y="377.406" fill="black" font-size="13.4879" font-family="Helvetica">150</text>
<text xml:space="preserve" x="474.719" y="377.406" fill="black" font-size="13.4879" font-family="Helvetica">200</text>
<text xml:space="preserve" x="496.46" y="389.302" fill="black" font-size="13.4879" font-family="Helvetica">m]</text>
<text xml:space="preserve" x="488.666" y="389.302" fill="black" font-size="13.4879" font-family="Times">&#0956;</text>
<text xml:space="preserve" x="478" y="389.302" fill="black" font-size="13.4879" font-family="Helvetica">  [</text>
<text xml:space="preserve" x="468.975" y="393.405" fill="black" font-size="9.1586" font-family="Helvetica">hit</text>
<text xml:space="preserve" x="458.31" y="389.302" fill="black" font-size="13.4879" font-family="Helvetica">-x</text>
<text xml:space="preserve" x="439.439" y="393.405" fill="black" font-size="9.1586" font-family="Helvetica">track</text>
<text xml:space="preserve" x="432.876" y="389.302" fill="black" font-size="13.4879" font-family="Helvetica">x</text>
<path d="M57.316,364.074v -323.667" fill="none" stroke="black"/>
<path d="M70.9257,364.074h -13.6097" fill="none" stroke="black"/>
<path d="M64.1209,351.154h -6.80487" fill="none" stroke="black"/>
<path d="M64.1209,338.235h -6.80487" fill="none" stroke="black"/>
<path d="M64.1209,325.316h -6.80487" fill="none" stroke="black"/>
<path d="M64.1209,312.396h -6.80487" fill="none" stroke="black"/>
<path d="M70.9257,299.477h -13.6097" fill="none" stroke="black"/>
<path d="M64.1209,286.558h -6.80487" fill="none" stroke="black"/>
<path d="M64.1209,273.639h -6.80487" fill="none" stroke="black"/>
<path d="M64.1209,260.719h -6.80487" fill="none" stroke="black"/>
<path d="M64.1209,247.8h -6.80487" fill="none" stroke="black"/>
<path d="M70.9257,234.881h -13.6097" fill="none" stroke="black"/>
<path d="M64.1209,221.962h -6.80487" fill="none" stroke="black"/>
<path d="M64.1209,209.042h -6.80487" fill="none" stroke="black"/>
<path d="M64.1209,196.123h -6.80487" fill="none" stroke="black"/>
<path d="M64.1209,183.204h -6.80487" fill="none" stroke="black"/>
<path d="M70.9257,170.284h -13.6097" fill="none" stroke="black"/>
<path d="M64.1209,157.365h -6.80487" fill="none" stroke="black"/>
<path d="M64.1209,144.446h -6.80487" fill="none" stroke="black"/>
<path d="M64.1209,131.527h -6.80487" fill="none" stroke="black"/>
<path d="M64.1209,118.607h -6.80487" fill="none" stroke="black"/>
<path d="M70.9257,105.688h -13.6097" fill="none" stroke="black"/>
<path d="M64.1209,92.7688h -6.80487" fill="none" stroke="black"/>
<path d="M64.1209,79.8496h -6.80487" fill="none" stroke="black"/>
<path d="M64.1209,66.9303h -6.80487" fill="none" stroke="black"/>
<path d="M64.1209,54.011h -6.80487" fill="none" stroke="black"/>
<path d="M70.9257,41.0918h -13.6097" fill="none" stroke="black"/>
<path d="M70.9257,41.0918h -13.6097" fill="none" stroke="black"/>
<text xml:space="preserve" x="47.2655" y="368.791" fill="black" font-size="13.4879" font-family="Helvetica">0</text>
<text xml:space="preserve" x="32.9077" y="304.386" fill="black" font-size="13.4879" font-family="Helvetica">500</text>
<text xml:space="preserve" x="25.5236" y="239.571" fill="black" font-size="13.4879" font-family="Helvetica">1000</text>
<text xml:space="preserve" x="25.5236" y="175.166" fill="black" font-size="13.4879" font-family="Helvetica">1500</text>
<text xml:space="preserve" x="25.5236" y="110.35" fill="black" font-size="13.4879" font-family="Helvetica">2000</text>
<text xml:space="preserve" x="25.5236" y="45.9451" fill="black" font-size="13.4879" font-family="Helvetica">2500</text>
<g transform="rotate(-90,13.6272,90.2492)">
<text xml:space="preserve" x="13.6272" y="90.2492" fill="black" font-size="13.4879" font-family="Helvetica"># entries</text>
</g>
<rect x="396.776" y="40.6121" width="113.632" height="64.4051" fill="white"/>
<path d="M396.776,105.017h 113.632" fill="none" stroke="black" stroke-width="2"/>
<path d="M510.408,105.017v -64.4051" fill="none" stroke="black" stroke-width="2"/>
<path d="M510.408,40.6121h -113.632" fill="none" stroke="black" stroke-width="2"/>
<path d="M396.776,40.6121v 64.4051" fill="none" stroke="black" stroke-width="2"/>
<text xml:space="preserve" x="420.569" y="53.7393" fill="#59d354" font-size="14.0901" font-family="Helvetica">residualsX</text>
<path d="M396.776,56.7134h 113.632" fill="none" stroke="black" stroke-width="2"/>
<text xml:space="preserve" x="402.109" y="68.9176" fill="#59d354" font-size="12.0757" font-family="Helvetica">Entries </text>
<text xml:space="preserve" x="462.002" y="68.9176" fill="#59d354" font-size="12.0757" font-family="Helvetica"> 485454</text>
<text xml:space="preserve" x="402.109" y="85.3265" fill="#59d354" font-size="12.0757" font-family="Helvetica">Mean  </text>
<text xml:space="preserve" x="468.565" y="85.3265" fill="#59d354" font-size="12.0757" font-family="Helvetica">0.3249</text>
<text xml:space="preserve" x="462.002" y="85.3265" fill="#59d354" font-size="12.0757" font-family="Times">&#8722;</text>
<text xml:space="preserve" x="457.899" y="85.3265" fill="#59d354" font-size="12.0757" font-family="Helvetica"> </text>
<text xml:space="preserve" x="402.109" y="101.325" fill="#59d354" font-size="12.0757" font-family="Helvetica">Std Dev   </text>
<text xml:space="preserve" x="468.565" y="101.325" fill="#59d354" font-size="12.0757" font-family="Helvetica">  19.15</text>
<text xml:space="preserve" x="196.997" y="19.2805" fill="black" font-size="19.694" font-family="Helvetica">Residual in global X</text>
<path d="M57.316,363.944h 0.252252v 0.129193h 1.51351v -0.129193h 0.252252v 0.129193h 0.756757v -0.129193h 0.252252v 0.129193h 0.756757v -0.129193h 0.252252v 0.129193h 0.756757v -0.129193h 0.252252v 0.129193h 3.27928v -0.129193h 0.252252v 0.129193h
 0.252252v -0.129193h 0.252252v 0.129193h 2.01802v -0.387578h 0.252252v 0.387578h 0.504504v -0.129193h 0.252252v 0.129193h 0.504504v -0.129193h 0.252252v 0.129193h 0.756757v -0.129193h 0.252252v 0.129193h 0.252252v -0.258385h 0.252252v 0.258385h
 1.51351v -0.258385h 0.252252v 0.258385h 0.504504v -0.129193h 0.252252v 0.129193h 0.252252v -0.129193h 0.252252v 0.129193h 0.252252v -0.258385h 0.252252v 0.258385h 3.27928v -0.129193h 0.252252v -0.129193h 0.252252v 0.258385h 0.252252v -0.129193h
 0.504504v 0.129193h 1.51351v -0.258385h 0.252252v 0.258385h 0.252252v -0.258385h 0.252252v 0.258385h 2.77477v -0.129193h 0.756757v 0.129193h 1.26126v -0.129193h 0.252252v 0.129193h 0.504504v -0.129193h 0.252252v -0.129193h 0.252252v 0.258385h
 1.76577v -0.129193h 0.252252v 0.129193h 0.252252v -0.129193h 0.252252v 0.129193h 1.00901v -0.129193h 0.504504v 0.129193h 0.756757v -0.129193h 0.252252v 0.129193h 0.756757v -0.129193h 0.252252v 0.129193h 0.504504v -0.387578h 0.252252v 0.387578h
 0.252252v -0.258385h 0.252252v 0.258385h 0.252252v -0.129193h 0.252252v -0.129193h 0.252252v 0.258385h 0.252252v -0.129193h 0.252252v 0.129193h 0.504504v -0.258385h 0.252252v 0.258385h 0.252252v -0.129193h 0.504504v 0.129193h 0.252252v -0.129193h
 0.252252v 0.129193h 1.26126v -0.129193h 0.252252v 0.129193h 0.756757v -0.129193h 0.252252v 0.129193h 0.252252v -0.129193h 0.252252v 0.129193h 0.252252v -0.129193h 0.252252v 0.129193h 0.504504v -0.129193h 0.504504v -0.129193h 0.252252v 0.129193h
 0.252252v 0.129193h 0.252252v -0.129193h 0.756757v 0.129193h 0.252252v -0.129193h 0.252252v 0.129193h 0.504504v -0.129193h 0.504504v -0.129193h 0.252252v 0.258385h 0.756757v -0.129193h 0.252252v -0.258385h 0.252252v 0.258385h 0.252252v 0.129193h
 0.252252v -0.129193h 0.756757v -0.129193h 0.252252v 0.258385h 0.756757v -0.129193h 0.252252v 0.129193h 0.252252v -0.129193h 0.756757v 0.129193h 0.252252v -0.129193h 0.252252v 0.129193h 0.504504v -0.258385h 0.252252v 0.258385h 0.504504v -0.129193h
 0.756757v -0.258385h 0.252252v 0.387578h 0.756757v -0.129193h 0.252252v 0.129193h 0.756757v -0.129193h 0.504504v -0.129193h 0.252252v 0.129193h 0.504504v 0.129193h 0.252252v -0.258385h 0.252252v 0.129193h 0.252252v 0.129193h 0.252252v -0.129193h
 0.504504v 0.129193h 1.00901v -0.129193h 0.756757v -0.129193h 0.252252v 0.129193h 0.504504v 0.129193h 1.00901v -0.129193h 0.252252v -0.129193h 0.252252v 0.258385h 0.252252v -0.387578h 0.252252v 0.258385h 0.252252v -0.258385h 0.252252v 0.387578h
 0.252252v -0.258385h 0.504504v 0.129193h 0.252252v 0.129193h 0.504504v -0.258385h 0.252252v 0.258385h 0.252252v -0.258385h 0.252252v 0.129193h 0.252252v -0.387578h 0.252252v 0.129193h 0.252252v 0.387578h 0.504504v -0.129193h 0.504504v 0.129193h
 0.252252v -0.258385h 0.252252v 0.129193h 0.756757v -0.258385h 0.252252v 0.387578h 0.252252v -0.129193h 0.252252v 0.129193h 0.504504v -0.387578h 0.252252v 0.387578h 0.252252v -0.258385h 0.252252v -0.129193h 0.252252v 0.129193h 0.252252v -0.129193h
 0.252252v 0.387578h 0.252252v -0.258385h 0.252252v 0.129193h 0.252252v 0.129193h 0.252252v -0.129193h 0.252252v -0.129193h 0.504504v 0.129193h 0.252252v 0.129193h 0.252252v -0.129193h 1.00901v 0.129193h 0.504504v -0.129193h 0.252252v 0.129193h
 0.252252v -0.129193h 0.252252v -0.129193h 0.252252v 0.129193h 0.252252v -0.129193h 0.756757v -0.129193h 0.252252v 0.258385h 0.252252v -0.129193h 0.252252v 0.129193h 0.252252v 0.129193h 0.756757v -0.258385h 0.252252v -0.129193h 0.252252v 0.129193h
 0.252252v -0.129193h 0.252252v 0.258385h 0.504504v -0.129193h 0.504504v 0.129193h 0.252252v 0.129193h 0.252252v -0.129193h 0.756757v -0.129193h 0.252252v 0.129193h 1.00901v 0.129193h 0.504504v -0.129193h 0.252252v 0.129193h 0.756757v -0.258385h
 0.252252v 0.258385h 0.504504v -0.129193h 0.252252v -0.258385h 0.252252v 0.387578h 0.504504v -0.258385h 0.252252v 0.258385h 0.252252v -0.129193h 0.756757v -0.258385h 0.252252v 0.129193h 0.252252v 0.258385h 0.252252v -0.129193h 1.00901v 0.129193h
 0.252252v -0.129193h 0.756757v -0.387578h 0.252252v 0.129193h 0.252252v 0.258385h 0.252252v 0.129193h 0.252252v -0.129193h 0.252252v 0.129193h 0.252252v -0.258385h 0.252252v 0.129193h 0.252252v -0.129193h 0.252252v -0.258385h 0.252252v 0.516771h
 0.252252v -0.387578h 0.252252v 0.387578h 0.252252v -0.129193h 0.252252v -0.258385h 0.252252v 0.387578h 0.252252v -0.258385h 0.504504v -0.516771h 0.252252v 0.387578h 0.252252v 0.258385h 0.504504v 0.129193h 0.252252v -0.387578h 0.252252v 0.258385h
 0.252252v -0.129193h 0.252252v -0.129193h 0.252252v 0.129193h 0.252252v -0.258385h 0.252252v 0.387578h 0.252252v -0.129193h 0.504504v -0.129193h 0.252252v -0.129193h 0.252252v 0.129193h 0.504504v -0.129193h 0.252252v 0.516771h 0.252252v -0.516771h
 0.252252v -0.129193h 0.252252v 0.258385h 0.504504v -0.129193h 0.252252v 0.387578h 0.756757v -0.387578h 0.252252v 0.258385h 0.504504v 0.129193h 0.504504v -0.387578h 0.252252v 0.258385h 0.504504v 0.258385h 0.252252v -0.129193h 0.504504v -0.258385h
 0.252252v 0.258385h 0.252252v -0.258385h 0.252252v -0.258385h 0.252252v 0.516771h 0.252252v -0.387578h 0.252252v 0.129193h 0.252252v 0.387578h 0.252252v -0.904349h 0.252252v 0.516771h 0.252252v 0.258385h 0.504504v -0.258385h 0.252252v -0.258385h
 0.252252v 0.516771h 0.252252v -0.129193h 0.252252v -0.387578h 0.252252v 0.387578h 0.252252v -0.129193h 0.252252v 0.129193h 0.252252v -0.129193h 0.252252v 0.129193h 0.252252v -0.258385h 0.252252v 0.258385h 0.252252v -0.387578h 0.252252v 0.258385h
 0.252252v 0.258385h 0.252252v -0.258385h 0.252252v -0.258385h 0.252252v 0.387578h 0.252252v -0.258385h 0.252252v -0.387578h 0.252252v 0.516771h 0.252252v 0.129193h 0.504504v -0.258385h 0.252252v 0.258385h 0.252252v -0.129193h 0.252252v 0.387578h
 0.252252v -0.129193h 0.252252v -0.129193h 0.252252v -0.129193h 0.504504v -0.258385h 0.252252v 0.645964h 0.252252v -0.129193h 0.252252v -0.129193h 0.252252v 0.129193h 0.252252v -0.129193h 0.252252v -0.258385h 0.252252v 0.258385h 0.252252v -0.516771h
 0.252252v 0.258385h 0.252252v -0.129193h 0.252252v 0.387578h 0.252252v -0.129193h 0.252252v -0.129193h 0.252252v 0.387578h 0.504504v -0.258385h 0.504504v 0.129193h 0.252252v -0.129193h 0.252252v -0.258385h 0.252252v 0.516771h 0.252252v -0.387578h
 0.252252v -0.258385h 0.252252v 0.258385h 0.504504v 0.258385h 0.252252v 0.129193h 0.252252v -0.129193h 0.252252v 0.258385h 0.252252v -0.516771h 1.51351v 0.258385h 0.252252v 0.129193h 0.252252v -0.645964h 0.252252v 0.258385h 0.252252v 0.129193h
 0.252252v 0.129193h 0.252252v -0.258385h 0.252252v -0.516771h 0.252252v 0.775156h 0.252252v 0.129193h 0.252252v -0.258385h 0.252252v 0.129193h 0.252252v -0.258385h 0.252252v 0.129193h 0.252252v 0.387578h 0.252252v -0.258385h 0.252252v -0.129193h
 0.252252v -0.258385h 0.252252v -0.258385h 0.252252v 0.129193h 0.252252v 0.516771h 0.252252v -0.129193h 0.504504v -0.129193h 0.252252v 0.129193h 0.252252v -0.258385h 0.252252v 0.129193h 0.252252v -0.129193h 0.252252v 0.258385h 0.252252v -0.129193h
 0.252252v 0.129193h 0.504504v -0.258385h 0.252252v 0.258385h 0.252252v -0.775156h 0.252252v 0.904349h 0.504504v -0.516771h 0.252252v 0.129193h 0.252252v 0.129193h 0.252252v -0.258385h 0.252252v 0.387578h 0.252252v -0.258385h 0.252252v -0.258385h
 0.252252v 0.516771h 0.252252v -0.387578h 0.252252v 0.387578h 0.252252v 0.129193h 0.252252v -0.258385h 0.252252v -0.129193h 0.252252v -0.129193h 0.252252v 0.387578h 0.504504v -1.03354h 0.252252v 1.03354h 0.252252v -0.645964h 0.252252v 0.129193h
 0.504504v -0.258385h 0.252252v 0.775156h 0.252252v -0.516771h 0.252252v 0.258385h 0.504504v 0.387578h 0.504504v -0.258385h 0.252252v 0.129193h 0.252252v -0.129193h 0.504504v -0.129193h 0.252252v -0.387578h 0.756757v 0.387578h 0.252252v 0.387578h
 0.252252v -0.775156h 0.252252v 0.387578h 0.252252v 0.129193h 0.252252v -1.03354h 0.252252v 0.258385h 0.252252v 0.516771h 0.504504v 0.129193h 0.252252v -0.129193h 0.252252v -0.258385h 0.252252v -0.258385h 0.252252v 0.775156h 0.252252v 0.129193h
 0.252252v -0.387578h 0.252252v -0.387578h 0.252252v 0.129193h 0.252252v -0.129193h 0.252252v -0.904349h 0.252252v 0.775156h 0.252252v 0.645964h 0.252252v -0.775156h 0.252252v -0.387578h 0.252252v 0.775156h 0.252252v -0.258385h 0.252252v 0.387578h
 0.252252v -0.258385h 0.252252v 0.387578h 0.252252v -0.129193h 0.252252v -0.129193h 0.252252v 0.129193h 0.252252v -0.645964h 0.252252v 0.387578h 0.252252v -0.387578h 0.252252v 1.16273h 0.252252v -1.29193h 0.252252v 1.16273h 0.252252v -0.258385h
 0.252252v -0.129193h 0.252252v -0.387578h 0.252252v 0.904349h 0.252252v -1.16273h 0.252252v 0.775156h 0.252252v -0.258385h 0.252252v 0.516771h 0.252252v -0.904349h 0.504504v 0.129193h 0.252252v -0.129193h 0.252252v 0.904349h 0.252252v -0.516771h
 0.252252v -0.516771h 0.252252v 0.387578h 0.252252v -0.516771h 0.252252v 0.645964h 0.252252v 0.645964h 0.252252v -1.67951h 0.252252v 0.387578h 0.252252v 0.516771h 0.252252v 0.129193h 0.252252v -0.516771h 0.252252v 0.387578h 0.252252v -0.258385h
 0.252252v -0.258385h 0.252252v -0.129193h 0.252252v -0.387578h 0.252252v -0.387578h 0.252252v 1.29193h 0.252252v -0.129193h 0.504504v 0.129193h 0.252252v -0.516771h 0.252252v -1.29193h 0.252252v 1.03354h 0.252252v 0.258385h 0.252252v -0.516771h
 0.252252v -0.387578h 0.252252v 1.29193h 0.252252v -0.645964h 0.252252v 0.387578h 0.252252v -0.516771h 0.252252v 0.645964h 0.252252v -1.67951h 0.252252v 0.645964h 0.252252v -1.16273h 0.252252v 2.19628h 0.252252v -0.775156h 0.252252v 0.129193h
 0.252252v 0.516771h 0.252252v -0.645964h 0.252252v -0.129193h 0.252252v -1.03354h 0.252252v 0.904349h 0.252252v -0.387578h 0.252252v 0.775156h 0.252252v -0.775156h 0.252252v -0.258385h 0.252252v 0.387578h 0.252252v -0.387578h 0.252252v 0.904349h
 0.252252v -1.16273h 0.504504v 0.775156h 0.252252v -0.516771h 0.252252v -0.775156h 0.252252v 1.42112h 0.252252v -1.8087h 0.252252v 0.516771h 0.252252v 0.904349h 0.504504v -0.645964h 0.252252v 0.516771h 0.252252v -0.129193h 0.252252v -0.775156h
 0.252252v -1.03354h 0.252252v 0.129193h 0.252252v -0.904349h 0.252252v 0.645964h 0.252252v 1.55031h 0.252252v -2.71305h 0.252252v 0.904349h 0.252252v -0.645964h 0.252252v 0.387578h 0.252252v 0.775156h 0.252252v -2.06708h 0.252252v 1.16273h 0.252252v
 -0.516771h 0.252252v -0.516771h 0.252252v -1.16273h 0.252252v 1.03354h 0.252252v -2.06708h 0.252252v 0.904349h 0.252252v 0.645964h 0.252252v -0.129193h 0.252252v -2.06708h 0.252252v -1.93789h 0.252252v 1.03354h 0.252252v 0.129193h 0.252252v 1.29193h
 0.252252v -0.516771h 0.252252v -2.97143h 0.252252v -0.775156h 0.252252v -0.904349h 0.252252v -0.258385h 0.252252v -0.129193h 0.252252v -1.55031h 0.252252v 0.775156h 0.252252v -3.35901h 0.252252v 2.84224h 0.252252v -2.45466h 0.252252v 3.6174h
 0.252252v -4.52174h 0.252252v 0.258385h 0.252252v 1.16273h 0.252252v -1.93789h 0.252252v -5.16771h 0.252252v 1.67951h 0.252252v -5.16771h 0.252252v 3.10063h 0.252252v -2.58385h 0.252252v 0.258385h 0.252252v -2.32547h 0.252252v -1.29193h 0.252252v
 -2.19628h 0.252252v 1.29193h 0.252252v -4.78013h 0.252252v 1.93789h 0.252252v -3.4882h 0.252252v -5.81367h 0.252252v 4.26336h 0.504504v 1.29193h 0.252252v -10.3354h 0.252252v 2.19628h 0.252252v -2.45466h 0.252252v -3.35901h 0.252252v -6.33044h
 0.252252v 1.67951h 0.252252v -4.90932h 0.252252v 3.35901h 0.252252v -5.03852h 0.252252v -7.88076h 0.252252v -0.516771h 0.252252v -4.26336h 0.252252v 3.6174h 0.252252v -8.26833h 0.252252v -8.39753h 0.252252v 3.22982h 0.252252v -3.74659h 0.252252v
 -3.35901h 0.252252v -3.10063h 0.252252v -1.42112h 0.252252v -7.62237h 0.252252v 5.42609h 0.252252v -9.94784h 0.252252v 1.8087h 0.252252v -0.645964h 0.252252v -8.65591h 0.252252v 2.58385h 0.252252v -7.36398h 0.252252v 0.775156h 0.252252v -12.0149h
 0.252252v -2.84224h 0.252252v 0.516771h 0.252252v -2.06708h 0.252252v -2.19628h 0.252252v 0.775156h 0.252252v -12.6609h 0.252252v -5.81367h 0.252252v -5.03852h 0.252252v -1.29193h 0.252252v 3.74659h 0.252252v -6.45964h 0.252252v -10.077h 0.252252v
 1.03354h 0.252252v -0.516771h 0.252252v -0.387578h 0.252252v -4.52174h 0.252252v -8.65591h 0.252252v 0.129193h 0.252252v 0.129193h 0.252252v -1.29193h 0.252252v -1.16273h 0.252252v -9.17268h 0.252252v -7.62237h 0.252252v -0.387578h 0.252252v
 -5.42609h 0.252252v -6.20125h 0.252252v 6.58883h 0.252252v -4.39255h 0.252252v 0.775156h 0.252252v 6.45964h 0.252252v -1.42112h 0.252252v -13.0485h 0.252252v -3.22982h 0.252252v -4.00497h 0.252252v 0.258385h 0.252252v -5.03852h 0.252252v -1.55031h
 0.252252v 2.45466h 0.252252v -1.55031h 0.252252v -9.81865h 0.252252v 9.94784h 0.252252v -8.39753h 0.252252v -8.00995h 0.252252v -4.13417h 0.252252v -14.5988h 0.252252v 21.5752h 0.252252v -13.5652h 0.252252v 2.45466h 0.252252v -5.2969h 0.252252v
 -3.22982h 0.252252v 1.55031h 0.252252v 4.39255h 0.252252v 1.03354h 0.252252v -15.5031h 0.252252v 3.6174h 0.252252v 8.52672h 0.252252v 2.06708h 0.252252v -13.8236h 0.252252v 5.55529h 0.252252v -4.90932h 0.252252v -8.9143h 0.252252v 10.723h 0.252252v
 3.6174h 0.252252v -5.81367h 0.252252v -0.775156h 0.252252v -11.2398h 0.252252v 6.33044h 0.252252v -3.35901h 0.252252v -5.03852h 0.252252v -1.29193h 0.252252v -1.16273h 0.252252v 9.30188h 0.252252v -17.1826h 0.252252v 9.56026h 0.252252v -1.93789h
 0.252252v 4.00497h 0.252252v 2.19628h 0.252252v -10.077h 0.252252v -1.42112h 0.252252v 9.81865h 0.252252v -13.6944h 0.252252v 13.8236h 0.252252v -14.3404h 0.252252v 13.9528h 0.252252v -14.082h 0.252252v -4.13417h 0.252252v 9.81865h 0.252252v
 -11.6273h 0.252252v 17.441h 0.252252v -5.55529h 0.252252v -4.39255h 0.252252v -1.55031h 0.252252v -4.90932h 0.252252v -2.58385h 0.252252v 10.3354h 0.252252v -11.369h 0.252252v 0.645964h 0.252252v 4.65094h 0.252252v 0.258385h 0.252252v 8.26833h
 0.252252v -14.3404h 0.252252v 13.3068h 0.252252v 0.645964h 0.252252v 1.16273h 0.252252v -8.7851h 0.252252v 3.74659h 0.252252v -12.5317h 0.252252v 24.2882h 0.252252v -2.45466h 0.252252v -12.5317h 0.252252v 0.129193h 0.252252v 1.93789h 0.252252v
 -7.36398h 0.252252v 11.1106h 0.252252v 3.4882h 0.252252v -5.16771h 0.252252v -5.94286h 0.252252v -4.13417h 0.252252v 6.33044h 0.252252v 2.71305h 0.252252v 10.723h 0.252252v -20.2833h 0.252252v 9.94784h 0.252252v -2.06708h 0.252252v 3.87578h
 0.252252v 8.7851h 0.252252v -5.42609h 0.252252v -8.52672h 0.252252v 18.2162h 0.252252v -13.1777h 0.252252v 6.71802h 0.252252v -1.03354h 0.252252v 3.6174h 0.252252v 5.55529h 0.252252v -16.5367h 0.252252v 6.84721h 0.252252v 3.35901h 0.252252v 1.03354h
 0.252252v 1.29193h 0.252252v -9.30188h 0.252252v 1.67951h 0.252252v 5.68448h 0.252252v -0.387578h 0.252252v 5.2969h 0.252252v -8.13914h 0.252252v 7.88076h 0.252252v -5.42609h 0.252252v 15.1155h 0.252252v -8.00995h 0.252252v -1.93789h 0.252252v
 4.78013h 0.252252v 15.2447h 0.252252v -10.723h 0.252252v -7.62237h 0.252252v 6.20125h 0.252252v 4.13417h 0.252252v -4.52174h 0.252252v 2.84224h 0.252252v 5.16771h 0.252252v -6.20125h 0.252252v 9.94784h 0.252252v -9.17268h 0.252252v 7.1056h 0.252252v
 8.52672h 0.252252v -2.97143h 0.252252v -2.32547h 0.252252v -3.4882h 0.252252v 1.67951h 0.252252v -0.129193h 0.252252v 5.42609h 0.252252v 16.1491h 0.252252v -11.8857h 0.252252v 2.97143h 0.252252v -0.775156h 0.252252v -1.03354h 0.252252v 10.2062h
 0.252252v -9.17268h 0.252252v 10.723h 0.252252v 4.13417h 0.252252v 8.39753h 0.252252v -20.9292h 0.252252v 11.7565h 0.252252v 14.3404h 0.252252v -8.39753h 0.252252v -11.369h 0.252252v 16.2783h 0.252252v -0.516771h 0.252252v -9.17268h 0.252252v
 15.2447h 0.252252v 10.077h 0.252252v -7.49318h 0.252252v 3.35901h 0.252252v 11.7565h 0.252252v -9.56026h 0.252252v 14.3404h 0.252252v -6.71802h 0.252252v 6.33044h 0.252252v 3.35901h 0.252252v -7.62237h 0.252252v 12.0149h 0.252252v -2.06708h
 0.252252v 13.1777h 0.252252v -10.4646h 0.252252v 4.00497h 0.252252v 7.49318h 0.252252v -1.03354h 0.252252v 6.07206h 0.252252v 2.45466h 0.252252v 13.1777h 0.252252v -7.75156h 0.252252v 17.3118h 0.252252v -0.775156h 0.252252v -8.52672h 0.252252v
 6.45964h 0.252252v 11.6273h 0.252252v 1.16273h 0.252252v -3.87578h 0.252252v 3.22982h 0.252252v 5.55529h 0.252252v 3.22982h 0.252252v 5.81367h 0.252252v 1.03354h 0.252252v 1.93789h 0.252252v 8.9143h 0.252252v -2.58385h 0.252252v 7.1056h 0.252252v
 -1.29193h 0.252252v 5.42609h 0.252252v -0.387578h 0.252252v 6.33044h 0.252252v 6.33044h 0.252252v 2.32547h 0.252252v 5.81367h 0.252252v 1.03354h 0.252252v 0.129193h 0.252252v 0.904349h 0.252252v 8.7851h 0.252252v -7.36398h 0.252252v 5.55529h
 0.252252v 11.4982h 0.252252v 1.16273h 0.252252v -5.42609h 0.252252v 10.723h 0.252252v -2.71305h 0.252252v 9.17268h 0.252252v -4.90932h 0.252252v 1.93789h 0.252252v 5.68448h 0.252252v 2.84224h 0.252252v 0.258385h 0.252252v 0.516771h 0.252252v
 -0.129193h 0.252252v 7.62237h 0.252252v 4.26336h 0.252252v -3.10063h 0.252252v 5.2969h 0.252252v -0.387578h 0.252252v 0.129193h 0.252252v 0.645964h 0.252252v 2.32547h 0.252252v 1.16273h 0.252252v 0.645964h 0.252252v 1.29193h 0.252252v 3.4882h
 0.252252v 1.16273h 0.252252v 4.26336h 0.252252v 0.516771h 0.252252v -2.32547h 0.252252v 2.71305h 0.252252v 0.516771h 0.252252v 3.22982h 0.252252v -4.90932h 0.252252v 7.23479h 0.252252v 0.129193h 0.252252v -0.516771h 0.252252v 1.03354h 0.504504v
 1.42112h 0.252252v 0.775156h 0.252252v 0.258385h 0.252252v 0.387578h 0.252252v 1.8087h 0.252252v -0.387578h 0.252252v 1.42112h 0.252252v -2.58385h 0.252252v 2.32547h 0.252252v 2.45466h 0.252252v -2.06708h 0.252252v 2.45466h 0.252252v -0.258385h
 0.252252v -1.67951h 0.252252v 2.45466h 0.252252v 0.129193h 0.252252v 0.258385h 0.252252v -0.129193h 0.252252v 1.29193h 0.252252v -1.8087h 0.252252v 0.387578h 0.252252v 1.42112h 0.252252v -0.645964h 0.252252v 0.516771h 0.252252v -0.129193h 0.252252v
 -0.129193h 0.252252v 1.16273h 0.252252v 1.8087h 0.252252v -1.03354h 0.252252v -0.258385h 0.252252v 0.258385h 0.252252v 0.258385h 0.252252v -0.516771h 0.252252v 1.42112h 0.252252v -0.645964h 0.252252v 0.516771h 0.252252v -1.29193h 0.252252v 1.8087h
 0.252252v -0.775156h 0.252252v 0.645964h 0.252252v -0.645964h 0.252252v -0.387578h 0.252252v 0.904349h 0.252252v 0.516771h 0.252252v -0.645964h 0.252252v 0.387578h 0.252252v 0.775156h 0.252252v -0.129193h 0.252252v -0.258385h 0.504504v 0.775156h
 0.252252v -0.516771h 0.252252v 0.516771h 0.252252v -0.129193h 0.252252v -0.645964h 0.252252v 0.516771h 0.252252v -1.16273h 0.252252v 1.55031h 0.252252v -0.258385h 0.252252v -1.55031h 0.252252v 0.775156h 0.252252v 1.42112h 0.252252v -1.55031h
 0.252252v 1.16273h 0.252252v -0.904349h 0.252252v 0.645964h 0.756757v 0.129193h 0.252252v 0.258385h 0.504504v -0.516771h 0.252252v 0.258385h 0.252252v 0.516771h 0.252252v -0.129193h 0.252252v -0.904349h 0.252252v 0.516771h 0.252252v 0.516771h
 0.252252v -0.387578h 0.252252v 0.258385h 0.252252v -0.516771h 0.252252v 0.387578h 0.252252v -0.258385h 0.252252v 0.387578h 0.252252v 0.387578h 0.252252v -0.516771h 0.252252v -0.129193h 0.252252v -0.129193h 0.252252v 0.645964h 0.252252v -0.387578h
 0.252252v 0.387578h 0.252252v 0.775156h 0.252252v -0.645964h 0.252252v 0.258385h 0.252252v -1.29193h 0.252252v 0.645964h 0.252252v 0.387578h 0.252252v 0.129193h 0.504504v -0.387578h 0.504504v 0.129193h 0.252252v 0.129193h 0.252252v -0.387578h
 0.252252v -0.387578h 0.252252v 0.516771h 0.252252v -0.775156h 0.252252v 0.775156h 0.252252v 0.258385h 0.252252v 0.129193h 0.504504v -0.387578h 0.252252v -0.258385h 0.252252v 0.775156h 0.252252v -0.775156h 0.252252v 0.775156h 0.252252v -0.258385h
 0.252252v 0.129193h 0.504504v 0.258385h 0.252252v -0.645964h 0.252252v 0.387578h 0.252252v 0.129193h 0.252252v -0.387578h 0.252252v 0.387578h 0.252252v -0.258385h 0.252252v 0.258385h 0.252252v -0.258385h 0.252252v 0.387578h 0.252252v -0.775156h
 0.252252v 0.258385h 0.252252v 0.387578h 0.252252v -0.258385h 0.252252v -0.258385h 0.252252v 0.775156h 0.252252v -0.258385h 0.252252v -0.516771h 0.252252v 0.129193h 0.252252v 0.387578h 0.252252v -0.258385h 0.504504v 0.516771h 0.252252v -0.516771h
 0.252252v -0.129193h 0.252252v 0.129193h 0.252252v -0.129193h 0.252252v 0.387578h 0.504504v -0.387578h 0.252252v 0.387578h 0.756757v 0.516771h 0.252252v -0.258385h 0.252252v -0.129193h 0.252252v -0.387578h 0.252252v 0.258385h 0.252252v -0.387578h
 0.252252v 0.775156h 0.252252v -0.258385h 0.252252v -0.516771h 0.252252v 0.387578h 0.252252v 0.129193h 0.252252v -0.387578h 0.504504v 0.129193h 0.252252v 0.387578h 0.252252v -0.645964h 0.252252v 0.387578h 0.252252v -0.258385h 0.252252v 0.129193h
 0.252252v 0.129193h 0.252252v 0.258385h 0.252252v -0.129193h 0.252252v -0.516771h 0.252252v 0.645964h 0.252252v -0.387578h 0.252252v -0.129193h 0.252252v 0.516771h 0.252252v -1.29193h 0.252252v 1.16273h 0.252252v -0.387578h 0.252252v -0.129193h
 0.252252v 0.904349h 0.252252v -0.775156h 0.756757v 0.516771h 0.252252v -0.129193h 0.252252v 0.129193h 0.252252v -0.258385h 0.504504v -0.258385h 0.252252v 0.775156h 0.252252v -0.775156h 0.252252v 0.387578h 0.252252v -0.129193h 0.252252v 0.387578h
 0.252252v -0.516771h 0.252252v 0.129193h 0.504504v -0.129193h 0.252252v 0.258385h 0.252252v 0.129193h 0.252252v 0.129193h 0.252252v -0.129193h 0.252252v 0.129193h 0.252252v -0.258385h 0.252252v -0.258385h 0.252252v 0.258385h 0.252252v 0.129193h
 0.252252v 0.387578h 0.252252v -0.645964h 0.252252v 0.516771h 0.252252v -0.258385h 0.252252v -0.645964h 0.252252v 0.258385h 0.252252v 0.387578h 0.252252v 0.258385h 0.252252v -0.258385h 0.504504v -0.387578h 0.252252v 0.645964h 0.252252v -0.387578h
 0.252252v 0.129193h 0.252252v -0.258385h 0.252252v 0.129193h 0.252252v 0.258385h 0.252252v -0.387578h 0.252252v 0.129193h 0.252252v -0.129193h 0.504504v 0.258385h 0.252252v 0.258385h 0.252252v -0.516771h 0.252252v 0.387578h 0.252252v -0.645964h
 0.252252v 0.516771h 0.252252v -0.645964h 0.252252v 0.645964h 0.252252v 0.258385h 0.252252v -0.387578h 0.252252v 0.387578h 0.252252v -0.516771h 0.252252v 0.387578h 0.252252v -0.387578h 0.252252v 0.516771h 0.252252v -0.258385h 0.252252v 0.258385h
 0.252252v 0.129193h 0.252252v -0.516771h 0.252252v 0.258385h 0.252252v -0.129193h 0.252252v -0.645964h 0.252252v 0.775156h 0.504504v -0.645964h 0.252252v 0.645964h 0.252252v -0.129193h 0.252252v 0.129193h 0.252252v -0.387578h 0.252252v 0.387578h
 0.252252v -0.129193h 0.252252v 0.129193h 0.252252v -0.258385h 0.252252v -0.129193h 0.252252v 0.516771h 0.252252v -0.387578h 0.252252v 0.258385h 0.252252v 0.129193h 1.00901v -0.129193h 0.252252v -0.387578h 0.252252v 0.387578h 0.252252v 0.129193h
 0.504504v -0.258385h 0.252252v 0.129193h 0.252252v -0.258385h 0.252252v 0.258385h 0.252252v -0.258385h 0.252252v 0.387578h 0.252252v -0.129193h 0.252252v 0.258385h 0.252252v -0.258385h 0.504504v -0.258385h 0.252252v 0.258385h 0.252252v -0.258385h
 0.252252v 0.387578h 0.252252v -0.129193h 0.252252v 0.129193h 0.252252v -0.258385h 0.252252v 0.129193h 0.252252v 0.129193h 0.252252v -0.129193h 0.252252v 0.129193h 0.252252v -0.387578h 0.252252v 0.129193h 0.252252v 0.129193h 0.252252v 0.129193h
 0.252252v -0.387578h 0.252252v 0.258385h 0.252252v -0.129193h 0.252252v 0.258385h 0.504504v -0.129193h 0.504504v -0.258385h 0.252252v 0.387578h 0.252252v -0.258385h 0.252252v 0.129193h 0.252252v -0.258385h 0.252252v 0.387578h 0.252252v 0.129193h
 0.504504v -0.258385h 0.252252v 0.129193h 0.252252v -0.129193h 0.252252v 0.129193h 0.504504v -0.129193h 0.252252v 0.129193h 0.252252v -0.258385h 0.252252v 0.387578h 1.00901v -0.258385h 0.756757v 0.258385h 0.252252v -0.258385h 0.504504v 0.129193h
 0.756757v 0.129193h 0.252252v -0.258385h 0.252252v 0.129193h 0.252252v -0.129193h 0.252252v 0.258385h 0.252252v -0.775156h 0.252252v 0.387578h 0.252252v -0.129193h 0.252252v 0.387578h 0.252252v -0.129193h 0.252252v 0.129193h 0.504504v -0.129193h
 0.252252v 0.129193h 0.252252v 0.129193h 0.252252v -0.387578h 0.504504v -0.129193h 0.252252v 0.129193h 0.252252v 0.258385h 0.252252v -0.129193h 0.252252v 0.258385h 0.252252v -0.129193h 0.504504v -0.129193h 0.756757v 0.129193h 0.252252v -0.129193h
 0.252252v -0.129193h 0.252252v -0.129193h 0.252252v 0.258385h 0.252252v 0.258385h 0.252252v -0.258385h 0.504504v 0.129193h 0.252252v -0.129193h 0.252252v 0.129193h 0.252252v -0.516771h 0.504504v 0.387578h 0.504504v 0.129193h 0.756757v -0.129193h
 0.504504v 0.258385h 0.252252v -0.129193h 0.252252v 0.129193h 0.252252v -0.129193h 0.252252v -0.129193h 0.252252v -0.129193h 0.252252v 0.387578h 0.504504v -0.258385h 0.252252v 0.129193h 0.504504v -0.129193h 0.252252v -0.129193h 0.252252v 0.387578h
 1.00901v -0.258385h 0.252252v 0.258385h 0.504504v -0.129193h 0.504504v -0.258385h 0.252252v 0.258385h 0.756757v 0.129193h 0.252252v -0.516771h 0.252252v 0.387578h 0.504504v 0.129193h 0.252252v -0.387578h 0.252252v 0.387578h 0.504504v -0.387578h
 0.252252v 0.258385h 0.252252v -0.129193h 0.252252v 0.129193h 0.504504v 0.129193h 0.252252v -0.129193h 0.504504v 0.129193h 0.252252v -0.258385h 0.252252v 0.129193h 0.252252v -0.129193h 0.252252v 0.129193h 0.252252v -0.258385h 0.252252v 0.258385h
 0.252252v 0.129193h 0.252252v -0.129193h 0.252252v 0.129193h 0.252252v -0.387578h 0.252252v 0.387578h 0.252252v -0.129193h 0.252252v 0.129193h 0.756757v -0.258385h 0.504504v 0.258385h 0.252252v -0.129193h 0.252252v 0.129193h 0.252252v -0.516771h
 0.252252v 0.258385h 0.252252v 0.258385h 0.252252v -0.129193h 0.252252v -0.129193h 0.252252v 0.258385h 0.252252v -0.258385h 0.252252v 0.129193h 0.252252v 0.129193h 0.252252v -0.129193h 0.252252v 0.129193h 1.51351v -0.129193h 0.504504v 0.129193h
 0.252252v -0.258385h 0.252252v 0.258385h 0.252252v -0.129193h 0.504504v 0.129193h 0.504504v -0.129193h 0.252252v 0.129193h 0.252252v -0.258385h 0.252252v 0.129193h 0.252252v -0.129193h 0.252252v 0.129193h 0.252252v 0.129193h 0.504504v -0.258385h
 0.252252v -0.258385h 0.252252v 0.516771h 0.252252v -0.258385h 0.252252v -0.129193h 0.252252v 0.258385h 0.252252v -0.129193h 0.252252v 0.258385h 1.00901v -0.129193h 0.252252v 0.129193h 0.756757v -0.129193h 0.756757v 0.129193h 1.00901v -0.129193h
 0.504504v 0.129193h 1.51351v -0.129193h 0.252252v 0.129193h 0.756757v -0.129193h 0.252252v 0.129193h 0.252252v -0.129193h 0.252252v 0.129193h 0.252252v -0.129193h 0.252252v -0.129193h 0.252252v 0.129193h 0.252252v 0.129193h 1.76577v -0.129193h
 0.252252v 0.129193h 0.504504v -0.129193h 0.252252v 0.129193h 0.504504v -0.129193h 0.504504v 0.129193h 0.252252v -0.129193h 0.252252v 0.129193h 0.756757v -0.129193h 0.504504v 0.129193h 0.252252v -0.129193h 0.756757v 0.129193h 0.504504v -0.258385h
 0.252252v 0.258385h 0.252252v -0.129193h 0.252252v 0.129193h 0.252252v -0.129193h 0.504504v 0.129193h 2.01802v -0.129193h 0.504504v 0.129193h 0.504504v -0.129193h 0.504504v -0.129193h 0.252252v 0.258385h 0.756757v -0.129193h 0.252252v 0.129193h
 1.00901v -0.258385h 0.252252v 0.129193h 0.252252v 0.129193h 1.00901v -0.129193h 0.504504v 0.129193h 0.252252v -0.258385h 0.252252v 0.258385h 0.504504v -0.258385h 0.252252v 0.129193h 0.252252v 0.129193h 2.01802v -0.129193h 0.252252v 0.129193h
 0.504504v -0.129193h 0.252252v 0.129193h 0.504504v -0.129193h 0.756757v 0.129193h 0.756757v -0.129193h 0.252252v 0.129193h 0.252252v -0.129193h 0.504504v 0.129193h 0.252252v -0.129193h 0.504504v 0.129193h 1.26126v -0.258385h 0.252252v 0.258385h
 0.504504v -0.129193h 0.252252v 0.129193h 1.26126v -0.129193h 0.504504v 0.129193h 0.252252v -0.129193h 0.252252v 0.129193h 2.01802v -0.258385h 0.252252v 0.258385h 1.51351v -0.129193h 0.252252v 0.129193h 1.00901v -0.258385h 0.252252v 0.129193h
 0.504504v 0.129193h 0.252252v -0.129193h 0.252252v 0.129193h 0.504504v -0.129193h 0.504504v 0.129193h 0.504504v -0.387578h 0.252252v 0.387578h 1.00901v -0.129193h 0.252252v 0.129193h 1.00901v -0.129193h 0.252252v 0.129193h 0.756757v -0.129193h
 0.252252v 0.129193h 1.76577v -0.129193h 0.252252v 0.129193h 1.26126v -0.129193h 0.756757v 0.129193h 0.504504v -0.129193h 0.252252v -0.129193h 0.252252v 0.258385h 0.504504v -0.129193h 0.252252v 0.129193h 1.76577v -0.129193h 0.252252v 0.129193h
 1.51351v -0.129193h 0.504504v 0.129193h 1.26126v -0.129193h 0.252252v 0.129193h 1.51351" fill="none" stroke="#000099" stroke-width="2"/></svg>
