<?xml version="1.0" standalone="no"?>
<svg width="567.429" height="404.981" viewBox="0 0 567.429 404.981" xmlns="http://www.w3.org/2000/svg" shape-rendering="crispEdges">
<title>
clusters_per_pixel_zoom.svg
</title>
<desc>
Creator: ROOT Version 6.30/04
CreationDate: Tue May 14 11:15:37 2024</desc>
<defs>
</defs>
<rect x="0.5" y="0" width="566.929" height="404.481" fill="white"/>
<rect x="57.316" y="40.407" width="453.297" height="323.667" fill="white"/>
<rect x="57.316" y="40.407" width="453.297" height="323.667" fill="none" stroke="black"/>
<rect x="57.316" y="40.407" width="453.297" height="323.667" fill="white"/>
<rect x="57.316" y="40.407" width="453.297" height="323.667" fill="none" stroke="black"/>
<path d="M57.316,359.799h 0.468766v -5.71521h 0.468766v 2.8576h 0.468766v -5.71521h 0.937533v 2.8576h 0.468766v 2.8576h 0.468766v -5.71521h 0.468766v 5.71521h 0.468766v 2.8576h 0.468766v -2.8576h 0.468766v -2.8576h 0.468766v 2.8576h 0.468766v
 -2.8576h 0.468766v 5.71521h 0.468766v -5.71521h 0.937533v 5.71521h 0.468766v -5.71521h 0.468766v -2.8576h 1.87507v -5.71521h 0.937533v 5.71521h 0.468766v 5.71521h 0.937533v -8.57281h 0.937533v -2.8576h 0.468766v 8.57281h 0.468766v 2.8576h 0.468766v
 -5.71521h 1.87507v 5.71521h 0.468766v -5.71521h 0.468766v 2.8576h 0.468766v 5.71521h 0.468766v -8.57281h 0.468766v -8.57281h 0.468766v 8.57281h 0.468766v -5.71521h 0.468766v 8.57281h 0.468766v -8.57281h 0.468766v 8.57281h 0.468766v 5.71521h
 0.468766v -2.8576h 1.87507v -2.8576h 0.468766v -5.71521h 0.468766v 5.71521h 0.937533v -2.8576h 0.468766v -11.4304h 0.468766v 20.0032h 0.468766v -8.57281h 0.468766v 5.71521h 0.468766v -2.8576h 0.468766v -2.8576h 0.468766v 8.57281h 0.468766v -11.4304h
 0.468766v -5.71521h 0.468766v 5.71521h 0.468766v 8.57281h 0.468766v -11.4304h 0.468766v 8.57281h 0.937533v 2.8576h 0.468766v -2.8576h 0.468766v 2.8576h 0.468766v -5.71521h 0.468766v -2.8576h 0.468766v 5.71521h 0.468766v -8.57281h 0.468766v 5.71521h
 0.468766v -2.8576h 0.468766v 5.71521h 0.468766v 2.8576h 0.468766v -5.71521h 0.937533v 5.71521h 0.468766v -8.57281h 0.468766v 8.57281h 0.468766v -17.1456h 0.937533v 11.4304h 0.468766v 5.71521h 0.468766v -14.288h 0.468766v 8.57281h 0.468766v 5.71521h
 0.468766v -11.4304h 0.468766v 5.71521h 0.468766v -2.8576h 0.468766v 5.71521h 0.468766v -8.57281h 0.937533v 2.8576h 0.468766v 5.71521h 0.468766v -5.71521h 0.468766v 2.8576h 0.468766v -2.8576h 0.468766v 2.8576h 0.468766v -2.8576h 0.468766v -2.8576h
 0.468766v -2.8576h 0.468766v 14.288h 0.468766v -8.57281h 0.937533v -5.71521h 0.468766v 8.57281h 0.937533v -17.1456h 0.468766v 17.1456h 0.468766v -2.8576h 0.468766v 2.8576h 0.468766v -5.71521h 0.468766v 8.57281h 0.468766v -5.71521h 0.468766v -2.8576h
 0.468766v 5.71521h 0.468766v -14.288h 0.468766v 11.4304h 0.468766v 5.71521h 0.468766v -2.8576h 0.468766v -14.288h 0.468766v -5.71521h 0.468766v 8.57281h 0.468766v 8.57281h 0.937533v 8.57281h 0.468766v -8.57281h 0.468766v 2.8576h 0.468766v 2.8576h
 0.468766v -8.57281h 0.468766v 8.57281h 0.468766v -5.71521h 0.468766v 8.57281h 0.468766v -14.288h 0.937533v -5.71521h 0.468766v 8.57281h 2.34383v -17.1456h 0.468766v 17.1456h 0.468766v 8.57281h 0.468766v -14.288h 0.468766v 5.71521h 0.937533v
 -8.57281h 0.468766v 14.288h 0.468766v -5.71521h 0.468766v -5.71521h 0.468766v 5.71521h 0.468766v -11.4304h 0.468766v 8.57281h 0.468766v 8.57281h 0.468766v -8.57281h 0.468766v -5.71521h 0.468766v 2.8576h 0.937533v 2.8576h 0.468766v -8.57281h
 0.468766v 8.57281h 0.937533v -8.57281h 0.468766v -5.71521h 0.468766v 5.71521h 0.468766v 14.288h 0.937533v -5.71521h 0.468766v -2.8576h 1.4063v 5.71521h 0.468766v -2.8576h 0.468766v -5.71521h 0.468766v 14.288h 0.468766v -20.0032h 0.468766v 8.57281h
 0.468766v 11.4304h 0.468766v -14.288h 0.468766v 17.1456h 0.468766v -11.4304h 0.468766v 8.57281h 0.468766v -11.4304h 0.468766v 5.71521h 0.468766v -11.4304h 0.468766v 14.288h 0.468766v -8.57281h 0.468766v 2.8576h 0.937533v -17.1456h 0.468766v 17.1456h
 0.468766v -5.71521h 0.468766v 14.288h 0.468766v -17.1456h 0.468766v -2.8576h 0.937533v 5.71521h 0.468766v 14.288h 0.468766v -28.576h 0.468766v 17.1456h 0.468766v -2.8576h 0.937533v -11.4304h 0.468766v 2.8576h 0.937533v 11.4304h 0.468766v -5.71521h
 0.468766v -5.71521h 0.468766v 11.4304h 0.468766v -8.57281h 0.468766v 8.57281h 0.468766v -8.57281h 0.468766v -8.57281h 0.468766v 11.4304h 0.468766v -2.8576h 0.468766v 8.57281h 0.468766v -5.71521h 0.468766v -8.57281h 0.468766v 5.71521h 0.468766v
 -11.4304h 0.468766v 22.8608h 0.468766v -2.8576h 0.468766v -25.7184h 0.468766v 22.8608h 0.468766v -11.4304h 0.468766v 5.71521h 1.4063v -5.71521h 1.4063v -8.57281h 0.468766v 20.0032h 0.468766v -22.8608h 0.468766v 20.0032h 0.468766v -14.288h 0.468766v
 8.57281h 0.468766v -8.57281h 0.468766v -2.8576h 0.468766v 8.57281h 0.937533v 5.71521h 0.468766v 2.8576h 0.468766v -22.8608h 0.468766v -5.71521h 0.468766v 40.0065h 0.468766v -22.8608h 0.468766v -2.8576h 0.468766v -20.0032h 0.468766v 22.8608h
 0.468766v -22.8608h 0.937533v 14.288h 0.468766v 8.57281h 0.468766v -20.0032h 0.468766v 8.57281h 0.468766v 11.4304h 0.468766v -20.0032h 0.468766v 14.288h 0.468766v -8.57281h 0.468766v 11.4304h 0.468766v -11.4304h 0.468766v 5.71521h 0.468766v
 -34.2912h 0.468766v 20.0032h 0.468766v -2.8576h 0.937533v -5.71521h 0.937533v 8.57281h 0.468766v -11.4304h 0.468766v -2.8576h 0.468766v 20.0032h 0.468766v -11.4304h 0.468766v -17.1456h 0.468766v 8.57281h 0.468766v 8.57281h 0.468766v 5.71521h
 0.468766v -37.1488h 0.468766v 11.4304h 0.468766v -17.1456h 0.468766v 28.576h 0.468766v -54.2945h 0.468766v 22.8608h 0.468766v -8.57281h 0.468766v -2.8576h 0.468766v 17.1456h 0.468766v -40.0065h 0.468766v 14.288h 0.468766v -40.0065h 0.468766v
 60.0097h 0.468766v -40.0065h 0.468766v -14.288h 0.468766v -14.288h 0.468766v 2.8576h 0.468766v -11.4304h 0.468766v -20.0032h 0.468766v 14.288h 0.468766v -34.2912h 0.468766v -20.0032h 0.468766v 28.576h 0.468766v -51.4369h 0.468766v 17.1456h 0.468766v
 -22.8608h 0.468766v -40.0065h 0.468766v 28.576h 0.468766v -31.4336h 0.468766v -5.05518h 154.224v 5.05518h 0.468766v -5.05518h 0.468766v 36.4888h 0.468766v -36.4888h 0.468766v 30.7736h 0.468766v 54.2945h 0.468766v -14.288h 0.468766v 20.0032h
 0.468766v 14.288h 0.468766v 5.71521h 0.468766v -2.8576h 0.468766v 48.5793h 0.468766v -45.7217h 0.468766v 8.57281h 0.468766v 11.4304h 0.468766v 48.5793h 0.468766v -11.4304h 0.468766v 2.8576h 0.468766v 17.1456h 0.937533v -2.8576h 0.468766v 25.7184h
 0.468766v -2.8576h 0.468766v 14.288h 0.468766v -17.1456h 0.468766v 22.8608h 0.468766v 11.4304h 0.468766v -2.8576h 0.468766v 14.288h 0.468766v -28.576h 0.937533v 22.8608h 0.468766v -17.1456h 0.468766v -31.4336h 0.468766v 45.7217h 0.468766v 22.8608h
 0.468766v -37.1488h 0.468766v 25.7184h 0.468766v -17.1456h 0.468766v 14.288h 0.468766v 22.8608h 0.468766v -40.0065h 0.468766v -2.8576h 0.468766v 37.1488h 0.468766v -5.71521h 0.468766v 8.57281h 0.937533v -28.576h 0.468766v 17.1456h 0.468766v 14.288h
 0.468766v -25.7184h 0.468766v 28.576h 0.468766v -2.8576h 0.468766v -31.4336h 0.468766v 34.2912h 0.468766v 2.8576h 0.468766v -2.8576h 0.468766v -17.1456h 0.468766v 14.288h 0.468766v -11.4304h 0.468766v -11.4304h 0.468766v 5.71521h 0.468766v 28.576h
 0.468766v -5.71521h 0.468766v -8.57281h 0.468766v 8.57281h 0.468766v 8.57281h 0.468766v 14.288h 0.468766v -11.4304h 0.468766v 2.8576h 0.468766v -20.0032h 0.937533v 28.576h 0.468766v -5.71521h 0.468766v -34.2912h 0.468766v 20.0032h 0.468766v -2.8576h
 0.468766v 11.4304h 0.468766v -5.71521h 0.468766v 5.71521h 0.468766v -2.8576h 0.468766v 8.57281h 0.937533v -20.0032h 0.468766v 17.1456h 0.468766v -8.57281h 0.468766v 8.57281h 0.468766v -5.71521h 0.468766v -14.288h 0.468766v 8.57281h 0.468766v
 25.7184h 0.468766v -28.576h 0.468766v 5.71521h 0.468766v 5.71521h 0.468766v 11.4304h 1.4063v -11.4304h 0.468766v -14.288h 0.468766v 22.8608h 0.468766v -2.8576h 0.468766v -11.4304h 0.468766v 5.71521h 0.468766v 5.71521h 0.468766v 8.57281h 0.468766v
 -14.288h 0.468766v 14.288h 0.468766v 2.8576h 0.468766v -17.1456h 0.468766v 2.8576h 0.468766v -8.57281h 0.468766v 17.1456h 0.468766v -2.8576h 0.468766v -11.4304h 0.468766v 14.288h 0.468766v -17.1456h 0.468766v 11.4304h 0.468766v -8.57281h 0.937533v
 14.288h 0.937533v -40.0065h 0.468766v 20.0032h 0.468766v 20.0032h 0.468766v -8.57281h 0.468766v 5.71521h 0.468766v 2.8576h 0.468766v -5.71521h 0.468766v 11.4304h 0.937533v -17.1456h 0.468766v 14.288h 0.468766v 5.71521h 0.468766v -5.71521h 0.468766v
 8.57281h 0.468766v -17.1456h 0.468766v -2.8576h 0.937533v 11.4304h 0.468766v -2.8576h 0.468766v -5.71521h 0.468766v 8.57281h 0.468766v -5.71521h 0.468766v 5.71521h 0.468766v -8.57281h 0.468766v 8.57281h 0.468766v -2.8576h 0.937533v 2.8576h 0.468766v
 2.8576h 0.937533v -20.0032h 0.468766v 2.8576h 0.468766v 14.288h 0.468766v -2.8576h 0.937533v 2.8576h 0.468766v 2.8576h 0.468766v -8.57281h 0.468766v 2.8576h 0.468766v -2.8576h 0.468766v 5.71521h 0.468766v -2.8576h 0.468766v -8.57281h 0.468766v
 14.288h 0.468766v 2.8576h 0.468766v -5.71521h 0.468766v -5.71521h 0.468766v -8.57281h 0.468766v 17.1456h 0.468766v 5.71521h 0.468766v -5.71521h 0.468766v 8.57281h 0.468766v -8.57281h 0.468766v -2.8576h 0.468766v 5.71521h 0.468766v -11.4304h
 0.937533v 17.1456h 0.468766v -20.0032h 0.468766v 2.8576h 0.468766v -11.4304h 0.468766v 22.8608h 0.468766v -2.8576h 0.468766v -2.8576h 0.468766v -2.8576h 0.468766v 8.57281h 0.468766v -11.4304h 0.468766v 5.71521h 0.468766v 5.71521h 0.468766v 2.8576h
 0.468766v -11.4304h 0.468766v 5.71521h 0.468766v 5.71521h 0.468766v -2.8576h 0.468766v -17.1456h 0.468766v 14.288h 0.468766v 2.8576h 0.468766v 2.8576h 0.468766v -14.288h 0.468766v 5.71521h 0.468766v -11.4304h 0.468766v 17.1456h 0.468766v 5.71521h
 0.468766v -11.4304h 0.468766v 8.57281h 0.937533v -8.57281h 0.468766v 5.71521h 0.468766v -2.8576h 0.937533v 8.57281h 0.468766v -14.288h 0.468766v 2.8576h 0.468766v 2.8576h 0.468766v 2.8576h 0.468766v -5.71521h 0.468766v 8.57281h 0.468766v -14.288h
 0.468766v 11.4304h 0.468766v -5.71521h 0.468766v 8.57281h 0.468766v -2.8576h 0.468766v -11.4304h 0.468766v 14.288h 0.468766v -5.71521h 0.468766v 2.8576h 0.468766v 8.57281h 0.468766v -5.71521h 0.468766v -17.1456h 0.468766v 17.1456h 0.468766v -2.8576h
 0.937533v -5.71521h 0.468766v 8.57281h 0.468766v -8.57281h 0.468766v 8.57281h 0.468766v -11.4304h 0.468766v 5.71521h 0.468766v -14.288h 0.468766v 20.0032h 0.468766v -5.71521h 0.468766v 5.71521h 0.468766v 5.71521h 0.468766v -2.8576h 0.468766v
 -2.8576h 0.468766v -5.71521h 1.4063v 11.4304h 0.937533v -5.71521h 0.468766v -8.57281h 0.468766v 2.8576h 0.468766v -2.8576h 0.937533v 8.57281h 0.468766v -8.57281h 0.468766v 11.4304h 0.468766v -11.4304h 0.468766v 8.57281h 0.468766v 2.8576h 0.468766v
 -2.8576h 0.468766v 2.8576h 0.468766v -8.57281h 0.468766v -5.71521h 0.468766v 8.57281h 0.468766v 5.71521h 0.468766v -2.8576h 0.468766v 2.8576h 0.468766v 2.8576h 0.468766v -8.57281h 0.468766v 2.8576h 0.937533v -5.71521h 0.468766v 8.57281h 0.468766v
 2.8576h 0.468766v -8.57281h 0.468766v 2.8576h 0.468766v 2.8576h 0.468766v -8.57281h 0.468766v 8.57281h 0.468766v -5.71521h 0.468766v 5.71521h 0.468766v -5.71521h 0.468766v 5.71521h 0.937533v -8.57281h 0.468766v 5.71521h 0.468766v 2.8576h 0.468766v
 -5.71521h 0.468766v 5.71521h 0.468766v -8.57281h 0.468766v -2.8576h 0.468766v -5.71521h 0.468766v 14.288h 0.468766v 2.8576h 0.937533v -11.4304h 0.468766v 11.4304h 0.468766v 2.8576h 0.937533v -8.57281h 0.937533v 8.57281h 0.468766v -11.4304h 0.468766v
 5.71521h 0.468766v -5.71521h 0.468766v -2.8576h 0.468766v 11.4304h 1.4063v -2.8576h 1.4063v 2.8576h 0.468766v -2.8576h 0.468766v 2.8576h 0.468766v 2.8576h 0.937533v -5.71521h 0.468766" fill="none" stroke="#000099"/>
<rect x="390.212" y="45.1246" width="113.632" height="64.4051" fill="white"/>
<path d="M390.212,109.53h 113.632" fill="none" stroke="black"/>
<path d="M503.844,109.53v -64.4051" fill="none" stroke="black"/>
<path d="M503.844,45.1246h -113.632" fill="none" stroke="black"/>
<path d="M390.212,45.1246v 64.4051" fill="none" stroke="black"/>
<text xml:space="preserve" x="414.005" y="58.2518" fill="black" font-size="14.0901" font-family="Helvetica">residualsX</text>
<path d="M390.212,61.2259h 113.632" fill="none" stroke="black"/>
<text xml:space="preserve" x="395.545" y="73.43" fill="black" font-size="12.0757" font-family="Helvetica">Entries </text>
<text xml:space="preserve" x="455.438" y="73.43" fill="black" font-size="12.0757" font-family="Helvetica"> 495637</text>
<text xml:space="preserve" x="395.545" y="89.839" fill="black" font-size="12.0757" font-family="Helvetica">Mean  </text>
<text xml:space="preserve" x="458.72" y="89.839" fill="black" font-size="12.0757" font-family="Helvetica"> 0.4083</text>
<text xml:space="preserve" x="395.545" y="105.838" fill="black" font-size="12.0757" font-family="Helvetica">Std Dev   </text>
<text xml:space="preserve" x="465.283" y="105.838" fill="black" font-size="12.0757" font-family="Helvetica">   18.7</text>
<path d="M57.316,364.074h 453.297" fill="none" stroke="black"/>
<path d="M94.8173,354.371v 9.70226" fill="none" stroke="black"/>
<path d="M113.568,359.222v 4.85113" fill="none" stroke="black"/>
<path d="M132.319,359.222v 4.85113" fill="none" stroke="black"/>
<path d="M151.069,359.222v 4.85113" fill="none" stroke="black"/>
<path d="M169.82,359.222v 4.85113" fill="none" stroke="black"/>
<path d="M188.571,354.371v 9.70226" fill="none" stroke="black"/>
<path d="M207.321,359.222v 4.85113" fill="none" stroke="black"/>
<path d="M226.072,359.222v 4.85113" fill="none" stroke="black"/>
<path d="M244.823,359.222v 4.85113" fill="none" stroke="black"/>
<path d="M263.573,359.222v 4.85113" fill="none" stroke="black"/>
<path d="M282.324,354.371v 9.70226" fill="none" stroke="black"/>
<path d="M301.075,359.222v 4.85113" fill="none" stroke="black"/>
<path d="M319.825,359.222v 4.85113" fill="none" stroke="black"/>
<path d="M338.576,359.222v 4.85113" fill="none" stroke="black"/>
<path d="M357.327,359.222v 4.85113" fill="none" stroke="black"/>
<path d="M376.077,354.371v 9.70226" fill="none" stroke="black"/>
<path d="M394.828,359.222v 4.85113" fill="none" stroke="black"/>
<path d="M413.578,359.222v 4.85113" fill="none" stroke="black"/>
<path d="M432.329,359.222v 4.85113" fill="none" stroke="black"/>
<path d="M451.08,359.222v 4.85113" fill="none" stroke="black"/>
<path d="M469.83,354.371v 9.70226" fill="none" stroke="black"/>
<path d="M94.8173,354.371v 9.70226" fill="none" stroke="black"/>
<path d="M76.0667,359.222v 4.85113" fill="none" stroke="black"/>
<path d="M469.83,354.371v 9.70226" fill="none" stroke="black"/>
<path d="M488.581,359.222v 4.85113" fill="none" stroke="black"/>
<path d="M507.332,359.222v 4.85113" fill="none" stroke="black"/>
<text xml:space="preserve" x="87.0572" y="377.406" fill="black" font-size="13.4879" font-family="Helvetica">100</text>
<text xml:space="preserve" x="80.0834" y="377.406" fill="black" font-size="13.4879" font-family="Times">&#8722;</text>
<text xml:space="preserve" x="184.69" y="377.406" fill="black" font-size="13.4879" font-family="Helvetica">50</text>
<text xml:space="preserve" x="177.306" y="377.406" fill="black" font-size="13.4879" font-family="Times">&#8722;</text>
<text xml:space="preserve" x="278.632" y="377.406" fill="black" font-size="13.4879" font-family="Helvetica">0</text>
<text xml:space="preserve" x="368.471" y="377.406" fill="black" font-size="13.4879" font-family="Helvetica">50</text>
<text xml:space="preserve" x="459.13" y="377.406" fill="black" font-size="13.4879" font-family="Helvetica">100</text>
<text xml:space="preserve" x="496.46" y="389.302" fill="black" font-size="13.4879" font-family="Helvetica">m]</text>
<text xml:space="preserve" x="488.666" y="389.302" fill="black" font-size="13.4879" font-family="Times">&#0956;</text>
<text xml:space="preserve" x="478" y="389.302" fill="black" font-size="13.4879" font-family="Helvetica">  [</text>
<text xml:space="preserve" x="468.975" y="393.405" fill="black" font-size="9.1586" font-family="Helvetica">hit</text>
<text xml:space="preserve" x="458.31" y="389.302" fill="black" font-size="13.4879" font-family="Helvetica">-x</text>
<text xml:space="preserve" x="439.439" y="393.405" fill="black" font-size="9.1586" font-family="Helvetica">track</text>
<text xml:space="preserve" x="432.876" y="389.302" fill="black" font-size="13.4879" font-family="Helvetica">x</text>
<path d="M57.316,364.074v -323.667" fill="none" stroke="black"/>
<path d="M70.9257,359.799h -13.6097" fill="none" stroke="black"/>
<path d="M64.1209,345.511h -6.80487" fill="none" stroke="black"/>
<path d="M64.1209,331.223h -6.80487" fill="none" stroke="black"/>
<path d="M64.1209,316.935h -6.80487" fill="none" stroke="black"/>
<path d="M70.9257,302.647h -13.6097" fill="none" stroke="black"/>
<path d="M64.1209,288.359h -6.80487" fill="none" stroke="black"/>
<path d="M64.1209,274.07h -6.80487" fill="none" stroke="black"/>
<path d="M64.1209,259.782h -6.80487" fill="none" stroke="black"/>
<path d="M70.9257,245.494h -13.6097" fill="none" stroke="black"/>
<path d="M64.1209,231.206h -6.80487" fill="none" stroke="black"/>
<path d="M64.1209,216.918h -6.80487" fill="none" stroke="black"/>
<path d="M64.1209,202.63h -6.80487" fill="none" stroke="black"/>
<path d="M70.9257,188.342h -13.6097" fill="none" stroke="black"/>
<path d="M64.1209,174.054h -6.80487" fill="none" stroke="black"/>
<path d="M64.1209,159.766h -6.80487" fill="none" stroke="black"/>
<path d="M64.1209,145.478h -6.80487" fill="none" stroke="black"/>
<path d="M70.9257,131.19h -13.6097" fill="none" stroke="black"/>
<path d="M64.1209,116.902h -6.80487" fill="none" stroke="black"/>
<path d="M64.1209,102.614h -6.80487" fill="none" stroke="black"/>
<path d="M64.1209,88.3263h -6.80487" fill="none" stroke="black"/>
<path d="M70.9257,74.0382h -13.6097" fill="none" stroke="black"/>
<path d="M70.9257,359.799h -13.6097" fill="none" stroke="black"/>
<path d="M70.9257,74.0382h -13.6097" fill="none" stroke="black"/>
<path d="M64.1209,59.7502h -6.80487" fill="none" stroke="black"/>
<path d="M64.1209,45.4622h -6.80487" fill="none" stroke="black"/>
<text xml:space="preserve" x="47.2655" y="364.689" fill="black" font-size="13.4879" font-family="Helvetica">0</text>
<text xml:space="preserve" x="39.8815" y="307.258" fill="black" font-size="13.4879" font-family="Helvetica">20</text>
<text xml:space="preserve" x="39.8815" y="250.236" fill="black" font-size="13.4879" font-family="Helvetica">40</text>
<text xml:space="preserve" x="39.8815" y="193.215" fill="black" font-size="13.4879" font-family="Helvetica">60</text>
<text xml:space="preserve" x="39.8815" y="135.784" fill="black" font-size="13.4879" font-family="Helvetica">80</text>
<text xml:space="preserve" x="32.9077" y="78.7629" fill="black" font-size="13.4879" font-family="Helvetica">100</text>
<g transform="rotate(-90,21.0112,90.2492)">
<text xml:space="preserve" x="21.0112" y="90.2492" fill="black" font-size="13.4879" font-family="Helvetica"># entries</text>
</g>
<rect x="390.212" y="45.1246" width="113.632" height="64.4051" fill="white"/>
<path d="M390.212,109.53h 113.632" fill="none" stroke="black"/>
<path d="M503.844,109.53v -64.4051" fill="none" stroke="black"/>
<path d="M503.844,45.1246h -113.632" fill="none" stroke="black"/>
<path d="M390.212,45.1246v 64.4051" fill="none" stroke="black"/>
<text xml:space="preserve" x="414.005" y="58.2518" fill="black" font-size="14.0901" font-family="Helvetica">residualsX</text>
<path d="M390.212,61.2259h 113.632" fill="none" stroke="black"/>
<text xml:space="preserve" x="395.545" y="73.43" fill="black" font-size="12.0757" font-family="Helvetica">Entries </text>
<text xml:space="preserve" x="455.438" y="73.43" fill="black" font-size="12.0757" font-family="Helvetica"> 495637</text>
<text xml:space="preserve" x="395.545" y="89.839" fill="black" font-size="12.0757" font-family="Helvetica">Mean  </text>
<text xml:space="preserve" x="458.72" y="89.839" fill="black" font-size="12.0757" font-family="Helvetica"> 0.4083</text>
<text xml:space="preserve" x="395.545" y="105.838" fill="black" font-size="12.0757" font-family="Helvetica">Std Dev   </text>
<text xml:space="preserve" x="465.283" y="105.838" fill="black" font-size="12.0757" font-family="Helvetica">   18.7</text>
<text xml:space="preserve" x="211.355" y="19.6907" fill="black" font-size="17.8481" font-family="Helvetica">Residual in local X</text>
<path d="M57.316,359.799h 69.8462v -2.8576h 0.468766v 2.8576h 14.063v -2.8576h 0.468766v 2.8576h 10.7816v -2.8576h 0.468766v 2.8576h 4.68766v -2.8576h 0.468766v 2.8576h 3.28137v -2.8576h 0.937533v 2.8576h 0.937533v -2.8576h 0.937533v 2.8576h
 0.468766v -2.8576h 0.468766v 2.8576h 1.87507v -5.71521h 0.468766v 2.8576h 0.937533v 2.8576h 1.4063v -5.71521h 0.468766v 5.71521h 1.87507v -2.8576h 0.468766v 2.8576h 0.468766v -5.71521h 0.937533v 2.8576h 0.468766v 2.8576h 0.937533v -5.71521h
 0.468766v 5.71521h 1.87507v -5.71521h 0.468766v 2.8576h 0.468766v -2.8576h 1.4063v 2.8576h 0.468766v -5.71521h 0.468766v 2.8576h 0.937533v -8.57281h 0.468766v 5.71521h 0.468766v 2.8576h 0.468766v 2.8576h 0.468766v -11.4304h 0.468766v 5.71521h
 0.468766v -11.4304h 0.468766v 11.4304h 0.937533v -5.71521h 0.468766v -11.4304h 0.468766v 2.8576h 0.468766v 14.288h 0.468766v -5.71521h 0.468766v 2.8576h 0.468766v 2.8576h 0.468766v -11.4304h 0.468766v -8.57281h 0.468766v -8.57281h 0.468766v 11.4304h
 0.468766v 2.8576h 0.468766v -17.1456h 0.468766v -5.71521h 0.468766v 5.71521h 0.468766v 17.1456h 0.468766v -45.7217h 0.468766v 5.71521h 0.937533v 5.71521h 0.468766v 5.71521h 0.468766v -17.1456h 0.468766v -2.8576h 0.468766v -51.4369h 0.468766v
 57.1521h 0.468766v -17.1456h 0.468766v 8.57281h 0.468766v -34.2912h 0.468766v -22.8608h 0.468766v 28.576h 0.468766v -31.4336h 0.468766v 11.4304h 0.468766v -20.0032h 0.468766v -45.7217h 0.468766v 34.2912h 0.468766v -48.5793h 0.468766v 22.8608h
 0.468766v -14.288h 0.468766v -37.1488h 0.468766v 28.576h 0.468766v -54.2945h 0.468766v 14.288h 0.468766v -37.1488h 0.468766v 8.57281h 0.468766v -14.288h 0.468766v -14.288h 0.468766v -19.3432h 150.474v 27.916h 0.468766v 31.4336h 0.468766v -54.2945h
 0.468766v 54.2945h 0.468766v -31.4336h 0.468766v 68.5825h 0.468766v -45.7217h 0.468766v 57.1521h 0.468766v 11.4304h 0.468766v 8.57281h 0.468766v 34.2912h 0.468766v -2.8576h 0.937533v 8.57281h 0.468766v 40.0065h 0.468766v -14.288h 0.468766v 2.8576h
 0.468766v 5.71521h 0.468766v 31.4336h 0.468766v -5.71521h 0.468766v 11.4304h 0.468766v -5.71521h 0.468766v 8.57281h 0.468766v 14.288h 0.468766v 14.288h 0.468766v -5.71521h 0.937533v -14.288h 0.468766v 11.4304h 0.468766v 5.71521h 0.468766v 20.0032h
 0.937533v 2.8576h 0.468766v -17.1456h 0.468766v 20.0032h 0.468766v -17.1456h 0.468766v -28.576h 0.468766v 37.1488h 0.468766v 14.288h 0.468766v -14.288h 0.468766v 17.1456h 0.468766v -8.57281h 0.468766v 2.8576h 0.468766v 5.71521h 0.468766v -11.4304h
 0.468766v -8.57281h 0.468766v 20.0032h 0.468766v -5.71521h 0.468766v 5.71521h 0.468766v 5.71521h 0.468766v -14.288h 0.468766v 17.1456h 0.468766v -2.8576h 0.468766v -2.8576h 0.468766v 2.8576h 0.468766v 2.8576h 0.468766v -8.57281h 0.468766v 5.71521h
 0.468766v 2.8576h 0.468766v -2.8576h 0.468766v -2.8576h 0.937533v 2.8576h 0.937533v 5.71521h 0.937533v -2.8576h 0.468766v -5.71521h 0.468766v 8.57281h 0.468766v 5.71521h 0.468766v -2.8576h 0.468766v 2.8576h 0.468766v -2.8576h 0.468766v -11.4304h
 0.468766v 8.57281h 0.468766v 2.8576h 0.468766v -2.8576h 0.468766v 5.71521h 0.468766v -2.8576h 0.468766v -2.8576h 1.87507v 2.8576h 0.937533v 2.8576h 1.4063v -2.8576h 0.468766v 2.8576h 1.87507v -2.8576h 0.468766v -5.71521h 0.468766v 5.71521h 0.468766v
 2.8576h 2.34383v -5.71521h 0.468766v 5.71521h 0.937533v -5.71521h 0.468766v 5.71521h 1.4063v -5.71521h 0.468766v 5.71521h 0.468766v -2.8576h 0.468766v 2.8576h 0.468766v -2.8576h 0.468766v 2.8576h 2.34383v -2.8576h 0.468766v 2.8576h 0.937533v
 -5.71521h 0.468766v 5.71521h 0.468766v -2.8576h 0.468766v 2.8576h 0.468766v -2.8576h 0.937533v 2.8576h 2.34383v -2.8576h 0.468766v 2.8576h 2.34383v -2.8576h 0.468766v 2.8576h 2.34383v -2.8576h 0.468766v 2.8576h 13.5942v -2.8576h 0.468766v 2.8576h
 69.8462" fill="none" stroke="#59d354"/>
<path d="M57.316,359.799h 21.5633v -2.8576h 0.468766v 2.8576h 39.3764v -2.8576h 0.468766v 2.8576h 6.56273v -2.8576h 0.468766v 2.8576h 5.15643v -2.8576h 0.468766v 2.8576h 0.937533v -2.8576h 0.468766v 2.8576h 1.4063v -2.8576h 0.468766v 2.8576h 2.34383v
 -2.8576h 0.468766v 2.8576h 3.75013v -2.8576h 0.937533v 2.8576h 0.937533v -2.8576h 0.468766v 2.8576h 1.4063v -5.71521h 0.468766v 5.71521h 3.75013v -2.8576h 0.468766v 2.8576h 0.468766v -2.8576h 0.468766v 2.8576h 1.4063v -2.8576h 0.468766v 2.8576h
 0.468766v -2.8576h 0.468766v 2.8576h 0.937533v -5.71521h 0.468766v 2.8576h 1.87507v 2.8576h 0.468766v -5.71521h 0.468766v 2.8576h 0.937533v 2.8576h 0.468766v -2.8576h 0.468766v 2.8576h 0.468766v -2.8576h 0.937533v -11.4304h 0.468766v 11.4304h
 0.468766v -2.8576h 0.468766v 2.8576h 1.4063v -2.8576h 0.937533v 2.8576h 0.937533v -2.8576h 0.468766v 5.71521h 0.468766v -5.71521h 0.468766v 2.8576h 0.468766v 2.8576h 0.468766v -5.71521h 0.937533v -2.8576h 0.468766v -5.71521h 0.468766v 2.8576h
 0.468766v 5.71521h 0.468766v -8.57281h 0.468766v 14.288h 0.468766v -5.71521h 0.937533v -2.8576h 0.468766v -8.57281h 0.468766v 8.57281h 0.937533v -5.71521h 0.468766v 14.288h 0.468766v -14.288h 0.468766v -5.71521h 0.468766v 14.288h 0.937533v -5.71521h
 0.468766v -8.57281h 0.468766v 8.57281h 0.468766v -2.8576h 0.937533v 5.71521h 0.937533v -11.4304h 0.468766v 11.4304h 1.4063v 2.8576h 0.468766v -20.0032h 0.468766v 11.4304h 0.468766v -2.8576h 0.468766v -5.71521h 0.468766v -8.57281h 0.468766v 17.1456h
 0.468766v -17.1456h 0.468766v 5.71521h 0.937533v 5.71521h 0.937533v -11.4304h 0.468766v 5.71521h 0.468766v 5.71521h 0.468766v -5.71521h 0.468766v 5.71521h 0.937533v 2.8576h 0.468766v 5.71521h 0.468766v -14.288h 0.468766v 11.4304h 0.468766v -20.0032h
 0.468766v 5.71521h 0.468766v 2.8576h 0.468766v 2.8576h 0.468766v -2.8576h 0.468766v -8.57281h 0.468766v 8.57281h 0.468766v -11.4304h 0.468766v 2.8576h 0.468766v 14.288h 0.468766v 8.57281h 0.468766v -25.7184h 0.468766v -8.57281h 0.468766v 8.57281h
 0.468766v 17.1456h 0.468766v -37.1488h 0.468766v -2.8576h 0.468766v 25.7184h 0.468766v -17.1456h 0.468766v 14.288h 1.4063v 8.57281h 0.468766v -25.7184h 0.468766v 5.71521h 0.468766v -5.71521h 0.468766v 11.4304h 0.937533v 5.71521h 0.468766v -8.57281h
 0.468766v 5.71521h 0.937533v -28.576h 0.468766v 17.1456h 0.468766v -2.8576h 0.468766v -22.8608h 0.468766v 28.576h 0.468766v -2.8576h 0.468766v 5.71521h 0.468766v -17.1456h 0.468766v -17.1456h 0.468766v 17.1456h 0.468766v 8.57281h 0.468766v 17.1456h
 0.468766v -51.4369h 0.937533v 28.576h 0.937533v 8.57281h 0.468766v -11.4304h 0.468766v -28.576h 0.468766v 22.8608h 0.468766v -17.1456h 0.468766v 34.2912h 0.468766v -37.1488h 0.468766v 11.4304h 0.468766v 17.1456h 0.468766v -37.1488h 0.468766v
 11.4304h 0.468766v -8.57281h 0.468766v 14.288h 0.468766v -20.0032h 0.468766v -14.288h 0.468766v 14.288h 0.468766v -20.0032h 0.468766v 14.288h 0.468766v 34.2912h 0.468766v -34.2912h 0.468766v -2.8576h 0.468766v -34.2912h 0.468766v 25.7184h 0.468766v
 -54.2945h 0.468766v 71.4401h 0.468766v -5.71521h 0.468766v -62.8673h 0.468766v 22.8608h 0.468766v -34.2912h 0.937533v 51.4369h 0.468766v -54.2945h 0.468766v 20.0032h 0.468766v 14.288h 0.468766v -57.1521h 0.468766v -2.8576h 0.937533v 34.2912h
 0.468766v -8.57281h 0.468766v -37.1488h 0.468766v -8.57281h 0.468766v 14.288h 0.468766v -40.0065h 0.468766v 14.288h 0.468766v -48.5793h 0.468766v 5.71521h 0.468766v 51.4369h 0.468766v -62.8673h 0.468766v 22.8608h 0.468766v -22.8608h 0.468766v
 -25.0584h 0.468766v 39.3464h 0.468766v -39.3464h 0.468766v 2.19757h 0.468766v -2.19757h 85.3155v 22.2008h 0.468766v -22.2008h 0.468766v 50.7768h 0.468766v -20.0032h 0.468766v 45.7217h 0.468766v -2.8576h 0.468766v -31.4336h 0.468766v 57.1521h
 0.468766v -14.288h 0.468766v 8.57281h 0.468766v 42.8641h 0.468766v -45.7217h 0.468766v 25.7184h 0.468766v -5.71521h 0.468766v 2.8576h 0.468766v 17.1456h 0.468766v 8.57281h 0.468766v -5.71521h 0.468766v -22.8608h 0.468766v 62.8673h 0.468766v 20.0032h
 0.468766v -54.2945h 0.468766v 60.0097h 0.468766v -34.2912h 0.468766v 31.4336h 0.468766v -34.2912h 0.468766v 22.8608h 0.468766v 8.57281h 0.468766v 20.0032h 0.468766v -45.7217h 0.468766v 8.57281h 0.468766v 45.7217h 0.468766v -34.2912h 0.468766v
 -8.57281h 0.468766v -2.8576h 0.468766v 74.2977h 0.468766v -31.4336h 0.468766v 14.288h 0.468766v 5.71521h 0.468766v 25.7184h 0.468766v -5.71521h 0.468766v -5.71521h 0.468766v -14.288h 0.468766v 5.71521h 0.468766v -5.71521h 0.468766v 5.71521h
 0.468766v -17.1456h 0.468766v 25.7184h 0.468766v 14.288h 0.468766v -14.288h 0.468766v -25.7184h 0.468766v 14.288h 0.937533v -5.71521h 0.468766v 51.4369h 0.468766v -22.8608h 0.468766v 17.1456h 0.468766v -14.288h 0.468766v 2.8576h 0.468766v -20.0032h
 0.468766v 8.57281h 0.468766v 11.4304h 0.468766v -22.8608h 0.468766v 28.576h 0.468766v -17.1456h 0.468766v 22.8608h 0.468766v -5.71521h 0.468766v -20.0032h 0.468766v 5.71521h 0.468766v 14.288h 0.468766v -22.8608h 0.468766v 17.1456h 0.468766v 22.8608h
 0.468766v -20.0032h 0.937533v 8.57281h 0.468766v -5.71521h 0.468766v 25.7184h 0.468766v -17.1456h 0.468766v -14.288h 0.468766v 20.0032h 0.937533v -5.71521h 0.468766v 5.71521h 0.468766v -31.4336h 0.468766v 14.288h 0.468766v 5.71521h 0.468766v
 11.4304h 0.468766v -2.8576h 0.468766v -20.0032h 0.468766v 25.7184h 0.937533v -28.576h 0.468766v 8.57281h 0.468766v 28.576h 0.468766v -2.8576h 0.937533v 2.8576h 0.937533v -8.57281h 0.468766v -2.8576h 0.468766v -5.71521h 0.468766v 5.71521h 0.468766v
 14.288h 0.468766v -11.4304h 0.468766v 2.8576h 0.468766v 8.57281h 0.468766v -2.8576h 0.468766v -11.4304h 0.468766v 20.0032h 0.468766v -22.8608h 0.468766v 14.288h 0.468766v 11.4304h 0.468766v -28.576h 0.468766v 2.8576h 0.468766v 20.0032h 0.468766v
 -5.71521h 0.468766v 2.8576h 0.468766v 2.8576h 0.468766v -20.0032h 0.468766v 5.71521h 0.468766v 14.288h 0.468766v -2.8576h 0.468766v 5.71521h 0.468766v -5.71521h 0.468766v -14.288h 0.468766v 20.0032h 0.468766v -2.8576h 0.468766v 2.8576h 0.468766v
 2.8576h 0.468766v -8.57281h 0.468766v -2.8576h 0.468766v -2.8576h 0.468766v -2.8576h 0.468766v 17.1456h 0.937533v -2.8576h 0.468766v -2.8576h 0.937533v 8.57281h 0.468766v -2.8576h 0.468766v -2.8576h 0.468766v 5.71521h 0.468766v -14.288h 0.468766v
 17.1456h 0.468766v -5.71521h 0.468766v -8.57281h 0.937533v 5.71521h 0.468766v -2.8576h 0.468766v 8.57281h 0.468766v -5.71521h 0.468766v 2.8576h 0.937533v 2.8576h 0.468766v -5.71521h 0.468766v -2.8576h 0.468766v 8.57281h 0.937533v -2.8576h 0.937533v
 -2.8576h 0.468766v 2.8576h 0.468766v 5.71521h 0.468766v -8.57281h 0.468766v 5.71521h 0.468766v 2.8576h 0.468766v -2.8576h 0.468766v 2.8576h 0.468766v -5.71521h 0.937533v -2.8576h 0.468766v 8.57281h 0.468766v -14.288h 0.937533v 11.4304h 0.468766v
 2.8576h 0.468766v -5.71521h 0.468766v 2.8576h 0.468766v 2.8576h 0.468766v -5.71521h 0.468766v 5.71521h 0.468766v -5.71521h 0.468766v 5.71521h 0.937533v -5.71521h 0.468766v 2.8576h 0.468766v -2.8576h 0.468766v 5.71521h 0.468766v -2.8576h 0.468766v
 -2.8576h 0.468766v 2.8576h 0.468766v 2.8576h 0.468766v -11.4304h 0.468766v 11.4304h 0.468766v -5.71521h 0.937533v 5.71521h 0.468766v -2.8576h 1.4063v 2.8576h 0.468766v -5.71521h 0.468766v 2.8576h 0.468766v 2.8576h 1.4063v -2.8576h 0.468766v 2.8576h
 0.468766v -2.8576h 0.468766v 2.8576h 0.937533v -5.71521h 0.468766v 5.71521h 0.468766v -2.8576h 0.468766v 2.8576h 6.09396v -2.8576h 0.468766v 2.8576h 2.8126v -2.8576h 0.468766v 2.8576h 8.90656v -2.8576h 0.468766v 2.8576h 2.34383v -2.8576h 0.468766v
 2.8576h 7.0315v -2.8576h 0.468766v 2.8576h 53.9081" fill="none" stroke="#ff00ff"/>
<path d="M57.316,359.799h 18.2819v -2.8576h 0.468766v 2.8576h 1.4063v -5.71521h 0.468766v 2.8576h 0.468766v 2.8576h 6.09396v -2.8576h 0.468766v 2.8576h 3.28137v -5.71521h 0.468766v 2.8576h 0.468766v 2.8576h 3.75013v -2.8576h 0.468766v 2.8576h
 0.468766v -2.8576h 0.468766v 2.8576h 0.468766v -2.8576h 0.468766v 2.8576h 1.87507v -2.8576h 0.468766v 2.8576h 0.937533v -5.71521h 0.468766v -2.8576h 0.468766v 8.57281h 0.468766v -2.8576h 0.468766v 2.8576h 2.34383v -2.8576h 0.468766v 2.8576h
 0.468766v -5.71521h 0.468766v 5.71521h 0.468766v -2.8576h 0.468766v 2.8576h 0.937533v -2.8576h 1.4063v 2.8576h 0.937533v -8.57281h 0.468766v 8.57281h 0.468766v -2.8576h 0.937533v 2.8576h 0.937533v -2.8576h 0.468766v -2.8576h 0.468766v 5.71521h
 0.468766v -2.8576h 0.937533v -2.8576h 0.468766v 2.8576h 0.468766v -2.8576h 2.34383v 2.8576h 0.937533v -5.71521h 0.468766v -5.71521h 0.468766v 11.4304h 0.937533v -5.71521h 0.468766v 8.57281h 0.468766v -5.71521h 0.468766v 2.8576h 1.4063v 2.8576h
 0.468766v -5.71521h 0.468766v 5.71521h 0.468766v -5.71521h 0.937533v -2.8576h 0.468766v 8.57281h 0.937533v -5.71521h 0.468766v 2.8576h 0.468766v -2.8576h 0.468766v -5.71521h 0.468766v 5.71521h 0.468766v 2.8576h 0.468766v -5.71521h 0.468766v 2.8576h
 0.468766v -5.71521h 0.468766v 2.8576h 0.468766v 5.71521h 0.468766v -5.71521h 0.937533v 2.8576h 0.468766v -8.57281h 0.468766v 5.71521h 0.468766v 5.71521h 0.468766v -14.288h 0.468766v 8.57281h 0.468766v -8.57281h 0.468766v 5.71521h 0.468766v 5.71521h
 0.937533v -8.57281h 0.468766v 8.57281h 0.468766v -5.71521h 0.468766v -5.71521h 0.468766v 11.4304h 0.468766v -2.8576h 0.468766v 2.8576h 0.468766v 2.8576h 0.468766v -5.71521h 0.468766v -2.8576h 0.468766v 8.57281h 0.468766v -2.8576h 0.468766v -2.8576h
 0.468766v -8.57281h 0.468766v 17.1456h 0.468766v -11.4304h 0.468766v 8.57281h 0.468766v -2.8576h 0.468766v -5.71521h 0.468766v 8.57281h 0.468766v -11.4304h 0.468766v 5.71521h 0.937533v -2.8576h 0.468766v -2.8576h 0.468766v 8.57281h 0.468766v
 -2.8576h 0.937533v -5.71521h 0.468766v -11.4304h 0.468766v 22.8608h 0.468766v -5.71521h 0.468766v 5.71521h 0.468766v -5.71521h 0.468766v -11.4304h 0.468766v 5.71521h 0.468766v 8.57281h 0.468766v -2.8576h 0.468766v -2.8576h 0.468766v 2.8576h
 0.468766v 2.8576h 0.468766v -5.71521h 0.937533v -11.4304h 0.468766v 14.288h 0.468766v -2.8576h 0.468766v -5.71521h 0.468766v -8.57281h 0.468766v 17.1456h 0.468766v -8.57281h 0.468766v 2.8576h 0.468766v 2.8576h 0.468766v -11.4304h 0.468766v 8.57281h
 0.468766v 2.8576h 0.468766v -2.8576h 0.468766v 2.8576h 0.468766v -8.57281h 0.468766v 8.57281h 0.468766v -14.288h 0.468766v 20.0032h 0.937533v -8.57281h 0.468766v -2.8576h 1.4063v 8.57281h 0.468766v -8.57281h 0.468766v -2.8576h 0.468766v 2.8576h
 1.4063v 8.57281h 0.468766v -14.288h 0.468766v 8.57281h 0.468766v -11.4304h 0.468766v 2.8576h 0.468766v 5.71521h 0.468766v 5.71521h 0.468766v -5.71521h 0.468766v -2.8576h 0.468766v 14.288h 0.468766v -14.288h 0.468766v 2.8576h 0.468766v -5.71521h
 0.468766v 14.288h 0.468766v -20.0032h 0.468766v 11.4304h 0.468766v -5.71521h 0.468766v 8.57281h 0.468766v -5.71521h 0.468766v -11.4304h 0.468766v 5.71521h 0.468766v 8.57281h 0.468766v -5.71521h 0.937533v 8.57281h 0.468766v -17.1456h 0.468766v
 17.1456h 0.468766v -2.8576h 1.4063v 5.71521h 0.468766v -14.288h 0.468766v -2.8576h 0.468766v 11.4304h 0.937533v 2.8576h 0.468766v -11.4304h 0.468766v -5.71521h 0.468766v 5.71521h 0.468766v -2.8576h 0.468766v 11.4304h 0.468766v -2.8576h 0.468766v
 -11.4304h 0.468766v 17.1456h 0.468766v -5.71521h 0.937533v -5.71521h 0.468766v 14.288h 0.468766v -11.4304h 0.468766v 2.8576h 0.468766v -8.57281h 0.468766v 8.57281h 0.468766v -5.71521h 0.468766v 8.57281h 0.937533v -14.288h 0.468766v 14.288h 0.468766v
 -5.71521h 0.937533v 2.8576h 0.468766v -17.1456h 0.468766v 11.4304h 0.468766v 5.71521h 0.937533v 14.288h 0.468766v -20.0032h 0.937533v 11.4304h 0.468766v -8.57281h 0.468766v 5.71521h 0.468766v -17.1456h 0.468766v 17.1456h 0.468766v -11.4304h
 0.468766v 8.57281h 0.468766v 11.4304h 0.468766v -22.8608h 0.468766v -8.57281h 0.468766v 17.1456h 0.937533v -2.8576h 0.468766v -2.8576h 0.937533v -8.57281h 0.468766v 8.57281h 0.468766v -5.71521h 0.468766v 17.1456h 0.468766v -2.8576h 0.468766v
 -17.1456h 0.468766v 14.288h 0.468766v 5.71521h 0.468766v -17.1456h 0.937533v 11.4304h 0.468766v 11.4304h 0.468766v -11.4304h 0.937533v -17.1456h 0.468766v 14.288h 0.468766v 5.71521h 0.937533v -8.57281h 0.468766v 5.71521h 0.937533v 2.8576h 0.468766v
 -5.71521h 0.468766v -5.71521h 0.468766v 11.4304h 0.937533v -8.57281h 0.468766v 11.4304h 0.937533v -8.57281h 0.468766v -2.8576h 0.468766v 8.57281h 0.468766v 5.71521h 0.468766v -8.57281h 0.468766v -2.8576h 0.468766v -8.57281h 0.468766v 11.4304h
 0.468766v 8.57281h 0.468766v -5.71521h 0.468766v -14.288h 0.468766v 8.57281h 0.468766v 11.4304h 0.468766v -8.57281h 0.468766v 5.71521h 0.468766v -11.4304h 0.468766v 17.1456h 0.468766v -2.8576h 0.468766v 5.71521h 0.468766v -5.71521h 0.468766v
 -17.1456h 0.468766v 8.57281h 0.468766v -11.4304h 0.468766v 11.4304h 0.468766v 14.288h 0.468766v -8.57281h 0.937533v 2.8576h 0.468766v 5.71521h 0.468766v -2.8576h 0.468766v -20.0032h 0.468766v 17.1456h 0.468766v -2.8576h 0.468766v -14.288h 0.468766v
 8.57281h 0.468766v 8.57281h 0.468766v 8.57281h 0.468766v -17.1456h 0.468766v -5.71521h 0.468766v 2.8576h 0.468766v 17.1456h 0.468766v -17.1456h 0.468766v 14.288h 0.468766v 5.71521h 0.468766v -17.1456h 0.468766v 5.71521h 0.468766v 8.57281h 0.468766v
 -14.288h 0.468766v 14.288h 0.468766v -5.71521h 0.468766v -8.57281h 0.937533v 8.57281h 0.468766v -14.288h 0.468766v 22.8608h 0.468766v -5.71521h 0.468766v -14.288h 0.468766v 25.7184h 0.468766v -14.288h 0.468766v -14.288h 0.468766v 17.1456h 0.468766v
 -5.71521h 0.468766v 8.57281h 0.468766v -8.57281h 0.468766v 14.288h 0.468766v -8.57281h 0.468766v 5.71521h 0.468766v -8.57281h 0.468766v -5.71521h 0.468766v 17.1456h 0.937533v -5.71521h 0.468766v -5.71521h 0.468766v 11.4304h 0.468766v -11.4304h
 0.468766v -2.8576h 0.468766v 8.57281h 0.468766v 2.8576h 1.4063v -2.8576h 0.468766v 5.71521h 0.468766v -17.1456h 0.468766v 14.288h 0.468766v -5.71521h 0.468766v 5.71521h 0.468766v -2.8576h 0.937533v -2.8576h 0.468766v 5.71521h 0.937533v 5.71521h
 0.468766v -8.57281h 0.468766v -8.57281h 0.468766v 11.4304h 0.468766v -2.8576h 0.468766v 2.8576h 1.87507v 2.8576h 0.468766v -2.8576h 0.937533v -5.71521h 0.468766v 2.8576h 0.468766v 2.8576h 0.468766v -2.8576h 0.468766v 2.8576h 1.4063v 2.8576h
 0.468766v -2.8576h 0.468766v -11.4304h 0.468766v 8.57281h 0.468766v 5.71521h 0.468766v -8.57281h 0.468766v 11.4304h 0.468766v -8.57281h 0.468766v -2.8576h 0.468766v 2.8576h 0.937533v 5.71521h 0.468766v -5.71521h 0.468766v 2.8576h 0.468766v -2.8576h
 0.468766v 8.57281h 0.937533v -14.288h 0.468766v 5.71521h 0.468766v 2.8576h 0.468766v -5.71521h 0.468766v 5.71521h 0.468766v 2.8576h 1.4063v -8.57281h 0.937533v -5.71521h 0.468766v 14.288h 0.468766v -2.8576h 0.468766v -2.8576h 0.468766v 2.8576h
 0.468766v -5.71521h 0.937533v 11.4304h 0.468766v -20.0032h 0.468766v 8.57281h 0.468766v -2.8576h 0.468766v 5.71521h 0.468766v 5.71521h 1.4063v -11.4304h 0.468766v 5.71521h 0.937533v 2.8576h 0.468766v -2.8576h 0.468766v 2.8576h 0.468766v -2.8576h
 0.468766v -2.8576h 0.468766v 8.57281h 0.468766v -5.71521h 0.468766v -2.8576h 0.468766v 5.71521h 0.468766v -8.57281h 0.468766v 5.71521h 0.468766v -2.8576h 0.468766v 2.8576h 0.468766v -2.8576h 0.468766v -5.71521h 0.468766v 2.8576h 0.468766v 11.4304h
 0.468766v -5.71521h 0.468766v -11.4304h 0.468766v 8.57281h 0.468766v 8.57281h 0.468766v -5.71521h 0.937533v 2.8576h 0.937533v -8.57281h 0.468766v -5.71521h 0.468766v 2.8576h 0.468766v 5.71521h 0.468766v 5.71521h 0.937533v -8.57281h 0.468766v
 5.71521h 0.937533v 2.8576h 0.468766v -2.8576h 0.468766v -11.4304h 0.468766v 8.57281h 0.468766v 2.8576h 0.468766v -22.8608h 0.468766v 17.1456h 0.468766v 2.8576h 0.468766v -2.8576h 0.468766v -2.8576h 0.468766v -2.8576h 0.468766v 11.4304h 0.468766v
 -2.8576h 0.468766v -2.8576h 0.468766v 2.8576h 0.937533v -2.8576h 0.468766v 2.8576h 0.468766v -5.71521h 0.468766v 2.8576h 0.468766v 8.57281h 0.468766v -11.4304h 0.468766v -2.8576h 0.468766v 14.288h 0.468766v 2.8576h 0.468766v -2.8576h 0.468766v
 5.71521h 0.468766v -22.8608h 0.468766v -5.71521h 0.468766v 11.4304h 0.937533v 5.71521h 0.468766v -14.288h 0.468766v 8.57281h 0.937533v -2.8576h 0.468766v -5.71521h 0.468766v 8.57281h 0.468766v -14.288h 0.468766v 22.8608h 0.468766v -5.71521h
 0.468766v 2.8576h 0.468766v 2.8576h 0.468766v -2.8576h 0.468766v -8.57281h 0.468766v -17.1456h 0.468766v 17.1456h 0.937533v -8.57281h 0.468766v 8.57281h 0.468766v 2.8576h 0.468766v -2.8576h 0.468766v -11.4304h 0.468766v 8.57281h 0.468766v -11.4304h
 0.468766v -5.71521h 0.468766v 22.8608h 0.937533v -25.7184h 0.468766v 31.4336h 0.468766v -2.8576h 0.468766v -11.4304h 0.468766v 14.288h 0.468766v -2.8576h 0.468766v -5.71521h 0.937533v 8.57281h 0.468766v -8.57281h 0.468766v -2.8576h 0.468766v
 -2.8576h 0.937533v 8.57281h 0.468766v 2.8576h 0.937533v -5.71521h 0.468766v -2.8576h 0.468766v -2.8576h 0.468766v 5.71521h 0.468766v 2.8576h 0.468766v -5.71521h 0.468766v 14.288h 0.468766v -20.0032h 0.468766v 14.288h 0.468766v -8.57281h 0.468766v
 -2.8576h 0.468766v 5.71521h 0.468766v -5.71521h 0.468766v 11.4304h 0.468766v -31.4336h 0.468766v 31.4336h 0.468766v -8.57281h 0.937533v -17.1456h 0.468766v 22.8608h 0.468766v -11.4304h 0.468766v -8.57281h 0.468766v 25.7184h 0.468766v -14.288h
 0.468766v -2.8576h 0.468766v 14.288h 0.468766v -14.288h 0.468766v 2.8576h 0.468766v -14.288h 0.468766v 20.0032h 0.937533v 8.57281h 0.468766v -2.8576h 0.468766v -2.8576h 0.468766v -11.4304h 0.468766v 14.288h 0.468766v -5.71521h 0.468766v -2.8576h
 0.937533v 5.71521h 0.468766v -5.71521h 0.468766v 2.8576h 0.468766v -2.8576h 0.468766v -5.71521h 0.468766v 5.71521h 0.468766v -2.8576h 0.468766v 2.8576h 0.468766v 11.4304h 0.468766v 2.8576h 0.468766v -8.57281h 0.468766v 5.71521h 0.937533v -22.8608h
 0.468766v 14.288h 0.468766v -2.8576h 0.468766v 11.4304h 0.937533v -5.71521h 0.468766v 14.288h 0.468766v -22.8608h 0.468766v 5.71521h 0.468766v -8.57281h 0.468766v 5.71521h 0.468766v 8.57281h 0.468766v -11.4304h 0.468766v 11.4304h 0.468766v -5.71521h
 0.468766v -5.71521h 0.468766v 2.8576h 0.468766v 2.8576h 0.468766v 2.8576h 0.468766v 2.8576h 0.468766v -2.8576h 0.468766v -2.8576h 0.468766v 5.71521h 0.468766v -2.8576h 0.468766v -2.8576h 0.468766v 2.8576h 0.468766v -2.8576h 0.468766v 2.8576h
 0.468766v -22.8608h 0.468766v 28.576h 0.468766v -2.8576h 0.468766v -8.57281h 0.468766v 8.57281h 0.937533v 5.71521h 0.468766v -25.7184h 0.468766v 22.8608h 0.468766v -8.57281h 0.937533v -11.4304h 0.468766v 11.4304h 0.468766v 2.8576h 0.468766v 5.71521h
 0.468766v -11.4304h 0.468766v 11.4304h 0.937533v -8.57281h 0.468766v 8.57281h 0.468766v -8.57281h 0.937533v 8.57281h 0.468766v 2.8576h 0.468766v -28.576h 0.468766v 25.7184h 0.468766v -5.71521h 0.468766v 8.57281h 0.468766v -8.57281h 0.468766v 2.8576h
 0.468766v 5.71521h 0.468766v -5.71521h 0.468766v -2.8576h 0.468766v -14.288h 0.468766v 20.0032h 0.468766v -5.71521h 0.468766v -2.8576h 0.937533v -11.4304h 0.468766v 14.288h 0.468766v 14.288h 0.468766v -22.8608h 0.468766v 14.288h 0.468766v -5.71521h
 0.468766v 8.57281h 0.468766v -2.8576h 0.937533v -5.71521h 0.468766v 2.8576h 0.468766v 8.57281h 0.468766v -8.57281h 0.468766v 2.8576h 0.468766v 5.71521h 0.468766v -2.8576h 0.468766v 5.71521h 0.468766v -8.57281h 0.468766v 2.8576h 0.468766v 5.71521h
 0.468766v -8.57281h 0.468766v -5.71521h 0.468766v -5.71521h 0.468766v 11.4304h 0.468766v 2.8576h 0.468766v -5.71521h 0.468766v 5.71521h 0.468766v -11.4304h 0.468766v 2.8576h 0.468766v 5.71521h 0.468766v 5.71521h 0.937533v 2.8576h 0.468766v -17.1456h
 0.468766v 2.8576h 0.468766v 11.4304h 0.468766v -5.71521h 0.468766v 2.8576h 0.937533v -11.4304h 0.468766v 17.1456h 0.937533v -14.288h 0.468766v 11.4304h 0.468766v 5.71521h 0.468766v -8.57281h 0.468766v 5.71521h 0.468766v -2.8576h 0.468766v -8.57281h
 0.937533v 5.71521h 0.937533v -2.8576h 0.468766v 2.8576h 0.937533v 8.57281h 0.468766v -17.1456h 0.468766v 11.4304h 0.468766v 2.8576h 0.468766v -5.71521h 0.468766v 8.57281h 0.468766v -2.8576h 0.468766v -5.71521h 0.468766v -11.4304h 0.468766v 8.57281h
 0.468766v 8.57281h 0.468766v -8.57281h 0.468766v 8.57281h 1.4063v -5.71521h 0.468766v 2.8576h 0.468766v -2.8576h 0.468766v 5.71521h 0.468766v -8.57281h 0.937533v 2.8576h 0.468766v 5.71521h 0.468766v -8.57281h 0.468766v 8.57281h 0.468766v -5.71521h
 0.468766v 2.8576h 0.468766v 5.71521h 0.468766v -2.8576h 0.468766v 2.8576h 0.468766v -5.71521h 0.468766v 2.8576h 0.468766v -2.8576h 0.468766v -2.8576h 0.468766v 2.8576h 0.468766v 5.71521h 0.468766v -11.4304h 0.468766v 2.8576h 0.468766v -11.4304h
 0.468766v 17.1456h 0.937533v -2.8576h 0.937533v 5.71521h 0.937533v -2.8576h 0.468766v 2.8576h 0.468766v -2.8576h 0.937533v 2.8576h 1.4063v -2.8576h 0.468766v -2.8576h 0.468766v 2.8576h 0.468766v 2.8576h 0.468766v -2.8576h 0.937533v -5.71521h
 0.468766v 5.71521h 0.937533v -2.8576h 0.468766v 5.71521h 0.468766v -2.8576h 0.937533v 2.8576h 1.87507v -5.71521h 0.468766v 2.8576h 0.468766v 2.8576h 0.468766v -2.8576h 0.937533v 2.8576h 0.468766v -8.57281h 0.468766v 8.57281h 0.468766v -2.8576h
 1.87507v 2.8576h 0.468766v -2.8576h 0.937533v 2.8576h 0.468766v -2.8576h 0.937533v 2.8576h 0.937533v -2.8576h 0.468766v -2.8576h 0.468766v 2.8576h 0.937533v 2.8576h 0.468766v -8.57281h 0.468766v 2.8576h 0.468766v 2.8576h 0.468766v 2.8576h 0.468766v
 -2.8576h 0.468766v 2.8576h 1.87507v -5.71521h 0.468766v 5.71521h 12.6567v -2.8576h 0.468766v 2.8576h 0.937533v -2.8576h 0.468766v 2.8576h 7.0315v -2.8576h 0.468766v 2.8576h 12.6567" fill="none" stroke="#ff0000"/>
<rect x="72.2891" y="45.1246" width="169.833" height="84.9163" fill="white"/>
<path d="M72.2891,130.041h 169.833" fill="none" stroke="black"/>
<path d="M242.122,130.041v -84.9163" fill="none" stroke="black"/>
<path d="M242.122,45.1246h -169.833" fill="none" stroke="black"/>
<path d="M72.2891,45.1246v 84.9163" fill="none" stroke="black"/>
<text xml:space="preserve" x="114.542" y="58.2518" fill="black" font-size="7.37396" font-family="Helvetica">Residual in local X</text>
<path d="M78.6579,63.1693h 29.7207v -14.8604h -29.7207z" fill="white"/>
<path d="M78.6579,55.7391h 29.7207" fill="none" stroke="#000099"/>
<g stroke="black" stroke-width="1" fill="none">
<line x1="92.5182" y1="55.7391" x2="93.5182" y2="55.7391"/>
</g>
<text xml:space="preserve" x="114.542" y="78.7629" fill="black" font-size="7.37396" font-family="Helvetica">Residual for 1-pixel clusters in local X</text>
<path d="M78.6579,84.3984h 29.7207v -14.8604h -29.7207z" fill="white"/>
<path d="M78.6579,76.9682h 29.7207" fill="none" stroke="#59d354"/>
<g stroke="black" stroke-width="1" fill="none">
<line x1="92.5182" y1="76.9682" x2="93.5182" y2="76.9682"/>
</g>
<text xml:space="preserve" x="114.542" y="100.095" fill="black" font-size="7.37396" font-family="Helvetica">Residual for 2-pixel clusters in local X</text>
<path d="M78.6579,105.627h 29.7207v -14.8604h -29.7207z" fill="white"/>
<path d="M78.6579,98.1973h 29.7207" fill="none" stroke="#ff00ff"/>
<g stroke="black" stroke-width="1" fill="none">
<line x1="92.5182" y1="98.1973" x2="93.5182" y2="98.1973"/>
</g>
<text xml:space="preserve" x="114.542" y="121.426" fill="black" font-size="7.37396" font-family="Helvetica">Residual for 3-pixel clusters in local X</text>
<path d="M78.6579,126.857h 29.7207v -14.8604h -29.7207z" fill="white"/>
<path d="M78.6579,119.426h 29.7207" fill="none" stroke="#ff0000"/>
<g stroke="black" stroke-width="1" fill="none">
<line x1="92.5182" y1="119.426" x2="93.5182" y2="119.426"/>
</g></svg>
