<?xml version="1.0" standalone="no"?>
<svg width="567.429" height="363.368" viewBox="0 0 567.429 363.368" xmlns="http://www.w3.org/2000/svg" shape-rendering="crispEdges">
<title>
diagram_backside_HEPHY_365mV.svg
</title>
<desc>
Creator: ROOT Version 6.30/04
CreationDate: Wed May 15 11:29:12 2024</desc>
<defs>
</defs>
<rect x="0.5" y="0" width="566.929" height="362.868" fill="white"/>
<rect x="57.1929" y="36.2868" width="453.543" height="290.295" fill="white"/>
<rect x="57.1929" y="36.2868" width="453.543" height="290.295" fill="none" stroke="black"/>
<rect x="57.1929" y="36.2868" width="453.543" height="290.295" fill="white"/>
<rect x="57.1929" y="36.2868" width="453.543" height="290.295" fill="none" stroke="black"/>
<path d="M57.1929,326.581h 6.7693v -2.55992h 2.25643v 2.55992h 4.51287v -1.27996h 2.25643v -1.27996h 2.25643v -2.55992h 2.25643v 2.55992h 4.51287v 1.27996h 2.25643v -7.67975h 2.25643v 8.95971h 2.25643v -5.11983h 2.25643v 2.55992h 2.25643v -2.55992h
 4.51287v 1.27996h 2.25643v -3.83987h 4.51287v -1.27996h 4.51287v -1.27996h 2.25643v 7.67975h 2.25643v -16.6395h 2.25643v 1.27996h 2.25643v 8.95971h 2.25643v 5.11983h 2.25643v -5.11983h 2.25643v -2.55992h 2.25643v -1.27996h 2.25643v 1.27996h 2.25643v
 -1.27996h 2.25643v -3.83987h 2.25643v 2.55992h 2.25643v 2.55992h 2.25643v -7.67975h 2.25643v 2.55992h 6.7693v 8.95971h 2.25643v -5.11983h 2.25643v -8.95971h 2.25643v 7.67975h 2.25643v -6.39979h 2.25643v 5.11983h 2.25643v -3.83987h 2.25643v 3.83987h
 2.25643v -2.55992h 2.25643v -1.27996h 2.25643v 3.83987h 2.25643v -8.95971h 2.25643v 2.55992h 2.25643v 5.11983h 2.25643v 8.95971h 2.25643v -2.55992h 2.25643v 5.11983h 2.25643v -2.55992h 6.7693v 2.55992h 2.25643v -7.67975h 2.25643v 7.67975h 2.25643v
 3.83987h 2.25643v -8.95971h 2.25643v 6.39979h 2.25643v 1.27996h 2.25643v 1.27996h 2.25643v -5.11983h 2.25643v 2.55992h 4.51287v 2.55992h 2.25643v -1.27996h 2.25643v 2.55992h 2.25643v -1.27996h 2.25643v -2.55992h 2.25643v 2.55992h 6.7693v -2.55992h
 2.25643v 2.55992h 2.25643v 1.27996h 4.51287v -1.27996h 2.25643v 1.27996h 2.25643v -2.55992h 2.25643v 2.55992h 2.25643v -1.27996h 2.25643v 1.27996h 2.25643v -3.83987h 2.25643v 2.55992h 2.25643v 1.27996h 6.7693v -3.83987h 2.25643v 3.83987h 15.795v
 -1.27996h 2.25643v 1.27996h 4.51287v -1.27996h 2.25643v 1.27996h 2.25643v -2.55992h 2.25643v 1.27996h 2.25643v 1.27996h 4.51287v -1.27996h 2.25643v -1.27996h 2.25643v 2.55992h 4.51287v -1.27996h 2.25643v 1.27996h 2.25643v -1.27996h 2.25643v
 -1.27996h 4.51287v 2.55992h 2.25643v -1.27996h 11.2822v -1.27996h 2.25643v 1.27996h 11.2822v 1.27996h 2.25643v -2.55992h 2.25643v 1.27996h 2.25643v -3.83987h 2.25643v 1.27996h 2.25643v 3.83987h 2.25643v -3.83987h 2.25643v 3.83987h 2.25643v -2.55992h
 4.51287v 1.27996h 4.51287v -2.55992h 2.25643v -1.27996h 2.25643v 2.55992h 2.25643v -1.27996h 2.25643v -6.39979h 4.51287v 3.83987h 2.25643v -7.67975h 2.25643v -1.27996h 2.25643v 3.83987h 2.25643v -6.39979h 2.25643v 5.11983h 4.51287v -5.11983h
 2.25643v 6.39979h 2.25643v -16.6395h 2.25643v 6.39979h 4.51287v -3.83987h 2.25643v 5.11983h 2.25643v -6.39979h 2.25643v -6.39979h 2.25643v -3.83987h 2.25643v 6.39979h 2.25643v -5.11983h 2.25643v -14.0795h 2.25643v -2.55992h 4.51287v 10.2397h
 4.51287v -25.5992h 2.25643v 3.83987h 2.25643v 14.0795h 2.25643v -11.5196h 2.25643v -1.27996h 2.25643v -23.0392h 2.25643v 21.7593h 2.25643v -8.95971h 2.25643v -30.719h 2.25643v -8.95971h 2.25643v -29.439h 2.25643v 5.11983h 2.25643v 26.8791h 2.25643v
 -53.7582h 2.25643v -1.27996h 2.25643v -20.4793h 2.25643v -12.7996h 2.25643v 7.67975h 2.25643v -53.7582h 2.25643v 28.1591h 2.25643v 143.355h 2.25643v -203.513h 2.25643v 131.836h 2.25643v 144.635h 4.51287v -176.634h 2.25643" fill="none"
 stroke="#000099"/>
<rect x="442.705" y="23.5864" width="113.386" height="58.0589" fill="white"/>
<path d="M442.705,81.6453h 113.386" fill="none" stroke="black"/>
<path d="M556.091,81.6453v -58.0589" fill="none" stroke="black"/>
<path d="M556.091,23.5864h -113.386" fill="none" stroke="black"/>
<path d="M442.705,23.5864v 58.0589" fill="none" stroke="black"/>
<text xml:space="preserve" x="455.133" y="33.9403" fill="black" font-size="12.751" font-family="Helvetica">hPixelEfficiency</text>
<path d="M442.705,38.1012h 113.386" fill="none" stroke="black"/>
<text xml:space="preserve" x="448.009" y="49.8629" fill="black" font-size="12.6197" font-family="Helvetica">Entries </text>
<text xml:space="preserve" x="520.08" y="49.8629" fill="black" font-size="12.6197" font-family="Helvetica"> 3589</text>
<text xml:space="preserve" x="448.009" y="64.1095" fill="black" font-size="12.6197" font-family="Helvetica">Mean  </text>
<text xml:space="preserve" x="510.024" y="64.1095" fill="black" font-size="12.6197" font-family="Helvetica"> 0.8163</text>
<text xml:space="preserve" x="448.009" y="78.7751" fill="black" font-size="12.6197" font-family="Helvetica">Std Dev   </text>
<text xml:space="preserve" x="513.376" y="78.7751" fill="black" font-size="12.6197" font-family="Helvetica">  0.262</text>
<path d="M57.1929,326.581h 453.543" fill="none" stroke="black"/>
<path d="M57.1929,317.873v 8.70884" fill="none" stroke="black"/>
<path d="M79.7573,322.227v 4.35442" fill="none" stroke="black"/>
<path d="M102.322,322.227v 4.35442" fill="none" stroke="black"/>
<path d="M124.886,322.227v 4.35442" fill="none" stroke="black"/>
<path d="M147.45,317.873v 8.70884" fill="none" stroke="black"/>
<path d="M170.015,322.227v 4.35442" fill="none" stroke="black"/>
<path d="M192.579,322.227v 4.35442" fill="none" stroke="black"/>
<path d="M215.143,322.227v 4.35442" fill="none" stroke="black"/>
<path d="M237.708,317.873v 8.70884" fill="none" stroke="black"/>
<path d="M260.272,322.227v 4.35442" fill="none" stroke="black"/>
<path d="M282.836,322.227v 4.35442" fill="none" stroke="black"/>
<path d="M305.401,322.227v 4.35442" fill="none" stroke="black"/>
<path d="M327.965,317.873v 8.70884" fill="none" stroke="black"/>
<path d="M350.529,322.227v 4.35442" fill="none" stroke="black"/>
<path d="M373.094,322.227v 4.35442" fill="none" stroke="black"/>
<path d="M395.658,322.227v 4.35442" fill="none" stroke="black"/>
<path d="M418.222,317.873v 8.70884" fill="none" stroke="black"/>
<path d="M440.787,322.227v 4.35442" fill="none" stroke="black"/>
<path d="M463.351,322.227v 4.35442" fill="none" stroke="black"/>
<path d="M485.915,322.227v 4.35442" fill="none" stroke="black"/>
<path d="M508.48,317.873v 8.70884" fill="none" stroke="black"/>
<path d="M508.48,317.873v 8.70884" fill="none" stroke="black"/>
<text xml:space="preserve" x="53.7151" y="338.146" fill="black" font-size="12.1517" font-family="Helvetica">0</text>
<text xml:space="preserve" x="139.194" y="338.146" fill="black" font-size="12.1517" font-family="Helvetica">0.2</text>
<text xml:space="preserve" x="229.702" y="338.146" fill="black" font-size="12.1517" font-family="Helvetica">0.4</text>
<text xml:space="preserve" x="319.79" y="338.146" fill="black" font-size="12.1517" font-family="Helvetica">0.6</text>
<text xml:space="preserve" x="409.879" y="338.146" fill="black" font-size="12.1517" font-family="Helvetica">0.8</text>
<text xml:space="preserve" x="506.253" y="338.146" fill="black" font-size="12.1517" font-family="Helvetica">1</text>
<text xml:space="preserve" x="396.889" y="349.879" fill="black" font-size="12.1517" font-family="Helvetica"> single pixel efficiency</text>
<path d="M57.1929,326.581v -290.295" fill="none" stroke="black"/>
<path d="M70.7992,326.581h -13.6063" fill="none" stroke="black"/>
<path d="M63.9961,320.182h -6.80315" fill="none" stroke="black"/>
<path d="M63.9961,313.782h -6.80315" fill="none" stroke="black"/>
<path d="M63.9961,307.382h -6.80315" fill="none" stroke="black"/>
<path d="M70.7992,300.982h -13.6063" fill="none" stroke="black"/>
<path d="M63.9961,294.582h -6.80315" fill="none" stroke="black"/>
<path d="M63.9961,288.183h -6.80315" fill="none" stroke="black"/>
<path d="M63.9961,281.783h -6.80315" fill="none" stroke="black"/>
<path d="M70.7992,275.383h -13.6063" fill="none" stroke="black"/>
<path d="M63.9961,268.983h -6.80315" fill="none" stroke="black"/>
<path d="M63.9961,262.583h -6.80315" fill="none" stroke="black"/>
<path d="M63.9961,256.184h -6.80315" fill="none" stroke="black"/>
<path d="M70.7992,249.784h -13.6063" fill="none" stroke="black"/>
<path d="M63.9961,243.384h -6.80315" fill="none" stroke="black"/>
<path d="M63.9961,236.984h -6.80315" fill="none" stroke="black"/>
<path d="M63.9961,230.584h -6.80315" fill="none" stroke="black"/>
<path d="M70.7992,224.185h -13.6063" fill="none" stroke="black"/>
<path d="M63.9961,217.785h -6.80315" fill="none" stroke="black"/>
<path d="M63.9961,211.385h -6.80315" fill="none" stroke="black"/>
<path d="M63.9961,204.985h -6.80315" fill="none" stroke="black"/>
<path d="M70.7992,198.586h -13.6063" fill="none" stroke="black"/>
<path d="M63.9961,192.186h -6.80315" fill="none" stroke="black"/>
<path d="M63.9961,185.786h -6.80315" fill="none" stroke="black"/>
<path d="M63.9961,179.386h -6.80315" fill="none" stroke="black"/>
<path d="M70.7992,172.986h -13.6063" fill="none" stroke="black"/>
<path d="M63.9961,166.587h -6.80315" fill="none" stroke="black"/>
<path d="M63.9961,160.187h -6.80315" fill="none" stroke="black"/>
<path d="M63.9961,153.787h -6.80315" fill="none" stroke="black"/>
<path d="M70.7992,147.387h -13.6063" fill="none" stroke="black"/>
<path d="M63.9961,140.987h -6.80315" fill="none" stroke="black"/>
<path d="M63.9961,134.588h -6.80315" fill="none" stroke="black"/>
<path d="M63.9961,128.188h -6.80315" fill="none" stroke="black"/>
<path d="M70.7992,121.788h -13.6063" fill="none" stroke="black"/>
<path d="M63.9961,115.388h -6.80315" fill="none" stroke="black"/>
<path d="M63.9961,108.988h -6.80315" fill="none" stroke="black"/>
<path d="M63.9961,102.589h -6.80315" fill="none" stroke="black"/>
<path d="M70.7992,96.1889h -13.6063" fill="none" stroke="black"/>
<path d="M63.9961,89.7891h -6.80315" fill="none" stroke="black"/>
<path d="M63.9961,83.3893h -6.80315" fill="none" stroke="black"/>
<path d="M63.9961,76.9895h -6.80315" fill="none" stroke="black"/>
<path d="M70.7992,70.5897h -13.6063" fill="none" stroke="black"/>
<path d="M63.9961,64.1899h -6.80315" fill="none" stroke="black"/>
<path d="M63.9961,57.7901h -6.80315" fill="none" stroke="black"/>
<path d="M63.9961,51.3903h -6.80315" fill="none" stroke="black"/>
<path d="M70.7992,44.9905h -13.6063" fill="none" stroke="black"/>
<path d="M70.7992,44.9905h -13.6063" fill="none" stroke="black"/>
<path d="M63.9961,38.5907h -6.80315" fill="none" stroke="black"/>
<text xml:space="preserve" x="47.8489" y="330.604" fill="black" font-size="12.1517" font-family="Helvetica">0</text>
<text xml:space="preserve" x="41.5636" y="305.044" fill="black" font-size="12.1517" font-family="Helvetica">20</text>
<text xml:space="preserve" x="41.5636" y="279.484" fill="black" font-size="12.1517" font-family="Helvetica">40</text>
<text xml:space="preserve" x="41.5636" y="253.924" fill="black" font-size="12.1517" font-family="Helvetica">60</text>
<text xml:space="preserve" x="41.5636" y="228.364" fill="black" font-size="12.1517" font-family="Helvetica">80</text>
<text xml:space="preserve" x="34.8593" y="202.385" fill="black" font-size="12.1517" font-family="Helvetica">100</text>
<text xml:space="preserve" x="34.8593" y="176.825" fill="black" font-size="12.1517" font-family="Helvetica">120</text>
<text xml:space="preserve" x="34.8593" y="151.265" fill="black" font-size="12.1517" font-family="Helvetica">140</text>
<text xml:space="preserve" x="34.8593" y="125.705" fill="black" font-size="12.1517" font-family="Helvetica">160</text>
<text xml:space="preserve" x="34.8593" y="100.145" fill="black" font-size="12.1517" font-family="Helvetica">180</text>
<text xml:space="preserve" x="34.8593" y="74.5849" fill="black" font-size="12.1517" font-family="Helvetica">200</text>
<text xml:space="preserve" x="34.8593" y="49.0249" fill="black" font-size="12.1517" font-family="Helvetica">220</text>
<g transform="rotate(-90,21.8698,84.2223)">
<text xml:space="preserve" x="21.8698" y="84.2223" fill="black" font-size="12.1517" font-family="Helvetica"> # entries</text>
</g>
<rect x="442.705" y="23.5864" width="113.386" height="58.0589" fill="white"/>
<path d="M442.705,81.6453h 113.386" fill="none" stroke="black"/>
<path d="M556.091,81.6453v -58.0589" fill="none" stroke="black"/>
<path d="M556.091,23.5864h -113.386" fill="none" stroke="black"/>
<path d="M442.705,23.5864v 58.0589" fill="none" stroke="black"/>
<text xml:space="preserve" x="455.133" y="33.9403" fill="black" font-size="12.751" font-family="Helvetica">hPixelEfficiency</text>
<path d="M442.705,38.1012h 113.386" fill="none" stroke="black"/>
<text xml:space="preserve" x="448.009" y="49.8629" fill="black" font-size="12.6197" font-family="Helvetica">Entries </text>
<text xml:space="preserve" x="520.08" y="49.8629" fill="black" font-size="12.6197" font-family="Helvetica"> 3589</text>
<text xml:space="preserve" x="448.009" y="64.1095" fill="black" font-size="12.6197" font-family="Helvetica">Mean  </text>
<text xml:space="preserve" x="510.024" y="64.1095" fill="black" font-size="12.6197" font-family="Helvetica"> 0.8163</text>
<text xml:space="preserve" x="448.009" y="78.7751" fill="black" font-size="12.6197" font-family="Helvetica">Std Dev   </text>
<text xml:space="preserve" x="513.376" y="78.7751" fill="black" font-size="12.6197" font-family="Helvetica">  0.262</text>
<text xml:space="preserve" x="223.417" y="17.5987" fill="black" font-size="17.3606" font-family="Helvetica">hPixelEfficiency</text></svg>
